<?xml version="1.0" standalone="no"?>
<!DOCTYPE svg PUBLIC "-//W3C//DTD SVG 20010904//EN"
 "http://www.w3.org/TR/2001/REC-SVG-20010904/DTD/svg10.dtd">
<svg version="1.0" xmlns="http://www.w3.org/2000/svg"
 width="700.000000pt" height="700.000000pt" viewBox="0 0 700.000000 700.000000"
 preserveAspectRatio="xMidYMid meet">
<metadata>
Created by potrace 1.14, written by Peter Selinger 2001-2017
</metadata>
<g transform="translate(0.000000,700.000000) scale(0.100000,-0.100000)"
fill="#000000" stroke="none">
<path d="M2174 5248 c-4 -6 -9 -134 -12 -285 l-5 -273 264 -1 264 0 200 -215
200 -214 390 0 391 0 203 215 203 215 259 0 259 0 -2 283 -3 282 -261 3 -261
2 -203 -215 -203 -215 -366 0 -367 0 -221 215 -221 215 -251 0 c-179 0 -252
-3 -257 -12z"/>
<path d="M2167 4303 c-4 -54 -7 -180 -7 -280 l0 -183 263 -1 262 0 200 -215
200 -214 392 0 392 0 203 215 203 215 258 0 257 0 0 188 c0 104 -3 230 -6 280
l-7 92 -261 -1 -261 0 -198 -210 -198 -209 -377 0 -377 0 -210 210 -210 210
-256 0 -256 0 -6 -97z"/>
<path d="M2170 3260 l0 -280 263 -1 262 0 195 -210 195 -209 395 0 395 0 198
210 198 210 262 2 262 3 3 218 c1 142 -1 217 -8 217 -6 0 -10 26 -10 60 l0 60
-262 0 -263 0 -198 -210 -198 -210 -377 0 -377 0 -210 210 -210 210 -257 0
-258 0 0 -280z"/>
<path d="M2170 2405 l0 -275 263 -1 262 0 195 -210 195 -209 397 0 396 0 198
210 198 210 263 0 263 0 0 220 c0 140 -4 220 -10 220 -5 0 -10 25 -10 55 l0
55 -263 0 -263 0 -198 -210 -198 -210 -377 0 -376 0 -210 210 -210 210 -257 0
-258 0 0 -275z"/>
</g>
</svg>
