<svg width="13" height="7" viewBox="0 0 13 7" fill="none" xmlns="http://www.w3.org/2000/svg">
<path d="M6.5002 0.0256834C6.63353 0.0256834 6.76286 0.050684 6.8882 0.100684C7.01353 0.150684 7.11753 0.21735 7.2002 0.300684L11.8002 4.90068C11.9835 5.08402 12.0752 5.31735 12.0752 5.60068C12.0752 5.88402 11.9835 6.11735 11.8002 6.30068C11.6169 6.48402 11.3835 6.57568 11.1002 6.57568C10.8169 6.57568 10.5835 6.48402 10.4002 6.30068L6.5002 2.40068L2.6002 6.30068C2.41686 6.48402 2.18353 6.57568 1.9002 6.57568C1.61686 6.57568 1.38353 6.48402 1.2002 6.30068C1.01686 6.11735 0.925195 5.88402 0.925195 5.60068C0.925195 5.31735 1.01686 5.08402 1.2002 4.90068L5.8002 0.300684C5.9002 0.200684 6.00853 0.129683 6.1252 0.0876837C6.24186 0.0456839 6.36686 0.0250168 6.5002 0.0256834Z" fill="#C5C5C5"/>
</svg>
