<svg width="30" height="30" viewBox="0 0 30 30" fill="none" xmlns="http://www.w3.org/2000/svg">
<path d="M27.0691 9.14316C26.9257 8.6104 26.6449 8.12464 26.2547 7.73451C25.8646 7.34438 25.3789 7.06356 24.8461 6.92016C22.8841 6.38916 15.0001 6.38916 15.0001 6.38916C15.0001 6.38916 7.11609 6.38916 5.15409 6.92016C4.62133 7.06356 4.13557 7.34438 3.74544 7.73451C3.35531 8.12464 3.07449 8.6104 2.93109 9.14316C2.56474 11.1441 2.38696 13.175 2.40009 15.2092C2.38696 17.2433 2.56474 19.2742 2.93109 21.2752C3.07449 21.8079 3.35531 22.2937 3.74544 22.6838C4.13557 23.0739 4.62133 23.3548 5.15409 23.4982C7.11609 24.0292 15.0001 24.0292 15.0001 24.0292C15.0001 24.0292 22.8841 24.0292 24.8461 23.4982C25.3789 23.3548 25.8646 23.0739 26.2547 22.6838C26.6449 22.2937 26.9257 21.8079 27.0691 21.2752C27.4354 19.2742 27.6132 17.2433 27.6001 15.2092C27.6132 13.175 27.4354 11.1441 27.0691 9.14316ZM12.4801 18.9892V11.4292L19.0231 15.2092L12.4801 18.9892Z" fill="#101010"/>
</svg>
