<svg width="30" height="30" viewBox="0 0 30 30" fill="none" xmlns="http://www.w3.org/2000/svg">
<path d="M24.3799 4.40918H6.0199C5.1199 4.40918 4.3999 5.12918 4.3999 5.93918V24.3892C4.3999 25.1992 5.1199 25.9192 6.0199 25.9192H24.3799C25.2799 25.9192 25.9999 25.1992 25.9999 24.3892V5.93918C25.9999 5.12918 25.2799 4.40918 24.3799 4.40918ZM10.7899 22.7692H7.6399V12.5092H10.7899V22.7692ZM9.2599 11.0692C8.2699 11.0692 7.3699 10.2592 7.3699 9.17918C7.3699 8.09918 8.1799 7.28918 9.2599 7.28918C10.2499 7.28918 11.1499 8.09918 11.1499 9.17918C11.1499 10.2592 10.2499 11.0692 9.2599 11.0692ZM22.8499 22.6792H19.6999V17.6392C19.6999 16.4692 19.6999 14.8492 17.9899 14.8492C16.2799 14.8492 16.0999 16.1992 16.0999 17.4592V22.5892H12.9499V12.5092H15.9199V13.8592H16.0099C16.4599 13.0492 17.5399 12.1492 19.0699 12.1492C22.3099 12.1492 22.9399 14.3092 22.9399 17.0992V22.6792H22.8499Z" fill="#101010"/>
</svg>
