<svg width="1512" height="1350" viewBox="0 0 1512 1350" fill="none" xmlns="http://www.w3.org/2000/svg">
<path d="M433.583 1349.32C436.706 1349.32 439.837 1349.32 443.246 1349.08C493.879 1347.24 543.652 1332.95 592.012 1319.11C650.035 1302.28 710.054 1285 770.922 1290.53C808.464 1293.76 844.594 1305.74 879.577 1317.27C910.293 1327.42 941.868 1337.79 974.579 1342.63C1064.46 1355.55 1155.76 1325.57 1240.81 1291.22C1265.84 1281.07 1301.11 1264.24 1326.71 1241.42C1353.16 1217.67 1363.4 1192.77 1357.43 1167.41C1351.74 1143.89 1331.26 1124.52 1314.48 1108.84L1174.82 977.431C1147.51 951.607 1119.35 925.088 1085.79 903.188C1028.62 865.378 958.081 843.014 876.159 836.328C803.633 830.33 724.271 837.713 647.19 857.307C477.38 900.425 326.914 992.412 223.949 1116.68L224.522 1117.15L223.662 1116.92C192.66 1170.4 202.332 1228.05 250.969 1279.23C293.066 1322.57 362.184 1349.32 433.583 1349.32ZM747.596 1287.76C694.128 1287.76 641.786 1302.75 590.876 1317.5C542.802 1331.33 493.315 1345.63 442.969 1347.48C369.011 1350.01 295.911 1323.27 252.965 1277.61C205.177 1227.12 195.505 1170.17 225.944 1117.38C328.623 993.565 478.516 901.803 647.763 858.924C724.557 839.323 803.347 832.172 875.596 838.169C956.944 844.855 1027.2 867.22 1084.08 904.573C1117.37 926.473 1145.53 952.993 1172.83 978.584L1312.49 1110C1329.84 1126.14 1349.18 1144.58 1354.86 1167.64C1361.13 1193.23 1354.3 1243.03 1239.67 1289.38C1154.91 1323.73 1063.89 1353.47 974.866 1340.56C942.431 1335.94 910.866 1325.34 880.141 1315.43C845.157 1303.9 808.751 1291.91 770.922 1288.45C763.245 1287.99 755.559 1287.76 747.596 1287.76ZM288.798 1275.54C241.02 1226.89 229.066 1171.56 255.81 1119.68L257.796 1120.38C231.625 1171.56 243.293 1226.2 290.507 1274.39C334.313 1318.88 403.994 1344.48 477.103 1342.86C526.59 1341.71 575.513 1328.57 623.015 1315.89C630.691 1313.81 638.377 1311.74 646.054 1309.89C694.128 1297.21 745.324 1285.45 798.515 1289.61C835.208 1292.6 870.478 1303.44 904.326 1313.81C934.468 1323.04 966.044 1332.72 998.182 1336.64C1073.28 1345.86 1157.18 1328.11 1255.03 1282.22C1288.03 1266.31 1316.19 1245.57 1338.94 1220.43C1364.54 1192.31 1374.78 1165.34 1369.94 1137.89C1365.4 1112.54 1347.76 1091.09 1330.13 1071.27C1301.96 1039.68 1269.26 1016.16 1234.84 991.491C1213.51 976.278 1191.32 960.367 1170.27 942.383C1163.45 936.386 1156.33 930.396 1149.79 924.399C1127.89 905.03 1105.14 884.972 1079.82 867.916C970.598 794.362 812.169 771.774 645.767 806.125L639.8 807.278C613.629 812.578 586.608 818.111 562.71 828.489C550.479 833.79 538.534 839.787 527.163 846.241C507.246 857.074 487.625 868.837 468.567 880.824C427.32 906.879 394.332 931.317 367.588 955.987C341.14 980.89 318.664 1008.32 300.752 1037.6C283.117 1066.42 270.6 1087.63 258.369 1120.61L256.374 1120.14C268.604 1087.18 281.122 1065.73 298.757 1036.92C316.965 1007.4 339.431 979.737 365.888 954.834C392.623 930.164 425.611 905.494 467.144 879.439C486.202 867.452 506.109 855.697 526.017 844.855C537.398 838.402 549.343 832.404 561.573 827.104C586.035 816.726 613.056 811.193 639.227 805.892L645.204 804.739C812.446 770.388 971.448 792.985 1081.24 866.987C1106.55 884.051 1129.59 904.341 1151.49 923.71C1158.32 929.7 1165.15 935.697 1171.97 941.694C1193.03 959.679 1214.93 975.581 1236.26 990.803C1270.96 1015.7 1303.67 1039.21 1331.83 1070.8C1349.75 1090.86 1367.38 1112.54 1371.94 1138.36C1377.05 1166.26 1366.82 1193.69 1340.65 1222.28C1317.89 1247.64 1289.45 1268.62 1256.17 1284.53C1158.04 1330.64 1073.56 1348.4 997.905 1339.17C965.471 1335.26 934.192 1325.57 903.753 1316.35C869.905 1305.97 834.922 1295.36 798.515 1292.37C745.61 1287.99 694.691 1299.98 646.903 1312.43C639.227 1314.5 631.55 1316.58 623.864 1318.43C576.363 1331.11 527.163 1344.25 477.38 1345.4C475.107 1345.4 473.112 1345.4 470.839 1345.4C399.163 1344.7 331.468 1319.11 288.798 1275.54ZM508.382 1340.09C509.241 1340.09 509.805 1340.09 510.664 1340.09C559.865 1339.64 608.225 1327.65 655.153 1316.12C662.266 1314.28 669.379 1312.66 676.493 1310.82C723.707 1299.29 773.767 1288.45 825.25 1292.37C860.52 1294.91 894.367 1304.36 927.078 1313.58C957.231 1322.12 988.796 1330.88 1020.66 1334.1C1074.7 1339.64 1162.02 1333.87 1270.67 1276.46C1299.97 1260.78 1327.28 1236.34 1353.73 1201.53C1379.61 1167.87 1390.13 1137.21 1386.44 1107.24C1383.03 1080.26 1369.09 1057.2 1348.9 1030.69C1321.02 994.262 1283.76 973.507 1244.22 951.607C1219.19 937.539 1193.03 923.014 1168.85 903.877C1157.76 895.117 1146.38 885.436 1135.85 876.444C1117.08 860.301 1097.45 843.702 1076.12 828.945C963.485 751.483 805.342 722.89 642.359 750.33C638.091 751.019 633.823 751.708 629.555 752.404C599.975 757.241 569.536 762.085 543.652 774.768C530.008 781.687 516.918 789.75 504.973 798.518C483.92 813.267 462.59 828.489 442.396 844.167C409.398 869.294 367.874 903.188 337.159 941.23C311.837 972.818 293.066 1011.32 288.235 1041.75C284.53 1065.27 285.39 1078.87 286.526 1098.01C287.099 1104.93 287.376 1112.77 287.662 1122.22H287.376C265.196 1172.02 279.126 1225.05 326.35 1271.85C369.583 1314.73 437.565 1340.09 508.382 1340.09ZM804.196 1289.61C760.113 1289.61 716.88 1299.06 676.206 1308.97C669.093 1310.59 661.98 1312.43 654.866 1314.28C607.938 1325.8 559.588 1337.79 510.95 1338.25C510.091 1338.25 509.528 1338.25 508.668 1338.25C438.415 1338.25 371.006 1313.12 328.05 1270.93C281.408 1224.82 267.755 1172.25 289.371 1123.14L288.235 1122.68H289.658C289.371 1113.22 288.798 1105.39 288.521 1098.24C287.376 1079.34 286.526 1065.5 290.221 1042.22C295.062 1012.01 313.547 973.739 338.858 942.383C369.297 904.573 410.821 870.679 443.819 845.552C464.299 829.874 485.343 814.42 506.396 799.895C518.34 791.135 531.144 783.296 544.798 776.378C570.396 763.927 600.825 758.858 629.841 754.246C634.109 753.557 638.377 752.861 642.636 752.172C805.056 724.739 962.348 753.093 1074.41 830.33C1095.74 845.088 1115.09 861.687 1134.14 877.597C1144.95 886.821 1156.05 896.27 1167.43 905.03C1191.89 924.399 1218.05 938.924 1243.09 952.76C1282.34 974.66 1319.59 995.182 1347.19 1031.38C1367.1 1057.66 1381.04 1080.72 1384.45 1107.24C1388.15 1136.74 1377.9 1167.18 1352.59 1200.15C1326.14 1234.73 1299.4 1258.94 1270.11 1274.39C1162.02 1331.8 1075.27 1337.33 1021.51 1331.8C989.656 1328.57 958.367 1319.81 928.215 1311.27C895.217 1302.05 861.369 1292.6 825.813 1289.83C818.423 1289.83 811.31 1289.61 804.196 1289.61ZM546.497 1335.26C594.858 1335.26 643.208 1324.41 689.573 1313.81C695.541 1312.43 701.231 1311.04 707.208 1309.89C755.846 1299.06 803.633 1289.61 852.843 1292.83C886.691 1295.14 919.115 1303.44 950.681 1311.27C980.833 1318.88 1012.12 1326.95 1044.26 1329.49C1121.63 1335.49 1209.8 1313.35 1286.32 1268.62C1323.58 1246.72 1348.04 1212.14 1367.95 1181.24C1393.27 1142.74 1403.51 1109.54 1400.94 1077.26C1398.11 1043.59 1381.61 1015.01 1365.96 991.724C1338.38 950.687 1296.84 932.47 1252.47 913.333C1223.46 900.65 1193.31 887.742 1165.72 867.22C1151.22 856.386 1137.28 845.088 1122.77 832.869C1106.27 819.264 1089.2 804.972 1071 792.056C954.099 709.75 796.806 675.167 639.513 697.067C634.109 697.763 628.705 698.452 623.301 699.141C589.453 703.521 554.747 708.133 525.74 723.586C510.377 731.882 497.574 741.795 483.643 753.325C461.167 771.766 438.701 790.903 417.084 810.272C378.683 844.167 335.736 884.972 307.856 929.011C281.971 969.816 270.027 1016.63 277.14 1048.21C281.695 1067.81 289.658 1078.64 298.184 1090.4C305.297 1100.08 312.41 1110 318.951 1125.91C301.316 1173.63 317.242 1224.36 363.893 1268.85C407.412 1310.12 475.107 1335.02 544.798 1335.49C545.361 1335.26 545.934 1335.26 546.497 1335.26ZM832.64 1290.53C790.266 1290.53 748.732 1298.82 706.922 1308.28C700.945 1309.67 695.264 1310.82 689.287 1312.2C642.922 1322.81 594.858 1333.64 546.784 1333.64C546.22 1333.64 545.648 1333.64 545.075 1333.64C475.957 1333.18 409.121 1308.51 365.879 1267.7C319.8 1223.67 304.161 1173.4 321.51 1126.14V1125.68C314.969 1109.31 307.57 1099.4 300.466 1089.48C292.216 1077.95 284.253 1067.11 279.699 1047.98C272.586 1016.85 284.53 970.512 310.138 929.932C338.008 886.125 380.678 845.552 419.07 811.658C440.973 792.288 463.449 773.151 485.629 754.943C499.283 743.644 512.087 733.499 527.163 725.428C555.606 710.214 590.303 705.602 623.864 701.222C629.268 700.526 634.673 699.837 640.077 699.141C796.806 677.241 953.24 711.592 1069.87 793.673C1088.07 806.581 1105.14 820.882 1121.63 834.478C1135.57 846.009 1150.07 857.995 1164.58 868.837C1192.45 889.352 1222.61 902.499 1251.9 915.175C1295.71 934.312 1337.23 952.296 1364.54 992.877C1380.19 1016.16 1396.4 1044.52 1399.24 1077.72C1401.8 1109.77 1391.28 1142.51 1366.53 1180.78C1346.62 1211.44 1322.44 1245.8 1285.47 1267.47C1209.53 1311.97 1121.91 1334.1 1045.12 1328.11C1013.26 1325.57 982.256 1317.73 952.104 1310.12C920.538 1302.05 887.827 1293.76 853.693 1291.45C846.293 1290.76 839.466 1290.53 832.64 1290.53ZM584.899 1330.88C631.264 1330.88 677.629 1321.42 722.571 1312.2C727.689 1311.04 732.806 1310.12 737.924 1309.2C787.984 1299.06 833.213 1290.98 880.427 1293.76C912.852 1295.6 944.141 1302.75 974.579 1309.67C1004.73 1316.58 1036.01 1323.49 1067.87 1325.34C1146.38 1329.49 1231.71 1306.21 1301.68 1261.25C1339.8 1236.81 1360.84 1199.22 1381.04 1162.8L1381.89 1161.41C1398.96 1131.44 1418.01 1091.09 1415.74 1047.29C1414.32 1017.31 1404.36 988.032 1383.31 952.528C1356.29 906.879 1310.21 891.201 1261.29 874.602C1228.3 863.304 1194.16 851.774 1162.87 830.33C1145.24 818.344 1129.03 804.739 1111.68 790.679C1097.17 778.684 1082.1 766.465 1066.16 754.943C943.854 666.864 787.421 626.515 636.955 643.811C630.978 644.499 624.724 645.196 618.747 645.885C580.345 649.808 540.243 654.188 508.382 672.629C490.184 683.006 475.957 696.378 463.163 708.365C439.551 730.497 415.662 753.325 392.623 776.378C351.948 816.726 306.156 864.225 279.413 916.56C253.815 966.132 248.983 1021.46 267.182 1054.2C278.563 1074.49 293.353 1083.72 309.279 1093.63C323.219 1102.39 338.008 1111.62 350.812 1129.14C337.722 1175.25 355.643 1223.89 401.722 1265.86C444.955 1305.29 511.227 1329.72 578.922 1331.1C580.918 1330.88 582.913 1330.88 584.899 1330.88ZM861.369 1291.45C820.695 1291.45 780.88 1298.82 737.361 1307.36C732.233 1308.28 727.116 1309.43 721.998 1310.59C675.347 1320.03 626.996 1329.96 578.922 1329.03C511.8 1327.65 446.091 1303.44 403.144 1264.24C357.639 1222.51 339.717 1174.55 352.798 1128.9L351.662 1128.67L352.798 1128.21C339.717 1110.23 324.641 1100.77 310.415 1091.78C294.775 1082.1 279.985 1072.88 268.891 1053.05C250.969 1020.77 255.81 966.132 281.122 917.024C307.856 864.914 353.371 817.423 394.045 777.307C417.084 754.246 440.973 731.425 464.585 709.286C477.103 697.531 491.32 684.159 509.241 674.014C540.816 655.798 580.345 651.65 618.747 647.726C625 647.038 630.978 646.349 636.955 645.652C786.561 628.365 942.431 668.713 1064.46 756.32C1080.39 767.85 1095.47 780.069 1109.97 792.056C1127.32 806.357 1143.82 819.729 1161.45 831.948C1193.03 853.615 1227.16 865.146 1260.44 876.444C1308.79 892.811 1354.59 908.489 1381.32 953.449C1402.09 988.729 1412.04 1017.55 1413.46 1047.29C1415.46 1090.86 1396.68 1130.75 1379.9 1160.72L1379.05 1162.11C1358.85 1198.3 1338.09 1235.65 1300.26 1259.86C1230.57 1304.36 1145.81 1327.65 1067.87 1323.49C1036.3 1321.88 1005.01 1314.73 974.866 1307.82C944.427 1300.91 912.852 1293.76 880.427 1291.91C874.173 1291.45 867.633 1291.45 861.369 1291.45ZM625.573 1326.26C669.093 1326.26 711.476 1318.66 756.132 1310.59L768.363 1308.28C811.023 1300.67 859.097 1291.91 908.021 1294.44C938.736 1296.06 968.889 1302.05 997.619 1307.59C1028.05 1313.58 1059.62 1319.81 1091.2 1320.73C1168.85 1322.81 1253.04 1297.67 1317.04 1253.64C1354.3 1227.82 1372.79 1189.08 1390.71 1151.73C1392.42 1148.27 1394.12 1144.81 1395.83 1141.35C1413.46 1105.39 1431.1 1062.51 1430.53 1017.08C1429.96 983.652 1420.57 950.686 1400.94 913.333C1374.21 863.072 1323.86 849.932 1270.39 835.863C1233.41 826.183 1195.3 816.038 1160.32 793.673C1140.12 780.534 1121.35 765.312 1101.43 749.402C1088.64 739.032 1075.27 728.191 1061.33 718.053C930.773 622.135 779.171 576.951 634.396 590.547C627.846 591.243 621.305 591.7 614.765 592.164C571.246 595.856 526.017 599.539 490.747 621.214C471.126 633.201 455.763 648.879 442.396 662.716C417.371 688.539 392.336 715.051 367.874 741.795C324.068 789.293 275.431 844.856 250.683 903.652C225.944 961.753 228.503 1025.84 256.946 1059.5C274.868 1080.95 297.048 1089.02 320.373 1097.55C341.427 1105.15 363.043 1113.22 382.664 1131.67C374.128 1175.94 394.045 1222.05 439.264 1261.93C482.784 1300.21 545.934 1323.49 612.77 1326.03C617.038 1326.26 621.305 1326.26 625.573 1326.26ZM890.672 1292.37C847.716 1292.37 805.619 1299.98 768.076 1306.66L755.846 1308.97C706.922 1317.73 660.844 1326.26 613.056 1324.41C546.784 1321.88 484.207 1298.82 440.973 1261.01C396.031 1221.59 376.124 1175.7 384.937 1131.91V1131.44L384.66 1131.21C364.743 1112.07 342.84 1104.01 321.223 1096.17C298.184 1087.63 276.291 1079.79 258.656 1058.58C230.776 1025.39 228.217 961.752 252.678 904.341C277.427 845.776 326.064 790.447 369.583 742.948C394.045 716.436 419.07 689.692 444.105 664.101C457.472 650.265 472.549 634.586 492.17 622.832C527.163 601.621 571.818 597.929 615.052 594.238C621.592 593.782 628.132 593.085 634.673 592.629C778.885 579.024 929.924 624.209 1059.91 719.663C1073.56 729.808 1086.93 740.642 1099.73 751.019C1119.64 767.161 1138.41 782.375 1158.89 795.515C1194.16 818.111 1232.56 828.257 1269.53 837.937C1322.44 851.774 1372.5 864.914 1398.67 914.486C1418.3 951.607 1427.69 984.341 1428.25 1017.55C1428.82 1062.51 1411.19 1105.39 1393.84 1141.35C1392.13 1144.81 1390.42 1148.27 1388.71 1151.73C1370.8 1188.85 1352.59 1227.35 1315.61 1252.94C1252.19 1296.75 1168.28 1321.88 1091.48 1319.58C1059.91 1318.66 1028.62 1312.43 998.182 1306.44C969.175 1300.67 939.023 1294.68 908.021 1293.07C902.33 1292.37 896.353 1292.37 890.672 1292.37ZM666.534 1322.12C707.495 1322.12 747.883 1315.65 790.266 1309.2L801.074 1307.59C844.871 1300.67 890.099 1293.76 935.891 1295.6C964.907 1296.75 993.351 1301.59 1020.66 1306.21C1051.37 1311.51 1083.23 1316.81 1115.37 1316.81C1192.74 1316.81 1274.09 1290.53 1332.97 1246.49C1370.23 1218.59 1387.01 1178.01 1403.22 1138.82C1405.5 1133.06 1407.77 1127.52 1410.34 1121.76C1427.11 1082.1 1445.32 1035.76 1445.61 987.111C1445.88 950.222 1437.07 913.333 1418.58 874.37C1392.13 819.729 1337.52 808.663 1279.49 797.133C1238.53 789.061 1196.15 780.534 1157.76 757.016C1134.72 742.948 1113.38 725.885 1090.91 707.676C1079.82 698.916 1068.45 689.692 1056.78 680.932C880.714 549.053 728.825 529.916 632.114 537.059C625.573 537.523 619.033 537.98 612.206 538.444C563.283 541.671 512.65 544.898 473.685 569.8C452.354 583.172 436.429 601.388 422.202 617.299C396.031 646.805 369.583 677.009 343.699 707.444C295.062 764.623 245.279 825.95 222.526 890.969C198.637 958.293 208.872 1030 246.988 1065.27C272.023 1088.1 301.029 1095.02 332.031 1102.16C359.911 1108.61 388.641 1115.3 414.526 1134.9C410.258 1177.32 432.724 1221.36 477.103 1258.94C520.336 1295.36 582.34 1318.19 647.19 1321.65C653.453 1321.88 659.994 1322.12 666.534 1322.12ZM919.679 1293.29C879.291 1293.29 839.19 1299.52 800.501 1305.51L789.693 1307.13C740.769 1314.73 694.691 1322.12 646.903 1319.58C582.627 1316.12 521.186 1293.52 478.516 1257.32C434.147 1219.98 412.244 1176.4 416.512 1134.44H415.375L416.225 1133.75C390.064 1113.69 360.761 1106.77 332.318 1100.32C301.602 1093.17 272.586 1086.48 248.124 1063.88C210.295 1029.08 200.346 958.061 223.949 891.433C246.701 826.639 296.198 765.544 344.835 708.597C370.72 678.162 397.167 647.958 423.338 618.452C437.565 602.542 453.491 584.557 474.534 571.185C512.936 546.747 563.283 543.52 611.92 540.286C618.747 539.829 625.287 539.365 631.827 538.908C727.975 531.758 879.291 550.895 1054.79 682.309C1066.45 691.077 1077.83 700.294 1088.64 709.061C1111.11 727.27 1132.44 744.333 1155.76 758.394C1194.73 782.143 1237.11 790.679 1278.36 798.742C1338.09 810.737 1389.86 820.882 1415.74 874.826C1434.23 913.565 1443.04 950.222 1442.76 986.879C1442.19 1035.07 1424.27 1081.18 1407.49 1120.83C1405.21 1126.37 1402.65 1132.13 1400.38 1137.89C1384.17 1176.86 1367.67 1217.44 1330.69 1244.88C1272.09 1288.68 1191.32 1314.73 1114.52 1314.73C1082.66 1314.73 1052.51 1309.67 1020.37 1304.13C992.778 1299.52 964.621 1294.68 935.328 1293.52C930.487 1293.52 925.083 1293.29 919.679 1293.29ZM708.344 1317.96C746.46 1317.96 784.289 1312.89 823.827 1307.59L835.771 1305.97C877.018 1300.44 919.965 1294.68 962.912 1296.06C989.932 1296.98 1016.68 1300.67 1042.27 1304.13C1074.99 1308.74 1105.99 1312.89 1138.13 1311.97C1216.63 1308.97 1291.15 1282.92 1347.47 1238.65C1385.59 1208.45 1400.67 1165.1 1415.46 1123.37C1418.01 1116.23 1420.57 1108.84 1423.13 1101.7C1442.19 1051.21 1457.84 1005.33 1459.25 956.908C1460.67 915.175 1452.43 874.37 1434.79 835.175C1408.92 775.921 1352.59 767.618 1287.46 758.169C1242.51 751.483 1196.15 744.797 1153.78 720.352C1128.45 705.602 1105.14 687.154 1080.68 667.328C1071 659.721 1061.05 651.65 1051.09 644.043C902.044 530.373 760.113 476.428 628.705 483.803C622.442 484.267 615.901 484.491 609.361 484.724C554.47 487.494 497.86 490.257 455.2 518.386C432.161 533.6 415.375 553.89 400.299 571.874C372.706 605.08 344.835 639.199 317.815 673.093C264.06 739.953 214.277 806.125 192.374 878.061C169.334 954.37 186.969 1033.68 235.33 1070.8C267.182 1095.24 303.588 1100.77 342.276 1106.77C376.974 1112.07 412.817 1117.6 445.241 1138.13C445.528 1178.48 469.703 1220.21 513.786 1255.48C556.742 1290.06 617.324 1312.43 680.188 1316.81C689.86 1317.5 699.245 1317.96 708.344 1317.96ZM948.981 1294.21C910.579 1294.21 872.464 1299.29 835.485 1304.36L823.54 1305.97C774.617 1312.43 728.252 1318.66 681.037 1315.2C618.747 1310.82 558.728 1288.45 516.068 1254.33C472.262 1219.28 448.373 1177.79 448.373 1137.66H447.237L447.8 1136.97C415.089 1116 378.683 1110.46 343.699 1105.15C305.297 1099.4 269.177 1093.63 237.889 1069.65C190.101 1032.99 172.753 954.602 195.505 878.75C217.122 807.046 266.895 741.106 320.66 674.47C347.68 640.584 375.551 606.689 403.144 573.259C417.934 555.507 434.719 535.217 457.472 520.228C499.856 492.331 555.883 489.568 610.497 486.798C617.038 486.565 623.301 486.109 629.841 485.877C760.4 478.502 902.044 532.222 1050.52 645.652C1060.76 653.491 1070.43 661.331 1080.1 668.937C1104.85 688.771 1128.18 707.444 1153.49 722.201C1196.15 746.871 1242.8 753.789 1288.03 760.243C1352.31 769.692 1408.06 777.763 1433.65 836.096C1451.29 875.059 1459.25 915.871 1458.12 957.14C1456.69 1005.33 1440.77 1050.98 1422 1101.24C1419.44 1108.39 1416.59 1115.76 1414.32 1122.91C1399.81 1164.41 1384.73 1207.53 1346.9 1237.5C1290.87 1281.54 1216.92 1307.59 1138.99 1310.35C1106.84 1311.27 1076.12 1306.89 1043.41 1302.51C1017.81 1298.82 991.078 1295.14 963.771 1294.21C958.367 1294.21 953.813 1294.21 948.981 1294.21ZM752.15 1314.05C787.421 1314.05 822.977 1310.12 859.66 1306.21C864.501 1305.74 869.055 1305.05 873.887 1304.59C911.716 1300.44 950.967 1296.06 990.219 1296.98C1015.25 1297.67 1040 1300.21 1063.6 1302.75C1097.17 1306.44 1128.74 1309.89 1161.45 1307.82C1236.55 1303.44 1311.92 1274.62 1362.84 1231.27C1401.23 1198.53 1415.17 1152.65 1428.54 1108.61C1431.38 1099.85 1433.94 1090.63 1437.07 1081.64L1439.06 1075.88C1454.99 1027.69 1471.48 978.119 1474.33 926.705C1476.89 882.209 1469.5 838.169 1452.43 795.979C1426.83 732.114 1366.53 726.117 1296.84 718.974C1247.92 713.898 1197.57 708.829 1151.49 683.462C1122.77 667.784 1096.89 646.805 1069.29 624.674C1061.9 618.908 1054.51 612.687 1046.83 606.922C972.297 549.053 908.87 508.705 847.153 479.879C769.499 443.687 697.536 427.544 626.71 430.539C620.742 430.771 614.479 431.003 608.225 431.236C547.643 433.309 485.066 435.616 438.415 467.204C413.953 483.803 396.031 506.624 380.392 526.689C351.662 563.578 322.369 601.389 293.926 638.966C235.043 716.668 184.697 787.22 164.503 865.61C142.6 950.911 167.635 1037.6 225.658 1076.57C264.336 1102.39 310.138 1107 354.507 1111.38C396.031 1115.53 438.987 1119.68 477.666 1141.12C482.507 1179.86 508.955 1219.28 551.901 1252.25C595.144 1285.45 652.88 1306.89 714.598 1312.43C727.402 1313.58 739.92 1314.05 752.15 1314.05ZM979.124 1295.14C943.577 1295.14 908.021 1299.06 873.887 1302.75C869.055 1303.2 864.501 1303.9 859.66 1304.36C809.887 1309.67 762.959 1314.73 715.171 1310.59C654.017 1305.05 596.844 1283.84 553.897 1250.87C510.95 1217.9 484.779 1178.71 480.225 1140.43H479.089L479.662 1139.74C440.41 1117.84 397.167 1113.69 355.071 1109.54C308.992 1104.93 265.482 1100.55 227.367 1075.18C169.907 1036.68 145.159 950.687 166.776 866.067C186.969 787.908 237.039 717.589 295.911 640.119C324.355 602.542 353.371 564.732 382.378 527.842C398.027 507.777 415.662 485.188 439.837 468.813C485.916 437.457 548.206 435.383 608.511 433.077C614.765 432.845 620.742 432.621 626.996 432.389C697.25 429.618 768.926 445.528 846.016 481.497C907.734 510.315 970.884 550.431 1045.41 608.307C1053.08 614.296 1060.47 620.294 1067.87 626.059C1095.47 648.423 1121.63 669.402 1150.64 685.08C1197.01 710.671 1250.2 715.972 1297.13 720.816C1365.96 727.734 1425.69 733.956 1451.01 796.668C1468.07 838.866 1475.47 882.666 1472.91 926.937C1470.35 977.887 1453.85 1027.69 1437.92 1075.65L1435.94 1081.41C1433.09 1090.4 1430.25 1099.4 1427.4 1108.39C1414.03 1152.42 1400.09 1197.84 1362.26 1230.35C1311.63 1273.46 1237.11 1301.83 1162.3 1306.44C1129.88 1308.28 1098.31 1304.82 1065.03 1301.36C1041.14 1298.82 1016.68 1296.06 991.355 1295.6C986.81 1295.14 982.829 1295.14 979.124 1295.14ZM798.515 1310.35C827.236 1310.35 857.102 1308.28 890.386 1305.51C898.062 1304.82 905.748 1304.13 913.425 1303.44C947.559 1300.44 982.829 1297.45 1018.1 1297.9C1040.28 1298.14 1062.47 1299.98 1083.51 1301.59C1118.51 1304.36 1151.49 1306.89 1185.34 1303.67C1259.01 1296.75 1331.26 1267.01 1378.48 1223.89C1417.44 1188.39 1430.25 1139.74 1442.76 1092.71C1445.32 1082.57 1448.17 1071.96 1451.29 1061.81C1453 1055.59 1454.99 1049.36 1456.98 1042.91C1471.21 995.639 1485.71 946.531 1489.4 896.734C1493.39 849.468 1486.85 802.201 1470.06 756.784C1444.75 688.307 1380.47 684.391 1306.23 679.547C1255.88 676.32 1198.72 672.629 1148.93 646.573C1116.8 629.974 1087.5 606.225 1056.49 581.33C1051.66 577.407 1046.83 573.491 1041.99 569.568C921.674 474.122 780.307 372.671 624.151 376.594C618.747 376.826 613.342 376.827 607.652 377.051C540.816 378.436 471.699 380.053 420.78 415.325C394.609 433.542 376.124 458.668 359.625 480.808C329.473 521.613 299.043 563.114 269.177 604.151C207.45 689.46 154.831 767.161 135.773 852.238C114.73 946.531 147.718 1040.83 215.413 1081.41C260.928 1108.84 314.396 1112.07 366.165 1115.07C414.526 1118.07 464.585 1121.06 509.528 1143.43C518.913 1180.32 547.357 1217.44 589.73 1248.33C634.673 1280.38 689.573 1300.67 748.732 1307.13C765.518 1309.67 782.016 1310.35 798.515 1310.35ZM1009.85 1296.06C977.138 1296.06 944.713 1298.82 913.425 1301.59C905.748 1302.28 898.062 1302.98 890.386 1303.67C838.044 1308.05 794.247 1310.82 749.305 1305.97C690.709 1299.52 636.095 1279.46 591.726 1247.64C549.629 1216.98 521.472 1180.09 512.086 1143.43L510.95 1143.66L511.514 1142.74C466.008 1120.14 415.662 1116.92 367.025 1114.15C313.26 1110.92 262.351 1107.69 217.408 1080.72C150.277 1040.37 117.852 946.995 138.619 853.159C157.39 768.315 210.009 690.845 271.736 605.536C301.602 564.267 332.031 522.766 362.184 482.185C378.396 460.286 396.891 435.383 422.775 417.167C473.112 382.127 541.666 380.742 608.225 379.125C613.629 378.9 619.319 378.9 624.724 378.668C779.734 374.745 920.815 475.964 1040.85 570.953C1045.68 574.877 1050.52 578.792 1055.35 582.483C1086.36 607.61 1115.66 631.359 1148.08 647.958C1198.43 674.246 1255.88 677.929 1306.23 681.164C1379.61 685.768 1443.33 689.924 1468.07 757.016C1484.57 802.201 1491.11 849.235 1487.42 896.27C1484 946.074 1469.21 994.95 1455.27 1042.22C1453.28 1048.44 1451.58 1054.67 1449.59 1061.12C1446.46 1071.27 1443.9 1081.87 1441.05 1092.01C1428.54 1138.82 1415.74 1187.24 1377.34 1222.28C1330.4 1264.94 1258.73 1294.68 1185.63 1301.36C1152.07 1304.36 1119.07 1301.83 1084.37 1299.29C1063.04 1297.67 1041.14 1295.83 1018.66 1295.6C1015.25 1296.06 1012.69 1296.06 1009.85 1296.06ZM849.998 1307.13C873.6 1307.13 897.212 1305.97 921.101 1304.59C932.482 1303.9 944.141 1303.2 955.235 1302.51C984.815 1300.67 1015.25 1298.6 1045.68 1298.6C1064.74 1298.6 1083.51 1299.52 1101.72 1300.44C1138.7 1302.05 1173.4 1303.9 1208.95 1299.29C1281.77 1290.06 1349.46 1259.86 1394.12 1216.52C1433.65 1178.01 1445.61 1126.37 1456.98 1076.57C1459.54 1065.27 1462.38 1053.51 1465.23 1041.98C1468.07 1031.38 1470.92 1020.54 1474.05 1009.71C1486.85 963.362 1499.93 915.175 1504.19 866.763C1509.04 813.267 1503.34 764.623 1487.42 717.821C1462.38 644.732 1394.12 642.89 1315.34 640.352C1261.29 638.734 1199.85 636.893 1146.09 610.148C1110.26 592.629 1078.11 566.109 1043.7 538.212L1037.16 532.911C915.697 434.695 778.035 323.795 625 323.795C623.864 323.795 622.728 323.795 621.592 323.795C617.038 323.795 612.77 323.795 608.225 324.027C534.553 324.716 458.609 325.405 403.431 364.6C375.551 384.433 356.216 411.634 339.145 435.848C307.856 480.112 276.004 525.536 244.715 570.489C180.143 663.404 125.252 747.792 107.33 840.243C97.9445 888.431 101.926 938.924 118.138 982.731C135.487 1029.77 165.639 1065.96 205.464 1087.87C257.796 1116.68 319.237 1118.76 378.11 1120.61C433.297 1122.45 490.183 1124.29 541.666 1147.35C555.883 1182.39 586.608 1217.21 627.569 1245.8C671.938 1276 725.693 1295.83 782.866 1303.44C805.056 1305.97 827.522 1307.13 849.998 1307.13ZM1042.27 1296.75C1012.97 1296.75 983.392 1298.6 954.949 1300.67C943.854 1301.36 932.196 1302.28 920.815 1302.75C874.173 1305.29 828.658 1307.13 783.153 1301.36C726.266 1293.99 673.074 1274.15 628.992 1244.18C588.031 1215.83 557.592 1181.01 543.375 1146.2L542.229 1146.43L542.802 1145.5C491.033 1121.98 433.583 1120.14 378.11 1118.3C316.678 1116.23 258.369 1114.38 206.6 1086.02C167.349 1064.35 137.483 1028.38 120.134 981.811C104.198 938.468 100.217 888.199 109.602 840.243C127.238 748.256 182.138 663.869 246.701 571.185C277.99 526.225 309.565 481.032 341.14 436.768C358.202 412.787 377.26 385.586 404.854 365.985C459.468 327.022 535.126 326.333 608.225 325.869C612.779 325.869 617.038 325.869 621.592 325.637C774.903 324.027 913.425 435.616 1035.45 534.296L1041.99 539.597C1076.41 567.726 1108.83 594.006 1144.67 611.766C1198.99 638.734 1260.44 640.584 1315.05 642.193C1392.98 644.499 1460.4 646.573 1485.14 718.278C1501.07 764.855 1506.48 813.499 1501.92 866.531C1497.65 914.95 1484.57 962.906 1472.06 1009.24C1469.21 1020.08 1466.08 1030.69 1463.24 1041.52C1460.11 1052.82 1457.55 1064.58 1454.99 1076.1C1443.61 1125.68 1431.67 1177.09 1392.42 1215.36C1348.04 1258.48 1281.2 1288.45 1208.67 1297.67C1173.4 1302.06 1138.7 1300.44 1102.01 1298.82C1083.8 1297.9 1064.74 1296.98 1045.68 1296.98C1044.55 1296.75 1043.41 1296.75 1042.27 1296.75ZM908.87 1304.36C922.238 1304.36 936.464 1304.13 951.254 1303.67C967.466 1303.2 983.965 1302.51 1000.18 1301.59C1024.07 1300.44 1048.53 1299.29 1072.99 1299.29C1088.07 1299.29 1102.86 1299.52 1117.08 1299.75C1156.9 1300.44 1194.45 1301.13 1231.99 1294.91C1302.82 1283.15 1367.38 1252.02 1408.92 1208.91C1449.3 1167.18 1460.11 1112.54 1470.92 1059.5C1473.48 1047.29 1476.04 1034.38 1478.88 1021.93C1482.58 1006.25 1486.56 990.338 1490.54 974.892C1501.92 929.932 1513.87 883.13 1518.42 836.784C1524.39 778.916 1519.56 727.27 1504.19 678.858C1479.46 601.389 1407.49 601.388 1324.15 601.156C1266.41 601.156 1200.7 600.924 1142.97 573.491C1103.14 554.586 1065.6 523.455 1032.32 496.022C1022.08 487.718 1012.12 479.191 1001.89 470.887C883.272 372.671 760.677 270.996 619.32 270.539H609.934C533.13 270.307 446.091 269.842 386.082 313.418C356.493 334.861 336.299 364.6 318.664 390.655C285.953 438.61 252.965 487.718 220.254 536.37C165.076 618.676 96.5219 721.048 78.8868 827.568C70.0741 879.671 76.0415 934.312 95.0992 981.114C115.866 1031.61 150.277 1070.57 195.219 1093.4C254.674 1123.6 323.505 1124.29 390.064 1124.99C451.782 1125.68 515.781 1126.14 573.241 1150.11C592.576 1183.78 624.437 1215.6 665.111 1242.34C708.917 1270.7 761.536 1290.06 816.427 1298.6C846.293 1302.98 876.159 1304.36 908.87 1304.36ZM1079.25 1297.45C1077.26 1297.45 1074.99 1297.45 1072.99 1297.45C1048.53 1297.67 1023.78 1298.82 999.891 1299.75C983.965 1300.44 967.18 1301.36 951.254 1301.83C900.907 1303.2 858.811 1302.75 817.286 1296.52C762.386 1288.22 710.34 1268.85 666.82 1240.72C626.146 1214.21 594.571 1182.39 575.227 1148.96L574.664 1149.19L574.941 1148.5C516.918 1124.29 452.355 1123.6 390.064 1122.91C323.792 1122.22 255.237 1121.53 196.355 1091.56C151.986 1068.96 117.575 1030.22 97.0947 980.193C78.037 933.623 72.3464 879.439 80.8823 827.568C98.5173 721.28 167.062 619.141 221.963 536.834C254.664 488.183 287.662 439.075 320.373 391.119C338.858 363.679 358.202 335.55 387.505 314.339C446.664 271.46 533.417 271.692 609.934 271.916H619.32C759.827 272.381 882.136 373.592 1000.46 471.584C1010.7 480.112 1020.94 488.415 1030.89 496.711C1064.18 524.383 1102.01 555.507 1142.11 574.644C1200.13 602.309 1266.13 602.309 1324.15 602.542C1406.63 602.542 1477.75 602.774 1502.21 678.858C1517.56 727.038 1522.12 778.684 1516.43 836.328C1511.88 882.666 1499.93 929.243 1488.55 974.428C1484.57 989.882 1480.59 1006.02 1476.89 1021.46C1474.05 1033.91 1471.48 1046.83 1468.92 1059.05C1458.4 1111.62 1447.31 1166.26 1407.49 1207.53C1366.25 1250.18 1302.25 1281.3 1231.99 1292.83C1194.45 1298.82 1157.18 1298.37 1117.36 1297.67C1104.85 1297.67 1092.05 1297.45 1079.25 1297.45ZM989.369 1302.98C1010.41 1302.98 1032.32 1302.28 1053.37 1301.59C1068.72 1301.13 1084.66 1300.44 1100.58 1300.21C1109.68 1299.98 1118.51 1299.98 1127.6 1299.98C1172.26 1299.52 1214.36 1299.29 1255.88 1290.76C1324.44 1276.92 1385.88 1244.41 1424.55 1201.76C1465.52 1156.8 1475.47 1098.93 1485.42 1042.91C1487.7 1029.53 1490.26 1015.7 1493.11 1002.33C1497.37 981.811 1502.49 960.832 1507.33 940.309C1517.85 896.734 1528.38 851.542 1533.5 806.813C1540.6 744.797 1536.91 690.148 1521.83 639.663C1497.37 557.581 1421.42 559.423 1333.25 561.497C1271.82 563.114 1201.84 564.732 1140.41 536.834C1099.73 518.386 1062.47 488.183 1027.77 458.9C1009.85 443.919 991.355 428.009 973.72 412.787C863.365 317.573 749.305 219.125 616.761 217.043H612.493C528.585 215.666 433.583 214.048 368.724 262.003C337.436 284.832 316.678 316.877 297.907 345.238C263.773 397.341 229.353 450.141 195.792 502.019C135.487 595.159 66.9423 700.758 50.4434 814.885C42.194 870.911 50.157 929.475 72.0601 979.504C95.9585 1033.68 134.924 1074.96 184.984 1098.93C251.256 1130.52 327.773 1130.06 401.722 1129.37C470.276 1128.9 541.38 1128.21 605.379 1153.12C631.264 1186.55 663.975 1215.36 702.94 1239.11C747.033 1266.09 796.806 1284.53 850.848 1293.99C890.949 1300.91 930.773 1302.75 981.969 1303.2C984.251 1302.98 986.81 1302.98 989.369 1302.98ZM1373.07 562.65C1442.48 562.65 1499.08 572.106 1519.27 640.119C1534.06 690.148 1538.04 744.797 1530.94 806.581C1525.81 851.309 1515.29 896.27 1504.77 939.845C1499.93 960.135 1494.81 981.346 1490.54 1001.87C1487.7 1015.24 1485.42 1029.07 1482.86 1042.45C1473.19 1098.24 1462.96 1155.88 1422.28 1200.38C1383.88 1242.8 1322.73 1274.85 1254.74 1288.68C1213.51 1296.98 1171.41 1297.45 1127.03 1297.9C1118.22 1297.9 1109.12 1298.13 1100.01 1298.13C1084.37 1298.37 1068.45 1299.06 1052.8 1299.52C1029.19 1300.44 1004.73 1301.13 981.406 1300.9C930.201 1300.44 890.672 1298.82 850.848 1291.91C797.093 1282.46 747.883 1264.01 703.79 1237.26C665.111 1213.75 632.4 1184.93 606.516 1151.73L606.229 1151.5H605.952C541.38 1126.36 469.99 1126.83 401.158 1127.52C327.486 1128.21 251.256 1128.67 185.547 1097.31C136.06 1073.57 97.3716 1032.53 73.4825 978.808C51.5796 929.011 43.9031 870.911 51.8661 815.117C68.365 701.447 136.633 595.856 196.928 502.94C230.489 451.061 264.909 398.494 299.043 346.159C317.528 318.03 338.295 286.209 369.297 263.389C433.583 216.122 528.012 217.507 611.633 218.893H615.901C747.596 220.966 861.083 319.183 971.161 413.94C988.796 429.162 1007.29 445.064 1025.2 460.053C1060.2 489.336 1097.45 519.539 1138.41 538.212C1200.42 566.341 1270.67 564.732 1332.4 563.114C1346.9 563.114 1360.27 562.65 1373.07 562.65ZM1043.98 1302.98C1069.58 1302.98 1095.74 1302.28 1121.06 1301.36L1128.45 1301.13C1181.36 1299.52 1231.14 1298.14 1279.21 1286.37C1346.34 1270.01 1403.22 1237.26 1439.92 1194.15C1481.44 1145.28 1490.83 1083.94 1499.93 1024.46C1502.21 1010.63 1504.19 996.103 1506.75 982.267C1511.59 956.908 1517.28 931.085 1522.97 906.183C1532.64 863.76 1542.6 819.953 1547.71 776.61C1556.25 709.286 1553.69 653.491 1538.9 600.468C1514.73 513.774 1434.8 517.465 1342.07 521.845C1276.65 524.84 1202.7 528.531 1137.28 499.937C1095.74 481.961 1057.64 451.758 1022.64 421.779C998.755 401.489 974.579 379.589 951.254 358.378C847.439 264.309 740.206 167.246 614.192 163.555C523.745 161.017 421.352 158.022 351.089 210.357C318.101 235.027 296.484 269.386 277.14 299.357C241.584 355.151 206.027 411.634 171.043 467.204C108.189 567.038 36.7899 680.236 21.7137 801.745C14.0372 861.919 23.7092 924.399 49.0209 977.431C76.328 1035.3 119.847 1079.11 174.739 1104.01C248.124 1137.21 332.318 1135.36 413.666 1133.52C489.047 1131.91 566.978 1130.06 636.955 1155.65C666.82 1186.08 701.518 1213.06 740.483 1235.42C784.289 1260.56 832.64 1278.53 884.409 1289.14C920.815 1296.29 960.067 1300.44 1011.84 1302.05C1022.64 1302.75 1033.18 1302.98 1043.98 1302.98ZM1399.24 522.077C1465.52 522.077 1518.13 534.064 1536.91 600.924C1551.7 653.491 1554.54 709.286 1545.73 776.378C1540.32 819.729 1530.37 863.528 1520.98 905.958C1515.29 931.085 1509.6 956.908 1504.77 982.043C1502.21 995.871 1499.93 1010.4 1497.94 1024.23C1488.84 1083.49 1479.46 1144.81 1438.21 1193.23C1401.8 1235.89 1345.2 1268.4 1278.64 1284.76C1230.86 1296.52 1181.08 1297.9 1128.45 1299.29L1121.06 1299.52C1084.93 1300.67 1047.68 1301.59 1012.12 1300.67C960.353 1298.82 921.101 1294.91 884.981 1287.76C833.499 1277.39 785.139 1259.4 741.629 1234.5C702.654 1212.14 667.957 1185.39 638.377 1154.96L637.518 1155.65L638.091 1154.73C567.264 1128.67 489.047 1130.52 413.389 1132.36C332.318 1134.21 248.124 1136.05 175.598 1103.08C120.984 1078.19 77.7505 1034.83 50.7299 977.431C25.6951 924.399 16.0231 862.375 23.7091 802.433C38.7854 681.389 110.175 568.415 172.753 468.581C207.736 413.019 243.579 356.536 278.849 300.742C297.907 270.763 319.524 236.645 352.235 212.207C421.629 160.328 523.745 163.323 613.629 165.861C738.783 169.552 845.73 266.383 948.981 359.995C972.297 381.206 996.759 403.106 1020.66 423.396C1055.93 453.367 1094.32 483.803 1135.85 501.787C1201.84 530.605 1276.07 526.914 1341.78 523.919C1361.98 522.998 1381.04 522.077 1399.24 522.077ZM1102.29 1303.2C1119.93 1303.2 1137.84 1302.75 1155.47 1301.83C1200.7 1299.98 1253.89 1296.06 1302.53 1281.99C1366.82 1263.32 1421.15 1229.43 1454.99 1186.55C1496.8 1133.98 1505.62 1069.19 1514.15 1006.25C1516.15 991.723 1518.13 976.734 1520.69 962.209C1525.81 931.317 1532.92 899.497 1539.46 868.837C1548.29 828.721 1557.1 787.22 1562.79 746.407C1572.75 674.47 1570.47 615.681 1556.25 561.272C1532.36 469.966 1448.44 475.732 1351.17 482.185C1282.05 486.798 1203.84 492.098 1134.43 463.28C1089.78 444.608 1048.53 411.634 1017.81 384.89C989.369 360.22 960.639 332.787 932.769 306.275C834.349 212.431 732.52 115.368 611.633 110.299C526.303 106.84 409.398 101.996 333.74 159.175C299.33 185.23 277.713 220.27 256.66 254.164C220.54 312.961 183.274 373.135 146.582 433.077C81.1591 539.597 7.21033 660.41 -6.72961 789.061C-13.5564 853.159 -2.17529 919.555 25.9816 976.045C56.4204 1037.6 104.485 1083.72 164.503 1109.77C244.715 1144.35 336.586 1141.12 425.611 1138.13C507.819 1135.36 592.576 1132.36 669.093 1158.65C702.367 1186.08 739.06 1210.75 778.598 1231.96C822.118 1255.25 869.332 1272.78 919.392 1284.3C959.79 1293.07 1001.6 1298.82 1043.41 1301.13C1062.47 1302.75 1082.38 1303.2 1102.29 1303.2ZM1421.15 481.032C1485.71 481.032 1536.62 494.869 1553.98 561.961C1568.19 616.146 1570.19 674.703 1560.52 746.639C1554.83 787.444 1546.01 828.945 1537.19 869.069C1530.65 899.729 1523.54 931.549 1518.42 962.441C1515.86 976.966 1513.87 991.956 1511.88 1006.48C1503.34 1068.96 1494.52 1133.75 1453 1185.85C1419.15 1228.27 1365.4 1261.93 1301.68 1280.38C1253.32 1294.44 1200.42 1298.14 1155.2 1300.21C1117.93 1302.05 1080.1 1302.05 1042.84 1299.98C1001.31 1297.67 959.503 1291.91 919.392 1283.15C869.619 1271.85 822.404 1254.33 779.171 1231.04C739.92 1209.83 703.227 1185.16 669.943 1157.73L669.379 1158.19L669.666 1157.5C592.576 1130.75 507.532 1133.75 425.047 1136.51C336.299 1139.74 244.715 1142.74 165.076 1108.39C105.344 1082.57 57.8431 1036.45 27.4043 975.581C-0.466187 919.555 -12.1338 853.391 -5.02051 789.526C8.91943 661.098 82.8682 540.518 148.291 434.23C184.984 374.288 222.24 314.114 258.369 255.317C279.126 221.655 300.752 186.615 334.877 160.792C409.685 104.069 526.017 108.914 611.07 112.373C731.097 117.217 832.64 214.048 930.773 307.653C958.653 334.172 987.374 361.605 1015.82 386.275C1046.83 413.019 1088.07 446.225 1133.29 465.13C1203.26 494.18 1281.77 488.871 1351.17 484.267C1375.63 482.65 1399.24 481.032 1421.15 481.032ZM1140.68 1303.9C1154.91 1303.9 1168.85 1303.44 1182.78 1302.75C1238.25 1299.75 1285.18 1291.45 1325.86 1277.84C1388.15 1256.63 1438.21 1222.51 1470.06 1179.4C1511.88 1123.14 1520.13 1054.67 1528.09 988.264C1529.79 973.275 1531.79 957.597 1534.06 942.615C1539.46 905.958 1547.43 868.373 1555.11 832.172C1563.08 794.362 1571.33 755.167 1577.02 716.668C1588.1 640.119 1586.97 578.56 1573.31 522.534C1549.71 426.623 1461.82 434.23 1359.99 442.99C1287.17 449.22 1204.68 456.362 1131.59 427.088C1094.89 412.33 1057.06 387.428 1012.97 348.233C980.547 319.872 948.408 287.362 917.12 256.014C822.977 161.481 725.98 63.7212 608.788 57.4995C501.555 51.7344 390.914 51.0457 316.105 108.225C279.986 135.89 256.66 174.853 235.893 209.204C197.778 272.613 159.385 336.478 121.557 399.191C53.8616 512.164 -23.2285 640.352 -36.0227 776.842C-42.2863 845.088 -28.9095 915.407 2.09265 974.892C35.9401 1039.91 88.2723 1088.79 153.408 1116C240.448 1152.19 340.281 1147.58 436.705 1143.2C525.74 1139.05 617.61 1134.9 700.381 1162.33C736.788 1186.55 775.476 1209.14 815.291 1229.2C858.247 1250.64 904.039 1267.7 952.104 1280.15C991.355 1289.83 1031.75 1296.98 1072.7 1300.67C1095.47 1302.75 1117.93 1303.9 1140.68 1303.9ZM1441.9 439.763C1461.25 439.763 1479.46 441.148 1495.67 445.072C1536.62 454.753 1560.52 479.423 1571.33 522.766C1584.98 578.56 1586.4 640.119 1575.02 716.436C1569.33 754.943 1561.08 793.906 1553.12 831.716C1545.44 867.916 1537.48 905.494 1532.07 942.383C1529.79 957.597 1527.81 973.051 1526.1 988.032C1518.13 1053.97 1509.88 1122.22 1468.36 1178.24C1436.5 1221.13 1387.01 1255.02 1325 1276C1284.61 1289.61 1237.97 1297.9 1182.5 1300.91C1146.09 1302.98 1109.4 1302.28 1073.28 1299.06C1032.6 1295.14 992.214 1288.22 953.249 1278.53C905.462 1266.09 859.66 1249.03 817 1227.82C777.176 1207.53 738.21 1185.16 702.091 1160.72L701.231 1161.41L701.518 1160.72C618.183 1133.06 526.017 1137.44 436.705 1141.35C340.567 1145.73 241.297 1150.35 154.545 1114.38C89.6951 1087.4 37.9261 1038.99 4.07861 974.204C-26.6371 914.943 -40.2906 844.856 -34.0367 777.074C-21.233 641.04 55.5612 513.085 123.256 400.111C160.808 337.399 199.2 273.534 237.602 210.133C258.083 176.006 281.408 137.275 317.242 109.602C391.486 52.8874 501.842 53.5761 608.225 59.3413C724.271 65.5707 821.268 163.098 914.847 257.159C946.136 288.515 978.274 321.025 1010.7 349.386C1055.35 388.581 1093.18 413.716 1130.16 428.465C1203.84 457.98 1286.61 450.829 1359.71 444.608C1388.71 442.069 1416.59 439.763 1441.9 439.763ZM1173.97 1304.82C1224.59 1304.82 1274.66 1297.67 1320.45 1283.61C1393.55 1261.01 1450.73 1222.28 1485.71 1171.79C1527.52 1111.38 1535.2 1038.99 1542.88 969.359C1544.59 953.913 1546.29 938.235 1548.29 922.782C1553.98 879.903 1563.08 836.328 1571.61 794.362C1592.66 691.998 1614.56 586.167 1590.67 483.571C1567.06 383.048 1475.19 392.505 1368.8 403.338C1292.3 411.177 1205.82 419.937 1128.74 390.423C1047.39 359.067 974.293 281.605 903.753 206.674C813.305 110.531 720.003 11.3861 606.229 4.01138C499.283 -2.90679 378.683 -5.21285 298.47 56.8108C260.355 86.3175 236.18 127.362 215.136 163.787L97.0947 364.832C26.8314 484.724 -52.808 620.526 -64.4661 763.927C-70.1566 836.096 -54.7939 910.338 -20.9465 973.051C16.3096 1041.75 72.9098 1092.93 143.173 1121.3C237.316 1159.11 344.835 1153.12 448.65 1147.58C544.225 1142.27 643.208 1136.97 732.233 1165.1C848.002 1227.12 955.808 1279.92 1103.43 1299.98C1126.75 1303.2 1150.36 1304.82 1173.97 1304.82ZM1460.96 398.262C1478.88 398.262 1495.67 399.647 1510.74 402.874C1553.4 412.563 1578.15 438.154 1588.67 483.339C1612.56 585.71 1590.67 691.302 1569.62 793.673C1560.8 835.863 1551.98 879.439 1546.29 922.325C1544.31 937.771 1542.6 953.681 1540.89 968.895C1533.5 1038.53 1525.53 1110.46 1484 1170.64C1449.3 1220.9 1392.42 1259.17 1319.88 1281.54C1253.32 1302.05 1176.81 1307.82 1104.28 1297.9C956.944 1277.84 849.425 1225.05 733.943 1163.26C644.345 1134.9 545.075 1140.2 449.223 1145.5C345.685 1151.27 238.452 1157.03 144.873 1119.45C75.1918 1091.32 18.5916 1040.6 -18.3877 972.122C-52.2351 909.642 -67.5978 835.631 -61.9072 763.702C-50.5356 620.75 29.1134 484.956 99.3672 365.296L217.408 164.251C238.452 128.051 262.637 87.2384 300.466 57.9638C379.532 -3.3711 499.569 -1.06504 605.952 5.85313C718.866 13.2356 811.882 111.909 901.757 207.594C972.584 282.758 1045.68 360.452 1127.6 392.04C1205.26 421.779 1292.3 413.019 1369.09 405.18C1401.52 401.489 1432.8 398.262 1460.96 398.262Z" fill="#DDCAB1" fill-opacity="0.22"/>
</svg>
