<svg width="1512" height="669" viewBox="0 0 1512 669" fill="none" xmlns="http://www.w3.org/2000/svg">
<path opacity="0.5" fill-rule="evenodd" clip-rule="evenodd" d="M82.6466 669C53.996 634.614 24.766 598.496 0 561.026V557.367C25.2883 596.15 55.5417 633.512 85.161 669H82.6466ZM1512 662.07C1472.71 668.506 1422.84 664.954 1369.28 661.138L1368.97 661.116C1293.98 655.742 1209.41 649.748 1133.52 669H1128.05C1205.62 648.232 1292.55 654.352 1369.25 659.829C1401.64 662.408 1432.9 664.663 1461.03 664.663C1478.93 664.663 1495.7 663.695 1510.76 661.44C1511.18 661.374 1511.59 661.308 1512 661.24V662.07ZM1512 158.578C1505.15 146.662 1496.6 135.131 1485.75 124.165C1450.8 88.883 1393.69 61.8199 1320.67 46.0309C1287.41 38.8893 1251.9 34.2991 1215.57 32.3244C1211.31 31.2865 1207.04 30.2977 1202.76 29.3585C1172.52 21.2942 1143.63 15.3011 1115.92 11.3461C1069.34 3.54026 1022.05 0.0761136 975.144 4.79022C942.466 8.16974 910.923 15.4208 880.239 22.5096L879.35 22.7146C870.604 24.731 861.786 26.764 852.892 28.7127C843.596 28.2922 834.528 27.9505 825.625 27.7136C809.984 26.6449 794.505 25.7404 779.12 25.225C764.641 24.0708 750.294 23.1258 735.973 22.5701C721.102 21.2539 706.344 20.198 691.576 19.6169C678.492 18.3809 665.46 17.4025 652.386 16.8206C638.311 15.3569 624.173 14.2078 610.011 13.5673C597.786 12.2656 585.504 11.2387 573.199 10.6153C562.288 9.34848 551.321 8.31271 540.306 7.60432C521.881 5.24519 503.308 3.55604 484.647 2.99765C471.284 1.58682 457.849 0.624062 444.353 0.280701C440.948 0.118469 437.819 0.118408 434.7 0.118408C363.373 0.118408 294.326 18.8057 252.272 49.0914C211.034 79.4453 197.836 113.052 213.723 145.374C190.074 148.612 166.952 153.164 144.586 159.447C85.6471 176.087 36.3317 203.971 0 240.904V244.157C36.3666 206.135 86.5071 177.613 146.284 160.734C168.324 154.543 191.122 150.036 214.451 146.816C214.993 147.861 215.566 148.904 216.169 149.946C195.179 153.089 174.662 157.377 154.811 163.151C89.7415 182.163 37.4626 216.314 3.64966 261.746C2.40461 263.417 1.18801 265.1 0 266.795V270.197C1.8088 267.512 3.68693 264.854 5.63367 262.227C39.4465 216.958 91.1627 183.13 155.946 164.281C175.678 158.559 196.058 154.306 216.902 151.187C217.719 152.541 218.587 153.893 219.507 155.241C201.187 158.267 183.267 162.265 165.894 167.504C105.937 185.704 57.922 217.926 27.5142 260.94C14.9644 278.551 5.75066 297.54 0 317.15V322.775C5.57199 301.254 15.3176 280.412 28.9354 261.264C59.3433 218.731 106.796 186.51 166.467 168.466C183.85 163.222 201.802 159.223 220.17 156.2C221.069 157.481 222.014 158.76 223.007 160.035C206.994 162.958 191.325 166.715 176.119 171.527C121.284 188.927 77.8092 219.537 50.53 259.972C25.2443 297.028 15.582 340.685 23.2507 382.732C38.2794 467.455 109.335 546.395 172.027 616.044L172.428 616.49L172.928 617.046C188.432 634.272 204.049 651.623 219.728 669H222.405C206.227 651.113 190.092 633.253 174.135 615.528L172.39 613.58C110.301 544.302 40.1649 466.044 25.2441 382.25C17.5659 340.366 27.228 297.028 52.2372 259.972C79.2303 219.861 122.419 189.57 176.978 172.175C192.045 167.384 207.617 163.645 223.559 160.739C224.027 161.329 224.505 161.918 224.993 162.507L225.852 162.345L225.279 162.67C225.936 163.224 226.594 163.777 227.255 164.33C213.279 167.132 199.611 170.654 186.354 175.074C136.345 191.825 97.4198 220.667 73.5457 258.523C51.665 293.48 43.7101 334.402 51.951 373.55C68.3837 453.057 136.498 526.64 196.609 591.578L197.151 592.163C220.667 617.589 244.605 643.331 268.57 669H270.373C246.185 643.084 222.02 617.182 198.286 591.52C138.052 526.596 69.8544 452.814 53.3723 373.388C45.4175 334.402 53.0862 293.805 74.9668 259.01C98.8313 221.473 137.48 192.793 186.917 176.204C200.365 171.715 214.255 168.159 228.474 165.347C229.836 166.479 231.205 167.608 232.583 168.733C220.279 171.443 208.248 174.794 196.579 178.94C151.683 194.891 117.307 222.116 96.5613 257.398C77.5231 290.101 71.5616 328.281 80.3655 364.688C97.9825 439.118 166.467 510.65 221.588 568.161L227.17 573.968C257.698 605.728 288.439 637.71 318.945 669H320.968C289.215 636.433 257.194 603.112 225.441 570.069L223.295 567.836L222.035 566.515C167.407 509.234 99.8413 438.388 82.359 364.688C73.8318 328.443 79.5166 290.582 98.5548 258.042C119.014 223.084 153.39 196.016 197.714 180.227C209.481 176.037 221.635 172.667 234.081 169.951C235.381 171.006 236.689 172.057 238.004 173.105C227.324 175.732 216.9 178.921 206.813 182.806C167.029 198.114 136.908 223.403 119.577 256.268C103.381 286.878 99.4037 322.16 108.78 355.831C126.683 420.431 181.518 479.396 246.025 544.32C277.282 575.731 309.101 607.471 340.358 638.4C350.406 648.369 361.239 659.062 374.141 669H376.967C364.181 659.225 353.431 648.653 343.41 638.798L342.351 637.757C310.808 606.828 279.266 575.25 248.009 543.834C183.512 479.072 128.667 420.106 111.05 355.831C101.674 322.322 105.651 287.197 121.57 256.912C138.901 224.371 168.737 199.238 207.948 184.093C218.23 180.154 228.77 176.947 239.541 174.326C241.062 175.529 242.592 176.728 244.131 177.922C234.751 180.495 225.601 183.585 216.752 187.316C149.126 215.671 116.172 281.563 137.194 347.45C156.232 406.896 208.797 461.19 270.462 520.799C300.297 549.473 330.695 578.472 360.817 606.984L361.725 607.836C377.978 623.096 396.244 640.245 421.909 652.74C436.9 660.003 453.469 665.224 471.093 669H479.638C459.53 665.187 440.701 659.632 423.903 651.453C398.045 638.725 379.569 621.324 363.373 606.022C333.252 577.667 302.854 548.668 273.018 519.831C211.354 460.222 158.788 406.091 140.036 346.806C119.291 281.239 151.683 215.995 218.746 187.802C227.329 184.198 236.131 181.201 245.129 178.695C246.562 179.802 248.004 180.906 249.454 182.005C241.751 184.446 234.243 187.312 226.987 190.701C169.023 217.926 144.014 278.503 165.894 338.106C186.068 392.881 236.363 442.178 295.185 496.472C323.599 522.729 352.862 549.149 381.563 574.925C397.186 588.946 415.089 604.892 439.526 616.49C486.13 638.562 548.643 640.174 609.163 641.623C615.411 641.785 621.668 641.947 627.629 642.11C698.384 644.202 770.273 632.923 847.847 607.633C909.502 587.491 972.864 559.298 1047.32 518.863C1051.9 516.459 1056.37 513.942 1060.81 511.447C1063.8 509.76 1066.78 508.084 1069.76 506.459L1072.07 505.163C1098.78 490.177 1123.99 476.029 1151.88 465.381C1197.57 447.788 1247.46 444.168 1295.99 440.646L1297.08 440.567L1297.7 440.523C1367.05 435.551 1427.01 431.253 1452.5 386.76C1469.56 357.28 1476.94 326.508 1474.38 295.416C1471.56 259.73 1455.29 225.314 1439.47 191.855L1439.15 191.182L1437.16 187.159C1435.29 183.385 1433.61 179.554 1431.96 175.769C1430.86 173.251 1429.77 170.754 1428.64 168.309C1415.28 137.537 1401.36 105.478 1363.01 82.5998C1345.81 72.3597 1325.81 63.2799 1303.99 55.6281C1331.9 64.6054 1357.05 75.8861 1377.49 88.883C1415.65 113.242 1428.5 146.846 1440.94 179.387L1441.14 179.908C1442.19 182.531 1443.21 185.198 1444.22 187.876C1445.95 192.435 1447.7 197.028 1449.67 201.493C1450.52 203.435 1451.33 205.347 1452.12 207.242C1453.17 209.75 1454.21 212.227 1455.34 214.703C1455.78 215.732 1456.21 216.763 1456.65 217.794C1470.18 249.86 1484.15 282.967 1487.46 316.683C1491.15 349.548 1484.62 382.413 1468.14 413.985C1443.41 460.866 1379.76 463.769 1306.45 466.987L1306.4 466.989C1256.12 469.249 1198.75 471.827 1148.47 490.189C1116.08 501.787 1086.81 518.382 1055.84 535.939C1051.01 538.518 1046.18 541.255 1041.35 543.996C949.795 594.672 845.987 647.884 733.087 669H740.562C851.198 646.936 952.708 594.779 1042.48 544.964C1047.32 542.222 1052.15 539.486 1056.97 536.745L1059.23 535.479C1089.38 518.547 1118 502.474 1149.32 491.157C1199.05 472.951 1256.16 470.372 1306.45 468.117L1307.37 468.075C1381.15 464.708 1444.94 461.798 1470.12 414.147C1486.89 382.413 1493.42 349.385 1489.44 316.358C1485.75 281.563 1471.26 247.249 1457.05 214.222C1456.62 213.238 1456.19 212.261 1455.75 211.29C1454.21 207.813 1452.7 204.411 1451.37 201.012C1448.25 193.923 1445.41 186.51 1442.85 179.421L1442.67 178.952C1430.22 146.233 1417.37 112.448 1378.63 87.7583C1356.33 73.5139 1328.44 61.3592 1297.45 51.9914C1334.42 62.2225 1367.16 76.4649 1392.55 93.717C1431.77 120.461 1443.7 156.386 1455.07 191.025L1455.63 192.785C1458 200.271 1460.41 207.87 1463.31 215.19C1464.74 219.013 1466.25 222.795 1467.75 226.579C1469.23 230.286 1470.71 233.994 1472.11 237.743L1472.64 239.098C1484.98 271.056 1497.74 304.101 1501.95 337.463C1506.5 374.518 1501.1 408.508 1485.18 441.054C1460.47 491.157 1393.12 492.606 1315.27 494.217C1260.71 495.342 1199.33 496.634 1145.06 515.478C1109.26 527.888 1076.87 546.251 1042.48 565.906L1035.95 569.61C974.847 604.173 909.603 641.003 840.432 669H844.531C912.849 641.098 977.259 604.74 1037.66 570.578L1044.19 566.874C1045.46 566.156 1046.72 565.44 1047.98 564.726C1080.94 546.025 1112 528.4 1146.48 516.608C1200.19 497.921 1261.56 496.634 1315.55 495.504L1316.71 495.478C1394.92 493.717 1462.57 492.193 1487.46 441.373C1503.37 408.67 1509.05 374.68 1504.22 337.3C1499.95 303.473 1486.89 269.802 1474.11 237.419C1471.52 231.159 1469.13 224.899 1466.77 218.728C1466.28 217.437 1465.79 216.149 1465.29 214.865C1462.45 206.809 1459.61 198.595 1457.05 190.701C1445.69 155.9 1433.75 119.818 1394.25 92.9113C1375.55 80.2122 1352.8 69.1275 1327.32 60.0608C1358.68 70.405 1386.21 83.7129 1407.62 99.1945C1447.39 128.031 1458.47 166.211 1468.98 202.942C1469.67 205.245 1470.36 207.583 1471.06 209.94C1472.94 216.324 1474.87 222.851 1476.94 229.205C1480.64 239.998 1484.62 251.272 1488.59 262.07L1489.64 264.967C1497.95 288.041 1506.43 311.614 1512 335.244V326.904C1506.36 305.353 1498.59 283.891 1491.03 262.988L1490.58 261.746C1486.6 250.953 1482.62 239.836 1478.93 228.881C1476.86 222.546 1474.95 216.042 1473.07 209.677C1472.37 207.301 1471.67 204.945 1470.98 202.623L1470.65 201.503C1459.96 164.799 1448.98 127.094 1409.04 98.2266C1385.28 80.9772 1353.98 66.4742 1318.27 55.6851C1360.1 67.4066 1396.44 84.1413 1422.39 104.191C1463.02 135.282 1473.25 175.555 1482.91 214.541C1483.83 217.901 1484.71 221.301 1485.6 224.713C1487.17 230.794 1488.76 236.911 1490.58 242.896C1494.52 256.138 1499.18 269.79 1503.68 282.967C1504.05 284.059 1504.42 285.149 1504.79 286.235C1507.22 293.26 1509.64 300.336 1512 307.451V299.508C1510.46 294.954 1508.9 290.42 1507.35 285.91C1506.39 283.066 1505.42 280.208 1504.45 277.343C1500.52 265.767 1496.55 254.068 1493.14 242.577C1490.3 233.234 1487.74 223.565 1485.47 214.222L1485.18 213.112C1475.34 174.311 1465.19 134.342 1424.66 103.223C1395.48 80.7132 1353.33 62.247 1304.94 50.3911C1360.11 62.8447 1406.78 83.3508 1438.3 109.182C1479.47 142.982 1488.86 185.785 1497.94 227.151L1497.97 227.269C1499.95 236.938 1502.23 247.087 1504.79 256.749C1507.04 264.922 1509.47 273.2 1512 281.484V274.848C1510.18 268.751 1508.43 262.653 1506.77 256.593C1505.17 250.521 1503.79 244.259 1502.42 238.046C1501.61 234.366 1500.8 230.703 1499.95 227.107C1490.86 185.547 1481.49 142.69 1440.01 108.538C1405.47 80.1519 1353.01 58.1997 1290.96 46.1926C1294.63 46.8512 1298.29 47.548 1301.91 48.2858C1365.56 61.1765 1419.26 84.6978 1453.07 114.34C1494.52 150.716 1503.35 195.94 1511.88 239.564L1511.9 239.673C1511.93 239.85 1511.97 240.026 1512 240.202V228.767C1503.93 188.333 1493.34 147.509 1455.07 113.853C1421.26 83.8922 1366.98 60.2087 1302.76 47.1611C1282.82 43.1265 1262.11 40.2869 1241.5 38.2517C1240.61 38.0308 1239.72 37.8121 1238.82 37.5957C1270.66 40.6435 1299.23 45.2261 1325.21 51.3462C1387.16 66.0051 1436.59 89.6887 1468.42 119.655C1491.07 141.027 1503.81 164.943 1512 189.752V183.547C1503.73 160.665 1491.19 138.672 1470.12 118.85C1438.3 88.7208 1388.29 64.8804 1326.06 50.0593C1297.29 43.3269 1265.37 38.4524 1229.51 35.4377C1227.91 35.0813 1226.3 34.732 1224.69 34.3899C1257.67 36.5884 1289.91 40.9721 1320.09 47.4801C1392.55 63.1069 1449.38 89.8509 1484.05 124.971C1495.81 136.892 1504.88 149.473 1512 162.492V158.578ZM1211.44 31.7582C1211.57 31.7823 1211.7 31.8064 1211.83 31.8305C1208.79 30.986 1205.77 30.162 1202.76 29.3585C1201.21 29.0206 1199.67 28.6891 1198.12 28.364C1184.58 24.9448 1171.51 22.0894 1158.92 19.7233C1144.68 16.5911 1130.33 13.7609 1115.92 11.3461C1099.53 9.00627 1083.54 7.37976 1067.94 6.45971C1037.09 3.56137 1006.14 3.12287 975.43 6.23938C945.049 9.26119 915.431 15.9626 886.552 22.4967C884.632 22.9311 882.715 23.3648 880.802 23.7966C873.314 25.5227 865.761 27.2635 858.143 28.9572C863.012 29.1902 867.945 29.443 872.952 29.7121C872.789 29.7443 872.626 29.7764 872.463 29.8086C873.65 29.8304 874.837 29.8538 876.024 29.8786C877.471 29.9578 878.924 30.0382 880.384 30.1198C880.593 30.077 880.801 30.0342 881.01 29.9913C887.136 30.1395 893.271 30.3234 899.418 30.5317C908.94 28.782 918.362 26.929 927.691 25.0889C957.813 19.1247 989.346 13.0038 1021.18 10.749C1046.29 8.95008 1078.61 8.86033 1116.92 13.3197C1121.84 14.0358 1126.8 14.8165 1131.8 15.6618C1128.95 15.1229 1126.1 14.5987 1123.24 14.0901C1134.64 15.5418 1146.54 17.3959 1158.92 19.7233C1165.97 21.2736 1173 22.8979 1179.99 24.5823C1183.99 25.3823 1187.98 26.2234 1191.96 27.1052C1194.02 27.5134 1196.07 27.933 1198.12 28.364C1200.48 28.9594 1202.85 29.5719 1205.24 30.2018C1207.31 30.7097 1209.38 31.2285 1211.44 31.7582ZM1154.63 21.0009C1117.46 15.1837 1080.42 13.038 1045.61 14.9396C1013.89 16.7074 983.013 22.1553 952.983 27.4544L952.691 27.5059C944.914 28.8969 937.067 30.2974 929.146 31.6423C935.514 31.7109 942.029 31.8125 948.663 31.9481C957.35 30.6539 965.964 29.2845 974.51 27.9257L975.144 27.825C1005.27 22.9909 1036.51 18.1623 1068.34 16.8699C1096.56 15.8269 1125.67 17.2664 1154.63 21.0009ZM923.531 31.4486C931.676 30.1074 939.755 28.7024 947.778 27.3072C948.943 27.1046 950.107 26.9022 951.27 26.7002L953.98 26.2217C983.265 21.0505 1013.61 15.6921 1044.75 13.9717C1075.41 12.3094 1107.77 13.7407 1140.43 18.0238C1092.08 10.4524 1051.94 10.207 1022.02 12.3604C990.205 14.6151 958.948 20.7361 928.826 26.7002C921.761 28.0816 914.657 29.4702 907.506 30.8186C912.234 30.9933 916.972 31.1794 921.721 31.372C922.323 31.3975 922.927 31.423 923.531 31.4486ZM875.427 31.126C872.869 30.9851 870.331 30.8482 867.811 30.7158C867.665 30.7439 867.518 30.7721 867.372 30.8001C867.404 30.8029 867.436 30.8056 867.468 30.8083C868.871 30.9288 870.273 31.0493 871.691 31.1614C869.775 31.1278 867.86 31.0982 865.946 31.0727C864.841 31.283 863.735 31.4914 862.628 31.6977C861.872 31.6399 861.111 31.585 860.342 31.5343L859.33 31.4588C857.13 31.2946 854.935 31.1309 852.746 30.9682C851.482 30.9654 850.218 30.9648 848.954 30.9665C848.299 31.1072 847.642 31.2474 846.986 31.3871C850.826 31.7441 854.68 32.0989 858.546 32.4471C858.273 32.4966 858 32.5459 857.726 32.595C858.273 32.5698 858.82 32.5452 859.367 32.521C861.415 32.7049 863.466 32.8869 865.52 33.0664C866.882 32.8069 868.242 32.5446 869.6 32.2798C869.173 32.2439 868.747 32.2077 868.322 32.1712C869.056 32.1462 869.791 32.122 870.527 32.0985C871.782 31.8524 873.036 31.6041 874.288 31.354C874.377 31.36 874.465 31.366 874.554 31.372L876.161 31.4952C877.615 31.6068 879.073 31.7186 880.531 31.8303C882.35 31.7903 884.176 31.7547 886.009 31.7234C883.482 31.5776 880.974 31.4349 878.484 31.2957C877.305 31.2698 876.126 31.2452 874.948 31.222C875.108 31.19 875.267 31.158 875.427 31.126ZM881.323 33.1707C877.641 33.2561 873.991 33.3602 870.366 33.4845C873.045 33.7124 875.728 33.9353 878.416 34.1518C880.1 33.884 881.782 33.6105 883.46 33.3319C882.747 33.2782 882.034 33.2245 881.323 33.1707ZM890.705 33.8734C889.05 34.1611 887.392 34.4446 885.732 34.7236C887.449 34.8535 889.168 34.9802 890.888 35.1036C893.851 34.9017 896.831 34.7139 899.834 34.5391C896.783 34.3208 893.739 34.0983 890.705 33.8734ZM882.763 35.6967C882.099 35.6452 881.437 35.5932 880.774 35.5408C879.394 35.7638 878.012 35.9832 876.627 36.1987C878.666 36.0239 880.711 35.8566 882.763 35.6967ZM867.972 35.7279C869.772 35.4716 871.568 35.2075 873.361 34.9363C869.297 34.5955 865.244 34.241 861.201 33.8773C861.276 33.8634 861.351 33.8495 861.426 33.8356C861.273 33.8424 861.119 33.8493 860.966 33.8562C858.685 33.6507 856.407 33.4423 854.133 33.2318C852.362 33.5409 850.588 33.8436 848.811 34.1391C849.603 34.2113 850.396 34.2827 851.189 34.3535C849.225 34.4654 847.266 34.5845 845.312 34.7109C844.568 34.8303 843.824 34.9483 843.079 35.065C842.658 35.0253 842.238 34.9854 841.817 34.9454C838.162 35.1993 834.522 35.4799 830.893 35.7889C832.433 35.9283 833.976 36.0641 835.523 36.1961C833.844 36.4355 832.162 36.6671 830.477 36.8903C828.536 36.7146 826.601 36.5336 824.672 36.3476C822.45 36.5577 820.23 36.779 818.012 37.0117C817.984 37.0146 817.957 37.0175 817.93 37.0203C817.28 37.1318 816.63 37.2421 815.979 37.3514C818.213 37.5318 820.444 37.7015 822.673 37.8596C820.471 38.1144 818.264 38.3536 816.052 38.5757C814.387 38.4415 812.721 38.3013 811.053 38.1556C808.851 38.5047 806.644 38.8404 804.432 39.1613C805.493 39.2226 806.553 39.2809 807.615 39.3362C804.838 39.5572 802.053 39.7493 799.26 39.91C799.14 39.917 799.02 39.9238 798.901 39.9306C798.775 39.9474 798.649 39.9641 798.523 39.9808C798.445 39.9755 798.367 39.9703 798.289 39.965C796.519 40.0628 794.753 40.1479 792.988 40.2206C792.758 40.2554 792.528 40.2903 792.298 40.3253C793.301 40.3514 794.304 40.3742 795.309 40.3938C792.221 40.7792 789.124 41.1326 786.017 41.4504C785.804 41.4418 785.591 41.433 785.378 41.4242C784.928 41.4984 784.479 41.5732 784.03 41.6486C780.986 41.9446 777.932 42.2058 774.869 42.4289C776.411 42.4369 777.956 42.4367 779.502 42.428C738.956 49.5807 700.851 61.0095 667.699 75.9976C627.066 94.5227 595.524 116.757 576.199 140.116L575.636 139.954L575.913 140.435C571.486 141.727 567.022 142.924 562.523 144.031C567.236 144.038 571.945 144.022 576.649 143.982C586.681 142.098 596.583 139.863 606.321 137.213C632.179 113.853 664.857 93.717 703.782 77.1224C742.885 60.3889 786.46 48.3557 833.52 41.2421C831.197 41.4085 828.867 41.5561 826.529 41.6835C822.803 41.6835 819.147 41.7235 815.526 41.7631C811.973 41.8019 808.454 41.8404 804.935 41.8404C803.214 41.8404 801.495 41.8303 799.776 41.8105C804.295 41.5461 808.793 41.1988 813.269 40.7794C811.08 40.6904 808.894 40.5878 806.709 40.4724C810.722 40.4482 814.744 40.3679 818.776 40.2267C819.803 40.1169 820.829 40.0034 821.854 39.8865C822.931 39.9132 824.009 39.9363 825.087 39.9558C825.38 39.9409 825.673 39.9256 825.966 39.91C827.666 39.8245 829.363 39.7277 831.056 39.6202C829.526 39.5315 827.995 39.4371 826.464 39.3371C828.597 39.072 830.725 38.7927 832.848 38.5004C835.508 38.6459 838.166 38.7737 840.825 38.8824C843.023 38.6907 845.215 38.4826 847.402 38.2593C844.583 38.0603 841.774 37.8465 838.975 37.6198C840.607 37.3757 842.235 37.1246 843.861 36.867C847.18 37.1171 850.514 37.3475 853.86 37.5551C856.311 37.2713 858.756 36.9697 861.194 36.6523C857.663 36.3696 854.138 36.0702 850.62 35.7571C852.479 35.4416 854.333 35.1186 856.184 34.7888C860.105 35.1224 864.035 35.4368 867.972 35.7279ZM845.595 40.9933C848.454 40.8926 851.37 40.7495 854.381 40.5535C854.699 40.5384 855.018 40.523 855.336 40.5072C857.572 40.5378 859.809 40.5535 862.05 40.5535C868.307 40.5535 874.84 40.5535 881.088 40.229C883.392 40.1375 885.692 40.0271 887.988 39.8994C889.099 39.9065 890.21 39.91 891.322 39.91C895.798 39.91 900.457 39.91 905.015 39.6714C898.236 40.436 891.605 41.2665 885.065 42.1649C833.349 49.5781 785.048 62.139 741.286 79.7016C702.361 95.3284 667.699 114.178 637.864 135.444C624.714 138.808 611.284 141.493 597.642 143.629C592.928 143.749 588.205 143.841 583.475 143.906C591.368 142.287 599.179 140.443 606.893 138.343H607.17L607.456 138.18C633.314 114.984 665.992 94.8472 704.631 78.4147C747.048 60.419 794.207 47.7988 845.595 40.9933ZM568.278 145.469C564.367 145.478 560.453 145.47 556.537 145.449C555.529 145.678 554.52 145.903 553.509 146.124C557.569 146.07 561.624 145.995 565.673 145.899C566.542 145.758 567.41 145.615 568.278 145.469ZM574.451 145.654C574.849 145.582 575.248 145.508 575.645 145.434C577.921 145.418 580.195 145.395 582.468 145.367C579.799 145.473 577.127 145.569 574.451 145.654ZM556.481 147.293C553.465 147.34 550.446 147.376 547.425 147.402C545.71 147.747 543.992 148.081 542.269 148.404C544.925 148.326 547.579 148.238 550.23 148.14C552.318 147.87 554.402 147.588 556.481 147.293ZM563.122 147.574C564.098 147.421 565.074 147.265 566.049 147.106C568.256 147.054 570.461 146.995 572.664 146.93C571.915 147.011 571.165 147.092 570.415 147.171C567.987 147.316 565.556 147.45 563.122 147.574ZM537.574 149.624C536.742 149.645 535.91 149.666 535.078 149.686C534.264 149.823 533.449 149.959 532.633 150.092C532.876 150.079 533.12 150.067 533.363 150.054C534.768 149.915 536.172 149.772 537.574 149.624ZM518.787 150.704C520.74 150.443 522.689 150.17 524.635 149.885C521.604 149.93 518.57 149.964 515.535 149.988C513.971 150.324 512.402 150.65 510.83 150.965C513.485 150.889 516.137 150.802 518.787 150.704ZM505.33 152.025C506.487 151.997 507.644 151.968 508.801 151.937C508.354 151.988 507.907 152.038 507.461 152.088C506.254 152.16 505.046 152.23 503.838 152.297C504.336 152.208 504.833 152.117 505.33 152.025ZM500.734 151.211C502.909 150.836 505.077 150.442 507.24 150.03C502.969 150.04 498.695 150.032 494.421 150.01C492.635 150.487 490.844 150.947 489.048 151.391C492.946 151.348 496.842 151.289 500.734 151.211ZM485.116 152.333C488.263 152.309 491.408 152.275 494.553 152.229C492.925 152.485 491.294 152.731 489.661 152.968C486.758 153.082 483.853 153.183 480.947 153.273C482.339 152.969 483.729 152.656 485.116 152.333ZM484.834 151.43C486.784 150.969 488.728 150.487 490.664 149.986C484.417 149.941 478.168 149.865 471.924 149.769C470.188 150.359 468.446 150.928 466.698 151.475C472.744 151.491 478.791 151.479 484.834 151.43ZM463.831 152.353C469.482 152.381 475.135 152.386 480.787 152.359C479.142 152.725 477.493 153.078 475.839 153.418C470.228 153.565 464.611 153.671 458.994 153.745C460.611 153.298 462.224 152.834 463.831 152.353ZM461.441 151.456C463.358 150.892 465.267 150.305 467.168 149.692C460.465 149.578 453.768 149.442 447.082 149.296C445.496 149.985 443.901 150.65 442.299 151.291C448.673 151.365 455.056 151.424 461.441 151.456ZM440.183 152.122C446.258 152.205 452.342 152.274 458.43 152.32C456.573 152.839 454.709 153.338 452.839 153.815C447.014 153.87 441.191 153.896 435.375 153.902C436.985 153.33 438.588 152.738 440.183 152.122ZM437.72 151.235C439.428 150.584 441.128 149.906 442.819 149.201C437.669 149.086 432.527 148.965 427.394 148.845L426.173 148.816C423.262 148.742 420.348 148.668 417.431 148.595C417.493 149.152 417.565 149.709 417.646 150.266H416.511L417.359 150.747C417.238 150.812 417.116 150.877 416.995 150.942C423.885 151.045 430.796 151.147 437.72 151.235ZM415.49 151.731C422.152 151.844 428.834 151.957 435.528 152.056C433.784 152.697 432.031 153.312 430.272 153.903C423.909 153.898 417.557 153.875 411.224 153.846C412.654 153.166 414.077 152.462 415.49 151.731ZM413.831 150.894C414.443 150.581 415.053 150.264 415.662 149.941C415.595 149.477 415.535 149.012 415.481 148.547C405.371 148.296 395.232 148.061 385.085 147.879C385.262 148.751 385.461 149.621 385.684 150.49C395.089 150.599 404.478 150.746 413.831 150.894ZM385.897 151.299C394.711 151.402 403.508 151.539 412.27 151.679C410.765 152.424 409.252 153.141 407.73 153.83C406.66 153.825 405.591 153.82 404.523 153.815L402.871 153.807C396.607 153.766 390.325 153.727 384.032 153.702C384.632 153.315 385.23 152.921 385.826 152.52L386.103 152.358V152.034C386.033 151.789 385.964 151.544 385.897 151.299ZM383.385 150.465C383.175 149.591 382.987 148.715 382.821 147.84C372.458 147.663 362.09 147.545 351.739 147.527C351.996 148.462 352.279 149.396 352.588 150.329C362.853 150.292 373.128 150.354 383.385 150.465ZM352.86 151.128C363.102 151.096 373.354 151.16 383.587 151.273C383.666 151.581 383.748 151.888 383.833 152.196C383.057 152.706 382.278 153.205 381.497 153.692C372.291 153.662 363.065 153.667 353.842 153.749C353.492 152.877 353.164 152.003 352.86 151.128ZM350.672 150.336C350.361 149.4 350.076 148.463 349.816 147.525C339.559 147.519 329.32 147.614 319.123 147.85C319.477 148.842 319.861 149.834 320.274 150.823C330.378 150.531 340.52 150.385 350.672 150.336ZM320.608 151.608C330.69 151.322 340.812 151.18 350.944 151.135C351.251 152.014 351.58 152.892 351.932 153.768C341.905 153.869 331.885 154.066 321.903 154.413C321.445 153.479 321.013 152.544 320.608 151.608ZM317.664 150.902C317.247 149.907 316.859 148.911 316.5 147.913C306.218 148.175 295.98 148.583 285.809 149.177C286.284 150.241 286.792 151.302 287.332 152.362C297.385 151.692 307.505 151.221 317.664 150.902ZM287.727 153.123C297.756 152.462 307.856 151.998 317.998 151.685C318.408 152.627 318.845 153.568 319.307 154.507C309.291 154.881 299.316 155.412 289.414 156.153C288.821 155.145 288.259 154.135 287.727 153.123ZM285.043 152.518C284.5 151.452 283.991 150.384 283.514 149.315C273.503 149.928 263.557 150.726 253.701 151.747C253.515 151.417 253.332 151.087 253.152 150.756C263.047 149.726 273.028 148.922 283.073 148.302C282.582 147.148 282.13 145.992 281.716 144.835C271.501 145.385 261.348 146.112 251.275 147.051C251.078 146.631 250.885 146.21 250.697 145.79C260.815 144.845 271.014 144.114 281.276 143.561C280.976 142.663 280.7 141.763 280.447 140.863C270.065 141.37 259.743 142.048 249.499 142.927C249.314 142.453 249.135 141.978 248.962 141.504C259.262 140.63 269.637 139.959 280.071 139.459C272.712 110.552 289.058 80.9516 327.577 54.2499C369.723 25.0062 435.415 7.42602 504.307 6.59471C500.466 6.06506 496.619 5.56593 492.765 5.10153C498.753 5.38943 504.731 5.7882 510.699 6.28225C511.358 6.37774 512.017 6.47407 512.675 6.57121C513.201 6.57576 513.726 6.58121 514.251 6.58758C520.116 7.11015 525.971 7.72194 531.813 8.40813C528.614 8.25254 525.414 8.12707 522.211 8.03411C526.172 8.66423 530.126 9.32009 534.072 9.99708C537.024 9.90219 539.982 9.83769 542.945 9.80402C546.047 10.2166 549.145 10.6477 552.24 11.0949C550.755 11.0807 549.27 11.0734 547.785 11.0734H546.078C544.246 11.0819 542.415 11.1023 540.587 11.1344C545.599 12.024 550.598 12.9438 555.585 13.8841C559.181 13.6286 562.789 13.4176 566.405 13.252C568.824 13.6378 571.239 14.0313 573.652 14.4317C569.524 14.5518 565.404 14.7319 561.296 14.9708C567.443 16.1501 573.569 17.3553 579.674 18.5684C583.606 18.167 587.561 17.8161 591.536 17.5165C593.078 17.7913 594.619 18.0678 596.158 18.3457C591.953 18.6238 587.769 18.9596 583.611 19.3522C586.537 19.9358 589.458 20.5204 592.374 21.104L592.967 21.2228C596.405 21.9202 599.849 22.6187 603.3 23.315C607.25 22.7767 611.227 22.2886 615.225 21.8517C616.876 22.159 618.524 22.4666 620.171 22.7741C615.965 23.188 611.781 23.6588 607.625 24.1855C614.645 25.5945 621.693 26.9882 628.766 28.3384C632.686 27.699 636.635 27.1079 640.606 26.5663C641.991 26.8129 643.375 27.0559 644.759 27.2942C640.667 27.8293 636.599 28.4176 632.56 29.0577C640.363 30.5273 648.198 31.9377 656.06 33.251C659.737 32.5594 663.444 31.9088 667.178 31.2999C668.601 31.5467 670.027 31.7918 671.455 32.0348C667.675 32.6248 663.922 33.2578 660.199 33.9329C669.575 35.4552 678.99 36.8303 688.44 37.9938C691.553 37.3644 694.686 36.7639 697.838 36.1926C698.824 36.3338 699.811 36.4733 700.8 36.611C697.67 37.1649 694.558 37.7477 691.465 38.359C702.074 39.613 712.726 40.5921 723.415 41.2058C725.373 40.7948 727.338 40.3944 729.311 40.0047C731.01 40.169 732.712 40.3261 734.416 40.4758C732.649 40.808 730.887 41.1489 729.131 41.4985C737.646 41.8809 746.182 42.0217 754.738 41.8751C760.253 42.1452 765.793 42.3232 771.359 42.3966C773.714 41.9463 776.078 41.5103 778.449 41.0885C777.539 41.0384 776.63 40.9859 775.721 40.9312C777.408 40.8101 779.091 40.677 780.772 40.5326C776.84 40.5727 772.92 40.5556 769.012 40.4862C761.362 39.9327 753.753 39.2279 746.194 38.4058C744.654 38.658 743.117 38.9167 741.585 39.182C739.718 39.041 737.855 38.8903 735.995 38.7304C737.674 38.4217 739.358 38.1207 741.047 37.8275C732.198 36.8018 723.422 35.6253 714.733 34.3535C712.17 34.7309 709.619 35.1273 707.079 35.5424C706.039 35.4048 705 35.2651 703.962 35.1234C706.51 34.6954 709.069 34.2864 711.64 33.8964C703.205 32.6376 694.855 31.2948 686.603 29.9191C683.586 30.2916 680.585 30.6911 677.599 31.1172C676.104 30.8701 674.613 30.6207 673.124 30.3691C676.04 29.9316 678.971 29.5194 681.916 29.1329C680.299 28.8599 678.685 28.586 677.075 28.3116C671.609 27.4422 666.143 26.4801 660.676 25.4941C657.491 25.7984 654.316 26.1352 651.153 26.5036C650.035 26.3009 648.918 26.0978 647.802 25.8946L647.085 25.7591C647.053 25.753 647.022 25.747 646.99 25.741C650.077 25.3636 653.177 25.016 656.288 24.6988C656.111 24.6666 655.934 24.6344 655.757 24.6022L654.287 24.3497C648.598 23.3725 642.888 22.3918 637.16 21.4225C633.86 21.6233 630.571 21.8593 627.293 22.1299C626.458 21.9861 625.622 21.844 624.787 21.704L624.756 21.6981C623.813 21.522 622.869 21.3458 621.925 21.1696C624.963 20.8828 628.012 20.6256 631.071 20.3984C625.22 19.4207 619.35 18.4604 613.464 17.5332C610.369 17.6194 607.283 17.737 604.207 17.8855C602.582 17.588 600.956 17.2916 599.328 16.9967C602.025 16.84 604.73 16.707 607.442 16.5978C602.178 15.792 596.901 15.017 591.613 14.284C589.035 14.2555 586.458 14.2469 583.881 14.2595C581.255 13.8063 578.625 13.3595 575.99 12.9204C577.29 12.89 578.59 12.8656 579.891 12.847C580.445 12.8907 581 12.9222 581.555 12.9449C577.848 12.4727 574.136 12.0246 570.42 11.6043C569.288 11.5527 568.155 11.5046 567.023 11.4601C565.524 11.222 564.023 10.9869 562.521 10.7551C559.883 10.4866 557.242 10.2334 554.6 9.99694C555.712 10.0136 556.825 10.0341 557.937 10.0583C552.077 9.18184 546.199 8.35882 540.306 7.60432C531.65 7.04764 522.964 6.69314 514.251 6.58758C513.067 6.48213 511.883 6.38031 510.699 6.28225C502.047 5.02848 493.362 3.91777 484.647 2.99765C482.583 2.93589 480.518 2.88796 478.452 2.85449H471.918C471.54 2.85706 471.161 2.86012 470.783 2.86367C461.91 2.13681 453.006 1.63384 444.076 1.40533C370.193 -0.368225 297.169 18.3191 254.266 50.2216C213.84 80.0985 200.719 113.209 216.112 145.052C226.232 143.706 236.448 142.598 246.74 141.695C246.914 142.171 247.094 142.646 247.281 143.121C237.045 144.03 226.888 145.143 216.828 146.492C217.358 147.53 217.919 148.566 218.51 149.601C228.407 148.161 238.408 146.972 248.492 145.999C248.68 146.42 248.874 146.84 249.073 147.26C239.038 148.229 229.086 149.411 219.235 150.843C220.036 152.188 220.888 153.53 221.792 154.869C231.417 153.324 241.149 152.043 250.968 150.987C251.148 151.317 251.331 151.647 251.518 151.977C241.732 153.025 232.036 154.297 222.45 155.83C223.333 157.101 224.262 158.369 225.238 159.633C234.586 157.975 244.048 156.597 253.601 155.456C253.755 155.7 253.911 155.944 254.069 156.187C244.535 157.32 235.099 158.689 225.787 160.338C226.271 160.954 226.766 161.569 227.273 162.183C227.959 162.762 228.648 163.34 229.339 163.917C238.229 162.184 247.24 160.736 256.348 159.53C256.598 159.879 256.851 160.228 257.108 160.577L257.759 160.418C257.789 160.474 257.819 160.531 257.849 160.587C248.645 161.778 239.541 163.213 230.565 164.939C231.913 166.059 233.27 167.175 234.634 168.287C242.844 166.53 251.172 165.052 259.594 163.808C259.85 164.272 260.107 164.733 260.363 165.191C252.188 166.395 244.104 167.82 236.137 169.509C237.421 170.549 238.712 171.586 240.01 172.619C247.251 170.89 254.607 169.415 262.051 168.152C262.326 168.626 262.601 169.097 262.877 169.565C255.677 170.775 248.567 172.188 241.553 173.843C243.056 175.031 244.567 176.215 246.088 177.394C252.297 175.744 258.604 174.314 264.988 173.071C265.153 173.34 265.319 173.608 265.485 173.876C259.266 175.11 253.128 176.527 247.078 178.16C248.49 179.25 249.91 180.336 251.337 181.418C256.648 179.789 262.048 178.358 267.52 177.091C267.785 177.502 268.05 177.91 268.316 178.317C263.056 179.54 257.867 180.922 252.757 182.492C254.173 183.559 255.597 184.623 257.028 185.683C261.413 184.095 265.867 182.683 270.385 181.419C270.686 181.863 270.989 182.304 271.292 182.744C267.007 183.974 262.784 185.339 258.63 186.865C260.237 188.047 261.853 189.224 263.478 190.396C266.843 188.87 270.265 187.487 273.741 186.225C274.004 186.592 274.268 186.958 274.533 187.323C271.204 188.525 267.93 189.839 264.716 191.287C266.295 192.42 267.883 193.549 269.479 194.673C271.922 193.214 274.423 191.872 276.974 190.627C277.248 190.992 277.524 191.356 277.8 191.719C275.402 192.907 273.052 194.184 270.754 195.568C272.325 196.669 273.903 197.764 275.49 198.856C277.034 197.45 278.623 196.137 280.253 194.9C280.608 195.354 280.965 195.808 281.324 196.261C279.84 197.4 278.393 198.603 276.987 199.882C278.497 200.915 280.014 201.943 281.539 202.968C282.207 201.642 282.913 200.379 283.652 199.169C284.182 199.824 284.717 200.48 285.257 201.138C284.671 202.162 284.109 203.224 283.573 204.329C285.041 205.308 286.515 206.283 287.996 207.254C287.812 206.094 287.653 204.967 287.517 203.867C288.316 204.825 289.126 205.788 289.947 206.757C290.05 207.409 290.16 208.071 290.278 208.744C291.292 209.404 292.309 210.061 293.329 210.717C294.464 212.035 295.619 213.37 296.798 214.725C294.741 213.428 292.695 212.123 290.662 210.811C290.907 212.068 291.18 213.363 291.484 214.703C296.32 235.807 314.786 262.551 340.072 284.461C370.479 310.881 411.961 334.564 444.925 352.122C465.384 363.076 486.407 373.875 507.438 384.024C519.371 390.145 532.161 395.622 545.801 400.456C571.373 409.157 601.771 412.698 630.758 415.921C633.133 416.189 635.508 416.459 637.882 416.728C639.769 416.943 641.655 417.157 643.539 417.37C805.793 436.539 962.926 416.727 1074.88 362.758C1093.76 353.617 1111.1 343.464 1128.05 333.533C1130.22 332.261 1132.39 330.992 1134.55 329.73C1145.34 323.285 1156.43 316.683 1167.8 310.562C1192.23 297.028 1218.37 286.878 1243.38 277.21L1244.83 276.641C1283.51 261.551 1320.15 247.254 1347.37 222.279C1367.26 203.91 1381.19 187.802 1384.6 169.272C1387.26 154.415 1382.69 139.221 1370.47 123.27C1370.15 122.481 1369.81 121.692 1369.44 120.902C1368.55 119.901 1367.63 118.894 1366.7 117.882C1365.25 116.321 1363.77 114.746 1362.28 113.162C1362.72 113.797 1363.15 114.431 1363.57 115.066C1361.85 113.19 1360.03 111.304 1358.11 109.405C1359.79 115.297 1359.62 121.243 1357.61 127.225C1351.92 143.658 1331.46 157.192 1314.69 168.147L1175.18 259.972C1147.9 278.016 1119.77 296.546 1086.24 311.849C1029.13 338.268 958.662 353.895 876.824 358.567C804.372 362.758 725.091 357.599 648.089 343.908C516.853 320.599 397.184 276.855 302.103 218.038C302.07 218.001 302.037 217.963 302.005 217.926C300.879 216.64 299.775 215.375 298.69 214.129C394.278 274.376 515.471 319.176 648.661 342.778C725.377 356.474 804.086 361.471 876.261 357.28C957.527 352.608 1027.71 336.981 1084.54 310.881C1117.33 295.79 1145.14 277.559 1172.06 259.908L1173.2 259.166L1312.71 167.341C1330.04 156.062 1349.37 143.177 1355.04 127.063C1357.03 121.371 1357.7 113.964 1353.99 105.466C1353.59 105.094 1353.18 104.721 1352.77 104.348C1331.35 84.7562 1309.74 69.9309 1286.73 59.2695C1302.35 66.2953 1316.58 74.2291 1329.33 83.0252C1332.04 85.0229 1334.73 87.0896 1337.41 89.2263C1336.11 88.1191 1334.79 87.0183 1333.44 85.9255C1335.38 87.3215 1337.27 88.7382 1339.13 90.1754C1343.79 93.7543 1347.94 97.3068 1351.58 100.839C1351.38 100.51 1351.17 100.179 1350.96 99.8466C1352.94 101.762 1354.88 103.682 1356.76 105.598C1356.86 105.836 1356.96 106.074 1357.06 106.312C1360.93 109.989 1364.42 113.616 1367.54 117.199C1367.4 116.964 1367.27 116.728 1367.13 116.493C1367.46 116.85 1367.79 117.207 1368.12 117.563C1369 118.502 1369.87 119.437 1370.71 120.367C1369.19 118.498 1367.65 116.631 1366.08 114.772C1362.99 109.878 1358.91 104.964 1353.84 100.012C1354.38 100.876 1354.88 101.741 1355.34 102.607C1352.11 99.1633 1348.76 95.7775 1345.22 92.4777C1345.05 92.2939 1344.88 92.1097 1344.7 91.9252C1344.49 91.7486 1344.27 91.5719 1344.05 91.3952C1338.23 86.0646 1331.93 80.9694 1324.95 76.2289C1319.65 72.9008 1313.53 69.5244 1306.48 66.1221C1311.29 68.8139 1315.86 71.651 1320.21 74.5968C1312.49 69.8353 1304.28 65.3586 1295.61 61.1797C1292.32 59.7689 1288.86 58.3555 1285.23 56.9411C1286.51 57.521 1287.79 58.1134 1289.06 58.7185C1287.96 58.2411 1286.84 57.7716 1285.72 57.3104C1283.02 56.2054 1280.31 55.1202 1277.59 54.0549C1267.06 50.2048 1255.19 46.3552 1241.84 42.5375C1239.13 41.656 1236.44 40.7974 1233.76 39.9612C1233.4 39.9264 1233.05 39.8918 1232.7 39.8577C1234.02 40.2581 1235.34 40.6623 1236.66 41.0702C1235.17 40.6478 1233.67 40.2266 1232.16 39.8066C1199.12 36.6503 1165.37 36.3194 1130.19 36.0637C1126.08 36.106 1121.94 36.1552 1117.78 36.2061C1112.71 36.2061 1107.58 36.2319 1102.44 36.2626C956.418 50.4403 849.522 87.1754 734.753 130.124C698.172 138.223 659.978 142.393 621.062 144.241C614.993 144.755 608.9 145.197 602.787 145.574C590.951 146.823 579.009 147.754 566.993 148.433C558.439 149.291 549.83 149.976 541.182 150.519C530.664 151.709 520.056 152.611 509.394 153.29C499.606 154.405 489.735 155.257 479.817 155.914C469.077 157.236 458.237 158.211 447.354 158.951C438.314 160.093 429.21 160.977 420.086 161.687C409.93 163.154 399.69 164.253 389.438 165.162C381.492 166.453 373.51 167.509 365.548 168.451C355.018 170.664 344.401 172.381 333.899 174.049C330.083 175.066 326.265 176.038 322.454 177.004C322.043 177.111 321.632 177.217 321.221 177.324C318.471 178.036 315.739 178.743 313.029 179.463C312.676 179.62 312.324 179.775 311.972 179.931L311.657 180.07C306.388 182.352 301.215 184.597 296.247 187.102C293.645 189.77 291.147 192.537 288.865 195.624C288.952 198.099 289.144 200.654 289.475 203.37C288.696 202.44 287.927 201.514 287.168 200.592C287.1 199.818 287.042 199.056 286.995 198.304C286.743 198.688 286.495 199.078 286.25 199.473C285.723 198.829 285.202 198.186 284.684 197.544C285.378 196.493 286.097 195.482 286.838 194.503C286.824 193.804 286.818 193.11 286.819 192.42C285.45 193.294 284.105 194.207 282.787 195.167C282.431 194.716 282.076 194.264 281.723 193.812C283.391 192.61 285.098 191.481 286.841 190.41C286.86 189.5 286.89 188.592 286.93 187.681C284.404 188.68 281.92 189.748 279.482 190.904C279.208 190.543 278.935 190.182 278.663 189.821C281.388 188.547 284.169 187.378 286.997 186.292C287.05 185.308 287.112 184.319 287.182 183.319C283.512 184.335 279.897 185.448 276.342 186.682C276.076 186.316 275.811 185.949 275.547 185.581C279.396 184.236 283.31 183.032 287.282 181.938C287.361 180.889 287.447 179.825 287.538 178.739C282.679 179.762 277.889 180.909 273.174 182.214C272.872 181.778 272.572 181.34 272.273 180.9C277.325 179.537 282.455 178.351 287.658 177.3C287.691 176.908 287.725 176.513 287.759 176.115L287.793 175.717C287.841 175.309 287.887 174.896 287.932 174.478C281.957 175.45 276.061 176.569 270.251 177.874C269.985 177.468 269.719 177.061 269.454 176.651C275.582 175.281 281.795 174.112 288.069 173.101C288.159 172.141 288.241 171.156 288.316 170.141C281.27 171.073 274.312 172.175 267.451 173.492C267.286 173.227 267.122 172.961 266.957 172.694C274.014 171.365 281.162 170.258 288.375 169.324C288.448 168.275 288.515 167.195 288.577 166.079C280.578 166.933 272.673 167.968 264.872 169.236C264.595 168.767 264.318 168.295 264.042 167.819C272.158 166.485 280.376 165.399 288.662 164.506C288.706 163.644 288.749 162.761 288.791 161.857C279.905 162.659 271.09 163.656 262.376 164.899C262.119 164.441 261.862 163.98 261.605 163.515C270.597 162.228 279.692 161.202 288.858 160.381C288.882 159.862 288.905 159.336 288.928 158.803H288.641C288.372 158.38 288.108 157.957 287.849 157.533C278.446 158.256 269.112 159.172 259.878 160.329C259.807 160.196 259.736 160.062 259.665 159.928L259.047 160.029C258.858 159.77 258.671 159.51 258.486 159.251C267.943 158.039 277.5 157.081 287.128 156.328C286.534 155.313 285.969 154.296 285.435 153.278C275.621 153.955 265.877 154.826 256.231 155.935C256.073 155.691 255.917 155.446 255.763 155.202C265.44 154.083 275.209 153.203 285.043 152.518ZM256.231 155.935C255.51 156.018 254.789 156.102 254.069 156.187C254.792 157.304 255.552 158.418 256.348 159.53C257.06 159.435 257.773 159.343 258.486 159.251C257.698 158.148 256.947 157.042 256.231 155.935ZM290.139 157.361C290.302 157.627 290.467 157.894 290.635 158.16L289.5 158.479H290.921C290.896 159.064 290.868 159.639 290.839 160.207C300.129 159.405 309.49 158.81 318.889 158.362C319.323 157.667 319.755 156.955 320.184 156.224C320.102 156.068 320.02 155.912 319.939 155.756C309.953 156.119 300.008 156.636 290.139 157.361ZM322.534 155.665C322.602 155.798 322.671 155.93 322.741 156.062V156.386C322.381 157.016 322.019 157.632 321.654 158.235C330.489 157.842 339.355 157.574 348.225 157.384C349.108 156.635 349.982 155.862 350.849 155.063C341.394 155.163 331.946 155.348 322.534 155.665ZM353.553 155.037C352.724 155.823 351.887 156.586 351.043 157.326C359.328 157.163 367.614 157.064 375.879 156.989C377.054 156.341 378.224 155.671 379.388 154.978C370.785 154.953 362.167 154.961 353.553 155.037ZM381.995 154.987C380.891 155.667 379.781 156.326 378.667 156.964C382.789 156.929 386.905 156.899 391.013 156.869L391.225 156.868L393.165 156.853C395.686 156.833 398.211 156.813 400.739 156.793C402.101 156.253 403.458 155.695 404.809 155.117C403.975 155.111 403.141 155.105 402.308 155.1C395.555 155.055 388.781 155.012 381.995 154.987ZM408.425 155.141C407.189 155.698 405.948 156.237 404.701 156.759C410.363 156.709 416.038 156.65 421.72 156.57C423.206 156.14 424.689 155.694 426.166 155.233C420.239 155.215 414.324 155.181 408.425 155.141ZM431.463 155.244C430.183 155.668 428.9 156.08 427.613 156.479C432.719 156.392 437.828 156.285 442.937 156.148C444.331 155.845 445.723 155.533 447.111 155.211C441.891 155.242 436.673 155.25 431.463 155.244ZM453.661 155.16C452.642 155.418 451.621 155.671 450.598 155.918C455.735 155.747 460.869 155.542 465.995 155.292C466.633 155.18 467.271 155.066 467.909 154.95C463.16 155.045 458.41 155.113 453.661 155.16ZM473.395 154.829C473.223 154.862 473.052 154.895 472.88 154.928C473.747 154.879 474.614 154.828 475.48 154.776C474.785 154.794 474.09 154.812 473.395 154.829ZM444.136 157.543C443.877 157.551 443.617 157.558 443.358 157.565C443.297 157.578 443.237 157.591 443.176 157.604C443.496 157.584 443.816 157.564 444.136 157.543ZM432.612 158.201C433.38 158.061 434.147 157.919 434.913 157.774C430.77 157.864 426.627 157.938 422.488 158C421.555 158.265 420.62 158.524 419.683 158.777C423.994 158.609 428.305 158.419 432.612 158.201ZM412.254 160.661C414.482 160.587 416.711 160.507 418.939 160.422C415.961 160.852 412.975 161.25 409.984 161.621C409.078 161.681 408.171 161.741 407.265 161.798C408.932 161.435 410.595 161.056 412.254 160.661ZM412.497 159.038C413.745 158.73 414.991 158.412 416.234 158.085C411.162 158.148 406.097 158.196 401.044 158.239C399.958 158.663 398.868 159.076 397.774 159.477C402.677 159.347 407.586 159.204 412.497 159.038ZM392.809 161.218C396.661 161.122 400.519 161.02 404.381 160.908C401.917 161.437 399.446 161.935 396.968 162.404C393.838 162.575 390.709 162.734 387.583 162.885C389.332 162.353 391.074 161.799 392.809 161.218ZM393.123 159.597C394.371 159.17 395.616 158.729 396.857 158.273C395.044 158.287 393.233 158.301 391.424 158.315L391.225 158.317L391.011 158.318C386.025 158.355 381.026 158.392 376.019 158.437C374.981 158.998 373.94 159.542 372.894 160.07C375.027 160.022 377.157 159.975 379.283 159.928L379.719 159.918C384.177 159.814 388.646 159.71 393.123 159.597ZM369.392 161.775C372.409 161.702 375.434 161.63 378.468 161.559L379.283 161.539L379.781 161.528C382.44 161.466 385.103 161.404 387.77 161.341C385.697 161.983 383.614 162.591 381.525 163.17C377.047 163.374 372.577 163.568 368.122 163.761L367.351 163.794C366.443 163.831 365.535 163.868 364.627 163.905C366.222 163.226 367.811 162.517 369.392 161.775ZM369.783 160.141C370.9 159.599 372.014 159.041 373.123 158.465C365.193 158.543 357.247 158.647 349.304 158.813C348.5 159.482 347.691 160.132 346.877 160.765C354.528 160.511 362.171 160.316 369.783 160.141ZM344.6 162.479C351.717 162.234 358.887 162.037 366.104 161.856C364.393 162.624 362.675 163.356 360.949 164.056C354.331 164.329 347.693 164.616 341.053 164.951C342.244 164.158 343.427 163.335 344.6 162.479ZM343.85 160.868C344.712 160.224 345.57 159.56 346.42 158.875C337.841 159.071 329.267 159.342 320.726 159.733C320.233 160.513 319.735 161.27 319.233 162.007C327.423 161.521 335.638 161.158 343.85 160.868ZM318.059 163.688C325.791 163.229 333.597 162.878 341.469 162.59C340.21 163.471 338.941 164.315 337.663 165.127C330.408 165.513 323.156 165.964 315.933 166.526C316.647 165.613 317.356 164.668 318.059 163.688ZM316.369 162.182C316.892 161.431 317.413 160.66 317.93 159.866C308.823 160.312 299.755 160.899 290.757 161.682C290.705 162.576 290.649 163.448 290.591 164.301C299.126 163.413 307.731 162.726 316.369 162.182ZM290.48 165.88C298.615 165.043 306.848 164.389 315.167 163.865C314.434 164.867 313.695 165.831 312.953 166.764C305.335 167.39 297.753 168.147 290.238 169.087C290.318 168.046 290.4 166.979 290.48 165.88ZM290.176 169.899C290.101 170.889 290.028 171.855 289.961 172.801C296.627 171.762 303.357 170.896 310.122 170.151C310.85 169.32 311.574 168.465 312.294 167.581C304.835 168.212 297.459 168.968 290.176 169.899ZM315.293 167.334C314.609 168.188 313.921 169.014 313.23 169.817C319.741 169.135 326.28 168.557 332.819 168.036C334.013 167.357 335.202 166.655 336.384 165.927C329.288 166.322 322.255 166.777 315.293 167.334ZM339.852 165.739C338.788 166.427 337.717 167.093 336.642 167.738C342.675 167.277 348.703 166.857 354.707 166.442C356.139 165.926 357.567 165.39 358.991 164.835C352.566 165.113 346.184 165.404 339.852 165.739ZM362.792 164.672C361.563 165.176 360.33 165.664 359.093 166.137C364.162 165.782 369.25 165.423 374.346 165.036C375.672 164.712 376.996 164.378 378.317 164.032C374.941 164.174 371.571 164.309 368.209 164.443C366.4 164.519 364.595 164.595 362.792 164.672ZM384.624 163.761C383.864 163.98 383.102 164.195 382.339 164.406C384.504 164.227 386.669 164.042 388.834 163.848C389.6 163.721 390.366 163.592 391.131 163.46C388.96 163.564 386.791 163.664 384.624 163.761ZM365.714 167.005C362.821 167.209 359.931 167.408 357.046 167.607L356.267 167.66C355.72 167.699 355.174 167.737 354.628 167.775C353.754 168.083 352.879 168.384 352.003 168.679C356.174 168.224 360.357 167.755 364.543 167.253C364.933 167.171 365.324 167.089 365.714 167.005ZM347.689 170.431C347.12 170.491 346.551 170.552 345.983 170.612C345.711 170.696 345.438 170.779 345.166 170.861C346.007 170.719 346.848 170.576 347.689 170.431ZM335.223 172.499C336.665 172.106 338.107 171.704 339.549 171.291C335.618 171.709 331.713 172.133 327.836 172.577C326.704 173.15 325.571 173.708 324.438 174.254C327.357 173.77 330.295 173.295 333.252 172.819C333.909 172.713 334.566 172.606 335.223 172.499ZM318.408 175.273C319.926 174.582 321.448 173.876 322.97 173.147C318.062 173.738 313.201 174.371 308.395 175.075C307.564 175.929 306.732 176.763 305.902 177.586C310.022 176.763 314.193 176.001 318.408 175.273ZM304.176 179.284C307.228 178.658 310.308 178.07 313.414 177.505C312.548 177.887 311.685 178.266 310.826 178.644L310.522 178.778C310.245 178.898 309.969 179.019 309.692 179.139C307.162 179.819 304.652 180.516 302.167 181.243C302.388 181.028 302.608 180.813 302.829 180.598C303.277 180.161 303.726 179.723 304.176 179.284ZM302.251 178.336C303.184 177.432 304.115 176.516 305.044 175.579C299.81 176.388 294.642 177.29 289.548 178.323C289.46 179.364 289.376 180.386 289.298 181.394C293.552 180.268 297.872 179.261 302.251 178.336ZM289.195 182.773C292.895 181.788 296.648 180.896 300.448 180.07C300.112 180.392 299.775 180.712 299.439 181.032L299.155 181.307C298.728 181.718 298.304 182.127 297.881 182.536C294.883 183.472 291.925 184.462 289.016 185.533C289.068 184.619 289.128 183.701 289.195 182.773ZM288.944 186.903C288.907 187.672 288.877 188.439 288.854 189.207C290.519 188.24 292.213 187.319 293.933 186.43C294.589 185.764 295.253 185.104 295.922 184.445C293.567 185.22 291.239 186.035 288.944 186.903ZM300.313 183.055C300.14 183.223 299.968 183.391 299.796 183.56C300.524 183.22 301.255 182.883 301.99 182.549C301.429 182.716 300.87 182.884 300.313 183.055ZM290.288 190.313C289.794 190.599 289.302 190.889 288.814 191.183C288.811 191.465 288.809 191.747 288.808 192.03C289.294 191.448 289.787 190.877 290.288 190.313ZM289.67 176.901C295.214 175.822 300.838 174.889 306.534 174.054C307.288 173.27 308.041 172.468 308.79 171.644C302.405 172.363 296.095 173.189 289.869 174.168C289.839 174.634 289.812 175.097 289.786 175.555L289.779 175.642C289.742 176.065 289.706 176.485 289.67 176.901ZM311.928 171.299C311.23 172.08 310.529 172.84 309.826 173.583C315.269 172.822 320.775 172.141 326.337 171.496C327.55 170.886 328.76 170.259 329.968 169.611C323.895 170.113 317.88 170.663 311.928 171.299ZM333.987 169.287C332.967 169.865 331.944 170.427 330.919 170.974C334.865 170.531 338.838 170.1 342.835 169.667L343.486 169.596C344.382 169.501 345.278 169.405 346.175 169.309C347.417 168.919 348.657 168.52 349.896 168.108C344.555 168.486 339.25 168.871 333.987 169.287ZM319.429 176.599C319.609 176.516 319.789 176.434 319.97 176.351C320.394 176.278 320.819 176.206 321.245 176.134C320.639 176.289 320.033 176.444 319.429 176.599ZM431.316 159.9C431.358 159.892 431.4 159.885 431.442 159.878C431.51 159.874 431.579 159.871 431.647 159.868C431.537 159.878 431.426 159.889 431.316 159.9ZM259.878 160.329C259.201 160.414 258.525 160.5 257.849 160.587C258.43 161.678 259.011 162.751 259.594 163.808C260.264 163.709 260.934 163.611 261.605 163.515C261.028 162.47 260.453 161.409 259.878 160.329ZM262.376 164.899C261.704 164.995 261.033 165.092 260.363 165.191C260.924 166.192 261.487 167.179 262.051 168.152C262.714 168.039 263.378 167.928 264.042 167.819C263.485 166.86 262.93 165.887 262.376 164.899ZM264.872 169.236C264.206 169.344 263.541 169.454 262.877 169.565C263.578 170.753 264.281 171.921 264.988 173.071C265.644 172.944 266.3 172.818 266.957 172.694C266.259 171.559 265.564 170.407 264.872 169.236ZM267.451 173.492C266.795 173.618 266.139 173.746 265.485 173.876C266.159 174.962 266.837 176.033 267.52 177.091C268.164 176.942 268.809 176.796 269.454 176.651C268.783 175.612 268.115 174.559 267.451 173.492ZM270.251 177.874C269.605 178.019 268.96 178.167 268.316 178.317C269.001 179.362 269.69 180.396 270.385 181.419C271.013 181.243 271.642 181.07 272.273 180.9C271.594 179.902 270.92 178.894 270.251 177.874ZM273.174 182.214C272.545 182.388 271.918 182.565 271.292 182.744C272.1 183.916 272.916 185.075 273.741 186.225C274.341 186.007 274.943 185.792 275.547 185.581C274.748 184.469 273.957 183.348 273.174 182.214ZM276.342 186.682C275.737 186.892 275.134 187.105 274.533 187.323C275.338 188.431 276.151 189.531 276.974 190.627C277.535 190.354 278.098 190.085 278.663 189.821C277.881 188.78 277.108 187.735 276.342 186.682ZM279.482 190.904C278.919 191.171 278.358 191.443 277.8 191.719C278.607 192.783 279.425 193.842 280.253 194.9C280.739 194.531 281.229 194.169 281.723 193.812C280.968 192.845 280.221 191.876 279.482 190.904ZM282.787 195.167C282.296 195.525 281.808 195.89 281.324 196.261C282.09 197.23 282.866 198.199 283.652 199.169C283.989 198.616 284.333 198.075 284.684 197.544C284.046 196.751 283.414 195.959 282.787 195.167ZM286.25 199.473C285.912 200.017 285.581 200.572 285.257 201.138C286.001 202.044 286.754 202.953 287.517 203.867C287.378 202.749 287.262 201.659 287.168 200.592C286.86 200.219 286.554 199.845 286.25 199.473ZM628.56 142.298C653.337 139.909 677.651 136.238 701.226 130.773C737.595 113.853 776.244 98.0645 816.018 84.049C858.931 69.071 904.676 57.1482 952.691 48.448C978.971 43.9144 1005.77 40.1751 1032.9 37.4253C1028.35 37.5417 1023.78 37.622 1019.18 37.6552C1015.78 37.3307 1013.22 37.3307 1010.38 37.3307C1008.89 37.3307 1007.41 37.3268 1005.93 37.319C1001.99 37.4547 998.028 37.5586 994.048 37.6239C969.042 39.7216 944.218 42.6547 920.013 46.3553C870.291 54.2499 823.124 66.4918 779.935 82.7621C740.724 97.5832 704.068 114.821 670.818 133.99L670.255 133.671L670.542 134.152C656.781 137.491 642.767 140.167 628.56 142.298ZM1071.92 36.3522C1066.34 36.4854 1060.72 36.5878 1055.09 36.6427C1020.78 39.5007 986.798 43.8453 953.836 49.5781C906.097 58.2729 860.342 70.1957 817.726 85.0169C777.942 99.1945 739.016 114.821 702.933 131.897L702.075 131.416L702.361 131.897C687.082 135.445 671.505 138.239 655.703 140.419C682.076 138.067 707.956 134.382 733.045 128.837C844.158 87.2038 947.928 51.5153 1086.68 36.3492C1084.36 36.3577 1082.04 36.3629 1079.71 36.3629H1073.45C1072.94 36.3596 1072.43 36.356 1071.92 36.3522ZM1349.36 93.9621C1344.03 87.7203 1336.55 81.5621 1326.91 75.511C1326.34 75.153 1325.76 74.7971 1325.18 74.4434C1318.16 69.7934 1310.47 65.4938 1301.91 61.6577C1291.87 57.1434 1281.51 52.9419 1270.89 49.065C1286.68 54.5084 1301.76 60.6624 1315.83 67.4597C1352.23 85.0816 1370.43 111.463 1388.07 137.05L1388.85 138.18L1393.98 145.431C1411.31 170.564 1428.92 200.525 1428.35 231.941C1427.79 255.143 1418.41 278.016 1398.8 303.954C1372.66 338.593 1322.65 347.774 1269.8 357.442C1232.87 364.207 1194.5 371.295 1159.27 387.084C1138.81 396.266 1120.06 406.896 1100.17 418.176C1087.38 425.427 1074.03 432.997 1060.39 440.086C930.534 506.784 779.649 538.356 635.584 528.85C632.317 528.691 629.05 528.489 625.784 528.288C622.517 528.087 619.25 527.885 615.983 527.726L615.131 527.675C572.208 525.112 527.954 522.47 493.226 507.746C473.789 499.601 458.816 488.76 445.545 479.151L445.211 478.909C420.202 461.028 395.202 442.341 370.766 423.816C327.29 390.626 278.703 351.965 253.98 311.043C229.543 270.927 232.099 226.464 259.951 203.267C262.949 200.744 266.071 198.492 269.301 196.462C270.966 197.627 272.64 198.788 274.324 199.943C272.287 201.887 270.332 204.003 268.468 206.327C250.288 229.205 255.115 267.867 280.687 302.505C307.403 339.074 353.148 372.263 393.781 400.456C416.797 416.565 440.661 432.516 464.249 447.98L464.494 448.141C477.212 456.475 491.359 465.746 509.422 472.951C541.251 485.836 581.312 488.897 619.674 491.638C622.66 491.879 625.714 492.121 628.769 492.363C631.824 492.605 634.878 492.847 637.864 493.087C788.176 505.172 944.45 476.979 1066.63 415.434C1082.55 407.383 1097.6 398.845 1112.1 390.464C1114.61 389.045 1117.09 387.632 1119.55 386.229C1134.14 377.916 1148.17 369.923 1163.25 362.758C1194.05 347.991 1227.61 339.952 1260.12 332.166L1261.56 331.823C1310.43 320.224 1356.46 309.27 1383.46 277.372C1404.49 252.564 1414.44 232.103 1415.86 211.161C1418.13 180.551 1399.09 152.358 1382.04 131.416L1381.19 130.448C1371.39 118.096 1361.4 105.553 1349.36 93.9621ZM275.822 200.968C273.852 202.852 271.966 204.896 270.176 207.133C252.272 229.686 257.108 267.867 282.394 302.181C309.101 338.593 354.57 371.777 395.202 399.808C418.218 415.921 442.083 431.867 465.671 447.337L465.788 447.414C478.264 455.609 492.434 464.916 510.281 471.983C541.823 484.711 581.312 487.61 619.674 490.351C625.922 490.832 631.893 491.314 637.864 491.8C787.318 503.88 943.029 475.687 1064.94 414.472C1080.85 406.415 1095.91 397.877 1110.4 389.501C1127.73 379.509 1144.21 370.165 1161.83 361.627C1193.2 346.569 1227.1 338.517 1260.17 330.663L1260.71 330.536C1309.01 319.1 1354.76 308.145 1381.47 276.729C1402.22 252.078 1412.16 231.941 1413.58 211.161C1415.34 184.286 1400.93 159.416 1386 139.548C1398.17 157.522 1402.91 174.035 1401.07 190.219C1398.24 213.741 1381.76 233.715 1366.12 249.985C1338.57 278.659 1297.08 291.388 1252.75 304.76L1250.16 305.552C1221.98 314.164 1192.83 323.068 1166.09 336.981C1151.6 344.552 1137.67 352.446 1123.19 360.984C1121.78 361.797 1120.36 362.613 1118.95 363.432C1103.78 372.191 1088.1 381.249 1071.47 389.501C954.685 447.012 797.552 471.177 640.42 455.875C635.021 455.388 629.623 454.907 624.224 454.426C590.411 451.365 555.74 448.143 526.763 437.344C511.416 431.548 498.625 424.621 484.709 416.565C462.256 403.679 439.812 390.307 418.218 376.773C379.855 353.089 336.953 324.577 309.101 293.805C283.243 265.293 271.311 232.585 278.417 210.518C279.147 208.32 279.964 206.28 280.858 204.37C279.171 203.241 277.492 202.107 275.822 200.968ZM282.913 205.741C282.214 207.297 281.564 208.937 280.973 210.675C273.867 232.428 285.799 264.806 311.381 293.161C339.223 323.772 381.849 352.122 420.202 375.805C442.083 389.339 464.536 402.711 486.693 415.434C500.332 423.329 513.123 430.418 528.184 436.057C556.598 446.688 591.26 449.911 624.787 452.971C627.486 453.214 630.185 453.456 632.885 453.698C635.584 453.94 638.283 454.182 640.983 454.426C797.552 469.728 953.826 445.726 1070.34 388.371C1086.92 380.143 1102.57 371.105 1117.69 362.369C1119.15 361.529 1120.6 360.692 1122.04 359.859C1135.97 351.802 1150.46 343.427 1164.95 335.851C1192.8 321.517 1222.92 312.33 1252.18 303.473L1252.89 303.257C1296.39 289.965 1337.57 277.382 1364.7 249.179C1380.34 232.909 1396.53 213.092 1399.37 189.895C1401.52 171.079 1394.44 151.919 1377.46 130.41C1385.86 143.778 1388.82 156.613 1386.58 169.272C1383.18 188.121 1369.25 204.235 1349.08 222.76C1321.23 248.211 1284.01 262.714 1244.51 278.016L1242.27 278.897C1217.94 288.455 1192.65 298.395 1169.22 311.367C1158.13 317.488 1146.76 324.253 1136.25 330.536C1117.5 341.815 1097.89 353.414 1076.58 363.725C964.061 417.851 806.079 437.831 643.262 418.657L643.12 418.641C638.904 418.165 634.688 417.689 630.472 417.208L629.121 417.054C599.997 413.724 570.12 410.309 544.656 401.581C531.026 396.747 517.949 391.113 506.017 384.987C484.985 374.68 463.677 364.044 443.504 353.089C410.54 335.532 369.058 311.849 338.374 285.267C313.078 263.195 294.326 236.294 289.5 215.028C289.049 213.025 288.666 211.125 288.342 209.309C286.523 208.125 284.713 206.936 282.913 205.741ZM268.019 195.563C266.358 194.395 264.707 193.222 263.065 192.044C258.383 194.234 253.833 196.718 249.43 199.563C211.64 223.884 201.701 273.506 225.279 320.062C248.009 365.337 297.455 408.027 346.042 447.818C371.901 469.085 398.321 490.189 424.465 510.807L425.167 511.356C439.202 522.336 454.933 534.644 475.609 543.834C513.762 560.816 563.716 563.139 612.055 565.387L612.854 565.425C618.186 565.674 623.343 565.927 628.462 566.178C629.891 566.248 631.316 566.318 632.742 566.387C728.791 571.383 879.953 558.011 1055.27 466.186C1066.92 460.06 1078.29 453.62 1089.09 447.494C1111.53 434.771 1132.84 422.848 1156.14 413.023C1195.07 396.428 1237.41 390.464 1278.61 384.83L1279.52 384.702C1338.81 376.376 1390.13 369.168 1415.86 331.666C1434.32 304.598 1443.13 278.984 1442.85 253.37C1442.28 219.699 1424.37 187.478 1407.62 159.771C1406.73 158.263 1405.8 156.731 1404.86 155.185C1403.39 152.764 1401.9 150.307 1400.51 147.848L1399.8 146.65C1383.83 119.793 1367.29 91.9867 1330.89 73.094C1316.55 65.5976 1300.89 58.8451 1284.27 52.9219C1295.73 57.2331 1306.76 61.9253 1317.25 66.973C1354.32 84.9413 1372.79 111.859 1390.62 137.852L1390.85 138.18C1391.7 139.389 1392.55 140.597 1393.4 141.806C1394.25 143.014 1395.11 144.223 1395.96 145.431C1413.58 170.564 1431.19 200.525 1430.63 232.266C1430.06 255.625 1420.68 278.659 1401.07 304.76C1374.43 339.793 1324.32 349.016 1271.05 358.819L1270.66 358.891C1233.72 365.656 1195.64 372.745 1160.69 388.371C1141.85 396.947 1124.24 406.792 1105.79 417.113C1104.49 417.842 1103.18 418.573 1101.87 419.306L1101.61 419.45C1088.91 426.652 1075.64 434.174 1061.81 441.211C931.383 508.233 779.935 539.805 635.307 530.305C628.968 529.833 622.637 529.519 616.307 529.205L615.697 529.175L614.648 529.113C571.496 526.553 526.756 523.9 491.805 508.876C472.204 500.5 456.857 489.545 443.504 479.877C418.504 461.834 393.495 443.309 369.058 424.621C325.297 391.432 276.709 352.608 251.986 311.524C227.273 270.927 229.829 226.145 258.243 202.623C261.377 200.001 264.641 197.665 268.019 195.563ZM1300.35 56.9788C1311.88 61.5739 1322.87 66.5814 1333.17 71.9693C1370.39 91.4622 1387.16 119.818 1403.35 147.205C1405.62 151.228 1407.89 155.1 1410.46 159.122C1427.22 186.834 1445.41 219.213 1445.69 253.208C1445.97 278.984 1437.16 304.76 1418.69 331.985C1392.27 370.165 1337.71 377.898 1279.75 385.954C1238.83 391.594 1196.49 397.553 1158.13 413.985C1135.12 423.816 1113.8 435.738 1091.36 448.462C1088.49 450.045 1085.6 451.651 1082.7 453.267C1074.38 457.896 1065.9 462.612 1057.26 467.149C881.374 559.298 729.64 572.67 633.028 567.679C626.494 567.355 619.96 567.036 613.141 566.712L612.407 566.678C563.761 564.434 513.491 562.115 474.76 544.802C454.214 535.792 438.687 523.635 424.861 512.81C424.349 512.409 423.839 512.01 423.331 511.612C397.186 490.995 370.765 469.89 344.907 448.624C296.32 408.67 246.588 365.818 223.858 320.387C199.994 273.344 210.219 223.241 248.295 198.595C252.688 195.793 257.204 193.334 261.831 191.157C260.161 189.953 258.501 188.744 256.85 187.53C250.817 189.823 244.93 192.465 239.205 195.535C191.466 221.148 174.135 275.923 196.865 328.925C218.459 379.028 268.182 425.102 321.892 471.664C348.885 495.342 376.727 519.025 404.292 542.385L404.795 542.807C419.447 555.109 436.092 569.085 458.565 579.44C500.775 598.873 556.532 600.852 610.932 602.781L611.433 602.799C614.7 602.88 617.898 603.001 621.096 603.121C624.293 603.241 627.491 603.362 630.758 603.443C761.183 608.596 902.682 571.059 1051.01 491.8C1057.74 488.194 1064.23 484.587 1070.64 481.026C1073.96 479.18 1077.26 477.345 1080.56 475.53C1105.28 461.671 1128.58 448.624 1153.87 438.312C1196.49 421.074 1243.09 416.24 1288.27 411.73L1288.71 411.686C1352.74 405.103 1408.24 399.396 1433.75 358.729C1451.37 331.504 1459.32 302.986 1458.19 274.15C1456.77 240.479 1440.86 208.582 1422.1 173.462C1421.35 171.993 1420.58 170.511 1419.8 169.023C1417.93 165.45 1416.04 161.844 1414.44 158.317C1399.94 129.318 1384.88 99.1945 1347.09 78.2524C1332.62 70.3008 1316.96 63.1883 1300.35 56.9788ZM255.24 186.342C253.777 185.259 252.322 184.171 250.874 183.08C243.3 185.484 235.901 188.314 228.694 191.668C171.293 218.569 146.57 278.659 168.165 337.787C188.338 392.4 238.356 441.535 297.169 495.666C325.583 521.924 354.57 548.343 383.547 574.119C399.18 588.14 416.797 603.924 440.948 615.366C486.51 637.052 547.939 638.693 607.606 640.287L609.449 640.336C615.697 640.498 621.668 640.655 627.915 640.817C698.097 642.753 769.701 631.636 846.712 606.503C908.367 586.367 971.453 558.336 1045.9 517.895C1049.7 515.821 1053.43 513.745 1057.13 511.689C1060.89 509.596 1064.61 507.523 1068.34 505.491C1095.91 489.864 1122.04 475.206 1151.03 464.251C1196.93 446.529 1249.53 442.733 1296.1 439.371L1297.36 439.28C1366.12 434.446 1425.8 430.099 1451.09 386.279C1468.14 356.793 1475.53 326.189 1472.96 295.254C1470.41 259.653 1453.92 224.852 1438.01 191.344L1436.03 187.316L1427.5 168.466C1414.15 137.699 1400.22 105.959 1362.43 83.2433C1338.32 68.8814 1308.78 56.8621 1276.37 47.8671C1302.24 55.7623 1326.26 65.6839 1347.66 77.4468C1385.35 98.337 1400.49 128.223 1415.12 157.11L1415.57 157.998C1416.85 160.491 1418.12 163.027 1419.4 165.562C1420.68 168.102 1421.96 170.641 1423.24 173.138C1442.28 208.42 1457.91 240.479 1459.32 274.312C1460.74 303.473 1452.5 331.985 1434.89 359.373C1409.04 400.776 1352.77 406.577 1287.7 413.18L1286.17 413.339C1241.75 417.96 1196.01 422.718 1154.16 439.605C1128.86 449.911 1105.57 462.801 1081.13 476.655C1077.87 478.449 1074.58 480.281 1071.26 482.124C1064.75 485.741 1058.16 489.404 1051.57 492.925C902.682 572.351 760.897 610.045 629.623 604.892C623.555 604.577 617.226 604.42 610.89 604.263L610.298 604.248L609.704 604.227C555.055 602.298 498.757 600.311 456.294 580.727C433.758 570.318 417.212 556.508 402.393 544.14L401.45 543.352C373.884 520.15 346.042 496.31 319.049 472.626C265.349 425.908 215.617 379.671 193.737 329.406C170.721 276.086 188.338 220.667 236.649 194.729C242.687 191.488 248.89 188.724 255.24 186.342ZM1175.24 25.4348C1139.55 19.4154 1103.26 16.8601 1068.34 18.1623C1036.8 19.287 1005.54 24.2832 975.43 29.1172C969.121 30.1191 962.763 31.1282 956.359 32.1099C960.876 32.2082 965.412 32.3187 969.953 32.4415C971.537 32.4255 973.131 32.4107 974.736 32.3971C981.535 31.5191 988.27 30.6096 994.93 29.71L998.16 29.274L998.404 29.2405C1028.73 25.0656 1060.19 20.7344 1091.64 20.0927C1119.08 19.58 1147.34 21.4464 1175.24 25.4348ZM1180.09 26.8984C1150.67 22.4008 1120.8 20.292 1091.93 20.8983C1060.81 21.5331 1029.97 25.7788 999.943 29.9118L998.722 30.0798L998.636 30.0918C993.232 30.8431 987.788 31.5999 982.306 32.3413C982.379 32.3408 982.453 32.3404 982.527 32.3399C984.806 32.4968 987.362 32.4968 989.919 32.4968C993.734 32.4968 997.577 32.5128 1001.44 32.5419C1007.79 31.8239 1014.08 31.0802 1020.32 30.3435L1021.18 30.2419C1051.86 26.538 1083.69 22.8341 1115.79 22.8341C1137.11 22.8341 1158.72 24.2305 1180.09 26.8984ZM895.766 32.9802C895.865 32.9624 895.965 32.9446 896.064 32.9267C898.873 32.8978 901.702 32.878 904.553 32.8668C906.965 33.0189 909.377 33.1709 911.788 33.3225C910.588 33.5071 909.387 33.6896 908.184 33.8697C904.032 33.5829 899.892 33.2848 895.766 32.9802ZM885.535 38.7421C883.527 38.721 881.522 38.6887 879.52 38.6458C880.935 38.5009 882.348 38.3504 883.758 38.1947C885.775 38.3065 887.793 38.4108 889.813 38.5069C888.389 38.592 886.963 38.6705 885.535 38.7421ZM918.791 39.2645C907.302 40.3695 896.332 41.6519 885.638 43.1328C834.208 50.3784 785.897 62.9446 742.431 80.345C703.496 95.9718 668.834 114.659 639.285 135.926L638.426 135.444L638.999 136.088C627.627 139.014 616.064 141.436 604.352 143.436C608.357 143.309 612.356 143.16 616.347 142.987C634.566 140.68 652.483 137.548 669.969 133.346C703.21 114.178 739.865 96.9398 779.363 82.1186C822.838 65.8483 870.004 53.6011 920.013 45.5497C940.175 42.4891 960.688 39.9534 981.378 37.9812C975.73 38.2676 970.051 38.4874 964.347 38.6231H949.572C949.103 38.6231 948.634 38.6226 948.164 38.6215C944.108 38.8281 940.031 38.9915 935.932 39.1044C933.581 39.1044 931.097 39.1427 928.544 39.1821C925.846 39.2237 923.073 39.2665 920.299 39.2665C919.797 39.2665 919.294 39.2659 918.791 39.2645ZM1194.31 30.4864C1168.09 26.4293 1141.28 24.2832 1114.95 24.2832C1083.12 24.2832 1052.99 27.8249 1020.89 31.691L1018.05 32.0232C1016.24 32.2353 1014.42 32.4476 1012.61 32.6594C1015.66 32.6999 1018.71 32.7466 1021.76 32.7982C1025.71 32.6835 1029.64 32.6064 1033.58 32.5589C1035.96 32.3347 1038.34 32.1098 1040.71 31.8857L1042.77 31.691C1075.45 28.4684 1106.42 25.5701 1138.52 26.2136C1157.42 26.719 1176.08 28.159 1194.31 30.4864ZM1194.38 31.4722C1176.4 29.1985 1158.01 27.8055 1139.38 27.3437C1108.76 26.7301 1079.44 29.4839 1048.45 32.3942C1048.08 32.4291 1047.71 32.4639 1047.34 32.4988C1053.18 32.507 1059.05 32.5398 1064.93 32.5934C1098.14 30.0391 1129.42 27.6804 1161.83 29.1172C1172.57 29.5555 1183.32 30.344 1194 31.4623C1194.13 31.4656 1194.25 31.4689 1194.38 31.4722ZM1181.54 31.2437C1175.26 30.7405 1168.97 30.3512 1162.67 30.0798C1135.44 28.9978 1108.81 30.534 1081.26 32.4872C1088.39 32.3813 1095.56 32.3399 1102.73 32.3399C1103.49 32.3399 1104.25 32.3405 1105.01 32.3417C1126.83 31.2543 1148.08 30.5489 1169.48 31.2257C1171.1 31.2151 1172.71 31.2098 1174.33 31.2098C1176.73 31.2098 1179.14 31.2211 1181.54 31.2437ZM1200.01 33.1575C1200.41 33.171 1200.82 33.1849 1201.22 33.199C1202.33 33.3299 1203.43 33.4642 1204.53 33.6019C1203.02 33.4473 1201.52 33.2991 1200.01 33.1575ZM933.686 33.1068C932.611 33.0608 931.536 33.016 930.462 32.973C929.125 32.9581 927.793 32.9446 926.467 32.9325C927.919 33.0194 929.372 33.1057 930.827 33.1914C931.776 33.1624 932.729 33.1342 933.686 33.1068ZM917.397 33.6714C917.258 33.6629 917.12 33.6544 916.982 33.6459C916.861 33.6652 916.739 33.6845 916.617 33.7038C916.877 33.6929 917.137 33.6821 917.397 33.6714ZM927.972 34.8274C926.862 34.8616 925.756 34.897 924.654 34.9337C925.217 34.9672 925.78 35.0003 926.343 35.0331C926.887 34.9651 927.429 34.8965 927.972 34.8274ZM919.48 35.8595C917.11 35.7125 914.743 35.5606 912.38 35.4045C909.068 35.5493 905.791 35.7078 902.542 35.8815C906.246 36.1092 909.955 36.3176 913.67 36.5033C915.61 36.2974 917.547 36.0825 919.48 35.8595ZM921.904 36.8759C923.51 36.6861 925.113 36.4909 926.713 36.2909C929.633 36.4577 932.557 36.6157 935.486 36.7631C935.382 36.7721 935.277 36.7812 935.173 36.7902C933.591 36.9155 932.02 37.0438 930.458 37.1751C927.605 37.0912 924.753 36.991 921.904 36.8759ZM905.901 37.2752C902.686 37.0903 899.475 36.8897 896.27 36.6755C894.942 36.8505 893.613 37.0216 892.281 37.1886C895.695 37.3419 899.114 37.4717 902.537 37.5754C903.66 37.4788 904.781 37.3787 905.901 37.2752ZM913.514 37.8149C913.799 37.7848 914.085 37.7546 914.37 37.7241C915.273 37.7678 916.177 37.8101 917.081 37.851C915.892 37.8425 914.702 37.8304 913.514 37.8149ZM940.855 37.4058C941.557 37.4161 942.259 37.4253 942.961 37.4334C944.196 37.3833 945.429 37.3287 946.662 37.2701C945.836 37.237 945.011 37.2029 944.186 37.1678C943.07 37.2458 941.96 37.3251 940.855 37.4058ZM956.196 36.3919C957.397 36.4288 958.598 36.4633 959.799 36.4952C961.097 36.4047 962.393 36.3105 963.688 36.2127C962.866 36.1767 962.045 36.1401 961.224 36.1029C959.535 36.1967 957.859 36.293 956.196 36.3919ZM975.157 36.6672C974.853 36.6949 974.548 36.7225 974.244 36.7499C975.568 36.7607 976.893 36.768 978.217 36.7715C977.197 36.738 976.176 36.7032 975.157 36.6672ZM993.72 35.8991C990.875 35.8437 988.031 35.7764 985.19 35.6982C985.648 35.6517 986.106 35.6049 986.563 35.5579C989.136 35.6632 991.715 35.7642 994.297 35.8599C994.104 35.873 993.912 35.8861 993.72 35.8991ZM1049.14 34.8391C1049.27 34.8303 1049.39 34.8214 1049.51 34.8125C1050.65 34.8425 1051.78 34.8729 1052.91 34.9037C1051.65 34.8837 1050.4 34.8621 1049.14 34.8391ZM1030.86 34.3702C1030.14 34.3554 1029.42 34.3408 1028.7 34.3265C1028.63 34.3338 1028.55 34.3411 1028.47 34.3484C1029.08 34.3656 1029.69 34.3826 1030.29 34.3993C1030.48 34.3896 1030.67 34.3799 1030.86 34.3702ZM959.342 34.3009C958.629 34.2651 957.917 34.2292 957.206 34.1932C955.009 34.2242 952.832 34.2579 950.675 34.2948C952.704 34.3993 954.736 34.5008 956.77 34.599C957.628 34.5007 958.485 34.4013 959.342 34.3009ZM965.055 34.5843C964.266 34.6817 963.476 34.7784 962.686 34.8743C963.004 34.8885 963.323 34.9027 963.641 34.9167C964.966 34.8461 966.299 34.777 967.641 34.7097C966.778 34.6682 965.916 34.6263 965.055 34.5843ZM948.691 35.4886C944.943 35.2922 941.205 35.086 937.48 34.8732C936.124 35.0602 934.765 35.2446 933.405 35.426C937.005 35.6162 940.61 35.791 944.22 35.947C945.713 35.7984 947.203 35.6454 948.691 35.4886ZM877.224 37.8064C875.134 38.0165 873.038 38.2143 870.937 38.3985C870.335 38.3768 869.733 38.3542 869.131 38.3308C871.375 38.1171 873.623 37.9137 875.878 37.7201C876.327 37.7492 876.776 37.778 877.224 37.8064ZM861.378 39.1128C861.446 39.1163 861.515 39.1198 861.583 39.1233C861.32 39.1409 861.056 39.1583 860.792 39.1755C860.988 39.1545 861.183 39.1336 861.378 39.1128ZM1251.68 45.816C1248.38 44.6896 1245.1 43.597 1241.84 42.5375C1241.22 42.3591 1240.59 42.1808 1239.96 42.0026C1238.86 41.6912 1237.76 41.3804 1236.66 41.0702C1241.63 42.5996 1246.64 44.1815 1251.68 45.816ZM1251.68 45.816C1257.84 47.9164 1264.07 50.1346 1270.37 52.4764C1271.07 52.7348 1271.77 52.9967 1272.47 53.2622C1277.34 55.184 1282.1 57.1869 1286.73 59.2695C1282.04 57.0956 1277.29 55.0949 1272.47 53.2622C1266.9 51.0683 1261.18 48.9799 1255.31 46.9988C1254.1 46.6016 1252.89 46.2073 1251.68 45.816ZM1320.21 74.5968C1331.85 82.4702 1341.93 91.12 1350.96 99.8466C1349.43 97.4548 1347.53 94.9946 1345.22 92.4777C1344.83 92.1158 1344.44 91.755 1344.05 91.3952C1343.01 90.5592 1341.94 89.7218 1340.84 88.883C1334.41 83.8726 1327.53 79.1069 1320.21 74.5968ZM1355.34 102.607C1355.87 103.602 1356.34 104.599 1356.76 105.598C1360.37 109.26 1363.81 112.909 1367.13 116.493C1366.79 115.919 1366.45 115.346 1366.08 114.772C1362.63 110.668 1359.08 106.599 1355.34 102.607ZM1289.06 58.7185C1302.85 65.2874 1316.23 73.3469 1329.33 83.0252C1330.72 83.9818 1332.09 84.9486 1333.44 85.9255C1320.91 75.7372 1306.43 66.2451 1289.06 58.7185ZM289.475 203.37C289.609 204.471 289.765 205.598 289.947 206.757C291.054 208.063 292.18 209.382 293.329 210.717C295.107 211.86 296.894 212.997 298.69 214.129C295.455 210.412 292.395 206.857 289.475 203.37ZM302.103 218.038C300.326 216.939 298.558 215.835 296.798 214.725C297.85 215.935 298.921 217.161 300.011 218.407C318.2 239.03 340.644 258.361 367.074 275.761C393.781 292.999 426.736 310.237 468.227 328.443C487.265 336.819 507.152 345.033 527.039 352.608C538.409 357.118 550.341 361.308 562.56 365.012C586.996 372.263 613.99 376.129 640.134 379.833L646.105 380.639C813.176 404.642 972.016 388.853 1081.7 337.144C1106.98 325.221 1130 311.043 1151.88 297.509C1158.7 293.324 1165.52 289.133 1172.34 284.943C1193.37 272.376 1215.25 261.264 1236.56 250.628C1271.22 233.233 1303.9 216.801 1332.03 194.729C1349.93 180.713 1367.55 165.568 1372.1 147.524C1374.22 139.41 1373.69 131.353 1370.47 123.27C1368.39 120.558 1366.09 117.824 1363.57 115.066C1370.7 126.027 1372.87 136.885 1370.1 147.848C1365.56 165.568 1347.94 180.551 1330.33 194.404C1302.19 216.477 1269.52 232.909 1235.14 250.147C1213.83 260.778 1191.66 271.895 1170.64 284.461C1168.34 285.872 1166.01 287.282 1163.69 288.692C1159.1 291.471 1154.51 294.248 1150.18 297.028C1128.3 310.562 1105.57 324.577 1080.27 336.495C971.167 387.89 812.899 403.674 646.667 379.671L640.706 378.866C614.562 375.162 587.569 371.295 563.695 364.044C551.476 360.34 539.544 356.15 528.184 351.64C508.287 344.07 488.686 335.851 469.648 327.476C428.443 309.269 395.489 292.194 368.772 274.955C342.4 257.587 319.981 238.457 302.103 218.038ZM259.047 160.029C259.062 160.049 259.077 160.07 259.092 160.09L257.759 160.418C257.729 160.363 257.7 160.308 257.671 160.253L259.047 160.029ZM255.763 155.202C255.037 154.052 254.35 152.901 253.701 151.747C252.972 151.823 252.245 151.899 251.518 151.977C252.173 153.139 252.867 154.298 253.601 155.456C254.321 155.37 255.042 155.285 255.763 155.202ZM250.968 150.987C251.696 150.909 252.424 150.832 253.152 150.756C252.483 149.523 251.857 148.288 251.275 147.051C250.541 147.12 249.807 147.19 249.073 147.26C249.661 148.505 250.292 149.747 250.968 150.987ZM248.492 145.999C249.227 145.928 249.962 145.858 250.697 145.79C250.272 144.836 249.873 143.882 249.499 142.927C248.759 142.991 248.02 143.055 247.281 143.121C247.659 144.081 248.062 145.04 248.492 145.999ZM246.74 141.695C247.48 141.63 248.221 141.566 248.962 141.504C237.993 111.358 252.696 80.3699 291.77 52.4764C335.531 21.3849 405.141 3.49792 478.175 4.62805C483.044 4.7074 487.908 4.868 492.765 5.10153C485.459 4.22117 478.131 3.46564 470.783 2.86367C399.6 3.53054 332.464 21.3837 290.063 51.6707C250.542 79.8146 235.558 111.165 246.74 141.695ZM591.588 12.9595C591.792 12.9878 591.997 13.0161 592.201 13.0444C592.368 13.0465 592.534 13.0487 592.701 13.051C592.33 13.0202 591.959 12.9897 591.588 12.9595ZM611.765 14.892C608.664 14.7425 605.563 14.6173 602.461 14.5185C606.475 15.1144 610.48 15.7302 614.476 16.361C617.413 16.2623 620.351 16.2361 623.288 16.229C619.453 15.7592 615.611 15.3122 611.765 14.892ZM632.221 17.3641C628.442 17.3285 624.656 17.3333 620.86 17.382C626.166 18.241 631.456 19.1218 636.729 20.013C640.306 19.7913 643.896 19.6107 647.494 19.4718C642.416 18.7407 637.324 18.0349 632.221 17.3641ZM654.248 19.2971C650.199 18.6985 646.139 18.1133 642.07 17.5465C644.67 17.6177 647.268 17.7067 649.865 17.8122C654.017 18.2333 658.165 18.6827 662.306 19.155C659.601 19.1855 656.908 19.2368 654.248 19.2971ZM655.647 20.6678C653.037 20.7245 650.422 20.801 647.802 20.8983C646.239 20.9572 644.678 21.0239 643.118 21.0986C647.022 21.7647 650.916 22.434 654.8 23.1016L656.044 23.3153C657.76 23.6261 659.476 23.9278 661.192 24.2248C665.06 23.8714 668.944 23.565 672.838 23.3067C667.129 22.4104 661.398 21.5261 655.647 20.6678ZM678.212 22.9812C673.052 22.1651 667.869 21.3552 662.667 20.5621C666.551 20.5291 670.427 20.5378 674.297 20.5846C679.194 21.192 684.08 21.8247 688.953 22.474C686.341 22.5793 683.708 22.7004 681.053 22.8341C680.105 22.8803 679.158 22.9293 678.212 22.9812ZM678.215 24.1549C674.089 24.391 669.975 24.6821 665.877 25.0269C666.152 25.0737 666.427 25.1205 666.702 25.1673C670.255 25.7715 673.808 26.3758 677.361 27.0192C680.382 27.5352 683.414 28.0492 686.458 28.5586C690.302 28.0909 694.169 27.6667 698.057 27.2868C695.443 26.8891 692.822 26.4887 690.143 26.0568C686.179 25.4223 682.202 24.7868 678.215 24.1549ZM702.52 26.871C699.54 26.4169 696.59 25.9338 693.593 25.4433C692.545 25.2717 691.491 25.0992 690.429 24.9267C688.218 24.5732 686.003 24.2193 683.784 23.8658C687.874 23.6717 691.957 23.5279 696.036 23.43C702.134 24.2625 708.21 25.1146 714.259 25.9693C710.328 26.2249 706.414 26.5257 702.52 26.871ZM703.544 28.1259C699.439 28.4888 695.356 28.9014 691.297 29.3626C699.491 30.7139 707.766 32.0225 716.112 33.2386C719.776 32.7167 723.462 32.2333 727.168 31.7887C720.703 30.822 714.234 29.8172 707.76 28.7928C706.34 28.5628 704.938 28.3419 703.544 28.1259ZM731.754 31.2596C723.981 30.1275 716.195 28.9372 708.388 27.7214C710.918 27.5225 713.456 27.3425 716.001 27.1815C717.629 27.0826 719.257 26.9912 720.884 26.9071C720.984 26.9212 721.084 26.9354 721.184 26.9496L722.82 27.1815C727.933 27.9872 733.045 28.7928 738.167 29.4363C739.842 29.6661 741.512 29.8946 743.176 30.1218C739.349 30.4604 735.542 30.8398 731.754 31.2596ZM730.508 32.2847C726.757 32.7169 723.026 33.1888 719.316 33.7001C728.027 34.9411 736.816 36.0748 745.675 37.0452C748.691 36.5491 751.722 36.0776 754.766 35.6309C746.677 34.6042 738.594 33.4767 730.508 32.2847ZM759.327 34.9814C751.301 34.0001 743.273 32.9151 735.234 31.7624C739.151 31.3478 743.089 30.9763 747.045 30.6483C754.721 31.6898 762.289 32.6959 769.774 33.6419C766.276 34.0562 762.793 34.5028 759.327 34.9814ZM760.216 36.3068C757.176 36.7198 754.149 37.1581 751.136 37.6214C762.137 38.7367 773.242 39.584 784.436 40.0567C786.02 39.7925 787.607 39.5347 789.196 39.2832C779.517 38.4871 769.861 37.4744 760.216 36.3068ZM794.356 38.4913C784.586 37.7593 774.838 36.7964 765.09 35.6677C768.69 35.2128 772.307 34.7932 775.94 34.4093C784.851 35.5002 793.655 36.4952 802.396 37.352C799.708 37.7136 797.028 38.0934 794.356 38.4913ZM807.825 36.6474C810.865 36.2674 813.912 35.9107 816.967 35.5774C808.848 34.7378 800.85 33.8264 793.003 32.8908C789.972 33.1135 786.942 33.3583 783.913 33.6268C783.126 33.6982 782.34 33.7712 781.555 33.8458C790.394 34.9036 799.136 35.8504 807.825 36.6474ZM775.018 33.0462C777.879 32.7351 780.748 32.4456 783.626 32.1777C784.327 32.1217 785.027 32.0666 785.728 32.0125C780.552 31.3807 775.447 30.7446 770.422 30.1186L768.852 29.9229L765.297 29.4541C761.277 29.6548 757.258 29.8946 753.231 30.1765C760.579 31.1857 767.834 32.1491 775.018 33.0462ZM749.218 29.6222C749.321 29.6143 749.424 29.6064 749.527 29.5985C752.858 29.2462 756.178 28.9449 759.489 28.6882L756.633 28.3116L752.827 27.8346C748.541 27.2974 744.277 26.7629 740.03 26.2358C735.733 26.318 731.433 26.4442 727.129 26.619C730.996 27.1759 734.863 27.6627 738.73 28.1494C742.249 28.6482 745.744 29.1399 749.218 29.6222ZM720.285 25.6107C723.904 25.4155 727.499 25.2577 731.072 25.1335C725.879 24.5012 720.709 23.8854 715.558 23.295C711.709 23.2592 707.86 23.2583 704.009 23.2959C709.453 24.0598 714.879 24.8353 720.285 25.6107ZM696.274 22.2213C699.008 22.1439 701.717 22.0878 704.402 22.0567C701.826 21.7809 699.254 21.5133 696.684 21.2548C693.135 21.0893 689.585 20.9499 686.032 20.8396C689.452 21.2915 692.866 21.753 696.274 22.2213ZM672.819 19.1507C672.832 19.1508 672.845 19.1509 672.859 19.1511C672.828 19.1487 672.796 19.1464 672.765 19.1441C672.783 19.1463 672.801 19.1485 672.819 19.1507ZM727.358 23.5101C731.18 23.9683 735.014 24.4374 738.862 24.9142C740.834 24.8714 742.799 24.8383 744.757 24.8142C740.467 24.4046 736.188 24.0138 731.917 23.6467C730.397 23.5964 728.878 23.5508 727.358 23.5101ZM758.078 26.1365C754.912 26.113 751.746 26.1099 748.58 26.1289C751.352 26.4777 754.131 26.8289 756.919 27.1815L765.274 28.2833C768.216 28.099 771.152 27.9472 774.083 27.8235C768.722 27.2467 763.389 26.6813 758.078 26.1365ZM784.81 27.4871C781.539 27.138 778.28 26.7902 775.031 26.4458C777.449 26.5145 779.869 26.5931 782.292 26.6809C785.124 26.9103 787.963 27.1472 790.808 27.3899C788.809 27.4127 786.81 27.4446 784.81 27.4871ZM783.19 28.8091C779.464 28.8937 775.746 29.0078 772.031 29.1538C778.47 29.9571 785.029 30.7743 791.692 31.5757C795.363 31.3211 799.04 31.0924 802.723 30.8888C802.36 30.8494 801.996 30.81 801.632 30.7707L801.244 30.7286L790.446 29.5985L787.375 29.2644C785.978 29.1123 784.583 28.9605 783.19 28.8091ZM812.233 30.4191C808.752 30.0394 805.279 29.6567 801.816 29.274L795.662 28.633C798.738 28.6151 801.824 28.6151 804.922 28.6319C810.201 29.1079 815.504 29.5963 820.837 30.0883C817.967 30.184 815.099 30.2942 812.233 30.4191ZM811.23 31.8076C807.219 31.9921 803.21 32.2103 799.202 32.4657C806.672 33.3364 814.262 34.1742 821.953 34.939C824.261 34.5263 826.564 34.1007 828.862 33.6637C822.957 33.0602 817.079 32.4364 811.23 31.8076ZM833.838 32.6988C829.687 32.2804 825.547 31.849 821.419 31.4097C824.944 31.2958 828.472 31.2058 832.001 31.1374L836.191 31.5343C836.969 31.6089 837.747 31.6834 838.526 31.7579C836.966 32.0759 835.403 32.3897 833.838 32.6988ZM841.822 33.485C840.701 33.3775 839.582 33.2688 838.463 33.159C840.023 32.8425 841.58 32.522 843.135 32.1979C845.733 32.4452 848.337 32.6913 850.945 32.9352C847.894 33.1011 844.854 33.284 841.822 33.485ZM830.348 29.8236C832.122 29.7839 833.896 29.7496 835.671 29.7205C831.904 29.4524 828.15 29.1915 824.408 28.9407C822.886 28.902 821.368 28.8665 819.855 28.8344C821.416 28.9806 822.979 29.1272 824.545 29.274L830.348 29.8236ZM632.914 16.2646C632.798 16.2633 632.683 16.2619 632.567 16.2607C632.412 16.2403 632.257 16.2201 632.103 16.1998C632.373 16.2213 632.643 16.2429 632.914 16.2646ZM567.023 11.4601C562.097 11.2667 557.169 11.1422 552.24 11.0949C556.971 11.7788 561.694 12.5005 566.405 13.252C569.595 13.106 572.79 12.9953 575.99 12.9204C573.006 12.423 570.017 11.9356 567.023 11.4601ZM583.881 14.2595C582.551 14.266 581.221 14.2782 579.891 14.2961C577.809 14.326 575.73 14.3713 573.652 14.4317C579.631 15.4238 585.593 16.4576 591.536 17.5165C594.125 17.3214 596.723 17.148 599.328 16.9967C594.196 16.0667 589.046 15.1508 583.881 14.2595ZM604.207 17.8855C601.516 18.0153 598.833 18.1688 596.158 18.3457C602.537 19.497 608.893 20.6725 615.225 21.8517C617.452 21.6084 619.685 21.3809 621.925 21.1696C616.044 20.0716 610.137 18.9714 604.207 17.8855ZM627.293 22.1299C624.913 22.3264 622.538 22.5413 620.171 22.7741C621.129 22.9529 622.086 23.1317 623.042 23.3103L623.938 23.4775C629.492 24.527 635.05 25.5764 640.606 26.5663C642.728 26.277 644.856 26.0019 646.99 25.741C640.426 24.5006 633.863 23.2607 627.293 22.1299ZM651.153 26.5036C649.016 26.7527 646.884 27.0163 644.759 27.2942C645.491 27.4202 646.222 27.5448 646.954 27.6681C653.636 28.9004 660.378 30.1204 667.178 31.2999C669.153 30.9779 671.135 30.6676 673.124 30.3691C665.732 29.1198 658.407 27.8184 651.153 26.5036ZM677.599 31.1172C675.543 31.4105 673.495 31.7164 671.455 32.0348C680.159 33.5159 688.956 34.9214 697.838 36.1926C699.872 35.824 701.913 35.4676 703.962 35.1234C695.087 33.9117 686.297 32.5556 677.599 31.1172ZM707.079 35.5424C704.978 35.8858 702.885 36.242 700.8 36.611C710.211 37.9227 719.717 39.077 729.311 40.0047C731.53 39.5663 733.758 39.1415 735.995 38.7304C726.265 37.8937 716.623 36.8055 707.079 35.5424ZM741.585 39.182C739.185 39.5973 736.796 40.0286 734.416 40.4758C741.148 41.0671 747.923 41.5414 754.738 41.8751C760.382 41.7785 766.034 41.5568 771.694 41.1969C773.038 41.1161 774.38 41.0274 775.721 40.9312C773.481 40.7963 771.245 40.6477 769.012 40.4862C759.798 40.3223 750.654 39.8671 741.585 39.182ZM769.633 42.7293C762.648 42.9982 755.635 43.1328 748.392 43.1328C740.375 43.1328 732.383 42.8968 724.418 42.4608C690.124 49.6367 658.146 60.1525 629.909 73.5806C588.99 93.3926 558.582 117.72 544.38 142.047L543.235 141.884L543.807 142.533C542.404 142.979 540.996 143.414 539.585 143.838C545.114 143.921 550.64 143.979 556.162 144.009C562.243 142.607 568.264 141.047 574.215 139.31C593.53 115.789 625.359 93.5548 665.992 74.8676C696.912 60.8653 732.227 50.0025 769.633 42.7293ZM549.875 145.399C544.893 145.351 539.908 145.282 534.921 145.195C533.657 145.552 532.389 145.9 531.118 146.24C536.072 146.253 541.021 146.242 545.965 146.204C547.271 145.942 548.574 145.674 549.875 145.399ZM539.479 147.447C535.167 147.459 530.852 147.452 526.534 147.429C524.603 147.914 522.665 148.381 520.721 148.831C524.683 148.787 528.642 148.726 532.595 148.644C534.897 148.264 537.191 147.865 539.479 147.447ZM512.948 148.895C515.271 148.414 517.585 147.909 519.892 147.381C514.687 147.333 509.48 147.263 504.273 147.176C502.332 147.775 500.382 148.352 498.426 148.907C503.269 148.924 508.111 148.922 512.948 148.895ZM494.767 148.89C496.824 148.323 498.871 147.733 500.91 147.117C494.086 146.993 487.263 146.839 480.446 146.667C478.65 147.365 476.846 148.037 475.035 148.684C481.611 148.781 488.191 148.853 494.767 148.89ZM470.427 148.613C472.361 147.956 474.286 147.271 476.201 146.558C467.294 146.323 458.397 146.06 449.524 145.79C449.491 146.531 449.475 147.271 449.475 148.011H448.34L448.548 148.189C455.831 148.348 463.126 148.494 470.427 148.613ZM445.362 148.118C445.691 147.975 446.019 147.831 446.346 147.686C446.353 147.023 446.373 146.359 446.406 145.695C444.488 145.636 442.571 145.577 440.655 145.518L437.819 145.431L437.176 145.411C430.515 145.199 423.838 144.986 417.153 144.782C417.184 145.677 417.239 146.572 417.318 147.465C420.137 147.531 422.953 147.597 425.766 147.663L426.736 147.686L427.906 147.714C433.714 147.851 439.534 147.988 445.362 148.118ZM415.364 147.42C415.28 146.522 415.221 145.623 415.186 144.723C404.953 144.414 394.698 144.128 384.44 143.9C384.558 144.866 384.704 145.831 384.878 146.795C395.054 146.965 405.223 147.186 415.364 147.42ZM382.628 146.758C382.465 145.79 382.33 144.821 382.223 143.852C371.735 143.627 361.246 143.465 350.775 143.402C350.973 144.427 351.201 145.451 351.46 146.474C361.841 146.484 372.237 146.592 382.628 146.758ZM349.536 146.473C349.273 145.447 349.041 144.42 348.84 143.392C338.46 143.341 328.099 143.391 317.776 143.575C318.072 144.657 318.401 145.738 318.764 146.817C328.989 146.576 339.254 146.475 349.536 146.473ZM316.141 146.882C315.773 145.798 315.44 144.712 315.142 143.625C304.717 143.835 294.333 144.186 284.011 144.715C284.424 145.866 284.876 147.016 285.366 148.164C295.567 147.563 305.832 147.15 316.141 146.882ZM283.57 143.441C293.927 142.91 304.346 142.557 314.806 142.345C314.593 141.49 314.4 140.633 314.229 139.777C303.687 139.954 293.185 140.269 282.741 140.754C282.995 141.65 283.271 142.546 283.57 143.441ZM282.365 139.352C292.849 138.874 303.391 138.565 313.972 138.393C309.145 110.493 326.709 81.9421 365.081 56.3425C404.847 29.9658 464.82 13.1575 528.042 10.2334C523.071 9.40193 518.088 8.60748 513.093 7.85942C512.725 7.85607 512.357 7.85319 511.988 7.85077H509.708C439.526 7.85077 372.187 25.4079 329.274 54.8934C291.103 81.2854 275.049 110.708 282.365 139.352ZM534.259 11.2931C469.471 13.4009 407.793 30.2614 367.065 57.1482C329.187 82.4656 311.898 110.734 316.619 138.353C327.08 138.206 337.576 138.188 348.092 138.27C345.442 110.907 364.263 83.0295 402.871 58.4351C439.81 34.8725 493.584 18.9714 550.684 14.2603C545.224 13.2391 539.749 12.2458 534.259 11.2931ZM556.183 15.2989C497.622 19.409 442.119 35.4183 404.292 59.5652C366.311 83.9248 347.566 111.327 350.048 138.286C360.656 138.381 371.282 138.574 381.909 138.833C381.529 112.119 401.677 85.0507 440.375 61.1765C475.402 39.6296 523.158 24.8812 575.314 19.0354C568.96 17.7709 562.583 16.5186 556.183 15.2989ZM579.135 19.7976C526.179 25.3389 477.597 40.095 442.083 61.82C403.58 85.4463 383.471 112.389 384.077 138.887C394.469 139.149 404.861 139.472 415.234 139.826C416.767 113.381 438.867 86.5503 478.175 63.2691C510.353 44.3066 552.939 30.6177 599.355 23.8705C596.844 23.3632 594.336 22.8551 591.832 22.3474L591.093 22.1986C587.116 21.3985 583.13 20.5965 579.135 19.7976ZM603.564 24.7191C555.997 31.1924 512.277 45.0004 479.587 64.3992C440.469 87.429 418.832 113.849 417.219 139.894C427.122 140.236 437.008 140.604 446.861 140.971C450.583 114.902 474.271 88.3798 514.821 65.6861C544.74 48.8384 583.217 36.1409 625.059 28.9589C617.867 27.5777 610.702 26.1548 603.564 24.7191ZM628.791 29.6713C586.411 36.7565 547.379 49.5498 517.1 66.4918C476.933 88.9697 453.529 115.242 449.955 141.087C459.758 141.467 469.596 141.848 479.456 142.203C485.807 116.234 511.785 90.0196 552.897 67.9409C580.944 52.8802 615.094 41.2818 652.474 33.9404C644.549 32.5984 636.654 31.1628 628.791 29.6713ZM656.517 34.6162C618.352 41.8613 583.469 53.5617 554.891 68.9088C514.006 90.8599 488.341 116.764 482.079 142.297C491.655 142.637 501.25 142.951 510.851 143.216C520.508 117.692 548.777 92.0539 590.688 70.6824C618.629 56.7438 650.424 45.9886 684.699 38.7661C675.264 37.563 665.869 36.1591 656.517 34.6162ZM687.632 39.1334C652.936 46.2948 620.756 57.0806 592.681 71.1636C551.009 92.3924 523.011 117.895 513.383 143.284C520.322 143.469 527.263 143.627 534.201 143.75C537.04 142.956 539.864 142.121 542.672 141.241C556.875 116.757 587.569 92.4301 628.488 72.4506C655.623 59.5303 686.273 49.3277 719.069 42.1382C708.543 41.445 698.063 40.4156 687.632 39.1334ZM529.251 145.088C523.48 144.972 517.708 144.832 511.939 144.675C510.601 145.136 509.258 145.585 507.912 146.023C513.55 146.11 519.186 146.175 524.819 146.212C526.3 145.848 527.777 145.473 529.251 145.088ZM504.607 145.969C506.011 145.521 507.41 145.061 508.804 144.588C499.776 144.332 490.755 144.034 481.751 143.714C481.625 144.298 481.508 144.881 481.402 145.464C489.133 145.664 496.871 145.837 504.607 145.969ZM478.774 145.395C478.882 144.804 479 144.212 479.128 143.62C469.501 143.274 459.895 142.903 450.324 142.533C450.142 142.526 449.96 142.519 449.778 142.512C449.704 143.184 449.644 143.855 449.597 144.526C459.3 144.837 469.031 145.136 478.774 145.395ZM446.485 144.426C446.536 143.748 446.6 143.07 446.678 142.391C436.863 142.01 427.016 141.631 417.152 141.282C417.127 142.02 417.117 142.758 417.124 143.495C423.888 143.701 430.641 143.916 437.377 144.13L437.819 144.145C440.705 144.239 443.594 144.333 446.485 144.426ZM415.153 143.436C415.143 142.695 415.15 141.954 415.173 141.212C404.835 140.85 394.481 140.522 384.126 140.258C384.166 141.043 384.223 141.828 384.299 142.613C394.595 142.841 404.886 143.127 415.153 143.436ZM382.096 142.565C382.028 141.778 381.978 140.991 381.946 140.203C371.354 139.941 360.764 139.749 350.192 139.656C350.29 140.477 350.407 141.298 350.544 142.118C361.051 142.18 371.575 142.341 382.096 142.565ZM348.605 142.107C348.465 141.285 348.344 140.463 348.243 139.64C337.76 139.561 327.298 139.582 316.874 139.735C317.042 140.589 317.232 141.442 317.443 142.295C327.799 142.109 338.193 142.058 348.605 142.107ZM554.6 9.99694C547.018 9.3186 539.421 8.77819 531.813 8.40813C535.529 8.84459 539.239 9.31116 542.945 9.80402C543.897 9.7932 544.849 9.78557 545.801 9.78113C546.364 9.9433 546.935 9.9433 547.498 9.9433H547.499C549.866 9.9433 552.233 9.96148 554.6 9.99694ZM850.62 35.7571C848.102 35.533 845.589 35.3019 843.079 35.065C840.567 35.4583 838.048 35.8361 835.523 36.1961C838.292 36.4325 841.071 36.6567 843.861 36.867C846.12 36.509 848.373 36.1385 850.62 35.7571ZM838.975 37.6198C836.131 37.3894 833.298 37.1456 830.477 36.8903C827.883 37.234 825.282 37.5578 822.673 37.8596C826.069 38.1006 829.459 38.3149 832.848 38.5004C834.895 38.2186 836.938 37.9247 838.975 37.6198ZM826.464 39.3371C822.997 39.1108 819.528 38.8561 816.052 38.5757C813.248 38.8573 810.435 39.1117 807.615 39.3362C812.354 39.583 817.1 39.769 821.854 39.8865C823.393 39.711 824.93 39.5277 826.464 39.3371ZM799.776 41.8105C795.179 41.7576 790.592 41.6351 786.017 41.4504C785.355 41.5181 784.693 41.5841 784.03 41.6486C782.518 41.9024 781.008 42.1623 779.502 42.428C786.055 42.3911 792.642 42.202 799.26 41.8404C799.432 41.8306 799.604 41.8206 799.776 41.8105ZM806.709 40.4724C803.978 40.3281 801.249 40.1638 798.523 39.9808C797.453 40.1222 796.381 40.2599 795.309 40.3938C799.099 40.4678 802.9 40.4954 806.709 40.4724ZM856.184 34.7888C857.859 34.4903 859.532 34.1862 861.201 33.8773C861.123 33.8703 861.044 33.8632 860.966 33.8562C857.689 34.0034 854.432 34.1687 851.189 34.3535C852.852 34.5019 854.517 34.6471 856.184 34.7888ZM874.948 31.222C873.862 31.2006 872.776 31.1803 871.691 31.1614C872.55 31.2293 873.415 31.2941 874.288 31.354C874.508 31.31 874.728 31.266 874.948 31.222ZM868.322 32.1712C868.037 32.1468 867.752 32.1224 867.467 32.0979C865.862 31.9601 864.256 31.8222 862.628 31.6977C861.269 31.9508 859.909 32.2007 858.546 32.4471C858.82 32.4718 859.093 32.4964 859.367 32.521C862.338 32.3899 865.322 32.2736 868.322 32.1712ZM1116.92 13.3197C1074.97 7.21054 1035.77 5.79501 998.722 8.9754C966.715 11.7085 935.267 18.4399 905.239 24.8675L904.962 24.9267L904.712 24.9803C896.888 26.6582 888.987 28.3525 881.01 29.9913C879.347 29.951 877.685 29.9134 876.024 29.8786C874.996 29.8225 873.973 29.7669 872.952 29.7121C883.543 27.6159 894.02 25.3769 904.39 23.1531C905.432 22.9324 906.475 22.7113 907.519 22.4899C936.941 16.2538 967.155 9.84958 998.446 7.20728C1020.8 5.30112 1043.92 5.04358 1067.94 6.45971C1086.44 8.19753 1104.9 10.8197 1123.24 14.0901C1121.12 13.8195 1119.01 13.5628 1116.92 13.3197ZM1512 629.641V628.462C1506.9 629.839 1501.47 631.001 1495.7 631.955C1479.5 634.696 1461.32 635.664 1441.99 635.664C1416.71 635.664 1388.85 634.053 1359.88 632.279L1359.24 632.241C1286.37 627.903 1203.95 622.996 1130.57 643.559C1109.34 649.481 1087.83 657.799 1064.91 669H1068.49C1090.61 658.282 1111.48 650.292 1131.99 644.521C1204.84 624.115 1287.02 629.033 1359.63 633.378L1360.16 633.409L1360.31 633.418C1418.61 636.926 1472.34 640.159 1512 629.641ZM127.291 669H129.51C127.901 667.122 126.295 665.246 124.689 663.371L124.331 662.952C79.8419 611.02 31.4785 554.566 0 494.96V498.97C31.4775 557.191 78.7023 612.316 122.178 663.065L122.992 664.014C124.424 665.675 125.857 667.337 127.291 669ZM0 415.717C21.984 496.596 88.5146 572.601 147.991 640.336C156.35 649.887 164.738 659.446 173.135 669H175.55C166.916 659.178 158.292 649.349 149.699 639.53C88.5906 570.09 20.0364 491.918 0 408.697V415.717ZM1023.08 669H1026.64C1056.27 651.356 1094.13 631.135 1134.83 619.232C1204 599.144 1281.92 602.781 1350.85 605.998L1351.35 606.022L1351.97 606.05C1415.36 608.993 1473.03 611.669 1512 595.348V593.467C1488.08 603.902 1456.73 606.828 1421.26 606.828C1400.16 606.828 1377.48 605.777 1353.99 604.689L1351.35 604.567L1350.73 604.539C1281.55 601.328 1203.39 597.701 1133.7 617.939C1091.72 630.212 1053.18 651.111 1023.08 669ZM1512 557.268V555.152C1485.95 573.984 1446.05 578.148 1399.37 578.148C1382.2 578.148 1364.26 577.574 1345.33 576.968L1341.97 576.861L1340.1 576.801C1274.93 574.721 1201.55 572.38 1136.25 592.325C1094.76 604.892 1056.41 626.158 1021.18 647.1C1009.24 654.186 997.171 661.553 985.171 669H989.116C1000.45 661.938 1011.84 654.958 1023.16 648.23C1058.12 627.283 1096.18 606.179 1137.67 593.618C1202.41 573.828 1275.5 576.17 1340.4 578.25L1342.26 578.31C1412.36 580.626 1475.14 582.667 1512 557.268ZM950.232 669C958.235 664.2 966.213 659.385 974.173 654.582L974.286 654.514C991.903 643.878 1010.38 632.76 1028.28 622.292C1062.94 601.831 1100.17 580.727 1140.8 567.836C1202.17 548.343 1272.08 549.473 1333.45 550.604L1333.62 550.606C1411.98 551.896 1480.65 553.025 1512 512.806V508.962C1487.44 544.469 1435.49 549.798 1373.23 549.798C1367.03 549.798 1360.71 549.722 1354.18 549.643C1347.24 549.56 1340.07 549.473 1332.6 549.473C1270.93 548.343 1200.75 547.219 1138.81 566.874C1097.89 579.921 1060.67 601.026 1025.72 621.486C1007.82 631.96 989.346 643.072 971.729 653.708L970.188 654.636C962.24 659.422 954.273 664.219 946.283 669H950.232ZM904.518 669C937.477 651.532 969.85 632.782 1001.93 614.202L1002.42 613.916C1007.54 611.016 1012.58 608.076 1017.62 605.136C1022.67 602.195 1027.71 599.255 1032.82 596.354L1034.14 595.593C1067.06 576.612 1104.1 555.258 1143.36 542.222C1201.04 523.054 1266.68 522.892 1324.36 522.892L1325 522.89C1407.99 522.729 1479.57 522.59 1504.22 468.598C1507.21 461.996 1509.81 455.308 1512 448.518V441.887C1509.46 450.974 1506.21 459.868 1502.23 468.598C1477.8 521.762 1406.76 521.924 1324.36 521.924L1322.71 521.928C1265.15 522.088 1199.92 522.268 1142.5 541.417C1102.44 554.789 1064.65 576.536 1031.4 595.873C1026.4 598.792 1021.31 601.712 1016.2 604.654C1011.16 607.553 1006.08 610.472 1001 613.43C968.445 632.289 935.586 651.318 902.128 669H904.518Z" fill="#DDCAB1" fill-opacity="0.22"/>
</svg>
