<svg width="1299" height="241" viewBox="0 0 1299 241" fill="none" xmlns="http://www.w3.org/2000/svg">
<mask id="mask0_901_266" style="mask-type:alpha" maskUnits="userSpaceOnUse" x="0" y="0" width="1299" height="241">
<path fill-rule="evenodd" clip-rule="evenodd" d="M1298.85 0.219604H0V240.883H624.074C629.873 241.043 635.598 241.036 641.227 240.883H1298.85V0.219604ZM641.227 240.883C688.291 239.603 728.692 228.116 750.139 218.726C757.664 216.689 785.447 191.299 836.382 106.035C887.318 20.7716 836.768 34.6001 805.126 52.1724L792.971 12.0618L582.284 6.71377C534.588 2.76901 448.007 23.6305 434.108 36.8921C416.282 53.9018 423.304 85.2794 434.108 116.731C451.666 121.443 478.677 136.061 446.263 156.842C413.85 177.623 424.655 192.75 434.108 197.716L523.245 218.726C556.72 233.837 591.565 239.985 624.074 240.883H641.227Z" fill="white"/>
</mask>
<g mask="url(#mask0_901_266)">
<path d="M152.566 189.043V55.3026C152.566 52.5096 153.569 50.1464 155.574 48.2128C157.579 46.2792 159.979 45.3124 162.771 45.3124H286.629C289.422 45.3124 291.785 46.315 293.719 48.3202C295.724 50.3254 296.727 52.7245 296.727 55.5175V65.6151C296.727 68.4081 295.724 70.8072 293.719 72.8124C291.785 74.746 289.422 75.7128 286.629 75.7128H193.064V106.973H273.631C276.424 106.973 278.787 107.975 280.721 109.98C282.726 111.914 283.729 114.277 283.729 117.07V127.168C283.729 129.961 282.726 132.36 280.721 134.365C278.787 136.299 276.424 137.266 273.631 137.266H193.064V168.955H286.414C289.135 168.955 291.463 169.922 293.396 171.855C295.33 173.789 296.297 176.152 296.297 178.945V189.258C296.297 192.051 295.294 194.45 293.289 196.455C291.284 198.389 288.885 199.355 286.092 199.355H162.771C159.979 199.355 157.579 198.389 155.574 196.455C153.569 194.45 152.566 191.979 152.566 189.043ZM304.031 54.3358C303.602 53.4764 303.387 52.5455 303.387 51.5428C303.387 50.4686 304.031 49.1796 305.32 47.6757C306.681 46.1001 308.579 45.3124 311.014 45.3124H334.539C340.125 45.3124 344.386 48.7141 347.322 55.5175L388.895 148.115L430.467 55.5175C433.403 48.7857 437.664 45.384 443.25 45.3124H466.775C469.282 45.3124 471.18 46.1001 472.469 47.6757C473.758 49.1796 474.402 50.4686 474.402 51.5428C474.402 52.5455 474.223 53.4764 473.865 54.3358L411.99 188.398C408.624 195.703 403.504 199.355 396.629 199.355H381.16C374.285 199.355 369.165 195.703 365.799 188.398L304.031 54.3358ZM492.02 189.043V55.3026C492.02 52.5096 493.022 50.1464 495.027 48.2128C497.033 46.2792 499.432 45.3124 502.225 45.3124H626.082C628.875 45.3124 631.238 46.315 633.172 48.3202C635.177 50.3254 636.18 52.7245 636.18 55.5175V65.6151C636.18 68.4081 635.177 70.8072 633.172 72.8124C631.238 74.746 628.875 75.7128 626.082 75.7128H532.518V106.973H613.084C615.877 106.973 618.24 107.975 620.174 109.98C622.179 111.914 623.182 114.277 623.182 117.07V127.168C623.182 129.961 622.179 132.36 620.174 134.365C618.24 136.299 615.877 137.266 613.084 137.266H532.518V168.955H625.867C628.589 168.955 630.916 169.922 632.85 171.855C634.783 173.789 635.75 176.152 635.75 178.945V189.258C635.75 192.051 634.747 194.45 632.742 196.455C630.737 198.389 628.338 199.355 625.545 199.355H502.225C499.432 199.355 497.033 198.389 495.027 196.455C493.022 194.45 492.02 191.979 492.02 189.043ZM655.945 189.258V55.5175C655.945 52.7245 656.912 50.3254 658.846 48.3202C660.779 46.315 663.143 45.3124 665.936 45.3124H697.518C700.024 45.3124 702.674 46.315 705.467 48.3202C708.26 50.3254 710.551 52.7245 712.342 55.5175L777.225 155.312V55.3026C777.225 52.5096 778.191 50.1464 780.125 48.2128C782.13 46.2792 784.529 45.3124 787.322 45.3124H805.799C808.592 45.3124 810.955 46.2792 812.889 48.2128C814.894 50.1464 815.896 52.5813 815.896 55.5175V189.258C815.896 192.051 814.894 194.45 812.889 196.455C810.955 198.389 808.592 199.355 805.799 199.355H770.135C767.342 199.355 764.477 198.389 761.541 196.455C758.605 194.45 756.277 192.051 754.559 189.258L695.154 97.0897V189.258C695.154 192.051 694.152 194.45 692.146 196.455C690.213 198.389 687.85 199.355 685.057 199.355H666.15C663.357 199.355 660.958 198.389 658.953 196.455C656.948 194.45 655.945 192.051 655.945 189.258ZM833.514 65.6151V55.5175C833.514 52.5813 834.48 50.1464 836.414 48.2128C838.348 46.2792 840.783 45.3124 843.719 45.3124H980.037C982.973 45.3124 985.408 46.2792 987.342 48.2128C989.275 50.1464 990.242 52.5813 990.242 55.5175V65.6151C990.242 68.5513 989.275 70.9862 987.342 72.9198C985.408 74.7818 982.973 75.7128 980.037 75.7128H932.127V189.473C932.127 192.266 931.124 194.629 929.119 196.562C927.186 198.424 924.822 199.355 922.029 199.355H901.727C898.934 199.355 896.535 198.424 894.529 196.562C892.596 194.629 891.629 192.266 891.629 189.473V75.7128H843.719C840.783 75.7128 838.348 74.7818 836.414 72.9198C834.48 70.9862 833.514 68.5513 833.514 65.6151ZM996.902 159.932C996.902 155.706 998.156 152.698 1000.66 150.908C1003.17 149.046 1005.6 148.115 1007.97 148.115H1020.75C1027.2 148.115 1032.1 151.624 1035.47 158.642C1038.83 165.661 1046.39 169.17 1058.13 169.17L1095.73 169.922C1108.33 169.922 1114.64 165.804 1114.64 157.568C1114.64 151.338 1106.94 146.432 1091.54 142.851C1084.67 141.204 1077.07 139.593 1068.77 138.017C1060.46 136.37 1052.19 134.329 1043.95 131.894C1035.79 129.46 1028.27 126.595 1021.39 123.301C1014.52 120.006 1008.93 115.495 1004.64 109.766C1000.41 103.965 998.299 97.1613 998.299 89.3553C998.299 74.9608 1003.42 63.8964 1013.66 56.162C1023.9 48.356 1041.52 44.453 1066.51 44.453L1093.8 45.0975C1108.48 45.0975 1121.69 48.8931 1133.44 56.4843C1145.25 64.0038 1151.16 73.4211 1151.16 84.7362C1151.16 88.9615 1149.91 92.0051 1147.4 93.8671C1144.89 95.729 1142.49 96.66 1140.2 96.66H1127.42C1120.97 96.66 1116.07 93.1509 1112.7 86.1327C1109.34 79.0428 1101.78 75.4979 1090.04 75.4979L1057.7 74.8534C1045.1 74.8534 1038.8 78.9712 1038.8 87.2069C1038.8 91.7186 1042.77 95.4068 1050.72 98.2714C1058.74 101.136 1068.41 103.678 1079.72 105.898C1091.11 108.047 1102.53 110.661 1113.99 113.74C1125.45 116.82 1135.15 121.904 1143.1 128.994C1151.12 136.012 1155.13 144.785 1155.13 155.312C1155.13 169.707 1149.98 180.807 1139.67 188.613C1129.43 196.348 1111.84 200.215 1086.92 200.215L1054.37 199.57C1039.69 199.57 1026.44 195.81 1014.63 188.291C1002.81 180.7 996.902 171.247 996.902 159.932Z" fill="white"/>
</g>
<mask id="mask1_901_266" style="mask-type:alpha" maskUnits="userSpaceOnUse" x="431" y="2" width="437" height="237">
<path d="M455.049 153.488C422.635 174.269 433.44 189.396 442.894 194.362L532.03 215.372C621.399 255.712 720.53 232.181 758.924 215.372C766.449 213.335 794.232 187.945 845.167 102.681C896.103 17.4176 845.553 31.2461 813.911 48.8184L801.756 8.70784L591.069 3.35977C543.373 -0.584987 456.792 20.2765 442.894 33.5381C425.067 50.5478 432.089 81.9254 442.894 113.377C460.451 118.089 487.462 132.707 455.049 153.488Z" fill="#D9D9D9" stroke="black"/>
</mask>
<g mask="url(#mask1_901_266)">
<path d="M292.341 49.6401L291.621 50.3343L291.627 50.3408L291.634 50.3472L292.341 49.6401ZM191.687 77.0327V76.0327H190.687V77.0327H191.687ZM191.687 108.292H190.687V109.292H191.687V108.292ZM279.343 111.3L278.623 111.994L278.636 112.008L278.649 112.02L279.343 111.3ZM279.343 135.685L278.636 134.978L279.343 135.685ZM191.687 138.585V137.585H190.687V138.585H191.687ZM191.687 170.275H190.687V171.275H191.687V170.275ZM291.911 197.775L292.605 198.495L292.612 198.488L292.618 198.482L291.911 197.775ZM154.196 197.775L153.489 198.482L153.496 198.488L153.502 198.495L154.196 197.775ZM152.188 190.363V56.6226H150.188V190.363H152.188ZM152.188 56.6226C152.188 54.1003 153.081 51.9971 154.89 50.2526L153.502 48.8129C151.301 50.9355 150.188 53.5589 150.188 56.6226H152.188ZM154.89 50.2526C156.709 48.4992 158.859 47.6323 161.394 47.6323V45.6323C158.342 45.6323 155.694 46.699 153.502 48.8129L154.89 50.2526ZM161.394 47.6323H285.251V45.6323H161.394V47.6323ZM285.251 47.6323C287.773 47.6323 289.876 48.5251 291.621 50.3343L293.061 48.946C290.938 46.7448 288.315 45.6323 285.251 45.6323V47.6323ZM291.634 50.3472C293.455 52.1681 294.349 54.3142 294.349 56.8374H296.349C296.349 53.7747 295.237 51.1225 293.048 48.933L291.634 50.3472ZM294.349 56.8374V66.9351H296.349V56.8374H294.349ZM294.349 66.9351C294.349 69.4583 293.455 71.6043 291.634 73.4252L293.048 74.8394C295.237 72.6499 296.349 69.9978 296.349 66.9351H294.349ZM291.634 73.4252C289.892 75.1668 287.785 76.0327 285.251 76.0327V78.0327C288.303 78.0327 290.922 76.965 293.048 74.8394L291.634 73.4252ZM285.251 76.0327H191.687V78.0327H285.251V76.0327ZM190.687 77.0327V108.292H192.687V77.0327H190.687ZM191.687 109.292H272.253V107.292H191.687V109.292ZM272.253 109.292C274.775 109.292 276.878 110.185 278.623 111.994L280.063 110.606C277.94 108.405 275.317 107.292 272.253 107.292V109.292ZM278.649 112.02C280.458 113.765 281.351 115.868 281.351 118.39H283.351C283.351 115.326 282.238 112.703 280.037 110.58L278.649 112.02ZM281.351 118.39V128.488H283.351V118.39H281.351ZM281.351 128.488C281.351 131.011 280.457 133.157 278.636 134.978L280.05 136.392C282.239 134.203 283.351 131.551 283.351 128.488H281.351ZM278.636 134.978C276.894 136.72 274.787 137.585 272.253 137.585V139.585C275.305 139.585 277.924 138.518 280.05 136.392L278.636 134.978ZM272.253 137.585H191.687V139.585H272.253V137.585ZM190.687 138.585V170.275H192.687V138.585H190.687ZM191.687 171.275H285.036V169.275H191.687V171.275ZM285.036 171.275C287.491 171.275 289.564 172.135 291.311 173.882L292.726 172.468C290.606 170.348 288.024 169.275 285.036 169.275V171.275ZM291.311 173.882C293.053 175.624 293.919 177.731 293.919 180.265H295.919C295.919 177.213 294.851 174.594 292.726 172.468L291.311 173.882ZM293.919 180.265V190.578H295.919V180.265H293.919ZM293.919 190.578C293.919 193.101 293.025 195.247 291.204 197.068L292.618 198.482C294.808 196.292 295.919 193.64 295.919 190.578H293.919ZM291.217 197.055C289.399 198.808 287.249 199.675 284.714 199.675V201.675C287.765 201.675 290.413 200.609 292.605 198.495L291.217 197.055ZM284.714 199.675H161.394V201.675H284.714V199.675ZM161.394 199.675C158.859 199.675 156.709 198.808 154.89 197.055L153.502 198.495C155.694 200.609 158.342 201.675 161.394 201.675V199.675ZM154.903 197.068C153.093 195.257 152.188 193.044 152.188 190.363H150.188C150.188 193.554 151.289 196.282 153.489 198.482L154.903 197.068ZM302.653 55.6558L303.562 55.2373L303.555 55.2228L303.548 55.2085L302.653 55.6558ZM303.942 48.9956L303.186 48.342L303.183 48.3448L303.942 48.9956ZM345.944 56.8374L345.026 57.2337L345.029 57.2403L345.032 57.247L345.944 56.8374ZM387.517 149.435L386.604 149.845L387.517 151.877L388.429 149.845L387.517 149.435ZM429.089 56.8374L430.001 57.247L430.005 57.2372L429.089 56.8374ZM441.872 46.6323V45.6322L441.859 45.6324L441.872 46.6323ZM471.091 48.9956L470.317 49.6288L470.324 49.6377L470.332 49.6464L471.091 48.9956ZM472.487 55.6558L473.395 56.0748L473.403 56.0577L473.41 56.0404L472.487 55.6558ZM410.612 189.718L409.704 189.299L409.704 189.3L410.612 189.718ZM364.421 189.718L363.513 190.137L363.513 190.137L364.421 189.718ZM303.548 55.2085C303.191 54.4941 303.009 53.7171 303.009 52.8628H301.009C301.009 54.0137 301.257 55.0987 301.759 56.103L303.548 55.2085ZM303.009 52.8628C303.009 52.1595 303.452 51.1043 304.702 49.6464L303.183 48.3448C301.855 49.8948 301.009 51.4177 301.009 52.8628H303.009ZM304.699 49.6492C305.837 48.3318 307.437 47.6323 309.636 47.6323V45.6323C306.965 45.6323 304.769 46.5084 303.186 48.342L304.699 49.6492ZM309.636 47.6323H333.161V45.6323H309.636V47.6323ZM333.161 47.6323C335.733 47.6323 337.974 48.4094 339.922 49.9651C341.887 51.5335 343.601 53.931 345.026 57.2337L346.862 56.4412C345.352 52.9404 343.467 50.2354 341.17 48.4021C338.858 46.5561 336.175 45.6323 333.161 45.6323V47.6323ZM345.032 57.247L386.604 149.845L388.429 149.025L346.857 56.4278L345.032 57.247ZM388.429 149.845L430.001 57.247L428.177 56.4278L386.604 149.025L388.429 149.845ZM430.005 57.2372C431.43 53.971 433.144 51.5891 435.111 50.0188C437.063 48.4603 439.308 47.6653 441.885 47.6322L441.859 45.6324C438.85 45.671 436.172 46.6126 433.863 48.4558C431.569 50.2872 429.684 52.9721 428.172 56.4376L430.005 57.2372ZM441.872 47.6323H465.397V45.6323H441.872V47.6323ZM465.397 47.6323C467.68 47.6323 469.261 48.3386 470.317 49.6288L471.865 48.3624C470.342 46.5016 468.128 45.6323 465.397 45.6323V47.6323ZM470.332 49.6464C471.581 51.1043 472.024 52.1595 472.024 52.8628H474.024C474.024 51.4177 473.179 49.8948 471.85 48.3448L470.332 49.6464ZM472.024 52.8628C472.024 53.7436 471.868 54.5428 471.564 55.2711L473.41 56.0404C473.823 55.05 474.024 53.9872 474.024 52.8628H472.024ZM471.579 55.2367L409.704 189.299L411.52 190.137L473.395 56.0748L471.579 55.2367ZM409.704 189.3C408.074 192.837 406.051 195.421 403.667 197.122C401.292 198.816 398.501 199.675 395.251 199.675V201.675C398.876 201.675 402.083 200.709 404.828 198.75C407.564 196.798 409.785 193.904 411.521 190.137L409.704 189.3ZM395.251 199.675H379.782V201.675H395.251V199.675ZM379.782 199.675C376.533 199.675 373.741 198.816 371.366 197.122C368.982 195.421 366.959 192.837 365.329 189.3L363.513 190.137C365.249 193.904 367.469 196.798 370.205 198.75C372.951 200.709 376.157 201.675 379.782 201.675V199.675ZM365.329 189.3L303.562 55.2373L301.745 56.0742L363.513 190.137L365.329 189.3ZM631.794 49.6401L631.074 50.3343L631.08 50.3408L631.087 50.3472L631.794 49.6401ZM531.14 77.0327V76.0327H530.14V77.0327H531.14ZM531.14 108.292H530.14V109.292H531.14V108.292ZM618.796 111.3L618.076 111.994L618.089 112.008L618.102 112.02L618.796 111.3ZM618.796 135.685L618.089 134.978L618.796 135.685ZM531.14 138.585V137.585H530.14V138.585H531.14ZM531.14 170.275H530.14V171.275H531.14V170.275ZM631.364 197.775L632.058 198.495L632.065 198.488L632.071 198.482L631.364 197.775ZM493.649 197.775L492.942 198.482L492.949 198.488L492.955 198.495L493.649 197.775ZM491.642 190.363V56.6226H489.642V190.363H491.642ZM491.642 56.6226C491.642 54.1003 492.534 51.9971 494.344 50.2526L492.955 48.8129C490.754 50.9355 489.642 53.5589 489.642 56.6226H491.642ZM494.344 50.2526C496.162 48.4992 498.312 47.6323 500.847 47.6323V45.6323C497.796 45.6323 495.147 46.699 492.955 48.8129L494.344 50.2526ZM500.847 47.6323H624.704V45.6323H500.847V47.6323ZM624.704 47.6323C627.226 47.6323 629.33 48.5251 631.074 50.3343L632.514 48.946C630.391 46.7448 627.768 45.6323 624.704 45.6323V47.6323ZM631.087 50.3472C632.908 52.1681 633.802 54.3142 633.802 56.8374H635.802C635.802 53.7747 634.691 51.1225 632.501 48.933L631.087 50.3472ZM633.802 56.8374V66.9351H635.802V56.8374H633.802ZM633.802 66.9351C633.802 69.4583 632.908 71.6043 631.087 73.4252L632.501 74.8394C634.691 72.6499 635.802 69.9978 635.802 66.9351H633.802ZM631.087 73.4252C629.345 75.1668 627.238 76.0327 624.704 76.0327V78.0327C627.756 78.0327 630.375 76.965 632.501 74.8394L631.087 73.4252ZM624.704 76.0327H531.14V78.0327H624.704V76.0327ZM530.14 77.0327V108.292H532.14V77.0327H530.14ZM531.14 109.292H611.706V107.292H531.14V109.292ZM611.706 109.292C614.228 109.292 616.331 110.185 618.076 111.994L619.516 110.606C617.393 108.405 614.77 107.292 611.706 107.292V109.292ZM618.102 112.02C619.911 113.765 620.804 115.868 620.804 118.39H622.804C622.804 115.326 621.691 112.703 619.49 110.58L618.102 112.02ZM620.804 118.39V128.488H622.804V118.39H620.804ZM620.804 128.488C620.804 131.011 619.91 133.157 618.089 134.978L619.503 136.392C621.693 134.203 622.804 131.551 622.804 128.488H620.804ZM618.089 134.978C616.347 136.72 614.24 137.585 611.706 137.585V139.585C614.758 139.585 617.377 138.518 619.503 136.392L618.089 134.978ZM611.706 137.585H531.14V139.585H611.706V137.585ZM530.14 138.585V170.275H532.14V138.585H530.14ZM531.14 171.275H624.489V169.275H531.14V171.275ZM624.489 171.275C626.944 171.275 629.017 172.135 630.765 173.882L632.179 172.468C630.059 170.348 627.477 169.275 624.489 169.275V171.275ZM630.765 173.882C632.506 175.624 633.372 177.731 633.372 180.265H635.372C635.372 177.213 634.304 174.594 632.179 172.468L630.765 173.882ZM633.372 180.265V190.578H635.372V180.265H633.372ZM633.372 190.578C633.372 193.101 632.478 195.247 630.657 197.068L632.071 198.482C634.261 196.292 635.372 193.64 635.372 190.578H633.372ZM630.67 197.055C628.852 198.808 626.702 199.675 624.167 199.675V201.675C627.218 201.675 629.866 200.609 632.058 198.495L630.67 197.055ZM624.167 199.675H500.847V201.675H624.167V199.675ZM500.847 199.675C498.312 199.675 496.162 198.808 494.344 197.055L492.955 198.495C495.147 200.609 497.796 201.675 500.847 201.675V199.675ZM494.357 197.068C492.546 195.257 491.642 193.044 491.642 190.363H489.642C489.642 193.554 490.742 196.282 492.942 198.482L494.357 197.068ZM710.964 56.8374L710.122 57.3771L710.125 57.3825L710.964 56.8374ZM775.847 156.632L775.008 157.177L776.847 160.005V156.632H775.847ZM778.747 49.5327L778.053 48.8129L778.046 48.8192L778.04 48.8256L778.747 49.5327ZM811.511 49.5327L810.804 50.2398L810.81 50.2462L810.817 50.2526L811.511 49.5327ZM811.511 197.775L810.804 197.068L811.511 197.775ZM760.163 197.775L759.599 198.601L759.606 198.605L759.613 198.61L760.163 197.775ZM753.181 190.578L754.032 190.054L754.027 190.045L754.021 190.036L753.181 190.578ZM693.776 98.4097L694.617 97.8679L692.776 95.0123V98.4097H693.776ZM690.769 197.775L690.061 197.068L690.769 197.775ZM657.575 197.775L656.868 198.482L656.875 198.488L656.881 198.495L657.575 197.775ZM655.567 190.578V56.8374H653.567V190.578H655.567ZM655.567 56.8374C655.567 54.3026 656.434 52.1525 658.188 50.3343L656.748 48.946C654.634 51.1381 653.567 53.7863 653.567 56.8374H655.567ZM658.188 50.3343C659.932 48.5251 662.035 47.6323 664.558 47.6323V45.6323C661.494 45.6323 658.871 46.7448 656.748 48.946L658.188 50.3343ZM664.558 47.6323H696.14V45.6323H664.558V47.6323ZM696.14 47.6323C698.372 47.6323 700.821 48.5249 703.506 50.4525L704.672 48.8278C701.771 46.7449 698.92 45.6323 696.14 45.6323V47.6323ZM703.506 50.4525C706.2 52.3867 708.402 54.6944 710.122 57.3771L711.806 56.2977C709.945 53.3945 707.564 50.904 704.672 48.8278L703.506 50.4525ZM710.125 57.3825L775.008 157.177L776.685 156.087L711.802 56.2923L710.125 57.3825ZM776.847 156.632V56.6226H774.847V156.632H776.847ZM776.847 56.6226C776.847 54.0885 777.713 51.9814 779.454 50.2398L778.04 48.8256C775.914 50.9512 774.847 53.5707 774.847 56.6226H776.847ZM779.441 50.2526C781.259 48.4992 783.41 47.6323 785.944 47.6323V45.6323C782.893 45.6323 780.245 46.699 778.053 48.8129L779.441 50.2526ZM785.944 47.6323H804.421V45.6323H785.944V47.6323ZM804.421 47.6323C806.955 47.6323 809.062 48.4982 810.804 50.2398L812.218 48.8256C810.092 46.7 807.473 45.6323 804.421 45.6323V47.6323ZM810.817 50.2526C812.615 51.9866 813.519 54.1563 813.519 56.8374H815.519C815.519 53.6461 814.417 50.946 812.205 48.8129L810.817 50.2526ZM813.519 56.8374V190.578H815.519V56.8374H813.519ZM813.519 190.578C813.519 193.101 812.625 195.247 810.804 197.068L812.218 198.482C814.407 196.292 815.519 193.64 815.519 190.578H813.519ZM810.804 197.068C809.062 198.809 806.955 199.675 804.421 199.675V201.675C807.473 201.675 810.092 200.608 812.218 198.482L810.804 197.068ZM804.421 199.675H768.757V201.675H804.421V199.675ZM768.757 199.675C766.204 199.675 763.528 198.794 760.713 196.94L759.613 198.61C762.67 200.623 765.723 201.675 768.757 201.675V199.675ZM760.727 196.949C757.897 195.016 755.671 192.717 754.032 190.054L752.329 191.102C754.127 194.024 756.557 196.523 759.599 198.601L760.727 196.949ZM754.021 190.036L694.617 97.8679L692.936 98.9514L752.34 191.119L754.021 190.036ZM692.776 98.4097V190.578H694.776V98.4097H692.776ZM692.776 190.578C692.776 193.101 691.882 195.247 690.061 197.068L691.476 198.482C693.665 196.292 694.776 193.64 694.776 190.578H692.776ZM690.061 197.068C688.32 198.809 686.213 199.675 683.679 199.675V201.675C686.731 201.675 689.35 200.608 691.476 198.482L690.061 197.068ZM683.679 199.675H664.772V201.675H683.679V199.675ZM664.772 199.675C662.238 199.675 660.088 198.808 658.269 197.055L656.881 198.495C659.073 200.609 661.721 201.675 664.772 201.675V199.675ZM658.282 197.068C656.461 195.247 655.567 193.101 655.567 190.578H653.567C653.567 193.64 654.679 196.292 656.868 198.482L658.282 197.068ZM985.964 74.2397L986.658 74.9601L986.664 74.9535L986.671 74.9469L985.964 74.2397ZM930.749 77.0327V76.0327H929.749V77.0327H930.749ZM927.741 197.882L928.435 198.603L928.435 198.602L927.741 197.882ZM893.151 197.882L892.444 198.589L892.457 198.603L892.471 198.615L893.151 197.882ZM890.251 77.0327H891.251V76.0327H890.251V77.0327ZM835.036 74.2397L834.329 74.9469L834.336 74.9535L834.342 74.9601L835.036 74.2397ZM833.136 66.9351V56.8374H831.136V66.9351H833.136ZM833.136 56.8374C833.136 54.1448 834.012 51.9711 835.743 50.2398L834.329 48.8256C832.193 50.9615 831.136 53.6576 831.136 56.8374H833.136ZM835.743 50.2398C837.475 48.5085 839.648 47.6323 842.341 47.6323V45.6323C839.161 45.6323 836.465 46.6897 834.329 48.8256L835.743 50.2398ZM842.341 47.6323H978.659V45.6323H842.341V47.6323ZM978.659 47.6323C981.352 47.6323 983.525 48.5085 985.257 50.2398L986.671 48.8256C984.535 46.6897 981.839 45.6323 978.659 45.6323V47.6323ZM985.257 50.2398C986.988 51.9711 987.864 54.1448 987.864 56.8374H989.864C989.864 53.6576 988.807 50.9615 986.671 48.8256L985.257 50.2398ZM987.864 56.8374V66.9351H989.864V56.8374H987.864ZM987.864 66.9351C987.864 69.6277 986.988 71.8013 985.257 73.5326L986.671 74.9469C988.807 72.811 989.864 70.1148 989.864 66.9351H987.864ZM985.27 73.5194C983.541 75.1844 981.363 76.0327 978.659 76.0327V78.0327C981.828 78.0327 984.519 77.0191 986.658 74.9601L985.27 73.5194ZM978.659 76.0327H930.749V78.0327H978.659V76.0327ZM929.749 77.0327V190.792H931.749V77.0327H929.749ZM929.749 190.792C929.749 193.315 928.856 195.418 927.047 197.162L928.435 198.602C930.637 196.48 931.749 193.856 931.749 190.792H929.749ZM927.048 197.162C925.309 198.837 923.197 199.675 920.651 199.675V201.675C923.691 201.675 926.307 200.652 928.435 198.603L927.048 197.162ZM920.651 199.675H900.349V201.675H920.651V199.675ZM900.349 199.675C897.802 199.675 895.648 198.836 893.832 197.15L892.471 198.615C894.665 200.653 897.309 201.675 900.349 201.675V199.675ZM893.858 197.175C892.117 195.434 891.251 193.327 891.251 190.792H889.251C889.251 193.844 890.319 196.464 892.444 198.589L893.858 197.175ZM891.251 190.792V77.0327H889.251V190.792H891.251ZM890.251 76.0327H842.341V78.0327H890.251V76.0327ZM842.341 76.0327C839.637 76.0327 837.459 75.1844 835.73 73.5194L834.342 74.9601C836.481 77.0191 839.172 78.0327 842.341 78.0327V76.0327ZM835.743 73.5326C834.012 71.8013 833.136 69.6277 833.136 66.9351H831.136C831.136 70.1148 832.193 72.811 834.329 74.9469L835.743 73.5326ZM999.284 152.228L999.865 153.042L999.873 153.036L999.881 153.031L999.284 152.228ZM1056.75 170.49L1056.77 169.49L1056.76 169.49H1056.75V170.49ZM1094.35 171.242L1094.33 172.241L1094.34 172.242H1094.35V171.242ZM1090.16 144.171L1089.93 145.144L1089.94 145.145L1090.16 144.171ZM1067.39 139.337L1067.2 140.318L1067.2 140.32L1067.39 139.337ZM1042.58 133.214L1042.29 134.173L1042.29 134.173L1042.58 133.214ZM1003.26 111.085L1002.45 111.674L1002.46 111.685L1003.26 111.085ZM1012.28 57.4819L1012.88 58.2799L1012.89 58.2772L1012.28 57.4819ZM1065.13 45.7729L1065.16 44.7732L1065.15 44.7729H1065.13V45.7729ZM1092.42 46.4175L1092.4 47.4172L1092.41 47.4175H1092.42V46.4175ZM1132.06 57.8042L1131.51 58.6441L1131.52 58.6479L1132.06 57.8042ZM1111.33 87.4526L1110.42 87.8815L1110.42 87.8851L1111.33 87.4526ZM1088.66 76.8179L1088.64 77.8177L1088.65 77.8179H1088.66V76.8179ZM1056.33 76.1733L1056.35 75.1735L1056.34 75.1733H1056.33V76.1733ZM1049.34 99.5913L1049 100.532L1049.01 100.533L1049.34 99.5913ZM1078.35 107.218L1078.15 108.2L1078.16 108.201L1078.35 107.218ZM1141.73 130.314L1141.06 131.06L1141.07 131.067L1141.73 130.314ZM1138.29 189.933L1138.89 190.731L1138.89 190.73L1138.29 189.933ZM1085.54 201.535L1085.52 202.534L1085.53 202.535H1085.54V201.535ZM1053 200.89L1053.01 199.89L1053.01 199.89H1053V200.89ZM1013.25 189.611L1012.71 190.452L1012.71 190.455L1013.25 189.611ZM996.524 161.251C996.524 157.219 997.712 154.58 999.865 153.042L998.703 151.414C995.843 153.457 994.524 156.833 994.524 161.251H996.524ZM999.881 153.031C1002.27 151.256 1004.5 150.435 1006.59 150.435V148.435C1003.95 148.435 1001.31 149.476 998.688 151.425L999.881 153.031ZM1006.59 150.435H1019.37V148.435H1006.59V150.435ZM1019.37 150.435C1022.4 150.435 1025.03 151.256 1027.3 152.88C1029.59 154.512 1031.56 156.995 1033.19 160.395L1034.99 159.53C1033.26 155.912 1031.09 153.131 1028.47 151.254C1025.83 149.369 1022.79 148.435 1019.37 148.435V150.435ZM1033.19 160.395C1036.8 167.922 1044.85 171.49 1056.75 171.49V169.49C1045.18 169.49 1038.11 166.04 1034.99 159.53L1033.19 160.395ZM1056.73 171.49L1094.33 172.241L1094.37 170.242L1056.77 169.49L1056.73 171.49ZM1094.35 172.242C1100.73 172.242 1105.69 171.205 1109.08 168.99C1112.54 166.727 1114.26 163.306 1114.26 158.888H1112.26C1112.26 162.706 1110.82 165.462 1107.99 167.316C1105.07 169.219 1100.58 170.242 1094.35 170.242V172.242ZM1114.26 158.888C1114.26 155.289 1112.02 152.237 1108.02 149.693C1104.03 147.15 1098.13 144.997 1090.39 143.197L1089.94 145.145C1097.59 146.926 1103.24 149.016 1106.95 151.379C1110.65 153.741 1112.26 156.256 1112.26 158.888H1114.26ZM1090.4 143.199C1083.5 141.547 1075.9 139.933 1067.58 138.355L1067.2 140.32C1075.5 141.893 1083.07 143.501 1089.93 145.144L1090.4 143.199ZM1067.58 138.356C1059.31 136.715 1051.07 134.682 1042.86 132.255L1042.29 134.173C1050.56 136.617 1058.86 138.665 1067.2 140.318L1067.58 138.356ZM1042.86 132.256C1034.74 129.834 1027.27 126.988 1020.45 123.719L1019.58 125.522C1026.51 128.842 1034.08 131.724 1042.29 134.173L1042.86 132.256ZM1020.45 123.719C1013.71 120.489 1008.25 116.078 1004.06 110.485L1002.46 111.685C1006.86 117.552 1012.57 122.163 1019.58 125.522L1020.45 123.719ZM1004.07 110.497C999.977 104.882 997.921 98.2893 997.921 90.6753H995.921C995.921 98.6733 998.09 105.687 1002.45 111.674L1004.07 110.497ZM997.921 90.6753C997.921 76.5506 1002.93 65.8004 1012.88 58.2799L1011.68 56.6839C1001.16 64.6322 995.921 76.0109 995.921 90.6753H997.921ZM1012.89 58.2772C1022.85 50.681 1040.18 46.7729 1065.13 46.7729V44.7729C1040.1 44.7729 1022.19 48.6708 1011.68 56.6866L1012.89 58.2772ZM1065.11 46.7727L1092.4 47.4172L1092.44 45.4178L1065.16 44.7732L1065.11 46.7727ZM1092.42 47.4175C1106.92 47.4175 1119.94 51.1628 1131.51 58.644L1132.6 56.9644C1120.69 49.2633 1107.28 45.4175 1092.42 45.4175V47.4175ZM1131.52 58.6479C1143.13 66.0339 1148.78 75.1668 1148.78 86.0562H1150.78C1150.78 74.3153 1144.62 64.6135 1132.59 56.9605L1131.52 58.6479ZM1148.78 86.0562C1148.78 90.0858 1147.6 92.7729 1145.43 94.3843L1146.62 95.9898C1149.46 93.8772 1150.78 90.477 1150.78 86.0562H1148.78ZM1145.43 94.3843C1143.03 96.1639 1140.84 96.98 1138.83 96.98V98.98C1141.4 98.98 1144 97.9341 1146.62 95.9898L1145.43 94.3843ZM1138.83 96.98H1126.04V98.98H1138.83V96.98ZM1126.04 96.98C1123.01 96.98 1120.38 96.1594 1118.11 94.5348C1115.83 92.9027 1113.86 90.4204 1112.23 87.0202L1110.42 87.8851C1112.16 91.5031 1114.32 94.2845 1116.95 96.1615C1119.58 98.046 1122.63 98.98 1126.04 98.98V96.98ZM1112.23 87.0238C1108.62 79.4249 1100.57 75.8179 1088.66 75.8179V77.8179C1100.23 77.8179 1107.3 81.3006 1110.42 87.8815L1112.23 87.0238ZM1088.68 75.8181L1056.35 75.1735L1056.31 77.1731L1088.64 77.8177L1088.68 75.8181ZM1056.33 75.1733C1049.95 75.1733 1044.99 76.2096 1041.6 78.4246C1038.13 80.6879 1036.42 84.109 1036.42 88.5269H1038.42C1038.42 84.709 1039.85 81.9534 1042.69 80.0989C1045.6 78.196 1050.1 77.1733 1056.33 77.1733V75.1733ZM1036.42 88.5269C1036.42 91.1164 1037.57 93.4178 1039.72 95.4098C1041.85 97.382 1044.97 99.0769 1049 100.532L1049.68 98.6505C1045.77 97.2411 1042.93 95.6597 1041.08 93.9437C1039.25 92.2475 1038.42 90.4491 1038.42 88.5269H1036.42ZM1049.01 100.533C1057.09 103.419 1066.81 105.973 1078.15 108.2L1078.54 106.237C1067.26 104.023 1057.64 101.493 1049.68 98.6496L1049.01 100.533ZM1078.16 108.201C1089.52 110.345 1100.92 112.953 1112.35 116.026L1112.87 114.094C1101.39 111.008 1089.94 108.389 1078.53 106.236L1078.16 108.201ZM1112.35 116.026C1123.68 119.069 1133.24 124.086 1141.06 131.06L1142.39 129.568C1134.31 122.363 1124.47 117.21 1112.87 114.094L1112.35 116.026ZM1141.07 131.067C1148.87 137.898 1152.76 146.397 1152.76 156.632H1154.76C1154.76 145.813 1150.62 136.767 1142.38 129.561L1141.07 131.067ZM1152.76 156.632C1152.76 170.754 1147.72 181.542 1137.68 189.136L1138.89 190.73C1149.48 182.712 1154.76 171.299 1154.76 156.632H1152.76ZM1137.69 189.135C1127.72 196.662 1110.42 200.535 1085.54 200.535V202.535C1110.51 202.535 1128.38 198.673 1138.89 190.731L1137.69 189.135ZM1085.56 200.535L1053.01 199.89L1052.98 201.89L1085.52 202.534L1085.56 200.535ZM1053 199.89C1038.49 199.89 1025.43 196.18 1013.79 188.767L1012.71 190.455C1024.7 198.081 1038.13 201.89 1053 201.89V199.89ZM1013.79 188.769C1002.18 181.312 996.524 172.142 996.524 161.251H994.524C994.524 172.991 1000.68 182.728 1012.71 190.452L1013.79 188.769Z" fill="white"/>
</g>
</svg>
