<svg width="1512" height="599" viewBox="0 0 1512 599" fill="none" xmlns="http://www.w3.org/2000/svg">
<path opacity="0.03" d="M-226 -51L137.102 616M-146.005 -51L217.097 616M-66.0102 -51L297.092 616M13.9847 -51L377.087 616M93.9796 -51L457.081 616M173.975 -51L537.076 616M253.969 -51L617.071 616M333.964 -51L697.066 616M413.959 -51L777.061 616M493.954 -51L857.056 616M573.949 -51L937.051 616M653.944 -51L1017.05 616M733.939 -51L1097.04 616M813.934 -51L1177.04 616M893.929 -51L1257.03 616M973.924 -51L1337.03 616M1053.92 -51L1417.02 616M1133.91 -51L1497.02 616M1213.91 -51L1577.01 616M1293.9 -51L1657.01 616M1373.9 -51L1737 616" stroke="url(#paint0_linear_700_1855)" stroke-width="5"/>
<defs>
<linearGradient id="paint0_linear_700_1855" x1="755" y1="-82" x2="755.5" y2="616" gradientUnits="userSpaceOnUse">
<stop offset="0.166075" stop-color="white" stop-opacity="0"/>
<stop offset="0.336458" stop-color="white"/>
</linearGradient>
</defs>
</svg>
