<svg width="333" height="268" viewBox="0 0 333 268" fill="none" xmlns="http://www.w3.org/2000/svg">
<line x1="60.1436" y1="132.6" x2="147.504" y2="132.6" stroke="#2D2534" stroke-width="0.672"/>
<line opacity="0.5" x1="83.3271" y1="132.6" x2="124.319" y2="132.6" stroke="#BA2548" stroke-width="0.672"/>
<line opacity="0.5" x1="83.3271" y1="199.8" x2="124.319" y2="199.8" stroke="#BA2548" stroke-width="0.672"/>
<line x1="60.1436" y1="199.8" x2="147.504" y2="199.8" stroke="#2D2534" stroke-width="0.672"/>
<line opacity="0.5" x1="83.3271" y1="199.8" x2="124.319" y2="199.8" stroke="#BA2548" stroke-width="0.672"/>
<line x1="60.1436" y1="267" x2="147.504" y2="267" stroke="#2D2534" stroke-width="0.672"/>
<line opacity="0.5" x1="83.3271" y1="267" x2="124.319" y2="267" stroke="#BA2548" stroke-width="0.672"/>
<line opacity="0.5" x1="83.3271" y1="0.664244" x2="124.319" y2="0.664244" stroke="#BA2548" stroke-width="0.672"/>
<line x1="60.1436" y1="0.664244" x2="147.504" y2="0.664244" stroke="#2D2534" stroke-width="0.672"/>
<line opacity="0.5" x1="83.3271" y1="0.664244" x2="124.319" y2="0.664244" stroke="#BA2548" stroke-width="0.672"/>
<line x1="60.1436" y1="67.8643" x2="147.504" y2="67.8643" stroke="#2D2534" stroke-width="0.672"/>
<line opacity="0.5" x1="83.3271" y1="67.8643" x2="124.319" y2="67.8643" stroke="#BA2548" stroke-width="0.672"/>
<line y1="168.216" x2="87.36" y2="168.216" stroke="#2D2534" stroke-width="0.672"/>
<line opacity="0.5" x1="23.1836" y1="168.216" x2="64.1756" y2="168.216" stroke="#BA2548" stroke-width="0.672"/>
<line opacity="0.5" x1="23.1836" y1="235.416" x2="64.1756" y2="235.416" stroke="#BA2548" stroke-width="0.672"/>
<line y1="235.416" x2="87.36" y2="235.416" stroke="#2D2534" stroke-width="0.672"/>
<line opacity="0.5" x1="23.1836" y1="235.416" x2="64.1756" y2="235.416" stroke="#BA2548" stroke-width="0.672"/>
<line x1="122.642" y1="168.216" x2="210.002" y2="168.216" stroke="#2D2534" stroke-width="0.672"/>
<line opacity="0.5" x1="145.825" y1="168.216" x2="186.817" y2="168.216" stroke="#BA2548" stroke-width="0.672"/>
<line opacity="0.5" x1="145.825" y1="235.416" x2="186.817" y2="235.416" stroke="#BA2548" stroke-width="0.672"/>
<line x1="122.642" y1="235.416" x2="210.002" y2="235.416" stroke="#2D2534" stroke-width="0.672"/>
<line opacity="0.5" x1="145.825" y1="235.416" x2="186.817" y2="235.416" stroke="#BA2548" stroke-width="0.672"/>
<line x1="245.28" y1="168.216" x2="332.64" y2="168.216" stroke="#2D2534" stroke-width="0.672"/>
<line opacity="0.5" x1="268.464" y1="168.216" x2="309.456" y2="168.216" stroke="#BA2548" stroke-width="0.672"/>
<line opacity="0.5" x1="268.464" y1="235.416" x2="309.456" y2="235.416" stroke="#BA2548" stroke-width="0.672"/>
<line x1="245.28" y1="235.416" x2="332.64" y2="235.416" stroke="#2D2534" stroke-width="0.672"/>
<line opacity="0.5" x1="268.464" y1="235.416" x2="309.456" y2="235.416" stroke="#BA2548" stroke-width="0.672"/>
<line y1="31.4643" x2="87.36" y2="31.4643" stroke="#2D2534" stroke-width="0.672"/>
<line opacity="0.5" x1="23.1836" y1="31.4643" x2="64.1756" y2="31.4643" stroke="#BA2548" stroke-width="0.672"/>
<line opacity="0.5" x1="23.1836" y1="98.6642" x2="64.1756" y2="98.6642" stroke="#BA2548" stroke-width="0.672"/>
<line y1="98.6642" x2="87.36" y2="98.6642" stroke="#2D2534" stroke-width="0.672"/>
<line opacity="0.5" x1="23.1836" y1="98.6642" x2="64.1756" y2="98.6642" stroke="#BA2548" stroke-width="0.672"/>
<line x1="122.642" y1="31.464" x2="210.002" y2="31.464" stroke="#2D2534" stroke-width="0.672"/>
<line opacity="0.5" x1="145.825" y1="31.464" x2="186.817" y2="31.464" stroke="#BA2548" stroke-width="0.672"/>
<line opacity="0.5" x1="145.825" y1="98.6641" x2="186.817" y2="98.6641" stroke="#BA2548" stroke-width="0.672"/>
<line x1="122.642" y1="98.6641" x2="210.002" y2="98.6641" stroke="#2D2534" stroke-width="0.672"/>
<line opacity="0.5" x1="145.825" y1="98.6641" x2="186.817" y2="98.6641" stroke="#BA2548" stroke-width="0.672"/>
<line x1="245.28" y1="31.4643" x2="332.64" y2="31.4643" stroke="#2D2534" stroke-width="0.672"/>
<line opacity="0.5" x1="268.464" y1="31.4643" x2="309.456" y2="31.4643" stroke="#BA2548" stroke-width="0.672"/>
<line opacity="0.5" x1="268.464" y1="98.6642" x2="309.456" y2="98.6642" stroke="#BA2548" stroke-width="0.672"/>
<line x1="245.28" y1="98.6642" x2="332.64" y2="98.6642" stroke="#2D2534" stroke-width="0.672"/>
<line opacity="0.5" x1="268.464" y1="98.6642" x2="309.456" y2="98.6642" stroke="#BA2548" stroke-width="0.672"/>
<line x1="181.104" y1="132.6" x2="268.464" y2="132.6" stroke="#2D2534" stroke-width="0.672"/>
<line opacity="0.5" x1="204.289" y1="132.6" x2="245.281" y2="132.6" stroke="#BA2548" stroke-width="0.672"/>
<line opacity="0.5" x1="204.289" y1="199.8" x2="245.281" y2="199.8" stroke="#BA2548" stroke-width="0.672"/>
<line x1="181.104" y1="199.8" x2="268.464" y2="199.8" stroke="#2D2534" stroke-width="0.672"/>
<line opacity="0.5" x1="204.289" y1="199.8" x2="245.281" y2="199.8" stroke="#BA2548" stroke-width="0.672"/>
<line x1="181.104" y1="267" x2="268.464" y2="267" stroke="#2D2534" stroke-width="0.672"/>
<line opacity="0.5" x1="204.289" y1="267" x2="245.281" y2="267" stroke="#BA2548" stroke-width="0.672"/>
<line opacity="0.5" x1="204.289" y1="0.664" x2="245.281" y2="0.664" stroke="#BA2548" stroke-width="0.672"/>
<line x1="181.104" y1="0.664" x2="268.464" y2="0.664" stroke="#2D2534" stroke-width="0.672"/>
<line opacity="0.5" x1="204.289" y1="0.664" x2="245.281" y2="0.664" stroke="#BA2548" stroke-width="0.672"/>
<line x1="181.104" y1="67.864" x2="268.464" y2="67.864" stroke="#2D2534" stroke-width="0.672"/>
<line opacity="0.5" x1="204.289" y1="67.864" x2="245.281" y2="67.864" stroke="#BA2548" stroke-width="0.672"/>
</svg>
