<svg width="111" height="105" viewBox="0 0 111 105" fill="none" xmlns="http://www.w3.org/2000/svg">
<path d="M59.837 19.8199L60.0804 20.4279L60.6028 20.0329C64.3344 17.2108 68.668 15.2898 73.2651 14.4199C77.8621 13.5501 82.598 13.755 87.1027 15.0187L87.1051 15.0193C92.8863 16.6098 98.0734 19.8622 102.023 24.3731C105.973 28.8841 108.512 34.4553 109.326 40.3958C110.139 46.3363 109.191 52.3849 106.598 57.7915C104.006 63.1981 99.884 67.7249 94.743 70.8106L94.7344 70.8158L94.726 70.8213L94.703 70.8365L39.3928 103.481L39.3925 103.481C39.0193 103.702 38.6055 103.845 38.1757 103.902C37.746 103.959 37.3092 103.928 36.8916 103.812C36.474 103.696 36.0841 103.497 35.7454 103.226C35.4066 102.955 35.126 102.619 34.9204 102.238L34.9202 102.237L4.40032 45.7171C4.40003 45.7166 4.39974 45.7161 4.39945 45.7155C1.58339 40.4195 0.384176 34.4132 0.950609 28.4418C1.5171 22.4698 3.82466 16.7955 7.58696 12.1232C11.3493 7.45079 16.4007 3.98597 22.1144 2.15863C27.8281 0.331283 33.9527 0.221857 39.728 1.84393L39.7303 1.84457C44.2407 3.08798 48.4024 5.35748 51.8904 8.47572C55.3784 11.594 58.0981 15.4765 59.837 19.8199Z" stroke="white"/>
</svg>
