<svg width="83" height="83" viewBox="0 0 83 83" fill="none" xmlns="http://www.w3.org/2000/svg">
<path d="M47.998 45.3586H46.6079L46.1152 44.8835C47.2149 43.6059 48.0186 42.1011 48.4688 40.4767C48.919 38.8522 49.0046 37.1484 48.7195 35.487C47.8925 30.5952 43.8101 26.6888 38.8831 26.0905C37.1509 25.8714 35.3916 26.0514 33.7397 26.6168C32.0878 27.1822 30.5872 28.118 29.3526 29.3526C28.118 30.5872 27.1822 32.0878 26.6168 33.7397C26.0514 35.3916 25.8714 37.1509 26.0905 38.8831C26.6888 43.8101 30.5952 47.8925 35.487 48.7195C37.1484 49.0046 38.8522 48.9191 40.4767 48.4688C42.1011 48.0186 43.6059 47.2149 44.8835 46.1152L45.3586 46.6079V47.998L52.837 55.4765C53.5585 56.198 54.7375 56.198 55.4589 55.4765C56.1804 54.7551 56.1804 53.5761 55.4589 52.8547L47.998 45.3586ZM37.4402 45.3586C33.0587 45.3586 29.5218 41.8217 29.5218 37.4402C29.5218 33.0587 33.0587 29.5218 37.4402 29.5218C41.8217 29.5218 45.3586 33.0587 45.3586 37.4402C45.3586 41.8217 41.8217 45.3586 37.4402 45.3586Z" fill="#101010"/>
</svg>
