<svg width="6" height="6" viewBox="0 0 6 6" fill="none" xmlns="http://www.w3.org/2000/svg">
<path d="M5.43086 3.43105H3.46621V5.3957C3.46621 5.49992 3.42481 5.59986 3.35112 5.67355C3.27743 5.74724 3.17749 5.78864 3.07327 5.78864C2.96906 5.78864 2.86912 5.74724 2.79543 5.67355C2.72174 5.59986 2.68034 5.49992 2.68034 5.3957V3.43105H0.715685C0.611473 3.43105 0.51153 3.38965 0.437841 3.31596C0.364152 3.24227 0.322754 3.14233 0.322754 3.03812C0.322754 2.93391 0.364152 2.83396 0.437841 2.76027C0.51153 2.68658 0.611473 2.64519 0.715685 2.64519H2.68034V0.680529C2.68034 0.576317 2.72174 0.476373 2.79543 0.402684C2.86912 0.328996 2.96906 0.287598 3.07327 0.287598C3.17749 0.287598 3.27743 0.328996 3.35112 0.402684C3.42481 0.476373 3.46621 0.576317 3.46621 0.680529V2.64519H5.43086C5.53507 2.64519 5.63502 2.68658 5.70871 2.76027C5.7824 2.83396 5.82379 2.93391 5.82379 3.03812C5.82379 3.14233 5.7824 3.24227 5.70871 3.31596C5.63502 3.38965 5.53507 3.43105 5.43086 3.43105Z" fill="#C5C5C5"/>
</svg>
