<svg width="21" height="20" viewBox="0 0 21 20" fill="none" xmlns="http://www.w3.org/2000/svg">
<path d="M6.33016 0.76C7.54523 0.259948 8.84621 0.00179152 10.1602 0C11.4702 0 12.7702 0.26 13.9902 0.76C15.2002 1.26 16.3002 2 17.2302 2.93C18.1602 3.86 18.9002 4.96 19.4002 6.17C19.9002 7.39 20.1602 8.69 20.1602 10C20.1602 12.65 19.1102 15.2 17.2302 17.07C16.3026 17.9998 15.2006 18.7373 13.9874 19.2401C12.7741 19.7429 11.4735 20.0011 10.1602 20C8.84621 19.9982 7.54523 19.7401 6.33016 19.24C5.11791 18.7369 4.01687 17.9994 3.09016 17.07C2.16035 16.1425 1.42288 15.0405 0.920074 13.8272C0.417265 12.6139 0.159018 11.3133 0.160156 10C0.160156 7.35 1.21016 4.8 3.09016 2.93C4.02016 2 5.12016 1.26 6.33016 0.76ZM10.1602 15L11.7202 11.58L15.1602 10L11.7202 8.44L10.1602 5L8.59016 8.44L5.16016 10L8.59016 11.58L10.1602 15Z" fill="white"/>
</svg>
