<svg width="36" height="40" viewBox="0 0 36 40" fill="none" xmlns="http://www.w3.org/2000/svg">
<path d="M30 28.16C28.48 28.16 27.12 28.76 26.08 29.7L11.82 21.4C11.92 20.94 12 20.48 12 20C12 19.52 11.92 19.06 11.82 18.6L25.92 10.38C27 11.38 28.42 12 30 12C31.5913 12 33.1174 11.3679 34.2426 10.2426C35.3679 9.11742 36 7.5913 36 6C36 4.4087 35.3679 2.88258 34.2426 1.75736C33.1174 0.632141 31.5913 0 30 0C28.4087 0 26.8826 0.632141 25.7574 1.75736C24.6321 2.88258 24 4.4087 24 6C24 6.48 24.08 6.94 24.18 7.4L10.08 15.62C9 14.62 7.58 14 6 14C4.4087 14 2.88258 14.6321 1.75736 15.7574C0.632141 16.8826 0 18.4087 0 20C0 21.5913 0.632141 23.1174 1.75736 24.2426C2.88258 25.3679 4.4087 26 6 26C7.58 26 9 25.38 10.08 24.38L24.32 32.68C24.22 33.1 24.16 33.54 24.16 34C24.16 37.22 26.78 39.82 30 39.82C33.22 39.82 35.84 37.22 35.84 34C35.84 32.4511 35.2247 30.9657 34.1295 29.8705C33.0343 28.7753 31.5489 28.16 30 28.16Z" fill="white"/>
</svg>
