<svg width="32" height="42" viewBox="0 0 32 42" fill="none" xmlns="http://www.w3.org/2000/svg">
<path d="M1.05273 4.98664V0H7.17391L12.1869 4.98664H20.9465L25.6693 0H31.8697V4.98664H25.6693L20.9465 10.1052H12.1869L7.17391 4.98664H1.05273Z" fill="#BA2548"/>
<path d="M1 15.1182V10.1316H7.12117L12.1342 15.1182H20.8938L25.6166 10.1316H31.8169V15.1182H25.6166L20.8938 20.2368H12.1342L7.12117 15.1182H1Z" fill="#BA2548"/>
<path d="M1 25.2498V20.2632H7.12117L12.1342 25.2498H20.8938L25.6166 20.2632H31.8169V25.2498H25.6166L20.8938 30.3684H12.1342L7.12117 25.2498H1Z" fill="#BA2548"/>
<path d="M1 35.3815V30.3948H7.12117L12.1342 35.3815H20.8938L25.6166 30.3948H31.8169V35.3815H25.6166L20.8938 40.5H12.1342L7.12117 35.3815H1Z" fill="#BA2548"/>
<path d="M6.89348 1.57501H1V6.60219H7.09037L11.8025 11.6162H21.03L25.7684 6.60219H31.8588V1.57501H25.7684L20.7281 6.60219H12.1307L6.89348 1.57501Z" fill="#BA2548" stroke="white" stroke-width="0.1125"/>
<path d="M6.91985 11.6294H1.02637V16.6565H7.11674L11.8289 21.6706H21.0563L25.7947 16.6565H31.8851V11.6294H25.7947L20.7544 16.6565H12.157L6.91985 11.6294Z" fill="#BA2548" stroke="white" stroke-width="0.1125"/>
<path d="M6.94622 21.6837H1.05273V26.7109H7.1431L11.8553 31.7249H21.0827L25.8211 26.7109H31.9115V21.6837H25.8211L20.7808 26.7109H12.1834L6.94622 21.6837Z" fill="#BA2548" stroke="white" stroke-width="0.1125"/>
<path d="M6.97258 31.7381H1.0791V36.7653H7.16947L11.8816 41.7793H21.1091L25.8475 36.7653H31.9379V31.7381H25.8475L20.8072 36.7653H12.2098L6.97258 31.7381Z" fill="#BA2548" stroke="white" stroke-width="0.1125"/>
</svg>
