<svg width="456" height="593" viewBox="0 0 456 593" fill="none" xmlns="http://www.w3.org/2000/svg">
<path d="M87.5806 1H1V74.8538H90.4731L159.699 148.515H295.258L364.87 74.8538H454.343V1H364.87L290.823 74.8538H164.52L87.5806 1Z" stroke="white" stroke-width="0.75"/>
<path d="M87.9662 148.707H1.38559V222.561H90.8587L160.085 296.222H295.644L365.256 222.561H454.729V148.707H365.256L291.209 222.561H164.905L87.9662 148.707Z" stroke="white" stroke-width="0.75"/>
<path d="M88.352 296.415H1.77139V370.269H91.2445L160.47 443.93H296.03L365.641 370.269H455.114V296.415H365.641L291.595 370.269H165.291L88.352 296.415Z" stroke="white" stroke-width="0.75"/>
<path d="M88.7375 444.123H2.15693V517.977H91.63L160.856 591.638H296.415L366.027 517.977H455.5V444.123H366.027L291.98 517.977H165.677L88.7375 444.123Z" stroke="white" stroke-width="0.75"/>
</svg>
