<svg width="176" height="189" viewBox="0 0 176 189" fill="none" xmlns="http://www.w3.org/2000/svg">
<path d="M67.0698 16.9147L76.4639 1.01318L95.9831 12.5445L102.575 37.8898L130.507 54.3916L154.962 47.3872L174.733 59.0676L165.339 74.9691L145.568 63.2886L120.865 70.7138L92.9321 54.212L86.5891 28.446L67.0698 16.9147Z" stroke="white"/>
<path d="M47.8159 49.1233L57.21 33.2218L76.7292 44.7532L83.3208 70.0984L111.254 86.6002L135.708 79.5958L155.479 91.2763L146.085 107.178L126.314 95.4973L101.611 102.922L73.6782 86.4206L67.3352 60.6546L47.8159 49.1233Z" stroke="white"/>
<path d="M28.729 81.4311L38.123 65.5297L57.6423 77.061L64.2339 102.406L92.1666 118.908L116.621 111.904L136.393 123.584L126.998 139.486L107.227 127.805L82.524 135.23L54.5912 118.728L48.2482 92.9625L28.729 81.4311Z" stroke="white"/>
<path d="M9.64302 113.739L19.0371 97.8374L38.5564 109.369L45.1479 134.714L73.0807 151.216L97.5349 144.211L117.307 155.892L107.912 171.793L88.1408 160.113L63.4381 167.538L35.5053 151.036L29.1623 125.27L9.64302 113.739Z" stroke="white"/>
</svg>
