<svg width="30" height="30" viewBox="0 0 30 30" fill="none" xmlns="http://www.w3.org/2000/svg">
<path d="M20.0495 4.7087C21.4407 4.71285 22.7738 5.26735 23.7575 6.25109C24.7412 7.23483 25.2957 8.56787 25.2999 9.95907V20.4587C25.2957 21.8499 24.7412 23.1829 23.7575 24.1667C22.7738 25.1504 21.4407 25.7049 20.0495 25.7091H9.54989C8.15869 25.7049 6.82565 25.1504 5.84191 24.1667C4.85817 23.1829 4.30367 21.8499 4.29952 20.4587V9.95907C4.30367 8.56787 4.85817 7.23483 5.84191 6.25109C6.82565 5.26735 8.15869 4.71285 9.54989 4.7087H20.0495ZM20.0495 2.60889H9.54989C5.50721 2.60889 2.19971 5.91639 2.19971 9.95907V20.4587C2.19971 24.5014 5.50721 27.8089 9.54989 27.8089H20.0495C24.0922 27.8089 27.3997 24.5014 27.3997 20.4587V9.95907C27.3997 5.91639 24.0922 2.60889 20.0495 2.60889Z" fill="#101010"/>
<path d="M21.6248 9.95908C21.3133 9.95908 21.0088 9.86671 20.7498 9.69365C20.4908 9.52058 20.2889 9.2746 20.1697 8.98681C20.0505 8.69902 20.0193 8.38234 20.0801 8.07682C20.1409 7.7713 20.2909 7.49066 20.5111 7.27039C20.7314 7.05012 21.012 6.90012 21.3175 6.83935C21.6231 6.77857 21.9397 6.80976 22.2275 6.92897C22.5153 7.04818 22.7613 7.25005 22.9344 7.50906C23.1074 7.76807 23.1998 8.07258 23.1998 8.38408C23.2003 8.59104 23.1598 8.79605 23.0808 8.98733C23.0018 9.17862 22.8858 9.35243 22.7395 9.49877C22.5932 9.64511 22.4194 9.76111 22.2281 9.8401C22.0368 9.91909 21.8318 9.95953 21.6248 9.95908ZM14.8 11.0087C15.6307 11.0087 16.4428 11.255 17.1335 11.7166C17.8242 12.1781 18.3626 12.8341 18.6805 13.6016C18.9984 14.369 19.0815 15.2136 18.9195 16.0283C18.7574 16.8431 18.3574 17.5915 17.77 18.1789C17.1826 18.7663 16.4342 19.1663 15.6194 19.3284C14.8047 19.4904 13.9601 19.4073 13.1927 19.0894C12.4252 18.7715 11.7692 18.2331 11.3077 17.5424C10.8462 16.8517 10.5998 16.0396 10.5998 15.2089C10.601 14.0953 11.0439 13.0277 11.8313 12.2402C12.6188 11.4528 13.6864 11.0099 14.8 11.0087ZM14.8 8.9089C13.554 8.9089 12.3359 9.27838 11.2999 9.97064C10.2639 10.6629 9.45639 11.6468 8.97956 12.798C8.50273 13.9492 8.37797 15.2159 8.62106 16.438C8.86414 17.66 9.46416 18.7826 10.3452 19.6637C11.2263 20.5447 12.3489 21.1448 13.5709 21.3878C14.793 21.6309 16.0597 21.5062 17.2109 21.0293C18.3621 20.5525 19.346 19.745 20.0383 18.709C20.7305 17.673 21.1 16.4549 21.1 15.2089C21.1 13.538 20.4363 11.9356 19.2548 10.7541C18.0733 9.57264 16.4709 8.9089 14.8 8.9089Z" fill="#101010"/>
</svg>
