<svg width="40" height="40" viewBox="0 0 40 40" fill="none" xmlns="http://www.w3.org/2000/svg">
<path fill-rule="evenodd" clip-rule="evenodd" d="M4.4002 12.7999H11.0962L20.3602 3.60791L22.4002 4.44791V35.6479L20.3602 36.4399L11.0962 27.1999H4.4002L3.2002 25.9999V13.9999L4.4002 12.7999ZM12.4402 25.2079L20.0002 32.7439V7.35191L12.4402 14.8399L11.6002 15.1999H5.6002V24.7999H11.6002L12.4402 25.2079ZM34.9546 15.3487L36.6514 17.0455L32.497 21.1999L36.6514 25.3567L34.9546 27.0535L30.8002 22.8967L26.6434 27.0535L24.9466 25.3567L29.1034 21.1999L24.9442 17.0479L26.641 15.3511L30.8002 19.5031L34.9546 15.3487Z" fill="white"/>
</svg>
