<svg width="59" height="58" viewBox="0 0 59 58" fill="none" xmlns="http://www.w3.org/2000/svg">
<rect x="0.160156" width="58" height="58" rx="10" fill="url(#paint0_linear_1178_1103)"/>
<path d="M21.96 44.1998C21.96 42.5024 22.6342 40.8746 23.8345 39.6743C25.0347 38.4741 26.6626 37.7998 28.36 37.7998V36.1998C26.5157 36.2002 24.728 35.5634 23.2993 34.3971C21.8707 33.2308 20.8888 31.6068 20.52 29.7998H18.76C17.4869 29.7998 16.266 29.2941 15.3658 28.3939C14.4657 27.4937 13.96 26.2728 13.96 24.9998V16.9998H17.16C18.392 16.9998 19.512 17.4638 20.36 18.2158V13.7998H37.96V18.2158C38.808 17.4638 39.928 16.9998 41.16 16.9998H44.36V24.9998C44.36 26.2728 43.8542 27.4937 42.9541 28.3939C42.0539 29.2941 40.833 29.7998 39.56 29.7998H37.8C37.4311 31.6068 36.4493 33.2308 35.0206 34.3971C33.5919 35.5634 31.8042 36.2002 29.96 36.1998V37.7998C31.6573 37.7998 33.2852 38.4741 34.4854 39.6743C35.6857 40.8746 36.36 42.5024 36.36 44.1998H21.96ZM29.96 39.3998H28.36C26.264 39.3998 24.488 40.7278 23.832 42.5998H34.488C34.159 41.6622 33.5462 40.8504 32.7348 40.2769C31.9234 39.7035 30.9536 39.3969 29.96 39.3998ZM36.36 15.3998H21.96V28.1998C21.96 29.8972 22.6342 31.5251 23.8345 32.7253C25.0347 33.9255 26.6626 34.5998 28.36 34.5998H29.96C31.6573 34.5998 33.2852 33.9255 34.4854 32.7253C35.6857 31.5251 36.36 29.8972 36.36 28.1998V15.3998ZM42.76 24.9998V18.5998H41.16C40.3113 18.5998 39.4973 18.9369 38.8972 19.5371C38.2971 20.1372 37.96 20.9511 37.96 21.7998V28.1998H39.56C40.4087 28.1998 41.2226 27.8627 41.8227 27.2625C42.4228 26.6624 42.76 25.8485 42.76 24.9998ZM15.56 24.9998C15.56 25.8485 15.8971 26.6624 16.4972 27.2625C17.0973 27.8627 17.9113 28.1998 18.76 28.1998H20.36V21.7998C20.36 20.9511 20.0228 20.1372 19.4227 19.5371C18.8226 18.9369 18.0087 18.5998 17.16 18.5998H15.56V24.9998Z" fill="white"/>
<defs>
<linearGradient id="paint0_linear_1178_1103" x1="29.1602" y1="0" x2="29.1602" y2="58" gradientUnits="userSpaceOnUse">
<stop stop-color="#B08D57"/>
<stop offset="1" stop-color="#CDB186"/>
</linearGradient>
</defs>
</svg>
