<svg width="58" height="58" viewBox="0 0 58 58" fill="none" xmlns="http://www.w3.org/2000/svg">
<rect width="58" height="58" rx="10" fill="url(#paint0_linear_1178_1107)"/>
<path d="M21.7998 44.1998C21.7998 42.5024 22.4741 40.8746 23.6743 39.6743C24.8746 38.4741 26.5024 37.7998 28.1998 37.7998V36.1998C26.3556 36.2002 24.5678 35.5634 23.1392 34.3971C21.7105 33.2308 20.7287 31.6068 20.3598 29.7998H18.5998C17.3268 29.7998 16.1059 29.2941 15.2057 28.3939C14.3055 27.4937 13.7998 26.2728 13.7998 24.9998V16.9998H16.9998C18.2318 16.9998 19.3518 17.4638 20.1998 18.2158V13.7998H37.7998V18.2158C38.6478 17.4638 39.7678 16.9998 40.9998 16.9998H44.1998V24.9998C44.1998 26.2728 43.6941 27.4937 42.7939 28.3939C41.8937 29.2941 40.6728 29.7998 39.3998 29.7998H37.6398C37.271 31.6068 36.2891 33.2308 34.8604 34.3971C33.4318 35.5634 31.644 36.2002 29.7998 36.1998V37.7998C31.4972 37.7998 33.1251 38.4741 34.3253 39.6743C35.5255 40.8746 36.1998 42.5024 36.1998 44.1998H21.7998ZM29.7998 39.3998H28.1998C26.1038 39.3998 24.3278 40.7278 23.6718 42.5998H34.3278C33.9988 41.6622 33.3861 40.8504 32.5747 40.2769C31.7632 39.7035 30.7934 39.3969 29.7998 39.3998ZM36.1998 15.3998H21.7998V28.1998C21.7998 29.8972 22.4741 31.5251 23.6743 32.7253C24.8746 33.9255 26.5024 34.5998 28.1998 34.5998H29.7998C31.4972 34.5998 33.1251 33.9255 34.3253 32.7253C35.5255 31.5251 36.1998 29.8972 36.1998 28.1998V15.3998ZM42.5998 24.9998V18.5998H40.9998C40.1511 18.5998 39.3372 18.9369 38.7371 19.5371C38.1369 20.1372 37.7998 20.9511 37.7998 21.7998V28.1998H39.3998C40.2485 28.1998 41.0624 27.8627 41.6625 27.2625C42.2627 26.6624 42.5998 25.8485 42.5998 24.9998ZM15.3998 24.9998C15.3998 25.8485 15.7369 26.6624 16.3371 27.2625C16.9372 27.8627 17.7511 28.1998 18.5998 28.1998H20.1998V21.7998C20.1998 20.9511 19.8627 20.1372 19.2625 19.5371C18.6624 18.9369 17.8485 18.5998 16.9998 18.5998H15.3998V24.9998Z" fill="white"/>
<defs>
<linearGradient id="paint0_linear_1178_1107" x1="29" y1="0" x2="29" y2="58" gradientUnits="userSpaceOnUse">
<stop stop-color="#DFBD69"/>
<stop offset="1" stop-color="#926F34"/>
</linearGradient>
</defs>
</svg>
