<svg width="25" height="26" viewBox="0 0 25 26" fill="none" xmlns="http://www.w3.org/2000/svg">
<path d="M6.40008 25.1598C6.40008 23.8019 6.93952 22.4996 7.89971 21.5394C8.85991 20.5792 10.1622 20.0398 11.5201 20.0398V18.7598C10.0447 18.7601 8.61453 18.2506 7.47158 17.3176C6.32863 16.3846 5.54315 15.0854 5.24807 13.6398H3.84005C2.8216 13.6398 1.84487 13.2352 1.12472 12.5151C0.404576 11.795 0 10.8182 0 9.79982V3.39984H2.56003C3.54565 3.39984 4.44166 3.77103 5.12007 4.37263V0.839844H19.2002V4.37263C19.8787 3.77103 20.7747 3.39984 21.7603 3.39984H24.3203V9.79982C24.3203 10.8182 23.9157 11.795 23.1956 12.5151C22.4754 13.2352 21.4987 13.6398 20.4803 13.6398H19.0722C18.7772 15.0854 17.9917 16.3846 16.8487 17.3176C15.7058 18.2506 14.2756 18.7601 12.8002 18.7598V20.0398C14.1581 20.0398 15.4604 20.5792 16.4206 21.5394C17.3808 22.4996 17.9202 23.8019 17.9202 25.1598H6.40008ZM12.8002 21.3198H11.5201C9.84333 21.3198 8.42251 22.3822 7.8977 23.8798H16.4226C16.1594 23.1297 15.6692 22.4802 15.0201 22.0215C14.3709 21.5627 13.5951 21.3175 12.8002 21.3198ZM17.9202 2.11984H6.40008V12.3598C6.40008 13.7177 6.93952 15.02 7.89971 15.9802C8.85991 16.9404 10.1622 17.4798 11.5201 17.4798H12.8002C14.1581 17.4798 15.4604 16.9404 16.4206 15.9802C17.3808 15.02 17.9202 13.7177 17.9202 12.3598V2.11984ZM23.0403 9.79982V4.67983H21.7603C21.0813 4.67983 20.4302 4.94954 19.9501 5.42964C19.47 5.90973 19.2002 6.56087 19.2002 7.23982V12.3598H20.4803C21.1592 12.3598 21.8104 12.0901 22.2905 11.61C22.7706 11.1299 23.0403 10.4788 23.0403 9.79982ZM1.28002 9.79982C1.28002 10.4788 1.54973 11.1299 2.02983 11.61C2.50993 12.0901 3.16109 12.3598 3.84005 12.3598H5.12007V7.23982C5.12007 6.56087 4.85035 5.90973 4.37025 5.42964C3.89015 4.94954 3.239 4.67983 2.56003 4.67983H1.28002V9.79982Z" fill="white"/>
</svg>
