<svg width="59" height="58" viewBox="0 0 59 58" fill="none" xmlns="http://www.w3.org/2000/svg">
<rect x="0.160156" width="58" height="58" rx="10" fill="url(#paint0_linear_1178_1105)"/>
<path d="M21.9601 44.1998C21.9601 42.5024 22.6344 40.8746 23.8347 39.6743C25.0349 38.4741 26.6628 37.7998 28.3601 37.7998V36.1998C26.5159 36.2002 24.7282 35.5634 23.2995 34.3971C21.8708 33.2308 20.889 31.6068 20.5201 29.7998H18.7601C17.4871 29.7998 16.2662 29.2941 15.366 28.3939C14.4659 27.4937 13.9601 26.2728 13.9601 24.9998V16.9998H17.1601C18.3921 16.9998 19.5121 17.4638 20.3601 18.2158V13.7998H37.9601V18.2158C38.8081 17.4638 39.9281 16.9998 41.1601 16.9998H44.3601V24.9998C44.3601 26.2728 43.8544 27.4937 42.9543 28.3939C42.0541 29.2941 40.8332 29.7998 39.5601 29.7998H37.8001C37.4313 31.6068 36.4495 33.2308 35.0208 34.3971C33.5921 35.5634 31.8044 36.2002 29.9601 36.1998V37.7998C31.6575 37.7998 33.2854 38.4741 34.4856 39.6743C35.6859 40.8746 36.3601 42.5024 36.3601 44.1998H21.9601ZM29.9601 39.3998H28.3601C26.2641 39.3998 24.4881 40.7278 23.8321 42.5998H34.4881C34.1592 41.6622 33.5464 40.8504 32.735 40.2769C31.9236 39.7035 30.9537 39.3969 29.9601 39.3998ZM36.3601 15.3998H21.9601V28.1998C21.9601 29.8972 22.6344 31.5251 23.8347 32.7253C25.0349 33.9255 26.6628 34.5998 28.3601 34.5998H29.9601C31.6575 34.5998 33.2854 33.9255 34.4856 32.7253C35.6859 31.5251 36.3601 29.8972 36.3601 28.1998V15.3998ZM42.7601 24.9998V18.5998H41.1601C40.3115 18.5998 39.4975 18.9369 38.8974 19.5371C38.2973 20.1372 37.9601 20.9511 37.9601 21.7998V28.1998H39.5601C40.4088 28.1998 41.2228 27.8627 41.8229 27.2625C42.423 26.6624 42.7601 25.8485 42.7601 24.9998ZM15.5601 24.9998C15.5601 25.8485 15.8973 26.6624 16.4974 27.2625C17.0975 27.8627 17.9115 28.1998 18.7601 28.1998H20.3601V21.7998C20.3601 20.9511 20.023 20.1372 19.4229 19.5371C18.8228 18.9369 18.0088 18.5998 17.1601 18.5998H15.5601V24.9998Z" fill="white"/>
<defs>
<linearGradient id="paint0_linear_1178_1105" x1="29.1602" y1="0" x2="29.1602" y2="58" gradientUnits="userSpaceOnUse">
<stop stop-color="#808080"/>
<stop offset="1" stop-color="#A7A7A7"/>
</linearGradient>
</defs>
</svg>
