<svg width="31" height="31" viewBox="0 0 31 31" fill="none" xmlns="http://www.w3.org/2000/svg">
<path id="Line 40" d="M0.703334 26.903C-0.233924 27.8403 -0.233924 29.3599 0.703334 30.2972C1.64059 31.2344 3.16019 31.2344 4.09745 30.2972L0.703334 26.903ZM30.4004 3.0001C30.4004 1.67462 29.3259 0.600099 28.0004 0.6001L6.40039 0.600099C5.07491 0.600099 4.00039 1.67462 4.00039 3.0001C4.00039 4.32558 5.0749 5.4001 6.40039 5.4001L25.6004 5.4001L25.6004 24.6001C25.6004 25.9256 26.6749 27.0001 28.0004 27.0001C29.3259 27.0001 30.4004 25.9256 30.4004 24.6001L30.4004 3.0001ZM4.09745 30.2972L29.6974 4.69716L26.3033 1.30304L0.703334 26.903L4.09745 30.2972Z" fill="white"/>
</svg>
