<svg width="390" height="3164" viewBox="0 0 390 3164" fill="none" xmlns="http://www.w3.org/2000/svg">
<path d="M112.494 3163.53C113.298 3163.53 114.104 3163.53 114.981 3162.96C128.014 3158.43 140.825 3123.27 153.273 3089.24C168.207 3047.84 183.656 3005.32 199.323 3018.93C208.986 3026.87 218.286 3056.35 227.29 3084.71C235.196 3109.66 243.324 3135.19 251.743 3147.08C274.879 3178.85 298.379 3105.11 320.271 3020.62C326.712 2995.67 335.791 2954.27 342.379 2898.14C349.189 2839.72 351.824 2778.47 350.288 2716.1C348.823 2658.25 343.552 2610.61 339.231 2572.05L303.284 2248.81C296.255 2185.29 289.008 2120.06 280.369 2066.2C265.653 1973.2 247.497 1918.19 226.411 1901.74C207.743 1886.99 187.315 1905.15 167.475 1953.34C123.767 2059.4 85.0377 2285.66 58.535 2591.33L58.6825 2592.47L58.4613 2591.9C50.4815 2723.46 52.971 2865.25 65.49 2991.14C76.3255 3097.75 94.116 3163.53 112.494 3163.53ZM193.319 3012.11C179.557 3012.11 166.084 3048.98 152.98 3085.28C140.606 3119.29 127.869 3154.47 114.91 3159C95.8732 3165.24 77.0579 3099.46 66.0036 2987.16C53.7034 2862.96 51.2139 2722.89 59.0486 2593.04C85.4776 2288.49 124.059 2062.79 167.623 1957.32C187.389 1909.11 207.669 1891.52 226.266 1906.27C247.204 1922.72 265.287 1977.73 279.93 2069.6C288.497 2123.47 295.744 2188.7 302.773 2251.64L338.72 2574.88C343.185 2614.59 348.165 2659.95 349.627 2716.67C351.239 2779.61 349.482 2902.1 319.976 3016.09C298.16 3100.58 274.732 3173.75 251.817 3141.98C243.469 3130.64 235.344 3104.56 227.435 3080.18C218.431 3051.82 209.06 3022.34 199.323 3013.83C197.347 3012.68 195.369 3012.11 193.319 3012.11ZM75.227 2982.06C62.9292 2862.41 59.8523 2726.3 66.736 2598.69L67.2472 2600.41C60.5109 2726.3 63.5141 2860.7 75.6669 2979.22C86.9423 3088.67 104.878 3151.63 123.696 3147.66C136.433 3144.82 149.026 3112.5 161.252 3081.3C163.228 3076.2 165.207 3071.1 167.183 3066.55C179.557 3035.37 192.734 3006.44 206.425 3016.66C215.87 3024.03 224.948 3050.68 233.66 3076.2C241.419 3098.89 249.546 3122.7 257.819 3132.35C277.148 3155.02 298.745 3111.36 323.93 2998.5C332.424 2959.37 339.671 2908.34 345.528 2846.52C352.116 2777.35 354.753 2710.99 353.507 2643.5C352.338 2581.12 347.798 2528.38 343.259 2479.62C336.009 2401.92 327.592 2344.07 318.732 2283.39C313.242 2245.97 307.531 2206.84 302.114 2162.6C300.357 2147.85 298.526 2133.12 296.843 2118.37C291.205 2070.73 285.348 2021.39 278.831 1979.44C250.719 1798.52 209.94 1742.96 167.109 1827.45L165.573 1830.29C158.837 1843.33 151.882 1856.93 145.73 1882.46C142.582 1895.5 139.508 1910.25 136.581 1926.12C131.454 1952.77 126.404 1981.7 121.498 2011.19C110.882 2075.27 102.391 2135.38 95.507 2196.07C88.6995 2257.32 82.9143 2324.79 78.3039 2396.82C73.7647 2467.7 70.5428 2519.87 67.3947 2600.98L66.881 2599.84C70.0292 2518.75 73.2511 2466.01 77.7902 2395.12C82.4769 2322.53 88.2596 2254.48 95.0696 2193.23C101.951 2132.55 110.442 2071.87 121.132 2007.78C126.038 1978.3 131.162 1949.38 136.286 1922.72C139.215 1906.84 142.29 1892.09 145.438 1879.05C151.734 1853.53 158.689 1839.92 165.425 1826.88L166.964 1824.04C210.011 1739.55 250.937 1795.13 279.197 1977.15C285.712 2019.12 291.642 2069.03 297.28 2116.67C299.037 2131.41 300.794 2146.16 302.552 2160.91C307.971 2205.14 313.608 2244.26 319.099 2281.7C328.029 2342.93 336.449 2400.78 343.697 2478.47C348.31 2527.81 352.849 2581.12 354.021 2644.64C355.338 2713.26 352.704 2780.74 345.967 2851.07C340.111 2913.44 332.79 2965.04 324.223 3004.18C298.966 3117.6 277.221 3161.26 257.747 3138.58C249.399 3128.95 241.348 3105.11 233.513 3082.44C224.801 3056.92 215.796 3030.82 206.425 3023.46C192.808 3012.68 179.702 3042.17 167.401 3072.79C165.425 3077.9 163.45 3083.02 161.471 3087.55C149.245 3118.74 136.581 3151.06 123.767 3153.9C123.182 3153.9 122.668 3153.9 122.083 3153.9C103.634 3152.19 86.21 3089.24 75.227 2982.06ZM131.747 3140.84C131.968 3140.84 132.113 3140.84 132.334 3140.84C144.998 3139.72 157.446 3110.23 169.525 3081.87C171.356 3077.34 173.187 3073.37 175.017 3068.84C187.17 3040.47 200.055 3013.83 213.307 3023.46C222.385 3029.7 231.097 3052.94 239.517 3075.63C247.278 3096.63 255.403 3118.17 263.604 3126.11C277.514 3139.72 299.991 3125.54 327.956 2984.32C335.498 2945.76 342.527 2885.65 349.334 2800.02C355.997 2717.22 358.705 2641.81 357.754 2568.09C356.877 2501.73 353.289 2445.01 348.091 2379.8C340.915 2290.21 331.325 2239.16 321.148 2185.29C314.704 2150.69 307.971 2114.96 301.748 2067.89C298.892 2046.34 295.963 2022.53 293.255 2000.41C288.423 1960.71 283.37 1919.88 277.88 1883.58C248.888 1693.05 208.183 1622.72 166.232 1690.22C165.133 1691.91 164.034 1693.6 162.936 1695.32C155.322 1707.21 147.488 1719.13 140.825 1750.32C137.313 1767.34 133.944 1787.17 130.869 1808.74C125.45 1845.02 119.96 1882.46 114.762 1921.02C106.269 1982.83 95.5807 2066.2 87.6747 2159.77C81.1571 2237.46 76.3255 2332.16 75.082 2407.02C74.1284 2464.86 74.3496 2498.33 74.6421 2545.4C74.7895 2562.41 74.8608 2581.7 74.9345 2604.94H74.8608C69.1518 2727.44 72.7375 2857.86 84.8927 2972.98C96.0207 3078.47 113.519 3140.84 131.747 3140.84ZM207.888 3016.66C196.541 3016.66 185.413 3039.9 174.944 3064.29C173.113 3068.26 171.282 3072.79 169.451 3077.34C157.372 3105.69 144.927 3135.19 132.408 3136.31C132.187 3136.31 132.042 3136.31 131.82 3136.31C113.737 3136.31 96.3868 3074.51 85.3301 2970.71C73.3248 2857.31 69.8105 2728.01 75.3744 2607.2L75.082 2606.08H75.4482C75.3744 2582.82 75.227 2563.54 75.1557 2545.97C74.8608 2499.47 74.6421 2465.44 75.5932 2408.16C76.8392 2333.87 81.597 2239.73 88.1121 2162.6C95.9469 2069.6 106.635 1986.23 115.128 1924.43C120.4 1885.87 125.816 1847.86 131.235 1812.13C134.31 1790.58 137.606 1771.3 141.12 1754.28C147.709 1723.66 155.541 1711.19 163.01 1699.85C164.108 1698.15 165.207 1696.44 166.303 1694.75C208.109 1627.27 248.595 1697.01 277.44 1886.99C282.93 1923.29 287.909 1964.12 292.815 2003.25C295.597 2025.94 298.452 2049.18 301.382 2070.73C307.678 2118.37 314.412 2154.1 320.856 2188.13C330.959 2241.99 340.548 2292.47 347.651 2381.5C352.775 2446.15 356.363 2502.86 357.243 2568.09C358.194 2640.66 355.557 2715.52 349.042 2796.63C342.234 2881.69 335.351 2941.23 327.811 2979.22C299.991 3120.44 277.661 3134.05 263.822 3120.44C255.624 3112.5 247.57 3090.95 239.809 3069.96C231.316 3047.27 222.604 3024.03 213.452 3017.22C211.55 3017.22 209.719 3016.66 207.888 3016.66ZM141.557 3128.95C154.005 3128.95 166.45 3102.28 178.384 3076.2C179.92 3072.79 181.385 3069.39 182.923 3066.55C195.442 3039.9 207.743 3016.66 220.409 3024.6C229.121 3030.27 237.467 3050.68 245.592 3069.96C253.353 3088.67 261.407 3108.52 269.679 3114.76C289.593 3129.52 312.289 3075.06 331.984 2965.04C341.573 2911.18 347.87 2826.11 352.996 2750.11C359.511 2655.41 362.148 2573.76 361.487 2494.35C360.757 2411.55 356.51 2341.24 352.482 2283.96C345.383 2183.03 334.692 2138.22 323.272 2091.15C315.803 2059.95 308.044 2028.2 300.942 1977.73C297.209 1951.08 293.621 1923.29 289.888 1893.23C285.641 1859.77 281.247 1824.62 276.563 1792.85C246.472 1590.4 205.986 1505.34 165.499 1559.2C164.108 1560.92 162.717 1562.61 161.326 1564.3C152.614 1575.08 143.681 1586.42 136.215 1624.43C132.26 1644.84 128.965 1669.22 125.379 1697.58C119.594 1742.94 113.811 1790.01 108.247 1837.65C98.3628 1921.02 87.3085 2021.39 80.1323 2129.71C73.4698 2230.08 70.3954 2345.22 72.2263 2422.89C73.3985 2471.11 75.4482 2497.76 77.6428 2526.69C79.4737 2550.5 81.3046 2574.88 82.988 2614.02C78.4489 2731.4 82.5481 2856.17 94.5559 2965.61C105.758 3067.12 123.182 3128.37 141.12 3129.52C141.265 3128.95 141.412 3128.95 141.557 3128.95ZM215.209 3018.93C204.302 3018.93 193.612 3039.33 182.85 3062.59C181.311 3066 179.849 3068.84 178.311 3072.22C166.377 3098.32 154.005 3124.97 141.631 3124.97C141.486 3124.97 141.339 3124.97 141.191 3124.97C123.401 3123.84 106.198 3063.16 95.0671 2962.78C83.2068 2854.47 79.1812 2730.83 83.6467 2614.59V2613.44C81.9632 2573.19 80.0586 2548.8 78.2302 2524.4C76.1068 2496.06 74.0572 2469.39 72.8849 2422.34C71.054 2345.77 74.1284 2231.79 80.7197 2131.98C87.8934 2024.23 98.8764 1924.43 108.758 1841.06C114.396 1793.42 120.181 1746.35 125.89 1701.56C129.405 1673.77 132.7 1648.82 136.581 1628.96C143.902 1591.54 152.833 1580.2 161.471 1569.42C162.862 1567.71 164.253 1566.02 165.644 1564.3C205.986 1510.44 246.251 1594.93 276.27 1796.83C280.954 1828.57 285.349 1863.75 289.593 1897.19C293.181 1925.55 296.914 1955.04 300.649 1981.7C307.823 2032.16 315.584 2064.5 323.124 2095.68C334.4 2142.75 345.088 2186.99 352.116 2286.8C356.144 2344.07 360.317 2413.83 361.05 2495.49C361.708 2574.31 359 2654.84 352.63 2748.99C347.503 2824.4 341.281 2908.91 331.765 2962.21C312.217 3071.67 289.666 3126.11 269.9 3111.36C261.699 3105.11 253.719 3085.83 245.958 3067.12C237.833 3047.27 229.414 3026.87 220.628 3021.19C218.723 3019.5 216.966 3018.93 215.209 3018.93ZM151.442 3118.17C163.376 3118.17 175.31 3094.91 186.878 3072.22C188.195 3069.39 189.512 3067.12 190.83 3064.86C203.715 3039.9 215.356 3020.05 227.509 3026.87C235.855 3031.4 243.909 3048.98 251.743 3066C259.504 3083.02 267.556 3100.01 275.757 3104.56C295.963 3114.76 317.926 3057.49 335.938 2946.9C345.749 2886.79 351.165 2794.34 356.363 2704.75L356.584 2701.34C360.976 2627.62 365.881 2528.38 365.296 2420.63C364.93 2346.91 362.367 2274.89 356.948 2187.56C349.993 2075.27 338.133 2036.71 325.54 1995.88C317.049 1968.09 308.263 1939.73 300.21 1886.99C295.67 1857.51 291.497 1824.04 287.032 1789.46C283.296 1759.96 279.418 1729.9 275.317 1701.56C243.835 1484.91 203.57 1385.67 164.841 1428.21C163.302 1429.9 161.692 1431.62 160.154 1433.31C150.27 1442.96 139.948 1453.74 131.747 1499.09C127.063 1524.62 123.401 1557.51 120.108 1586.99C114.03 1641.43 107.881 1697.58 101.951 1754.28C91.4815 1853.53 79.6949 1970.36 72.8112 2099.09C66.2224 2221.02 64.9789 2357.11 69.663 2437.65C72.5925 2487.55 76.3993 2510.24 80.4985 2534.62C84.0866 2556.17 87.8934 2578.86 91.189 2621.95C87.8197 2735.38 92.4326 2855.03 104.293 2958.25C115.421 3055.23 132.479 3115.34 149.903 3118.72C150.417 3118.17 150.931 3118.17 151.442 3118.17ZM222.604 3021.19C212.134 3021.19 201.886 3039.33 190.685 3060.33C189.365 3062.59 188.048 3065.43 186.73 3068.26C174.723 3091.5 162.277 3115.91 149.903 3113.62C132.626 3110.23 115.713 3050.68 104.659 2954.27C92.9462 2851.64 88.3333 2733.66 91.7002 2621.38L91.4078 2620.81L91.7002 2619.69C88.3333 2575.45 84.4528 2552.19 80.791 2530.08C76.7654 2506.26 72.9586 2483.58 70.1029 2434.81C65.49 2355.42 66.736 2221.02 73.2511 2100.23C80.1324 1972.05 91.8477 1855.24 102.317 1756.57C108.247 1699.85 114.396 1643.71 120.474 1589.26C123.696 1560.35 127.355 1527.45 131.968 1502.5C140.095 1457.69 150.27 1447.49 160.154 1437.84C161.764 1436.15 163.302 1434.45 164.841 1432.74C203.349 1390.22 243.469 1489.46 274.879 1704.95C278.978 1733.31 282.859 1763.36 286.592 1792.85C291.057 1828.02 295.304 1860.91 299.843 1890.97C307.971 1944.26 316.757 1972.62 325.321 2000.41C337.766 2040.67 349.556 2079.23 356.437 2189.82C361.782 2276.6 364.343 2347.48 364.709 2420.63C365.223 2527.81 360.391 2625.93 356.071 2699.65L355.852 2703.06C350.652 2792.08 345.309 2883.96 335.572 2943.5C317.634 3052.94 295.818 3110.23 275.757 3100.01C267.629 3096.05 259.576 3078.47 251.817 3061.45C243.982 3044.45 235.855 3026.87 227.509 3022.34C225.899 3021.19 224.216 3021.19 222.604 3021.19ZM161.911 3106.83C173.113 3106.83 184.022 3088.12 195.516 3068.26L198.664 3062.59C209.645 3043.88 222.019 3022.33 234.612 3028.56C242.518 3032.54 250.279 3047.27 257.674 3060.9C265.506 3075.63 273.633 3090.95 281.76 3093.22C301.748 3098.32 323.417 3036.5 339.89 2928.19C349.482 2864.68 354.24 2769.39 358.853 2677.53C359.292 2669.02 359.73 2660.52 360.17 2652.01C364.709 2563.54 369.248 2458.07 369.103 2346.34C368.956 2264.11 366.54 2183.03 361.487 2091.15C354.606 1967.52 341.647 1935.2 327.884 1900.6C318.366 1876.79 308.556 1851.83 299.551 1796.83C294.353 1764.51 289.521 1727.07 284.395 1687.93C281.102 1662.43 277.661 1635.76 274.073 1610.82C240.468 1374.9 201.446 1263.76 164.182 1297.2C162.496 1298.91 160.813 1300.04 159.129 1301.18C147.927 1310.26 136.286 1319.32 127.207 1372.63C122.157 1402.12 118.203 1440.68 114.762 1474.71C108.321 1538.23 101.877 1603.44 95.5807 1669.22C84.3053 1786.05 71.7863 1922.72 65.4163 2067.34C59.0486 2210.25 59.7073 2367.89 67.0285 2450.68C71.6414 2503.43 77.3503 2523.28 83.3542 2544.26C88.7732 2562.97 94.3372 2582.82 99.3875 2628.2C97.1905 2737.07 102.317 2850.5 113.956 2948.6C125.158 3042.74 141.412 3100.01 158.615 3106.26C159.714 3106.83 160.813 3106.83 161.911 3106.83ZM230.146 3023.46C219.089 3023.46 208.254 3042.17 198.591 3058.61L195.442 3064.29C182.85 3085.83 170.989 3106.83 158.689 3102.28C141.631 3096.05 125.524 3039.33 114.396 2946.33C102.828 2849.35 97.7041 2736.5 99.9724 2628.77V2627.62L99.9012 2627.05C94.7747 2579.98 89.1369 2560.15 83.5729 2540.87C77.6428 2519.87 72.0075 2500.59 67.4684 2448.42C60.2922 2366.76 59.6336 2210.25 65.9299 2069.03C72.3 1924.98 84.819 1788.89 96.0207 1672.06C102.317 1606.85 108.758 1541.06 115.202 1478.12C118.643 1444.09 122.523 1405.52 127.574 1376.61C136.581 1324.44 148.075 1315.36 159.203 1306.28C160.886 1305.16 162.57 1303.44 164.253 1302.32C201.373 1268.86 240.249 1380 273.707 1614.78C277.221 1639.74 280.662 1666.38 283.958 1691.91C289.082 1731.61 293.913 1769.04 299.185 1801.36C308.263 1856.93 318.147 1881.89 327.663 1905.7C341.281 1939.73 354.166 1972.05 360.902 2093.99C365.955 2185.29 368.371 2265.81 368.516 2347.48C368.663 2458.07 364.124 2563.54 359.659 2652.01C359.219 2660.52 358.779 2669.02 358.339 2677.53C353.728 2768.84 349.042 2863.53 339.524 2926.48C323.198 3034.23 301.601 3096.05 281.834 3090.38C273.707 3088.12 265.653 3072.79 257.819 3058.06C250.352 3043.88 242.591 3029.13 234.612 3025.17C233.147 3023.46 231.608 3023.46 230.146 3023.46ZM172.454 3096.63C182.997 3096.63 193.393 3080.73 204.302 3064.86L207.084 3060.9C218.357 3043.88 229.999 3026.87 241.785 3031.4C249.254 3034.23 256.575 3046.15 263.604 3057.49C271.51 3070.53 279.711 3083.57 287.983 3083.57C307.897 3083.57 328.836 3018.93 343.992 2910.6C353.581 2841.99 357.901 2742.17 362.074 2645.76C362.659 2631.6 363.244 2617.97 363.905 2603.81C368.223 2506.26 372.91 2392.29 372.984 2272.62C373.055 2181.88 370.787 2091.15 366.026 1995.31C359.219 1860.91 345.161 1833.69 330.227 1805.33C319.683 1785.48 308.774 1764.51 298.892 1706.66C292.962 1672.06 287.469 1630.09 281.687 1585.3C278.831 1563.75 275.904 1541.06 272.901 1519.52C227.583 1195.14 188.487 1148.07 163.595 1165.64C161.911 1166.78 160.228 1167.9 158.47 1169.04C145.878 1176.98 132.845 1184.92 122.816 1246.17C117.326 1279.06 113.226 1323.87 109.564 1363C102.828 1435.58 96.0207 1509.87 89.3581 1584.73C76.8391 1725.37 64.0253 1876.22 58.1689 2036.14C52.02 2201.74 54.6545 2378.11 64.4652 2464.86C70.909 2521.02 78.3752 2538.03 86.3549 2555.6C93.5311 2571.47 100.926 2587.92 107.589 2636.13C106.49 2740.48 112.273 2848.8 123.696 2941.23C134.824 3030.82 150.783 3086.97 167.475 3095.48C169.087 3096.05 170.771 3096.63 172.454 3096.63ZM237.612 3025.72C227.217 3025.72 216.895 3041.05 206.937 3055.78L204.155 3059.76C191.562 3078.47 179.702 3096.63 167.401 3090.38C150.857 3081.87 135.042 3026.29 124.059 2937.25C112.639 2845.39 107.001 2738.21 108.1 2634.99H107.807L108.026 2633.3C101.292 2583.96 93.7498 2566.94 86.4287 2551.07C78.5226 2533.48 71.054 2517.04 64.7576 2461.46C55.0207 2375.84 52.4599 2201.17 58.535 2037.28C64.3915 1877.91 77.1316 1727.64 89.6506 1587.56C96.3131 1512.7 103.121 1438.41 109.857 1365.84C113.519 1326.7 117.618 1282.47 123.034 1249.58C132.919 1189.47 145.878 1181.53 158.397 1173.57C160.154 1172.45 161.837 1171.31 163.521 1170.18C188.269 1152.6 227.217 1199.67 272.39 1522.91C275.39 1544.47 278.32 1567.14 281.102 1588.71C286.884 1633.49 292.375 1675.46 298.379 1710.05C308.408 1768.46 319.317 1789.46 329.934 1809.29C345.309 1838.8 358.634 1863.75 365.296 1996.44C370.054 2091.72 372.323 2181.88 372.251 2272.05C372.104 2390.57 367.491 2504 363.173 2601.53C362.586 2615.16 361.927 2629.32 361.342 2643.5C357.169 2739.34 352.922 2839.15 343.404 2906.65C328.322 3014.38 307.531 3078.47 287.764 3078.47C279.563 3078.47 271.802 3066 263.53 3052.39C256.428 3041.05 249.18 3029.13 241.64 3026.29C240.394 3026.29 239.003 3025.72 237.612 3025.72ZM183.216 3086.4C193.027 3086.4 202.764 3073.94 212.941 3060.9L216.015 3056.92C226.632 3043.31 237.686 3029.13 248.74 3032.54C255.695 3034.8 262.579 3043.88 269.168 3052.39C277.587 3063.73 285.567 3073.94 293.839 3071.67C314.046 3064.29 333.227 3000.22 347.725 2891.32C357.535 2817.03 361.416 2710.42 365.223 2607.77C365.881 2590.2 366.54 2572.05 367.199 2554.48C372.104 2430.28 376.132 2317.43 376.496 2198.33C376.862 2095.68 374.738 1995.31 370.199 1898.9C363.539 1753.16 349.042 1732.74 332.276 1709.5C320.708 1693.05 308.774 1676.61 297.867 1616.48C291.35 1580.2 285.348 1534.82 279.052 1486.06C276.563 1467.35 273.999 1447.49 271.436 1428.78C233.073 1149.19 196.541 1016.5 162.717 1034.64C161.105 1035.78 159.422 1036.34 157.738 1036.91C143.609 1043.72 129.038 1050.52 118.058 1119.71C112.128 1157.13 107.807 1207.03 103.927 1251.27C96.8243 1332.95 89.6506 1416.87 82.6956 1500.24C68.8594 1664.69 56.0455 1827.45 50.4078 2004.39C44.4776 2192.09 49.0168 2387.17 61.4645 2478.47C69.663 2538.58 79.0338 2552.19 88.9919 2566.94C97.9229 2579.98 107.149 2593.59 115.495 2644.07C115.568 2743.31 121.791 2845.97 133.138 2932.72C144.194 3017.79 159.788 3072.79 175.969 3083.57C178.458 3085.28 180.874 3086.4 183.216 3086.4ZM245.155 3027.99C235.27 3027.99 225.459 3040.47 215.941 3052.94L212.867 3056.92C200.274 3072.79 188.34 3088.12 176.187 3079.61C160.154 3068.84 144.706 3013.83 133.725 2929.89C122.45 2843.68 116.301 2741.62 116.301 2642.93H116.008L116.153 2641.23C107.734 2589.63 98.3627 2576.02 89.3581 2562.97C79.4737 2548.8 70.1766 2534.62 62.1231 2475.64C49.8229 2385.47 45.3574 2192.66 51.2139 2006.09C56.7779 1829.72 69.5893 1667.53 83.4279 1503.62C90.3829 1420.27 97.5566 1336.9 104.659 1254.68C108.466 1211.01 112.786 1161.11 118.643 1124.24C129.552 1055.62 143.973 1048.82 158.031 1042.01C159.714 1041.44 161.326 1040.32 163.01 1039.74C196.615 1021.6 233.073 1153.74 271.291 1432.74C273.926 1452.02 276.415 1471.3 278.905 1490.01C285.275 1538.8 291.279 1584.73 297.794 1621.03C308.774 1681.71 320.782 1698.72 332.424 1714.6C348.968 1737.84 363.318 1757.69 369.907 1901.17C374.446 1997.01 376.496 2097.39 376.203 2198.9C375.837 2317.43 371.738 2429.71 366.906 2553.34C366.247 2570.92 365.515 2589.06 364.93 2606.65C361.195 2708.73 357.314 2814.77 347.577 2888.49C333.156 2996.81 314.12 3060.9 294.061 3067.69C285.786 3069.96 277.88 3059.18 269.46 3048.41C262.871 3039.33 255.99 3030.27 248.961 3027.99C247.57 3027.99 246.398 3027.99 245.155 3027.99ZM194.491 3076.77C203.57 3076.77 212.722 3067.12 222.164 3057.49C223.41 3056.35 224.582 3054.65 225.826 3053.51C235.563 3043.31 245.666 3032.54 255.769 3034.8C262.213 3036.5 268.583 3042.74 274.658 3048.98C283.296 3058.06 291.424 3066.55 299.843 3061.45C319.172 3050.68 338.573 2979.79 351.679 2873.18C361.561 2792.65 365.149 2679.8 368.59 2571.47C369.322 2549.93 369.981 2527.24 370.787 2505.12L371.298 2490.96C375.4 2372.44 379.644 2250.5 380.376 2124.04C381.035 2014.59 379.133 1906.27 374.738 1802.5C368.15 1645.41 352.63 1630.66 334.692 1613.09C322.099 1600.6 309.14 1588.14 297.28 1525.74C289.888 1487.18 283.225 1435.58 276.123 1381.14C274.218 1366.96 272.316 1351.66 270.34 1337.48C251.156 1195.14 234.83 1095.89 218.944 1024.99C198.957 935.97 180.434 896.265 162.204 903.631C160.668 904.202 159.055 904.773 157.446 905.344C141.852 910.445 125.745 916.118 113.737 993.815C107.441 1034.64 102.828 1090.77 98.8026 1140.13C91.4077 1230.87 83.8679 1323.87 76.5467 1416.3C61.3907 1607.42 48.4319 1780.95 43.2341 1973.77C37.5963 2183.58 44.0402 2396.82 58.9749 2492.65C68.9306 2556.17 80.7197 2567.52 92.1401 2578.29C102.828 2588.49 113.885 2598.69 123.841 2651.44C125.087 2746.72 131.894 2843.68 142.948 2924.79C154.079 3006.44 168.94 3059.18 184.826 3072.79C188.121 3075.63 191.343 3076.77 194.491 3076.77ZM252.913 3030.27C243.764 3030.27 234.612 3039.9 225.826 3048.98C224.582 3050.11 223.41 3051.82 222.164 3052.94C209.352 3066 197.273 3078.47 184.973 3068.26C169.232 3054.65 154.516 3002.48 143.462 2921.38C132.408 2840.29 125.671 2743.89 124.499 2649.74H124.207L124.354 2648.05C114.251 2594.16 103.121 2583.96 92.2851 2573.76C80.4248 2562.41 69.2256 2551.64 59.4149 2489.25C44.6251 2394.55 38.255 2183.03 43.819 1974.89C49.0168 1782.64 61.9044 1609.68 77.0579 1419.13C84.379 1326.7 91.8477 1233.7 99.3138 1142.97C103.342 1093.61 107.881 1038.05 114.104 997.774C125.964 920.648 141.997 915.547 157.519 909.875C159.129 909.304 160.668 908.752 162.277 908.18C180.36 901.366 198.809 940.5 218.652 1028.97C234.538 1099.85 250.792 1198.53 269.974 1340.88C271.95 1355.61 273.852 1370.37 275.757 1384.55C282.859 1439.56 289.593 1491.16 297.061 1529.72C308.995 1592.67 322.687 1605.7 334.766 1617.62C352.482 1634.64 367.857 1649.94 374.375 1804.19C378.766 1907.98 380.671 2015.72 380.01 2124.61C379.351 2249.93 375.105 2372.43 371.005 2490.39L370.494 2504.57C369.762 2526.69 369.029 2548.8 368.297 2570.92C364.856 2679.23 361.268 2790.96 351.531 2870.92C338.499 2976.96 319.317 3046.72 300.062 3058.06C291.716 3062.59 283.591 3054.08 275.024 3045.58C268.875 3039.33 262.579 3032.54 256.061 3031.4C254.892 3030.27 253.867 3030.27 252.913 3030.27ZM206.425 3067.69C213.818 3067.69 221.505 3062.59 230.072 3055.78C232.048 3054.08 234.027 3052.39 236.003 3050.68C244.788 3043.31 253.867 3035.94 262.945 3037.07C268.654 3037.64 274.366 3042.17 279.782 3046.15C288.789 3052.94 297.28 3059.19 305.992 3051.25C324.955 3034.23 343.552 2961.08 355.704 2855.03C365.734 2767.7 369.029 2648.05 372.251 2532.36C372.91 2507.41 373.642 2481.31 374.446 2456.36C374.886 2441.05 375.4 2425.73 375.911 2409.86C379.573 2293.6 383.306 2172.81 384.257 2050.32C385.281 1934.06 383.598 1817.8 379.278 1706.09C372.763 1537.66 356.218 1528.03 337.108 1516.11C324.149 1508.17 309.435 1499.09 296.621 1435.01C288.349 1394.18 280.809 1335.76 272.827 1274.53C271.584 1264.88 270.34 1255.25 269.094 1245.6C238.126 1010.83 201.739 761.294 161.545 770.945C160.154 771.516 158.763 771.516 157.298 772.068C140.095 775.475 122.305 779.453 109.198 866.21C102.462 911.017 97.7041 972.82 93.4574 1027.28C85.6963 1127.64 77.864 1229.72 70.1766 1330.66C54.2883 1540.49 40.7445 1731.61 35.8392 1940.88C30.4227 2172.81 38.9136 2404.75 56.338 2504.57C68.0533 2572.05 81.8158 2579.98 95.1408 2587.37C107.589 2594.73 120.474 2602.1 132.042 2657.11C134.457 2747.84 141.779 2839.15 152.685 2915.14C164.253 2993.97 178.384 3043.88 193.612 3059.76C197.932 3066 202.179 3067.69 206.425 3067.69ZM260.822 3032.54C252.402 3032.54 244.056 3039.33 236.003 3046.15C234.027 3047.84 232.048 3049.55 230.072 3051.25C216.6 3062.02 205.327 3068.84 193.759 3056.92C178.677 3041.05 164.619 2991.71 153.199 2913.44C142.363 2838.03 135.116 2747.29 132.7 2657.11L132.408 2657.68L132.553 2655.41C120.84 2599.84 107.881 2591.9 95.362 2585.08C81.5233 2577.15 68.4195 2569.21 56.8516 2502.86C39.5723 2403.61 31.2263 2173.95 36.5715 1943.14C41.4032 1734.45 54.947 1543.9 70.8353 1334.07C78.5226 1232.56 86.3549 1130.48 94.116 1030.66C98.289 976.798 103.049 915.547 109.712 870.74C122.668 784.554 140.314 781.147 157.446 777.169C158.837 776.617 160.301 776.617 161.692 776.046C201.591 766.396 237.905 1015.36 268.802 1249C270.045 1258.66 271.291 1268.29 272.535 1277.37C280.514 1339.17 288.057 1397.59 296.403 1438.41C309.362 1503.07 324.149 1512.13 337.108 1520.09C355.997 1531.41 372.396 1541.64 378.766 1706.66C383.013 1817.8 384.697 1933.49 383.746 2049.18C382.866 2171.68 379.059 2291.9 375.471 2408.16C374.96 2423.47 374.52 2438.79 374.009 2454.66C373.202 2479.62 372.544 2505.69 371.811 2530.65C368.59 2645.76 365.296 2764.86 355.412 2851.07C343.33 2955.98 324.881 3029.13 306.066 3045.58C297.428 3052.94 288.934 3046.72 280.003 3040.47C274.513 3036.5 268.875 3031.97 263.09 3031.4C262.213 3032.54 261.554 3032.54 260.822 3032.54ZM219.677 3059.76C225.752 3059.76 231.83 3056.92 237.978 3053.51C240.908 3051.82 243.909 3050.11 246.764 3048.41C254.378 3043.88 262.213 3038.78 270.045 3038.78C274.95 3038.78 279.782 3041.05 284.469 3043.31C293.987 3047.27 302.918 3051.82 312.07 3040.47C330.811 3017.79 348.236 2943.5 359.73 2836.89C369.907 2742.17 372.984 2615.16 375.911 2492.65C376.569 2464.86 377.302 2435.95 378.034 2407.59C378.766 2381.5 379.499 2354.85 380.305 2328.2C383.598 2214.2 386.965 2095.68 388.063 1976.6C389.309 1845.02 387.845 1725.37 383.746 1610.25C377.302 1430.48 359.73 1425.95 339.452 1419.7C325.54 1415.72 309.728 1411.19 295.889 1345.41C286.666 1302.32 278.391 1237.09 269.534 1168.47L267.85 1155.43C236.587 913.853 201.154 641.075 161.764 641.075C161.471 641.075 161.179 641.075 160.886 641.075C159.714 641.075 158.615 641.075 157.446 641.646C138.483 643.34 118.935 645.034 104.733 741.442C97.5567 790.226 92.58 857.131 88.1859 916.689C80.1323 1025.56 71.9338 1137.29 63.8803 1247.86C47.2596 1476.41 33.1309 1683.97 28.518 1911.37C26.1022 2029.9 27.127 2154.1 31.3 2261.85C35.7654 2377.54 43.5265 2466.56 53.7771 2520.44C67.2472 2591.33 83.0618 2596.43 98.2153 2600.98C112.42 2605.51 127.062 2610.04 140.314 2666.76C143.973 2752.95 151.882 2838.58 162.425 2908.91C173.845 2983.2 187.681 3031.97 202.397 3050.68C208.109 3056.92 213.892 3059.76 219.677 3059.76ZM269.168 3034.23C261.625 3034.23 254.012 3038.78 246.691 3043.88C243.835 3045.58 240.834 3047.84 237.905 3048.98C225.899 3055.23 214.184 3059.76 202.471 3045.58C187.829 3027.44 174.138 2978.65 162.791 2904.93C152.248 2835.19 144.413 2749.56 140.754 2663.92L140.459 2664.49L140.606 2662.21C127.281 2604.37 112.494 2599.84 98.2153 2595.31C82.4031 2590.2 67.3947 2585.65 54.0696 2515.91C43.9664 2462.6 36.2791 2374.13 31.8137 2259.58C27.7119 2152.97 26.6871 2029.33 29.1029 1911.37C33.6421 1685.11 47.7733 1477.55 64.3915 1249.58C72.445 1138.99 80.5722 1027.83 88.6995 918.954C93.0912 859.967 97.9966 793.062 105.099 744.849C119.156 649.012 138.63 647.318 157.446 646.176C158.618 646.176 159.714 646.176 160.886 645.605C200.348 641.646 236.003 916.118 267.411 1158.84L269.094 1171.88C277.954 1241.07 286.3 1305.71 295.523 1349.39C309.507 1415.72 325.321 1420.27 339.379 1424.23C359.437 1429.9 376.791 1435.01 383.158 1611.38C387.26 1725.94 388.651 1845.59 387.479 1976.03C386.38 2095.13 383.013 2213.08 379.791 2327.06C379.059 2353.72 378.253 2379.8 377.523 2406.45C376.717 2434.24 376.058 2463.17 375.4 2491.51C372.47 2613.44 369.396 2739.91 359.292 2834.05C347.87 2940.09 330.666 3013.83 311.996 3036.5C302.918 3047.29 293.987 3043.31 284.542 3039.33C279.856 3037.07 274.95 3034.8 270.045 3034.8C269.753 3034.23 269.46 3034.23 269.168 3034.23ZM234.83 3052.94C238.271 3052.94 241.933 3052.39 245.74 3051.25C249.912 3050.11 254.159 3048.41 258.332 3046.15C264.481 3043.31 270.777 3040.47 277.074 3040.47C280.954 3040.47 284.761 3041.05 288.423 3041.62C298.671 3043.31 308.337 3045 318 3029.7C336.23 3000.77 352.849 2924.21 363.539 2818.18C373.935 2715.52 376.717 2581.12 379.499 2450.68C380.157 2420.63 380.816 2388.88 381.548 2358.25C382.5 2319.69 383.524 2280.56 384.549 2242.57C387.479 2131.98 390.553 2016.86 391.725 1902.86C393.261 1760.53 392.018 1633.49 388.063 1514.42C381.696 1323.87 363.173 1323.87 341.721 1323.3C326.86 1323.3 309.947 1322.72 295.085 1255.25C284.835 1208.75 275.172 1132.17 266.604 1064.7C263.97 1044.27 261.407 1023.3 258.772 1002.88C228.241 761.294 196.686 511.205 160.301 510.082H157.886C138.117 509.511 115.713 508.369 100.267 615.55C92.6513 668.294 87.4535 741.442 82.9143 805.53C74.4946 923.484 66.0037 1044.27 57.584 1163.94C43.3815 1366.39 25.7361 1618.19 21.1969 1880.19C18.9285 2008.35 20.4645 2142.75 25.3698 2257.87C30.7151 2382.07 39.5723 2477.9 51.1401 2534.05C66.4436 2608.34 84.1603 2610.04 101.292 2611.75C117.178 2613.44 133.651 2614.59 148.441 2673.55C153.418 2756.35 161.619 2834.62 172.088 2900.4C183.363 2970.16 196.907 3017.79 211.036 3038.78C218.723 3049.55 226.411 3052.94 234.83 3052.94ZM278.686 3035.94C278.172 3035.94 277.587 3035.94 277.074 3035.94C270.777 3036.5 264.407 3039.33 258.258 3041.62C254.159 3043.31 249.839 3045.58 245.74 3046.72C232.781 3050.11 221.945 3048.98 211.257 3033.66C197.126 3013.26 183.73 2965.61 172.528 2896.42C162.059 2831.21 153.931 2752.95 148.952 2670.72L148.807 2671.29L148.879 2669.6C133.944 2610.04 117.326 2608.34 101.292 2606.65C84.2341 2604.94 66.5885 2603.24 51.4326 2529.52C40.0121 2473.94 31.155 2378.66 25.8835 2255.6C20.9781 2141.06 19.5134 2007.78 21.7105 1880.19C26.2497 1618.76 43.8927 1367.53 58.0239 1165.08C66.4411 1045.42 74.9345 924.626 83.3542 806.672C88.1121 739.177 93.0912 669.988 100.634 617.815C115.861 512.347 138.19 512.919 157.886 513.471H160.301C196.467 514.613 227.949 763.559 258.406 1004.59C261.04 1025.56 263.677 1045.99 266.238 1066.39C274.805 1134.46 284.542 1211.01 294.864 1258.08C309.799 1326.13 326.786 1326.13 341.721 1326.7C362.952 1326.7 381.256 1327.27 387.552 1514.42C391.504 1632.92 392.676 1759.96 391.212 1901.74C390.042 2015.72 386.965 2130.28 384.038 2241.42C383.013 2279.43 381.988 2319.12 381.035 2357.11C380.305 2387.74 379.644 2419.51 378.985 2449.56C376.277 2578.86 373.421 2713.26 363.173 2814.77C352.556 2919.68 336.083 2996.24 318 3024.6C308.337 3039.33 298.745 3038.21 288.494 3036.5C285.275 3036.5 281.979 3035.94 278.686 3035.94ZM255.55 3049.55C260.967 3049.55 266.604 3047.84 272.023 3046.15C275.975 3045 280.077 3043.31 284.176 3042.74C286.518 3042.17 288.789 3042.17 291.131 3042.17C302.625 3041.05 313.461 3040.47 324.149 3019.5C341.794 2985.47 357.609 2905.5 367.565 2800.59C378.108 2690 380.671 2547.66 383.232 2409.86C383.817 2376.97 384.478 2342.93 385.21 2310.04C386.306 2259.58 387.626 2207.98 388.87 2157.5C391.578 2050.32 394.289 1939.16 395.606 1829.15C397.434 1676.61 396.483 1542.19 392.603 1418.01C386.306 1216.11 366.759 1220.64 344.063 1225.75C328.251 1229.72 310.239 1233.7 294.427 1165.08C283.958 1119.71 274.366 1045.42 265.435 973.391C260.822 936.541 256.061 897.407 251.522 859.967C223.117 625.772 193.759 383.62 159.643 378.5H158.544C136.947 375.112 112.494 371.134 95.7995 489.088C87.7459 545.238 82.4031 624.059 77.5715 693.818C68.7856 821.975 59.926 951.845 51.2876 1079.45C35.7654 1308.54 18.1224 1568.28 13.8757 1849C11.7523 1986.8 13.802 2130.85 19.4397 2253.91C25.591 2387.17 35.6205 2488.7 48.5056 2547.66C65.5637 2625.36 85.2589 2624.22 104.293 2622.52C121.938 2621.38 140.24 2619.69 156.713 2680.94C163.376 2763.17 171.796 2834.05 181.825 2892.47C193.174 2958.82 205.986 3004.18 219.895 3027.44C230.217 3044.45 240.468 3048.98 253.646 3050.11C254.233 3049.55 254.892 3049.55 255.55 3049.55ZM354.313 1228.58C372.178 1228.58 386.746 1251.84 391.944 1419.13C395.751 1542.19 396.776 1676.61 394.947 1828.57C393.627 1938.59 390.919 2049.18 388.211 2156.36C386.965 2206.27 385.648 2258.44 384.549 2308.92C383.817 2341.81 383.232 2375.82 382.573 2408.73C380.084 2545.97 377.449 2687.73 366.98 2797.18C357.095 2901.53 341.355 2980.36 323.856 3014.38C313.242 3034.8 302.407 3035.94 290.984 3037.07C288.715 3037.07 286.373 3037.64 284.029 3037.64C280.003 3038.21 275.904 3039.9 271.876 3041.05C265.801 3043.31 259.504 3045 253.501 3044.43C240.321 3043.31 230.146 3039.33 219.895 3022.32C206.059 2999.08 193.393 2953.7 182.044 2887.92C172.088 2830.07 163.668 2759.19 157.006 2677.53L156.932 2676.96H156.861C140.24 2615.14 121.865 2616.28 104.148 2617.97C85.1851 2619.69 65.5638 2620.81 48.6506 2543.68C35.9129 2485.29 25.9547 2384.33 19.8058 2252.2C14.1682 2129.71 12.1923 1986.8 14.2419 1849.57C18.4886 1569.98 36.0604 1310.26 51.58 1081.71C60.2185 954.11 69.0781 824.811 77.864 696.084C82.6219 626.895 87.9671 548.626 95.9469 492.495C112.494 376.235 136.799 379.642 158.323 383.049H159.422C193.319 388.15 222.53 629.731 250.864 862.803C255.403 900.243 260.163 939.358 264.774 976.227C273.781 1048.25 283.37 1122.54 293.913 1168.47C309.873 1237.66 327.956 1233.7 343.844 1229.72C347.577 1229.72 351.018 1228.58 354.313 1228.58ZM269.608 3049.55C276.196 3049.55 282.93 3047.84 289.448 3045.58L291.35 3045C304.967 3041.05 317.781 3037.64 330.153 3008.71C347.432 2968.45 362.074 2887.92 371.519 2781.88C382.207 2661.66 384.623 2510.79 386.965 2364.5C387.552 2330.47 388.063 2294.74 388.722 2260.71C389.968 2198.33 391.433 2134.81 392.895 2073.56C395.385 1969.22 397.948 1861.46 399.265 1754.85C401.462 1589.26 400.804 1452.02 396.997 1321.6C390.774 1108.36 370.202 1117.44 346.334 1128.21C329.494 1135.58 310.46 1144.66 293.621 1074.33C282.93 1030.11 273.122 955.823 264.115 882.085C257.966 832.177 251.743 778.311 245.74 726.138C219.018 494.76 191.417 256.015 158.982 246.936C135.701 240.693 109.346 233.327 91.2603 362.054C82.7693 422.735 77.2054 507.246 72.2263 580.965C63.0742 718.201 53.9221 857.131 44.9175 993.815C28.7392 1239.37 10.3614 1517.8 6.48083 1816.68C4.50491 1964.69 6.99445 2118.37 13.5095 2248.81C20.5382 2391.15 31.7399 2498.9 45.8686 2560.15C64.7577 2641.81 86.4287 2637.26 107.367 2632.73C126.77 2628.77 146.829 2624.22 164.841 2687.16C172.528 2762.02 181.459 2828.38 191.488 2883.39C202.764 2945.21 215.209 2989.42 228.534 3015.52C237.905 3033.11 248.008 3043.31 261.333 3047.27C264.115 3048.98 266.826 3049.55 269.608 3049.55ZM361.05 1128.79C378.108 1128.79 391.652 1158.27 396.483 1322.72C400.29 1452.02 401.022 1589.26 398.754 1754.28C397.363 1860.91 394.8 1968.65 392.384 2073.01C390.919 2134.81 389.454 2198.33 388.211 2260.15C387.552 2294.17 386.965 2329.89 386.454 2363.93C384.112 2509.67 381.696 2660.52 371.079 2779.61C361.708 2884.53 347.14 2964.49 330.008 3004.75C317.708 3033.66 304.896 3037.07 291.35 3040.47L289.448 3041.05C280.148 3043.88 270.559 3046.15 261.407 3043.88C248.082 3039.33 237.978 3029.7 228.681 3012.11C215.43 2986.61 202.982 2942.37 191.783 2881.12C181.751 2826.11 172.82 2760.33 165.207 2685.47L164.986 2687.16L165.133 2684.9C146.903 2620.81 126.77 2625.36 107.296 2629.89C86.4287 2634.44 64.7576 2638.97 46.0898 2557.87C32.0324 2496.63 20.9044 2390 13.9494 2248.81C7.50562 2118.37 5.01608 1965.81 6.99445 1818.37C10.875 1520.64 29.2504 1242.76 45.3574 997.203C54.362 860.538 63.5879 721.608 72.6662 584.372C77.5715 510.634 83.1355 426.713 91.5552 366.603C109.417 238.999 135.701 246.365 158.837 252.608C191.051 261.688 218.578 499.861 245.155 730.117C251.156 782.289 257.452 836.155 263.604 886.063C272.682 959.782 282.564 1034.64 293.255 1078.88C310.239 1149.76 329.347 1140.68 346.26 1133.32C351.458 1131.05 356.363 1128.79 361.05 1128.79ZM284.616 3050.11C289.155 3050.11 293.766 3048.98 298.305 3046.72C309.947 3042.17 323.638 3032.54 336.157 2997.93C352.704 2952 366.687 2868.63 375.4 2763.17C386.161 2633.87 388.43 2474.52 390.627 2319.69C391.14 2283.96 391.652 2247.1 392.31 2211.37C393.627 2135.38 395.458 2057.12 397.142 1981.7C399.413 1883.03 401.681 1780.95 403.146 1680.57C405.709 1503.62 405.122 1359.02 401.462 1225.19C395.313 1000.61 373.714 1014.79 348.676 1030.66C330.885 1042.01 310.753 1055.05 292.888 984.165C281.394 938.235 270.777 857.131 262.871 791.349C255.55 730.669 248.155 663.193 240.982 597.982C215.649 367.155 189.439 128.411 158.323 115.944C136.36 107.435 106.269 95.5199 86.7949 236.163C77.9377 300.251 72.3737 386.437 66.9547 469.806C57.6577 614.427 48.0657 762.436 38.6212 909.875C21.7817 1171.88 2.74774 1469.04 -0.840363 1785.48C-2.59753 1943.14 0.331909 2106.45 7.57935 2245.4C15.4141 2396.82 27.7856 2510.24 43.2341 2574.31C63.8803 2659.37 87.5272 2651.44 110.442 2644.07C131.602 2637.26 153.418 2629.89 173.113 2694.55C181.678 2762.02 191.122 2822.71 201.299 2874.88C212.501 2932.15 224.653 2975.26 237.539 3003.61C247.937 3025.17 258.698 3039.33 269.46 3045C274.366 3048.98 279.49 3050.11 284.616 3050.11ZM366.687 1027.83C383.306 1027.83 396.409 1061.86 400.877 1226.89C404.537 1360.16 405.05 1504.2 402.561 1681.14C401.096 1781.5 398.828 1883.58 396.557 1982.27C394.873 2057.69 393.043 2135.96 391.725 2211.94C391.067 2247.67 390.553 2284.54 390.042 2320.26C387.845 2473.94 385.574 2633.3 374.886 2761.45C366.174 2865.8 352.337 2948.6 335.938 2993.97C323.49 3028.56 309.873 3037.64 298.234 3042.74C288.642 3047.27 278.905 3047.27 269.313 3042.17C258.625 3036.5 247.863 3022.34 237.539 3000.77C224.727 2972.98 212.574 2929.89 201.446 2872.61C191.343 2820.44 181.899 2759.76 173.332 2692.28L173.187 2693.41L173.26 2691.71C153.418 2625.93 131.528 2633.3 110.297 2640.09C87.4535 2648.05 63.8803 2655.41 43.3815 2570.92C28.0069 2507.41 15.7803 2393.98 7.94553 2244.26C0.77182 2106.45 -2.23135 1943.71 -0.400421 1786.62C3.18765 1470.73 22.2217 1174.14 39.0611 912.711C48.5056 765.273 58.0951 617.263 67.3947 472.642C72.7375 389.844 78.3039 303.658 87.0873 240.141C106.343 100.621 136.286 112.536 158.178 121.045C189.072 132.96 215.209 371.134 240.468 601.37C247.644 666.6 255.037 734.076 262.358 794.756C270.34 860.538 280.954 942.213 292.596 988.714C310.605 1060.17 330.811 1047.11 348.676 1035.78C354.972 1031.81 361.05 1027.83 366.687 1027.83ZM294.498 3051.82C298.16 3051.82 301.748 3050.68 305.334 3048.98C319.61 3041.62 331.691 3021.19 342.161 2987.73C358.194 2935.56 371.079 2851.64 379.278 2745.58C390.042 2607.2 392.165 2438.79 394.215 2275.46C394.652 2238.59 395.166 2200.02 395.751 2163.17C397.142 2073.01 399.191 1980.56 401.17 1891.52C403.219 1798.52 405.343 1702.11 406.808 1607.42C409.661 1419.13 409.368 1267.72 405.854 1129.91C399.779 894 377.157 912.711 350.946 934.257C332.202 949.58 310.971 967.148 292.156 895.142C282.712 858.844 272.975 797.592 261.625 701.185C253.279 631.425 245.007 551.463 236.954 474.355C212.722 241.835 187.755 1.3773 157.591 -13.9261C129.989 -28.1065 101.511 -29.8005 82.2557 110.842C72.9586 178.889 66.9547 274.726 61.6095 359.218C51.7988 515.184 41.9168 672.272 32.1798 826.524C14.7555 1104.4 -5.08707 1419.7 -8.38025 1755.43C-9.99243 1923.29 -6.54932 2096.25 1.43045 2242.57C10.1426 2402.49 23.6127 2522.71 40.3783 2589.63C62.7817 2678.66 88.4783 2667.33 113.298 2656.54C136.215 2646.34 159.861 2636.13 181.166 2703.61C190.537 2763.17 200.495 2818.75 210.743 2868.08C221.8 2920.81 233.587 2962.78 245.958 2993.4C256.061 3017.21 266.459 3034.8 277 3043.88C282.859 3048.98 288.642 3051.82 294.498 3051.82ZM372.03 926.32C377.009 926.32 381.696 929.727 385.869 939.377C396.409 963.189 402.561 1023.87 405.343 1130.48C408.857 1267.72 409.223 1419.13 406.294 1606.85C404.829 1701.56 402.706 1797.4 400.656 1890.4C398.68 1979.44 396.631 2071.87 395.24 2162.6C394.652 2200.02 394.141 2238.04 393.701 2274.89C391.652 2437.07 389.528 2604.94 378.84 2742.74C370.639 2848.23 357.901 2931.6 341.939 2983.2C331.544 3016.66 319.538 3037.07 305.26 3044.45C295.889 3049.55 286.445 3047.84 277.148 3039.9C266.678 3030.27 256.283 3013.26 246.253 2989.42C233.953 2958.82 222.164 2916.85 211.183 2864.68C200.933 2814.77 190.903 2759.76 181.606 2699.65L181.385 2701.34L181.459 2699.65C160.009 2631.6 136.286 2642.38 113.298 2652.01C88.552 2662.78 63.0005 2674.13 40.6708 2585.65C23.9789 2519.3 10.6538 2400.23 1.94165 2240.87C-5.96442 2095.11 -9.47879 1922.72 -7.86905 1756C-4.57343 1421.4 15.193 1106.67 32.6173 828.789C42.283 674.537 52.165 517.449 62.0494 361.502C67.3209 277.562 73.3248 182.296 82.5482 114.23C101.658 -25.2704 130.063 -23.5764 157.446 -9.396C187.315 5.92645 212.282 245.813 236.369 477.172C244.422 554.299 252.695 634.261 261.04 704.021C272.535 800.428 282.272 862.251 291.79 898.53C310.753 971.126 332.057 953.539 350.873 938.235C358.339 931.992 365.515 926.32 372.03 926.32ZM303.065 3054.08C316.095 3054.08 328.983 3036.5 340.77 3001.91C359.585 2946.33 374.301 2851.07 383.306 2726.87C394.067 2578.29 396.043 2400.23 398.022 2228.96C398.462 2190.96 398.899 2152.4 399.413 2114.39C400.877 2008.92 403.219 1901.74 405.417 1798.52C410.833 1546.74 416.471 1286.43 410.322 1034.07C404.244 786.819 380.597 810.079 353.215 836.727C333.522 856.008 311.264 877.555 291.424 804.959C270.485 727.832 251.67 537.301 233.513 352.994C210.232 116.515 186.217 -127.35 156.932 -145.49C129.405 -162.506 98.3627 -168.178 77.7165 -15.6201C67.9058 56.9568 61.6832 157.914 56.2667 247.507L25.8835 742.013C7.7981 1036.91 -12.7007 1370.94 -15.7014 1723.66C-17.1661 1901.17 -13.2119 2083.78 -4.49969 2238.04C5.08981 2407.02 19.6584 2532.91 37.7438 2602.67C61.9756 2695.67 89.6506 2680.94 116.372 2667.33C140.972 2654.27 166.45 2641.23 189.365 2710.42C219.163 2862.96 246.912 2992.83 284.909 3042.17C290.912 3050.11 296.988 3054.08 303.065 3054.08ZM376.936 824.24C381.548 824.24 385.869 827.647 389.749 835.584C400.73 859.415 407.1 922.361 409.808 1033.5C415.957 1285.3 410.322 1545.02 404.903 1796.83C402.635 1900.6 400.364 2007.78 398.899 2113.27C398.388 2151.26 397.948 2190.39 397.508 2227.81C395.606 2399.08 393.556 2576.02 382.866 2724.03C373.935 2847.66 359.292 2941.8 340.622 2996.81C323.49 3047.27 303.798 3061.45 285.127 3037.07C247.204 2987.73 219.529 2857.86 189.805 2705.89C166.743 2636.13 141.191 2649.17 116.519 2662.21C89.8693 2676.39 62.2681 2690.57 38.1813 2598.14C20.2458 2528.95 5.67719 2404.18 -3.84106 2235.75C-12.5532 2082.07 -16.5075 1900.03 -15.0428 1723.11C-12.1158 1371.49 8.38544 1037.48 26.4684 743.155L56.8516 248.649C62.2681 159.608 68.4932 59.2219 78.2302 -12.7841C98.5815 -163.648 129.478 -157.976 156.861 -140.96C185.924 -122.801 209.866 119.903 232.999 355.259C251.23 540.137 270.045 731.24 291.131 808.937C311.119 882.085 333.522 860.538 353.289 841.257C361.635 832.177 369.688 824.24 376.936 824.24Z" fill="#DDCAB1" fill-opacity="0.22"/>
</svg>
