<svg width="1512" height="1769" viewBox="0 0 1512 1769" fill="none" xmlns="http://www.w3.org/2000/svg">
<path d="M433.583 1768.08C436.706 1768.08 439.837 1768.08 443.246 1767.77C493.879 1765.36 543.652 1746.63 592.012 1728.5C650.035 1706.44 710.054 1683.79 770.922 1691.04C808.464 1695.26 844.594 1710.97 879.577 1726.08C910.293 1739.38 941.868 1752.98 974.579 1759.31C1064.46 1776.24 1155.76 1736.95 1240.81 1691.94C1265.84 1678.64 1301.11 1656.59 1326.71 1626.68C1353.16 1595.56 1363.4 1562.93 1357.43 1529.69C1351.74 1498.88 1331.26 1473.49 1314.48 1452.95L1174.82 1280.74C1147.51 1246.9 1119.35 1212.14 1085.79 1183.44C1028.62 1133.9 958.081 1104.59 876.159 1095.83C803.633 1087.97 724.271 1097.64 647.19 1123.32C477.38 1179.82 326.914 1300.37 223.949 1463.22L224.522 1463.83L223.662 1463.53C192.66 1533.62 202.332 1609.16 250.969 1676.23C293.066 1733.03 362.184 1768.08 433.583 1768.08ZM747.596 1687.41C694.128 1687.41 641.786 1707.05 590.876 1726.39C542.802 1744.51 493.315 1763.25 442.969 1765.66C369.011 1768.99 295.911 1733.94 252.965 1674.11C205.177 1607.94 195.505 1533.32 225.944 1464.13C328.623 1301.88 478.516 1181.63 647.763 1125.44C724.557 1099.75 803.347 1090.38 875.596 1098.24C956.944 1107 1027.2 1136.31 1084.08 1185.26C1117.37 1213.96 1145.53 1248.71 1172.83 1282.25L1312.49 1454.46C1329.84 1475.61 1349.18 1499.78 1354.86 1530C1361.13 1563.53 1354.3 1628.79 1239.67 1689.53C1154.91 1734.54 1063.89 1773.52 974.866 1756.6C942.431 1750.55 910.866 1736.66 880.141 1723.67C845.157 1708.56 808.751 1692.85 770.922 1688.32C763.245 1687.71 755.559 1687.41 747.596 1687.41ZM288.798 1671.39C241.02 1607.65 229.066 1535.13 255.81 1467.15L257.796 1468.06C231.625 1535.13 243.293 1606.73 290.507 1669.88C334.313 1728.19 403.994 1761.74 477.103 1759.62C526.59 1758.11 575.513 1740.89 623.015 1724.27C630.691 1721.55 638.377 1718.83 646.054 1716.41C694.128 1699.8 745.324 1684.38 798.515 1689.83C835.208 1693.75 870.478 1707.95 904.326 1721.55C934.468 1733.64 966.044 1746.32 998.182 1751.47C1073.28 1763.54 1157.18 1740.28 1255.03 1680.15C1288.03 1659.31 1316.19 1632.12 1338.94 1599.18C1364.54 1562.33 1374.78 1526.98 1369.94 1491.02C1365.4 1457.79 1347.76 1429.69 1330.13 1403.7C1301.96 1362.31 1269.26 1331.49 1234.84 1299.16C1213.51 1279.23 1191.32 1258.38 1170.27 1234.81C1163.45 1226.95 1156.33 1219.1 1149.79 1211.24C1127.89 1185.86 1105.14 1159.57 1079.82 1137.22C970.598 1040.83 812.169 1011.23 645.767 1056.25L639.8 1057.76C613.629 1064.71 586.608 1071.96 562.71 1085.55C550.479 1092.5 538.534 1100.36 527.163 1108.82C507.246 1123.02 487.625 1138.43 468.567 1154.14C427.32 1188.28 394.332 1220.31 367.588 1252.64C341.14 1285.27 318.664 1321.22 300.752 1359.59C283.117 1397.36 270.6 1425.15 258.369 1468.36L256.374 1467.75C268.604 1424.55 281.122 1396.45 298.757 1358.69C316.965 1320.01 339.431 1283.76 365.888 1251.12C392.623 1218.8 425.611 1186.47 467.144 1152.32C486.202 1136.61 506.109 1121.21 526.017 1107C537.398 1098.55 549.343 1090.69 561.573 1083.74C586.035 1070.14 613.056 1062.89 639.227 1055.94L645.204 1054.43C812.446 1009.42 971.448 1039.03 1081.24 1136.01C1106.55 1158.37 1129.59 1184.96 1151.49 1210.34C1158.32 1218.19 1165.15 1226.05 1171.97 1233.91C1193.03 1257.47 1214.93 1278.31 1236.26 1298.26C1270.96 1330.88 1303.67 1361.7 1331.83 1403.1C1349.75 1429.38 1367.38 1457.79 1371.94 1491.63C1377.05 1528.18 1366.82 1564.13 1340.65 1601.6C1317.89 1634.84 1289.45 1662.33 1256.17 1683.18C1158.04 1743.61 1073.56 1766.87 997.905 1754.78C965.471 1749.65 934.192 1736.95 903.753 1724.88C869.905 1711.28 834.922 1697.37 798.515 1693.45C745.61 1687.71 694.691 1703.42 646.903 1719.73C639.227 1722.45 631.55 1725.18 623.864 1727.59C576.363 1744.21 527.163 1761.43 477.38 1762.95C475.107 1762.95 473.112 1762.95 470.839 1762.95C399.163 1762.03 331.468 1728.5 288.798 1671.39ZM508.382 1755.99C509.241 1755.99 509.805 1755.99 510.664 1755.99C559.865 1755.39 608.225 1739.68 655.153 1724.57C662.266 1722.16 669.379 1720.04 676.493 1717.63C723.707 1702.52 773.767 1688.32 825.25 1693.45C860.52 1696.78 894.367 1709.16 927.078 1721.25C957.231 1732.43 988.796 1743.91 1020.66 1748.14C1074.7 1755.39 1162.02 1747.84 1270.67 1672.6C1299.97 1652.05 1327.28 1620.03 1353.73 1574.41C1379.61 1530.29 1390.13 1490.11 1386.44 1450.84C1383.03 1415.49 1369.09 1385.27 1348.9 1350.53C1321.02 1302.79 1283.76 1275.59 1244.22 1246.9C1219.19 1228.46 1193.03 1209.43 1168.85 1184.35C1157.76 1172.87 1146.38 1160.18 1135.85 1148.4C1117.08 1127.24 1097.45 1105.49 1076.12 1086.15C963.485 984.643 805.342 947.172 642.359 983.132C638.091 984.034 633.823 984.937 629.555 985.85C599.975 992.188 569.536 998.536 543.652 1015.16C530.008 1024.22 516.918 1034.79 504.973 1046.28C483.92 1065.61 462.59 1085.55 442.396 1106.1C409.398 1139.03 367.874 1183.44 337.159 1233.3C311.837 1274.69 293.066 1325.14 288.235 1365.03C284.53 1395.85 285.39 1413.67 286.526 1438.75C287.099 1447.82 287.376 1458.09 287.662 1470.47H287.376C265.196 1535.74 279.126 1605.22 326.35 1666.56C369.583 1722.76 437.565 1755.99 508.382 1755.99ZM804.196 1689.83C760.113 1689.83 716.88 1702.21 676.206 1715.2C669.093 1717.32 661.98 1719.73 654.866 1722.16C607.938 1737.26 559.588 1752.98 510.95 1753.57C510.091 1753.57 509.528 1753.57 508.668 1753.57C438.415 1753.57 371.006 1720.65 328.05 1665.35C281.408 1604.93 267.755 1536.04 289.371 1471.68L288.235 1471.08H289.658C289.371 1458.69 288.798 1448.42 288.521 1439.06C287.376 1414.28 286.526 1396.15 290.221 1365.64C295.062 1326.06 313.547 1275.9 338.858 1234.81C369.297 1185.26 410.821 1140.84 443.819 1107.92C464.299 1087.37 485.343 1067.12 506.396 1048.08C518.34 1036.6 531.144 1026.33 544.798 1017.27C570.396 1000.95 600.825 994.307 629.841 988.263C634.109 987.361 638.377 986.448 642.636 985.545C805.056 949.596 962.348 986.752 1074.41 1087.97C1095.74 1107.31 1115.09 1129.06 1134.14 1149.91C1144.95 1162 1156.05 1174.38 1167.43 1185.86C1191.89 1211.24 1218.05 1230.28 1243.09 1248.41C1282.34 1277.11 1319.59 1304 1347.19 1351.43C1367.1 1385.88 1381.04 1416.09 1384.45 1450.84C1388.15 1489.51 1377.9 1529.39 1352.59 1572.6C1326.14 1617.92 1299.4 1649.64 1270.11 1669.88C1162.02 1745.12 1075.27 1752.37 1021.51 1745.12C989.656 1740.89 958.367 1729.41 928.215 1718.22C895.217 1706.14 861.369 1693.75 825.813 1690.12C818.423 1690.12 811.31 1689.83 804.196 1689.83ZM546.497 1749.65C594.858 1749.65 643.208 1735.44 689.573 1721.55C695.541 1719.73 701.231 1717.92 707.208 1716.41C755.846 1702.21 803.633 1689.83 852.843 1694.06C886.691 1697.08 919.115 1707.95 950.681 1718.22C980.833 1728.19 1012.12 1738.77 1044.26 1742.1C1121.63 1749.95 1209.8 1720.94 1286.32 1662.33C1323.58 1633.63 1348.04 1588.31 1367.95 1547.82C1393.27 1497.37 1403.51 1453.86 1400.94 1411.55C1398.11 1367.44 1381.61 1329.98 1365.96 1299.47C1338.38 1245.69 1296.84 1221.82 1252.47 1196.74C1223.46 1180.12 1193.31 1163.2 1165.72 1136.31C1151.22 1122.11 1137.28 1107.31 1122.77 1091.29C1106.27 1073.47 1089.2 1054.74 1071 1037.81C954.099 929.953 796.806 884.634 639.513 913.332C634.109 914.245 628.705 915.147 623.301 916.05C589.453 921.79 554.747 927.834 525.74 948.085C510.377 958.956 497.574 971.947 483.643 987.056C461.167 1011.22 438.701 1036.3 417.084 1061.68C378.683 1106.1 335.736 1159.57 307.856 1217.28C281.971 1270.76 270.027 1332.1 277.14 1373.48C281.695 1399.17 289.658 1413.37 298.184 1428.78C305.297 1441.47 312.41 1454.46 318.951 1475.31C301.316 1537.85 317.242 1604.32 363.893 1662.63C407.412 1716.71 475.107 1749.35 544.798 1749.95C545.361 1749.65 545.934 1749.65 546.497 1749.65ZM832.64 1691.04C790.266 1691.04 748.732 1701.91 706.922 1714.3C700.945 1716.11 695.264 1717.63 689.287 1719.43C642.922 1733.33 594.858 1747.53 546.784 1747.53C546.22 1747.53 545.648 1747.53 545.075 1747.53C475.957 1746.93 409.121 1714.6 365.879 1661.12C319.8 1603.42 304.161 1537.54 321.51 1475.61V1475C314.969 1453.56 307.57 1440.57 300.466 1427.57C292.216 1412.47 284.253 1398.26 279.699 1373.19C272.586 1332.39 284.53 1271.67 310.138 1218.49C338.008 1161.08 380.678 1107.92 419.07 1063.5C440.973 1038.12 463.449 1013.04 485.629 989.176C499.283 974.37 512.087 961.076 527.163 950.499C555.606 930.562 590.303 924.518 623.864 918.778C629.268 917.865 634.673 916.963 640.077 916.05C796.806 887.351 953.24 932.367 1069.87 1039.93C1088.07 1056.85 1105.14 1075.59 1121.63 1093.4C1135.57 1108.51 1150.07 1124.22 1164.58 1138.43C1192.45 1165.31 1222.61 1182.54 1251.9 1199.15C1295.71 1224.23 1337.23 1247.8 1364.54 1300.98C1380.19 1331.49 1396.4 1368.66 1399.24 1412.16C1401.8 1454.16 1391.28 1497.06 1366.53 1547.22C1346.62 1587.4 1322.44 1632.42 1285.47 1660.82C1209.53 1719.14 1121.91 1748.14 1045.12 1740.28C1013.26 1736.95 982.256 1726.68 952.104 1716.71C920.538 1706.14 887.827 1695.26 853.693 1692.24C846.293 1691.34 839.466 1691.04 832.64 1691.04ZM584.899 1743.91C631.264 1743.91 677.629 1731.52 722.571 1719.43C727.689 1717.92 732.806 1716.71 737.924 1715.51C787.984 1702.21 833.213 1691.63 880.427 1695.26C912.852 1697.68 944.141 1707.05 974.579 1716.11C1004.73 1725.18 1036.01 1734.24 1067.87 1736.66C1146.38 1742.1 1231.71 1711.58 1301.68 1652.66C1339.8 1620.64 1360.84 1571.38 1381.04 1523.65L1381.89 1521.84C1398.96 1482.56 1418.01 1429.69 1415.74 1372.28C1414.32 1333 1404.36 1294.63 1383.31 1248.1C1356.29 1188.28 1310.21 1167.74 1261.29 1145.98C1228.3 1131.18 1194.16 1116.07 1162.87 1087.97C1145.24 1072.26 1129.03 1054.43 1111.68 1036.01C1097.17 1020.29 1082.1 1004.28 1066.16 989.176C943.854 873.753 787.421 820.878 636.955 843.543C630.978 844.445 624.724 845.358 618.747 846.261C580.345 851.402 540.243 857.142 508.382 881.307C490.184 894.906 475.957 912.43 463.163 928.138C439.551 957.141 415.662 987.057 392.623 1017.27C351.948 1070.14 306.156 1132.39 279.413 1200.97C253.815 1265.93 248.983 1338.44 267.182 1381.34C278.563 1407.93 293.353 1420.02 309.279 1433.01C323.219 1444.49 338.008 1456.58 350.812 1479.54C337.722 1539.97 355.643 1603.71 401.722 1658.71C444.955 1710.37 511.227 1742.4 578.922 1744.2C580.918 1743.91 582.913 1743.91 584.899 1743.91ZM861.369 1692.24C820.695 1692.24 780.88 1701.91 737.361 1713.09C732.233 1714.3 727.116 1715.81 721.998 1717.32C675.347 1729.7 626.996 1742.7 578.922 1741.49C511.8 1739.68 446.091 1707.95 403.144 1656.59C357.639 1601.91 339.717 1539.05 352.798 1479.23L351.662 1478.93L352.798 1478.33C339.717 1454.76 324.641 1442.37 310.415 1430.59C294.775 1417.9 279.985 1405.81 268.891 1379.83C250.969 1337.54 255.81 1265.93 281.122 1201.58C307.856 1133.29 353.371 1071.05 394.045 1018.48C417.084 988.263 440.973 958.358 464.585 929.345C477.103 913.941 491.32 896.417 509.241 883.123C540.816 859.251 580.345 853.815 618.747 848.674C625 847.772 630.978 846.869 636.955 845.956C786.561 823.302 942.431 876.176 1064.46 990.981C1080.39 1006.09 1095.47 1022.1 1109.97 1037.81C1127.32 1056.55 1143.82 1074.08 1161.45 1090.09C1193.03 1118.48 1227.16 1133.59 1260.44 1148.4C1308.79 1169.85 1354.59 1190.39 1381.32 1249.31C1402.09 1295.54 1412.04 1333.31 1413.46 1372.28C1415.46 1429.38 1396.68 1481.66 1379.9 1520.93L1379.05 1522.75C1358.85 1570.18 1338.09 1619.13 1300.26 1650.85C1230.57 1709.16 1145.81 1739.68 1067.87 1734.24C1036.3 1732.13 1005.01 1722.76 974.866 1713.69C944.427 1704.64 912.852 1695.26 880.427 1692.85C874.173 1692.24 867.633 1692.24 861.369 1692.24ZM625.573 1737.87C669.093 1737.87 711.476 1727.9 756.132 1717.32L768.363 1714.3C811.023 1704.33 859.097 1692.85 908.021 1696.17C938.736 1698.29 968.889 1706.14 997.619 1713.4C1028.05 1721.25 1059.62 1729.41 1091.2 1730.62C1168.85 1733.33 1253.04 1700.4 1317.04 1642.69C1354.3 1608.85 1372.79 1558.09 1390.71 1509.15C1392.42 1504.62 1394.12 1500.08 1395.83 1495.55C1413.46 1448.42 1431.1 1392.23 1430.53 1332.7C1429.96 1288.89 1420.57 1245.69 1400.94 1196.74C1374.21 1130.87 1323.86 1113.66 1270.39 1095.22C1233.41 1082.53 1195.3 1069.24 1160.32 1039.93C1140.12 1022.71 1121.35 1002.76 1101.43 981.915C1088.64 968.326 1075.27 954.119 1061.33 940.834C930.773 815.138 779.171 755.926 634.396 773.743C627.846 774.656 621.305 775.254 614.765 775.863C571.246 780.7 526.017 785.527 490.747 813.931C471.126 829.64 455.763 850.185 442.396 868.317C417.371 902.157 392.336 936.9 367.874 971.947C324.068 1034.19 275.431 1107 250.683 1184.05C225.944 1260.19 228.503 1344.18 256.946 1388.29C274.868 1416.39 297.048 1426.97 320.373 1438.14C341.427 1448.11 363.043 1458.69 382.664 1482.86C374.128 1540.87 394.045 1601.3 439.264 1653.57C482.784 1703.72 545.934 1734.24 612.77 1737.56C617.038 1737.87 621.305 1737.87 625.573 1737.87ZM890.672 1693.45C847.716 1693.45 805.619 1703.42 768.076 1712.18L755.846 1715.2C706.922 1726.68 660.844 1737.87 613.056 1735.44C546.784 1732.13 484.207 1701.91 440.973 1652.36C396.031 1600.69 376.124 1540.57 384.937 1483.17V1482.56L384.66 1482.26C364.743 1457.18 342.84 1446.61 321.223 1436.34C298.184 1425.15 276.291 1414.88 258.656 1387.08C230.776 1343.58 228.217 1260.19 252.678 1184.96C277.427 1108.21 326.064 1035.7 369.583 973.458C394.045 938.715 419.07 903.668 444.105 870.132C457.472 852 472.549 831.455 492.17 816.051C527.163 788.255 571.818 783.418 615.052 778.58C621.592 777.982 628.132 777.069 634.673 776.471C778.885 758.643 929.924 817.856 1059.91 942.944C1073.56 956.238 1086.93 970.436 1099.73 984.034C1119.64 1005.19 1138.41 1025.13 1158.89 1042.34C1194.16 1071.96 1232.56 1085.25 1269.53 1097.94C1322.44 1116.07 1372.5 1133.29 1398.67 1198.25C1418.3 1246.9 1427.69 1289.79 1428.25 1333.31C1428.82 1392.23 1411.19 1448.42 1393.84 1495.55C1392.13 1500.08 1390.42 1504.62 1388.71 1509.15C1370.8 1557.8 1352.59 1608.25 1315.61 1641.78C1252.19 1699.19 1168.28 1732.13 1091.48 1729.11C1059.91 1727.9 1028.62 1719.73 998.182 1711.89C969.175 1704.33 939.023 1696.47 908.021 1694.36C902.33 1693.45 896.353 1693.45 890.672 1693.45ZM666.534 1732.43C707.495 1732.43 747.883 1723.96 790.266 1715.51L801.074 1713.4C844.871 1704.33 890.099 1695.26 935.891 1697.68C964.907 1699.19 993.351 1705.54 1020.66 1711.58C1051.37 1718.53 1083.23 1725.47 1115.37 1725.47C1192.74 1725.47 1274.09 1691.04 1332.97 1633.32C1370.23 1596.77 1387.01 1543.59 1403.22 1492.22C1405.5 1484.68 1407.77 1477.42 1410.34 1469.87C1427.11 1417.9 1445.32 1357.18 1445.61 1293.42C1445.88 1245.08 1437.07 1196.74 1418.58 1145.68C1392.13 1074.08 1337.52 1059.57 1279.49 1044.46C1238.53 1033.89 1196.15 1022.71 1157.76 991.894C1134.72 973.458 1113.38 951.097 1090.91 927.235C1079.82 915.756 1068.45 903.668 1056.78 892.189C880.714 719.368 728.825 694.289 632.114 703.649C625.573 704.258 619.033 704.856 612.206 705.465C563.283 709.693 512.65 713.922 473.685 746.555C452.354 764.079 436.429 787.95 422.202 808.8C396.031 847.467 369.583 887.047 343.699 926.931C295.062 1001.86 245.279 1082.23 222.526 1167.43C198.637 1255.66 208.872 1349.62 246.988 1395.85C272.023 1425.76 301.029 1434.83 332.031 1444.19C359.911 1452.64 388.641 1461.41 414.526 1487.09C410.258 1542.69 432.724 1600.4 477.103 1649.64C520.336 1697.37 582.34 1727.29 647.19 1731.82C653.453 1732.13 659.994 1732.43 666.534 1732.43ZM919.679 1694.66C879.291 1694.66 839.19 1702.82 800.501 1710.67L789.693 1712.79C740.769 1722.76 694.691 1732.43 646.903 1729.11C582.627 1724.57 521.186 1694.96 478.516 1647.52C434.147 1598.58 412.244 1541.48 416.512 1486.48H415.375L416.225 1485.58C390.064 1459.3 360.761 1450.23 332.318 1441.77C301.602 1432.4 272.586 1423.64 248.124 1394.03C210.295 1348.42 200.346 1255.35 223.949 1168.04C246.701 1083.13 296.198 1003.07 344.835 928.442C370.72 888.558 397.167 848.978 423.338 810.311C437.565 789.461 453.491 765.894 474.534 748.371C512.936 716.346 563.283 712.117 611.92 707.878C618.747 707.28 625.287 706.671 631.827 706.073C727.975 696.703 879.291 721.781 1054.79 893.994C1066.45 905.483 1077.83 917.561 1088.64 929.051C1111.11 952.912 1132.44 975.273 1155.76 993.699C1194.73 1024.82 1237.11 1036.01 1278.36 1046.57C1338.09 1062.29 1389.86 1075.59 1415.74 1146.28C1434.23 1197.04 1443.04 1245.08 1442.76 1293.12C1442.19 1356.27 1424.27 1416.7 1407.49 1468.66C1405.21 1475.92 1402.65 1483.46 1400.38 1491.02C1384.17 1542.08 1367.67 1595.26 1330.69 1631.22C1272.09 1688.61 1191.32 1722.76 1114.52 1722.76C1082.66 1722.76 1052.51 1716.11 1020.37 1708.86C992.778 1702.82 964.621 1696.47 935.328 1694.96C930.487 1694.96 925.083 1694.66 919.679 1694.66ZM708.344 1726.99C746.46 1726.99 784.289 1720.34 823.827 1713.4L835.771 1711.28C877.018 1704.03 919.965 1696.47 962.912 1698.29C989.932 1699.49 1016.68 1704.33 1042.27 1708.86C1074.99 1714.91 1105.99 1720.34 1138.13 1719.14C1216.63 1715.2 1291.15 1681.07 1347.47 1623.05C1385.59 1583.47 1400.67 1526.67 1415.46 1471.98C1418.01 1462.62 1420.57 1452.95 1423.13 1443.59C1442.19 1377.42 1457.84 1317.29 1459.25 1253.84C1460.67 1199.15 1452.43 1145.68 1434.79 1094.32C1408.92 1016.67 1352.59 1005.79 1287.46 993.405C1242.51 984.643 1196.15 975.881 1153.78 943.846C1128.45 924.518 1105.14 900.342 1080.68 874.361C1071 864.392 1061.05 853.815 1051.09 843.847C902.044 694.888 760.113 624.195 628.705 633.86C622.442 634.468 615.901 634.762 609.361 635.067C554.47 638.697 497.86 642.317 455.2 679.179C432.161 699.116 415.375 725.706 400.299 749.273C372.706 792.788 344.835 837.499 317.815 881.916C264.06 969.533 214.277 1056.25 192.374 1150.52C169.334 1250.52 186.969 1354.45 235.33 1403.1C267.182 1435.12 303.588 1442.37 342.276 1450.23C376.974 1457.18 412.817 1464.43 445.241 1491.32C445.528 1544.2 469.703 1598.89 513.786 1645.11C556.742 1690.43 617.324 1719.73 680.188 1725.47C689.86 1726.39 699.245 1726.99 708.344 1726.99ZM948.981 1695.86C910.579 1695.86 872.464 1702.52 835.485 1709.16L823.54 1711.28C774.617 1719.73 728.252 1727.9 681.037 1723.37C618.747 1717.63 558.728 1688.32 516.068 1643.6C472.262 1597.67 448.373 1543.29 448.373 1490.71H447.237L447.8 1489.81C415.089 1462.32 378.683 1455.07 343.699 1448.11C305.297 1440.57 269.177 1433.01 237.889 1401.59C190.101 1353.55 172.753 1250.82 195.505 1151.42C217.122 1057.45 266.895 971.044 320.66 883.721C347.68 839.314 375.551 794.897 403.144 751.088C417.934 727.825 434.719 701.236 457.472 681.593C499.856 645.035 555.883 641.415 610.497 637.784C617.038 637.48 623.301 636.882 629.841 636.578C760.4 626.913 902.044 697.311 1050.52 845.956C1060.76 856.229 1070.43 866.502 1080.1 876.47C1104.85 902.461 1128.18 926.931 1153.49 946.27C1196.15 978.599 1242.8 987.665 1288.03 996.122C1352.31 1008.5 1408.06 1019.08 1433.65 1095.52C1451.29 1146.58 1459.25 1200.07 1458.12 1254.15C1456.69 1317.29 1440.77 1377.12 1422 1442.98C1419.44 1452.35 1416.59 1462.01 1414.32 1471.38C1399.81 1525.77 1384.73 1582.27 1346.9 1621.54C1290.87 1679.25 1216.92 1713.4 1138.99 1717.02C1106.84 1718.22 1076.12 1712.48 1043.41 1706.74C1017.81 1701.91 991.078 1697.08 963.771 1695.86C958.367 1695.86 953.813 1695.86 948.981 1695.86ZM752.15 1721.85C787.421 1721.85 822.977 1716.71 859.66 1711.58C864.501 1710.97 869.055 1710.07 873.887 1709.46C911.716 1704.03 950.967 1698.29 990.219 1699.49C1015.25 1700.4 1040 1703.72 1063.6 1707.05C1097.17 1711.89 1128.74 1716.41 1161.45 1713.69C1236.55 1707.95 1311.92 1670.19 1362.84 1613.39C1401.23 1570.48 1415.17 1510.36 1428.54 1452.64C1431.38 1441.16 1433.94 1429.08 1437.07 1417.29L1439.06 1409.75C1454.99 1346.6 1471.48 1281.64 1474.33 1214.26C1476.89 1155.95 1469.5 1098.24 1452.43 1042.95C1426.83 959.26 1366.53 951.401 1296.84 942.041C1247.92 935.389 1197.57 928.746 1151.49 895.505C1122.77 874.959 1096.89 847.467 1069.29 818.464C1061.9 810.909 1054.51 802.756 1046.83 795.201C972.297 719.368 908.87 666.493 847.153 628.718C769.499 581.289 697.536 560.136 626.71 564.06C620.742 564.364 614.479 564.669 608.225 564.973C547.643 567.691 485.066 570.713 438.415 612.108C413.953 633.86 396.031 663.765 380.392 690.061C351.662 738.402 322.369 787.951 293.926 837.195C235.043 939.019 184.697 1031.47 164.503 1134.2C142.6 1245.98 167.635 1359.59 225.658 1410.65C264.336 1444.49 310.138 1450.54 354.507 1456.27C396.031 1461.71 438.987 1467.15 477.666 1495.25C482.507 1546.01 508.955 1597.67 551.901 1640.88C595.144 1684.38 652.88 1712.48 714.598 1719.73C727.402 1721.25 739.92 1721.85 752.15 1721.85ZM979.124 1697.08C943.577 1697.08 908.021 1702.21 873.887 1707.05C869.055 1707.65 864.501 1708.56 859.66 1709.16C809.887 1716.11 762.959 1722.76 715.171 1717.32C654.017 1710.07 596.844 1682.27 553.897 1639.06C510.95 1595.86 484.779 1544.5 480.225 1494.34H479.089L479.662 1493.44C440.41 1464.73 397.167 1459.3 355.071 1453.86C308.992 1447.82 265.482 1442.08 227.367 1408.84C169.907 1358.38 145.159 1245.69 166.776 1134.8C186.969 1032.38 237.039 940.226 295.911 838.706C324.355 789.461 353.371 739.913 382.378 691.572C398.027 665.276 415.662 635.675 439.837 614.217C485.916 573.126 548.206 570.408 608.511 567.386C614.765 567.082 620.742 566.788 626.996 566.484C697.25 562.853 768.926 583.703 846.016 630.838C907.734 668.602 970.884 721.173 1045.41 797.016C1053.08 804.865 1060.47 812.725 1067.87 820.28C1095.47 849.587 1121.63 877.079 1150.64 897.624C1197.01 931.16 1250.2 938.106 1297.13 944.455C1365.96 953.521 1425.69 961.674 1451.01 1043.86C1468.07 1099.15 1475.47 1156.55 1472.91 1214.57C1470.35 1281.33 1453.85 1346.6 1437.92 1409.44L1435.94 1417C1433.09 1428.78 1430.25 1440.57 1427.4 1452.35C1414.03 1510.05 1400.09 1569.58 1362.26 1612.18C1311.63 1668.68 1237.11 1705.84 1162.3 1711.89C1129.88 1714.3 1098.31 1709.77 1065.03 1705.23C1041.14 1701.91 1016.68 1698.29 991.355 1697.68C986.81 1697.08 982.829 1697.08 979.124 1697.08ZM798.515 1717.02C827.236 1717.02 857.102 1714.3 890.386 1710.67C898.062 1709.77 905.748 1708.86 913.425 1707.95C947.559 1704.03 982.829 1700.1 1018.1 1700.7C1040.28 1701 1062.47 1703.42 1083.51 1705.54C1118.51 1709.16 1151.49 1712.48 1185.34 1708.26C1259.01 1699.19 1331.26 1660.22 1378.48 1603.71C1417.44 1557.19 1430.25 1493.44 1442.76 1431.8C1445.32 1418.51 1448.17 1404.61 1451.29 1391.31C1453 1383.16 1454.99 1375 1456.98 1366.54C1471.21 1304.6 1485.71 1240.24 1489.4 1174.99C1493.39 1113.05 1486.85 1051.11 1470.06 991.589C1444.75 901.853 1380.47 896.722 1306.23 890.373C1255.88 886.145 1198.72 881.307 1148.93 847.163C1116.8 825.411 1087.5 794.289 1056.49 761.665C1051.66 756.524 1046.83 751.393 1041.99 746.251C921.674 621.174 780.307 488.227 624.151 493.368C618.747 493.672 613.342 493.672 607.652 493.966C540.816 495.782 471.699 497.901 420.78 544.123C394.609 567.995 376.124 600.922 359.625 629.935C329.473 683.408 299.043 737.794 269.177 791.571C207.45 903.364 154.831 1005.19 135.773 1116.68C114.73 1240.24 147.718 1363.82 215.413 1417C260.928 1452.95 314.396 1457.18 366.165 1461.11C414.526 1465.04 464.585 1468.96 509.528 1498.27C518.913 1546.61 547.357 1595.26 589.73 1635.74C634.673 1677.74 689.573 1704.33 748.732 1712.79C765.518 1716.11 782.016 1717.02 798.515 1717.02ZM1009.85 1698.29C977.138 1698.29 944.713 1701.91 913.425 1705.54C905.748 1706.44 898.062 1707.35 890.386 1708.26C838.044 1714 794.247 1717.63 749.305 1711.28C690.709 1702.82 636.095 1676.53 591.726 1634.84C549.629 1594.66 521.472 1546.32 512.086 1498.27L510.95 1498.57L511.514 1497.37C466.008 1467.75 415.662 1463.53 367.025 1459.9C313.26 1455.67 262.351 1451.44 217.408 1416.09C150.277 1363.21 117.852 1240.85 138.619 1117.88C157.39 1006.7 210.009 905.179 271.736 793.386C301.602 739.305 332.031 684.919 362.184 631.74C378.396 603.042 396.891 570.408 422.775 546.537C473.112 500.619 541.666 498.804 608.225 496.684C613.629 496.39 619.319 496.39 624.724 496.086C779.734 490.944 920.815 623.587 1040.85 748.066C1045.68 753.208 1050.52 758.339 1055.35 763.176C1086.36 796.104 1115.66 827.226 1148.08 848.978C1198.43 883.427 1255.88 888.254 1306.23 892.493C1379.61 898.527 1443.33 903.972 1468.07 991.894C1484.57 1051.11 1491.11 1112.74 1487.42 1174.38C1484 1239.65 1469.21 1303.7 1455.27 1365.64C1453.28 1373.79 1451.58 1381.95 1449.59 1390.41C1446.46 1403.7 1443.9 1417.6 1441.05 1430.89C1428.54 1492.22 1415.74 1555.68 1377.34 1601.6C1330.4 1657.5 1258.73 1696.47 1185.63 1705.23C1152.07 1709.16 1119.07 1705.84 1084.37 1702.52C1063.04 1700.4 1041.14 1697.98 1018.66 1697.68C1015.25 1698.29 1012.69 1698.29 1009.85 1698.29ZM849.998 1712.79C873.6 1712.79 897.212 1711.28 921.101 1709.46C932.482 1708.56 944.141 1707.65 955.235 1706.74C984.815 1704.33 1015.25 1701.61 1045.68 1701.61C1064.74 1701.61 1083.51 1702.82 1101.72 1704.03C1138.7 1706.14 1173.4 1708.56 1208.95 1702.52C1281.77 1690.43 1349.46 1650.85 1394.12 1594.05C1433.65 1543.59 1445.61 1475.92 1456.98 1410.65C1459.54 1395.85 1462.38 1380.44 1465.23 1365.33C1468.07 1351.43 1470.92 1337.23 1474.05 1323.03C1486.85 1262.3 1499.93 1199.15 1504.19 1135.71C1509.04 1065.61 1503.34 1001.86 1487.42 940.53C1462.38 844.75 1394.12 842.336 1315.34 839.01C1261.29 836.89 1199.85 834.477 1146.09 799.43C1110.26 776.471 1078.11 741.718 1043.7 705.16L1037.16 698.214C915.697 569.506 778.035 424.177 625 424.177C623.864 424.177 622.728 424.177 621.592 424.177C617.038 424.177 612.77 424.177 608.225 424.481C534.553 425.384 458.609 426.286 403.431 477.65C375.551 503.641 356.216 539.286 339.145 571.017C307.856 629.023 276.004 688.55 244.715 747.458C180.143 869.219 125.252 979.806 107.33 1100.96C97.9445 1164.11 101.926 1230.28 118.138 1287.68C135.487 1349.32 165.639 1396.75 205.464 1425.46C257.796 1463.22 319.237 1465.94 378.11 1468.36C433.297 1470.78 490.183 1473.19 541.666 1503.41C555.883 1549.33 586.608 1594.95 627.569 1632.42C671.938 1672 725.693 1697.98 782.866 1707.95C805.056 1711.28 827.522 1712.79 849.998 1712.79ZM1042.27 1699.19C1012.97 1699.19 983.392 1701.61 954.949 1704.33C943.854 1705.23 932.196 1706.44 920.815 1707.05C874.173 1710.37 828.658 1712.79 783.153 1705.23C726.266 1695.57 673.074 1669.58 628.992 1630.3C588.031 1593.15 557.592 1547.52 543.375 1501.9L542.229 1502.2L542.802 1500.99C491.033 1470.17 433.583 1467.75 378.11 1465.34C316.678 1462.62 258.369 1460.2 206.6 1423.04C167.349 1394.64 137.483 1347.5 120.134 1286.48C104.198 1229.68 100.217 1163.8 109.602 1100.96C127.238 980.414 182.138 869.828 246.701 748.371C277.99 689.452 309.565 630.229 341.14 572.224C358.202 540.797 377.26 505.152 404.854 479.465C459.468 428.406 535.126 427.503 608.225 426.895C612.779 426.895 617.038 426.895 621.592 426.59C774.903 424.481 913.425 570.713 1035.45 700.029L1041.99 706.976C1076.41 743.838 1108.83 778.276 1144.67 801.549C1198.99 836.89 1260.44 839.314 1315.05 841.423C1392.98 844.445 1460.4 847.163 1485.14 941.128C1501.07 1002.17 1506.48 1065.91 1501.92 1135.41C1497.65 1198.86 1484.57 1261.7 1472.06 1322.43C1469.21 1336.63 1466.08 1350.53 1463.24 1364.72C1460.11 1379.53 1457.55 1394.94 1454.99 1410.04C1443.61 1475 1431.67 1542.38 1392.42 1592.54C1348.04 1649.03 1281.2 1688.32 1208.67 1700.4C1173.4 1706.15 1138.7 1704.03 1102.01 1701.91C1083.8 1700.7 1064.74 1699.49 1045.68 1699.49C1044.55 1699.19 1043.41 1699.19 1042.27 1699.19ZM908.87 1709.16C922.238 1709.16 936.464 1708.86 951.254 1708.26C967.466 1707.65 983.965 1706.74 1000.18 1705.54C1024.07 1704.03 1048.53 1702.52 1072.99 1702.52C1088.07 1702.52 1102.86 1702.82 1117.08 1703.12C1156.9 1704.03 1194.45 1704.93 1231.99 1696.78C1302.82 1681.36 1367.38 1640.58 1408.92 1584.08C1449.3 1529.39 1460.11 1457.79 1470.92 1388.29C1473.48 1372.28 1476.04 1355.36 1478.88 1339.05C1482.58 1318.5 1486.56 1297.65 1490.54 1277.41C1501.92 1218.49 1513.87 1157.16 1518.42 1096.43C1524.39 1020.59 1519.56 952.912 1504.19 889.471C1479.46 787.951 1407.49 787.951 1324.15 787.646C1266.41 787.646 1200.7 787.342 1142.97 751.393C1103.14 726.618 1065.6 685.822 1032.32 649.872C1022.08 638.991 1012.12 627.816 1001.89 616.935C883.272 488.227 760.677 354.986 619.32 354.387H609.934C533.13 354.083 446.091 353.475 386.082 410.578C356.493 438.678 336.299 477.65 318.664 511.794C285.953 574.637 252.965 638.991 220.254 702.747C165.076 810.605 96.5219 944.759 78.8868 1084.35C70.0741 1152.63 76.0415 1224.23 95.0992 1285.56C115.866 1351.73 150.277 1402.79 195.219 1432.71C254.674 1472.29 323.505 1473.19 390.064 1474.1C451.782 1475.01 515.781 1475.61 573.241 1507.03C592.576 1551.14 624.437 1592.84 665.111 1627.89C708.917 1665.06 761.536 1690.43 816.427 1701.61C846.293 1707.35 876.159 1709.16 908.87 1709.16ZM1079.25 1700.1C1077.26 1700.1 1074.99 1700.1 1072.99 1700.1C1048.53 1700.4 1023.78 1701.91 999.891 1703.12C983.965 1704.03 967.18 1705.23 951.254 1705.84C900.907 1707.65 858.811 1707.05 817.286 1698.89C762.386 1688.01 710.34 1662.63 666.82 1625.77C626.146 1591.03 594.571 1549.33 575.227 1505.52L574.664 1505.82L574.941 1504.92C516.918 1473.19 452.355 1472.29 390.064 1471.38C323.792 1470.47 255.237 1469.57 196.355 1430.29C151.986 1400.68 117.575 1349.92 97.0947 1284.36C78.037 1223.33 72.3464 1152.32 80.8823 1084.35C98.5173 945.063 167.062 811.214 221.963 703.355C254.664 639.6 287.662 575.246 320.373 512.402C338.858 476.443 358.202 439.581 387.505 411.785C446.664 355.594 533.417 355.898 609.934 356.192H619.32C759.827 356.801 882.136 489.433 1000.46 617.847C1010.7 629.023 1020.94 639.904 1030.89 650.775C1064.18 687.039 1102.01 727.825 1142.11 752.904C1200.13 789.157 1266.13 789.157 1324.15 789.461C1406.63 789.461 1477.75 789.766 1502.21 889.471C1517.56 952.608 1522.12 1020.29 1516.43 1095.83C1511.88 1156.55 1499.93 1217.59 1488.55 1276.8C1484.57 1297.05 1480.59 1318.2 1476.89 1338.44C1474.05 1354.75 1471.48 1371.68 1468.92 1387.69C1458.4 1456.58 1447.31 1528.18 1407.49 1582.27C1366.25 1638.16 1302.25 1678.95 1231.99 1694.06C1194.45 1701.91 1157.18 1701.31 1117.36 1700.4C1104.85 1700.4 1092.05 1700.1 1079.25 1700.1ZM989.369 1707.35C1010.41 1707.35 1032.32 1706.44 1053.37 1705.54C1068.72 1704.93 1084.66 1704.03 1100.58 1703.72C1109.68 1703.42 1118.51 1703.42 1127.6 1703.42C1172.26 1702.82 1214.36 1702.52 1255.88 1691.34C1324.44 1673.21 1385.88 1630.61 1424.55 1574.71C1465.52 1515.79 1475.47 1439.96 1485.42 1366.54C1487.7 1349.01 1490.26 1330.88 1493.11 1313.36C1497.37 1286.48 1502.49 1258.98 1507.33 1232.09C1517.85 1174.99 1528.38 1115.76 1533.5 1057.15C1540.6 975.881 1536.91 904.266 1521.83 838.107C1497.37 730.543 1421.42 732.957 1333.25 735.674C1271.82 737.794 1201.84 739.913 1140.41 703.355C1099.73 679.179 1062.47 639.6 1027.77 601.226C1009.85 581.594 991.355 560.744 973.72 540.797C863.365 416.024 749.305 287.011 616.761 284.283H612.493C528.585 282.478 433.583 280.359 368.724 343.202C337.436 373.118 316.678 415.111 297.907 452.277C263.773 520.556 229.353 589.747 195.792 657.731C135.487 779.787 66.9423 918.17 50.4434 1067.73C42.194 1141.15 50.157 1217.89 72.0601 1283.45C95.9585 1354.45 134.924 1408.54 184.984 1439.96C251.256 1481.35 327.773 1480.74 401.722 1479.84C470.276 1479.23 541.38 1478.33 605.379 1510.96C631.264 1554.77 663.975 1592.54 702.94 1623.66C747.033 1659.01 796.806 1683.18 850.848 1695.57C890.949 1704.64 930.773 1707.05 981.969 1707.65C984.251 1707.35 986.81 1707.35 989.369 1707.35ZM1373.07 737.185C1442.48 737.185 1499.08 749.577 1519.27 838.706C1534.06 904.266 1538.04 975.881 1530.94 1056.85C1525.81 1115.46 1515.29 1174.38 1504.77 1231.48C1499.93 1258.07 1494.81 1285.87 1490.54 1312.76C1487.7 1330.28 1485.42 1348.41 1482.86 1365.94C1473.19 1439.06 1462.96 1514.58 1422.28 1572.89C1383.88 1628.49 1322.73 1670.49 1254.74 1688.61C1213.51 1699.49 1171.41 1700.1 1127.03 1700.7C1118.22 1700.7 1109.12 1701 1100.01 1701C1084.37 1701.31 1068.45 1702.21 1052.8 1702.82C1029.19 1704.03 1004.73 1704.93 981.406 1704.62C930.201 1704.03 890.672 1701.91 850.848 1692.84C797.093 1680.46 747.883 1656.28 703.79 1621.24C665.111 1590.42 632.4 1552.65 606.516 1509.15L606.229 1508.85H605.952C541.38 1475.91 469.99 1476.52 401.158 1477.42C327.486 1478.33 251.256 1478.93 185.547 1437.84C136.06 1406.73 97.3716 1352.94 73.4825 1282.54C51.5796 1217.28 43.9031 1141.15 51.8661 1068.03C68.365 919.072 136.633 780.7 196.928 658.938C230.489 590.954 264.909 522.067 299.043 453.484C317.528 416.622 338.295 374.923 369.297 345.017C433.583 283.077 528.012 284.892 611.633 286.707H615.901C747.596 289.425 861.083 418.133 971.161 542.308C988.796 562.255 1007.29 583.095 1025.2 602.737C1060.2 641.111 1097.45 680.69 1138.41 705.16C1200.42 742.022 1270.67 739.913 1332.4 737.794C1346.9 737.794 1360.27 737.185 1373.07 737.185ZM1043.98 1707.35C1069.58 1707.35 1095.74 1706.44 1121.06 1705.23L1128.45 1704.93C1181.36 1702.82 1231.14 1701 1279.21 1685.59C1346.34 1664.14 1403.22 1621.24 1439.92 1564.74C1481.44 1500.69 1490.83 1420.32 1499.93 1342.37C1502.21 1324.24 1504.19 1305.21 1506.75 1287.07C1511.59 1253.84 1517.28 1220 1522.97 1187.37C1532.64 1131.78 1542.6 1074.37 1547.71 1017.57C1556.25 929.345 1553.69 856.229 1538.9 786.744C1514.73 673.135 1434.8 677.973 1342.07 683.712C1276.65 687.637 1202.7 692.474 1137.28 655.004C1095.74 631.446 1057.64 591.866 1022.64 552.581C998.755 525.991 974.579 497.293 951.254 469.496C847.439 346.224 740.206 219.027 614.192 214.19C523.745 210.864 421.352 206.939 351.089 275.522C318.101 307.851 296.484 352.876 277.14 392.152C241.584 465.268 206.027 539.286 171.043 612.108C108.189 742.935 36.7899 891.276 21.7137 1050.51C14.0372 1129.36 23.7092 1211.24 49.0209 1280.74C76.328 1356.57 119.847 1413.98 174.739 1446.61C248.124 1490.11 332.318 1487.69 413.666 1485.28C489.047 1483.17 566.978 1480.74 636.955 1514.28C666.82 1554.16 701.518 1589.52 740.483 1618.82C784.289 1651.76 832.64 1675.32 884.409 1689.22C920.815 1698.59 960.067 1704.03 1011.84 1706.14C1022.64 1707.05 1033.18 1707.35 1043.98 1707.35ZM1399.24 684.017C1465.52 684.017 1518.13 699.725 1536.91 787.342C1551.7 856.229 1554.54 929.345 1545.73 1017.27C1540.32 1074.08 1530.37 1131.47 1520.98 1187.08C1515.29 1220 1509.6 1253.84 1504.77 1286.78C1502.21 1304.9 1499.93 1323.94 1497.94 1342.07C1488.84 1419.72 1479.46 1500.08 1438.21 1563.53C1401.8 1619.43 1345.2 1662.03 1278.64 1683.48C1230.86 1698.89 1181.08 1700.7 1128.45 1702.52L1121.06 1702.82C1084.93 1704.33 1047.68 1705.54 1012.12 1704.33C960.353 1701.91 921.101 1696.78 884.981 1687.41C833.499 1673.82 785.139 1650.25 741.629 1617.62C702.654 1588.31 667.957 1553.26 638.377 1513.38L637.518 1514.28L638.091 1513.07C567.264 1478.93 489.047 1481.35 413.389 1483.77C332.318 1486.19 248.124 1488.6 175.598 1445.39C120.984 1412.77 77.7505 1355.96 50.7299 1280.74C25.6951 1211.24 16.0231 1129.96 23.7091 1051.41C38.7854 892.787 110.175 744.74 172.753 613.913C207.736 541.101 243.579 467.083 278.849 393.967C297.907 354.681 319.524 309.97 352.235 277.945C421.629 209.961 523.745 213.885 613.629 217.212C738.783 222.049 845.73 348.942 948.981 471.616C972.297 499.412 996.759 528.111 1020.66 554.7C1055.93 593.976 1094.32 633.86 1135.85 657.427C1201.84 695.192 1276.07 690.355 1341.78 686.43C1361.98 685.223 1381.04 684.017 1399.24 684.017ZM1102.29 1707.65C1119.93 1707.65 1137.84 1707.05 1155.47 1705.84C1200.7 1703.42 1253.89 1698.29 1302.53 1679.85C1366.82 1655.38 1421.15 1610.96 1454.99 1554.77C1496.8 1485.89 1505.62 1400.99 1514.15 1318.5C1516.15 1299.47 1518.13 1279.82 1520.69 1260.79C1525.81 1220.31 1532.92 1178.61 1539.46 1138.43C1548.29 1085.86 1557.1 1031.47 1562.79 977.991C1572.75 883.721 1570.47 806.681 1556.25 735.38C1532.36 615.728 1448.44 623.283 1351.17 631.74C1282.05 637.784 1203.84 644.731 1134.43 606.966C1089.78 582.496 1048.53 539.286 1017.81 504.239C989.369 471.91 960.639 435.961 932.769 401.218C834.349 278.24 732.52 151.042 611.633 144.4C526.303 139.867 409.398 133.519 333.74 208.45C299.33 242.594 277.713 288.512 256.66 332.929C220.54 409.98 183.274 488.835 146.582 567.386C81.1591 706.976 7.21033 865.295 -6.72961 1033.89C-13.5564 1117.88 -2.17529 1204.89 25.9816 1278.92C56.4204 1359.59 104.485 1420.02 164.503 1454.16C244.715 1499.47 336.586 1495.25 425.611 1491.32C507.819 1487.69 592.576 1483.77 669.093 1518.22C702.367 1554.16 739.06 1586.49 778.598 1614.29C822.118 1644.8 869.332 1667.77 919.392 1682.87C959.79 1694.36 1001.6 1701.91 1043.41 1704.93C1062.47 1707.05 1082.38 1707.65 1102.29 1707.65ZM1421.15 630.229C1485.71 630.229 1536.62 648.361 1553.98 736.283C1568.19 807.289 1570.19 884.025 1560.52 978.295C1554.83 1031.77 1546.01 1086.15 1537.19 1138.73C1530.65 1178.91 1523.54 1220.61 1518.42 1261.09C1515.86 1280.13 1513.87 1299.77 1511.88 1318.81C1503.34 1400.68 1494.52 1485.58 1453 1553.86C1419.15 1609.45 1365.4 1653.57 1301.68 1677.74C1253.32 1696.17 1200.42 1701 1155.2 1703.72C1117.93 1706.14 1080.1 1706.14 1042.84 1703.42C1001.31 1700.4 959.503 1692.85 919.392 1681.36C869.619 1666.56 822.404 1643.6 779.171 1613.08C739.92 1585.29 703.227 1552.96 669.943 1517.01L669.379 1517.61L669.666 1516.7C592.576 1481.66 507.532 1485.58 425.047 1489.2C336.299 1493.44 244.715 1497.37 165.076 1452.35C105.344 1418.51 57.8431 1358.08 27.4043 1278.31C-0.466187 1204.89 -12.1338 1118.19 -5.02051 1034.5C8.91943 866.198 82.8682 708.182 148.291 568.897C184.984 490.346 222.24 411.491 258.369 334.44C279.126 290.327 300.752 244.41 334.877 210.569C409.685 136.237 526.017 142.585 611.07 147.118C731.097 153.466 832.64 280.359 930.773 403.023C958.653 437.776 987.374 473.725 1015.82 506.054C1046.83 541.101 1088.07 584.616 1133.29 609.39C1203.26 647.459 1281.77 640.502 1351.17 634.468C1375.63 632.349 1399.24 630.229 1421.15 630.229ZM1140.68 1708.56C1154.91 1708.56 1168.85 1707.95 1182.78 1707.05C1238.25 1703.12 1285.18 1692.24 1325.86 1674.42C1388.15 1646.62 1438.21 1601.91 1470.06 1545.4C1511.88 1471.68 1520.13 1381.95 1528.09 1294.93C1529.79 1275.29 1531.79 1254.75 1534.06 1235.11C1539.46 1187.08 1547.43 1137.82 1555.11 1090.38C1563.08 1040.83 1571.33 989.47 1577.02 939.019C1588.1 838.706 1586.97 758.035 1573.31 684.615C1549.71 558.929 1461.82 568.897 1359.99 580.377C1287.17 588.54 1204.68 597.9 1131.59 559.537C1094.89 540.199 1057.06 507.565 1012.97 456.202C980.547 419.035 948.408 376.434 917.12 335.353C822.977 211.472 725.98 83.3623 608.788 75.209C501.555 67.654 390.914 66.7515 316.105 141.682C279.986 177.936 256.66 228.995 235.893 274.011C197.778 357.105 159.385 440.798 121.557 522.979C53.8616 671.026 -23.2285 839.01 -36.0227 1017.87C-42.2863 1107.31 -28.9095 1199.46 2.09265 1277.41C35.9401 1362.61 88.2723 1426.66 153.408 1462.32C240.448 1509.75 340.281 1503.71 436.705 1497.96C525.74 1492.53 617.61 1487.09 700.381 1523.04C736.788 1554.77 775.476 1584.38 815.291 1610.67C858.247 1638.76 904.039 1661.12 952.104 1677.44C991.355 1690.12 1031.75 1699.49 1072.7 1704.33C1095.47 1707.05 1117.93 1708.56 1140.68 1708.56ZM1441.9 576.148C1461.25 576.148 1479.46 577.963 1495.67 583.105C1536.62 595.791 1560.52 628.12 1571.33 684.919C1584.98 758.035 1586.4 838.706 1575.02 938.715C1569.33 989.176 1561.08 1040.24 1553.12 1089.78C1545.44 1137.22 1537.48 1186.47 1532.07 1234.81C1529.79 1254.75 1527.81 1275 1526.1 1294.63C1518.13 1381.04 1509.88 1470.47 1468.36 1543.89C1436.5 1600.09 1387.01 1644.51 1325 1672C1284.61 1689.83 1237.97 1700.7 1182.5 1704.64C1146.09 1707.35 1109.4 1706.44 1073.28 1702.21C1032.6 1697.08 992.214 1688.01 953.249 1675.32C905.462 1659.01 859.66 1636.65 817 1608.85C777.176 1582.27 738.21 1552.96 702.091 1520.93L701.231 1521.84L701.518 1520.93C618.183 1484.68 526.017 1490.42 436.705 1495.55C340.567 1501.29 241.297 1507.33 154.545 1460.2C89.6951 1424.85 37.9261 1361.41 4.07861 1276.51C-26.6371 1198.85 -40.2906 1107 -34.0367 1018.18C-21.233 839.912 55.5612 672.233 123.256 524.186C160.808 442.005 199.2 358.312 237.602 275.228C258.083 230.506 281.408 179.751 317.242 143.488C391.486 69.165 501.842 70.0676 608.225 77.6225C724.271 85.7859 821.268 213.591 914.847 336.854C946.136 377.945 978.274 420.546 1010.7 457.713C1055.35 509.076 1093.18 542.014 1130.16 561.342C1203.84 600.02 1286.61 590.65 1359.71 582.496C1388.71 579.17 1416.59 576.148 1441.9 576.148ZM1173.97 1709.77C1224.59 1709.77 1274.66 1700.4 1320.45 1681.97C1393.55 1652.36 1450.73 1601.6 1485.71 1535.43C1527.52 1456.27 1535.2 1361.41 1542.88 1270.16C1544.59 1249.92 1546.29 1229.37 1548.29 1209.12C1553.98 1152.93 1563.08 1095.83 1571.61 1040.83C1592.66 906.69 1614.56 768.003 1590.67 633.556C1567.06 501.826 1475.19 514.218 1368.8 528.415C1292.3 538.688 1205.82 550.167 1128.74 511.49C1047.39 470.399 974.293 368.889 903.753 270.695C813.305 144.704 720.003 14.7795 606.229 5.11525C499.283 -3.95069 378.683 -6.97268 298.47 74.3065C260.355 112.974 236.18 166.761 215.136 214.494L97.0947 477.954C26.8314 635.067 -52.808 813.029 -64.4661 1000.95C-70.1566 1095.52 -54.7939 1192.81 -20.9465 1275C16.3096 1365.03 72.9098 1432.1 143.173 1469.27C237.316 1518.81 344.835 1510.96 448.65 1503.71C544.225 1496.76 643.208 1489.81 732.233 1526.67C848.002 1607.94 955.808 1677.13 1103.43 1703.42C1126.75 1707.65 1150.36 1709.77 1173.97 1709.77ZM1460.96 521.763C1478.88 521.763 1495.67 523.578 1510.74 527.807C1553.4 540.503 1578.15 574.039 1588.67 633.251C1612.56 767.405 1590.67 905.777 1569.62 1039.93C1560.8 1095.22 1551.98 1152.32 1546.29 1208.52C1544.31 1228.76 1542.6 1249.61 1540.89 1269.55C1533.5 1360.8 1525.53 1455.07 1484 1533.92C1449.3 1599.79 1392.42 1649.95 1319.88 1679.25C1253.32 1706.14 1176.81 1713.69 1104.28 1700.7C956.944 1674.42 849.425 1605.22 733.943 1524.26C644.345 1487.09 545.075 1494.04 449.223 1500.99C345.685 1508.54 238.452 1516.1 144.873 1466.85C75.1918 1429.99 18.5916 1363.52 -18.3877 1273.78C-52.2351 1191.9 -67.5978 1094.91 -61.9072 1000.66C-50.5356 813.323 29.1134 635.371 99.3672 478.562L217.408 215.102C238.452 167.663 262.637 114.18 300.466 75.8175C379.532 -4.55914 499.569 -1.53716 605.952 7.52878C718.866 17.2032 811.882 146.51 901.757 271.901C972.584 370.4 1045.68 472.214 1127.6 513.609C1205.26 552.581 1292.3 541.101 1369.09 530.828C1401.52 525.991 1432.8 521.763 1460.96 521.763Z" fill="#DDCAB1" fill-opacity="0.22"/>
</svg>
