<svg xmlns="http://www.w3.org/2000/svg" width="390" height="2112" viewBox="0 0 390 2112" fill="none">
  <path d="M112.494 2111.01C113.298 2111.01 114.104 2111.01 114.981 2110.63C128.014 2107.61 140.825 2084.15 153.273 2061.44C168.207 2033.81 183.656 2005.44 199.323 2014.52C208.986 2019.82 218.286 2039.49 227.29 2058.42C235.196 2075.07 243.324 2092.1 251.743 2100.04C274.879 2121.24 298.379 2072.03 320.271 2015.65C326.712 1999 335.791 1971.37 342.379 1933.92C349.189 1894.94 351.824 1854.06 350.288 1812.44C348.823 1773.84 343.552 1742.05 339.231 1716.32L303.284 1500.62C296.255 1458.24 289.008 1414.71 280.369 1378.77C265.653 1316.71 247.497 1280 226.411 1269.03C207.743 1259.18 187.315 1271.3 167.475 1303.46C123.767 1374.23 85.0377 1525.21 58.535 1729.18L58.6825 1729.95L58.4613 1729.56C50.4815 1817.36 52.971 1911.97 65.49 1995.98C76.3255 2067.12 94.116 2111.01 112.494 2111.01ZM193.319 2009.97C179.557 2009.97 166.084 2034.58 152.98 2058.8C140.606 2081.49 127.869 2104.97 114.91 2107.99C95.8732 2112.16 77.0579 2068.26 66.0036 1993.32C53.7034 1910.44 51.2139 1816.98 59.0486 1730.33C85.4776 1527.1 124.059 1376.49 167.623 1306.11C187.389 1273.94 207.669 1262.2 226.266 1272.05C247.204 1283.02 265.287 1319.73 279.93 1381.04C288.497 1416.98 295.744 1460.51 302.773 1502.51L338.72 1718.21C343.185 1744.7 348.165 1774.97 349.627 1812.82C351.239 1854.83 349.482 1936.56 319.976 2012.63C298.16 2069.01 274.732 2117.83 251.817 2096.63C243.469 2089.06 235.344 2071.66 227.435 2055.39C218.431 2036.47 209.06 2016.79 199.323 2011.12C197.347 2010.35 195.369 2009.97 193.319 2009.97ZM75.227 1989.92C62.9292 1910.08 59.8523 1819.25 66.736 1734.1L67.2472 1735.24C60.5109 1819.25 63.5141 1908.93 75.6669 1988.02C86.9423 2061.06 104.878 2103.07 123.696 2100.42C136.433 2098.53 149.026 2076.96 161.252 2056.14C163.228 2052.74 165.207 2049.33 167.183 2046.3C179.557 2025.49 192.734 2006.19 206.425 2013.01C215.87 2017.92 224.948 2035.71 233.66 2052.74C241.419 2067.88 249.546 2083.77 257.819 2090.21C277.148 2105.33 298.745 2076.2 323.93 2000.89C332.424 1974.78 339.671 1940.72 345.528 1899.47C352.116 1853.31 354.753 1809.04 353.507 1764C352.338 1722.38 347.798 1687.18 343.259 1654.64C336.009 1602.79 327.592 1564.19 318.732 1523.7C313.242 1498.73 307.531 1472.62 302.114 1443.1C300.357 1433.25 298.526 1423.42 296.843 1413.58C291.205 1381.79 285.348 1348.87 278.831 1320.87C250.719 1200.15 209.94 1163.07 167.109 1219.45L165.573 1221.34C158.837 1230.04 151.882 1239.13 145.73 1256.16C142.582 1264.86 139.508 1274.7 136.581 1285.3C131.454 1303.08 126.404 1322.38 121.498 1342.06C110.882 1384.82 102.391 1424.93 95.507 1465.43C88.6995 1506.3 82.9143 1551.33 78.3039 1599.39C73.7647 1646.69 70.5428 1681.5 67.3947 1735.62L66.881 1734.86C70.0292 1680.75 73.2511 1645.56 77.7902 1598.26C82.4769 1549.81 88.2596 1504.41 95.0696 1463.53C101.951 1423.04 110.442 1382.55 121.132 1339.78C126.038 1320.11 131.162 1300.82 136.286 1283.02C139.215 1272.43 142.29 1262.59 145.438 1253.89C151.734 1236.85 158.689 1227.77 165.425 1219.07L166.964 1217.18C210.011 1160.8 250.937 1197.88 279.197 1319.35C285.712 1347.35 291.642 1380.66 297.28 1412.45C299.037 1422.28 300.794 1432.12 302.552 1441.97C307.971 1471.49 313.608 1497.59 319.099 1522.57C328.029 1563.43 336.449 1602.03 343.697 1653.88C348.31 1686.8 352.849 1722.38 354.021 1764.76C355.338 1810.55 352.704 1855.57 345.967 1902.51C340.111 1944.13 332.79 1978.56 324.223 2004.68C298.966 2080.36 277.221 2109.5 257.747 2094.36C249.399 2087.93 241.348 2072.03 233.513 2056.9C224.801 2039.87 215.796 2022.46 206.425 2017.54C192.808 2010.35 179.702 2030.03 167.401 2050.46C165.425 2053.87 163.45 2057.29 161.471 2060.31C149.245 2081.13 136.581 2102.69 123.767 2104.59C123.182 2104.59 122.668 2104.59 122.083 2104.59C103.634 2103.44 86.21 2061.44 75.227 1989.92ZM131.747 2095.87C131.968 2095.87 132.113 2095.87 132.334 2095.87C144.998 2095.12 157.446 2075.45 169.525 2056.52C171.356 2053.5 173.187 2050.85 175.017 2047.82C187.17 2028.9 200.055 2011.12 213.307 2017.54C222.385 2021.71 231.097 2037.22 239.517 2052.36C247.278 2066.37 255.403 2080.74 263.604 2086.04C277.514 2095.12 299.991 2085.66 327.956 1991.43C335.498 1965.7 342.527 1925.58 349.334 1868.44C355.997 1813.19 358.705 1762.87 357.754 1713.67C356.877 1669.4 353.289 1631.55 348.091 1588.03C340.915 1528.25 331.325 1494.18 321.148 1458.24C314.704 1435.15 307.971 1411.31 301.748 1379.9C298.892 1365.52 295.963 1349.63 293.255 1334.87C288.423 1308.37 283.37 1281.13 277.88 1256.91C248.888 1129.77 208.183 1082.84 166.232 1127.87C165.133 1129.01 164.034 1130.14 162.936 1131.28C155.322 1139.22 147.488 1147.17 140.825 1167.99C137.313 1179.34 133.944 1192.58 130.869 1206.97C125.45 1231.17 119.96 1256.16 114.762 1281.89C106.269 1323.13 95.5807 1378.77 87.6747 1441.21C81.1571 1493.05 76.3255 1556.24 75.082 1606.2C74.1284 1644.8 74.3496 1667.12 74.6421 1698.53C74.7895 1709.89 74.8608 1722.76 74.9345 1738.26H74.8608C69.1518 1820.01 72.7375 1907.04 84.8927 1983.86C96.0207 2054.25 113.519 2095.87 131.747 2095.87ZM207.888 2013.01C196.541 2013.01 185.413 2028.52 174.944 2044.79C173.113 2047.44 171.282 2050.46 169.451 2053.5C157.372 2072.41 144.927 2092.1 132.408 2092.85C132.187 2092.85 132.042 2092.85 131.82 2092.85C113.737 2092.85 96.3868 2051.61 85.3301 1982.35C73.3248 1906.67 69.8105 1820.39 75.3744 1739.78L75.082 1739.03H75.4482C75.3744 1723.51 75.227 1710.64 75.1557 1698.92C74.8608 1667.89 74.6421 1645.18 75.5932 1606.96C76.8392 1557.38 81.597 1494.56 88.1121 1443.1C95.9469 1381.04 106.635 1325.41 115.128 1284.17C120.4 1258.43 125.816 1233.07 131.235 1209.23C134.31 1194.85 137.606 1181.98 141.12 1170.63C147.709 1150.19 155.541 1141.87 163.01 1134.3C164.108 1133.17 165.207 1132.03 166.303 1130.9C208.109 1085.87 248.595 1132.41 277.44 1259.18C282.93 1283.4 287.909 1310.65 292.815 1336.76C295.597 1351.9 298.452 1367.41 301.382 1381.79C307.678 1413.58 314.412 1437.42 320.856 1460.13C330.959 1496.08 340.548 1529.76 347.651 1589.16C352.775 1632.31 356.363 1670.15 357.243 1713.67C358.194 1762.11 355.557 1812.06 349.042 1866.18C342.234 1922.94 335.351 1962.67 327.811 1988.02C299.991 2082.26 277.661 2091.34 263.822 2082.26C255.624 2076.96 247.57 2062.58 239.809 2048.57C231.316 2033.43 222.604 2017.92 213.452 2013.38C211.55 2013.38 209.719 2013.01 207.888 2013.01ZM141.557 2087.93C154.005 2087.93 166.45 2070.14 178.384 2052.74C179.92 2050.46 181.385 2048.19 182.923 2046.3C195.442 2028.52 207.743 2013.01 220.409 2018.31C229.121 2022.09 237.467 2035.71 245.592 2048.57C253.353 2061.06 261.407 2074.31 269.679 2078.47C289.593 2088.32 312.289 2051.98 331.984 1978.56C341.573 1942.62 347.87 1885.85 352.996 1835.14C359.511 1771.95 362.148 1717.46 361.487 1664.47C360.757 1609.22 356.51 1562.3 352.482 1524.08C345.383 1456.73 334.692 1426.83 323.272 1395.42C315.803 1374.6 308.044 1353.41 300.942 1319.73C297.209 1301.95 293.621 1283.4 289.888 1263.35C285.641 1241.02 281.247 1217.56 276.563 1196.36C246.472 1061.27 205.986 1004.51 165.499 1040.45C164.108 1041.59 162.717 1042.72 161.326 1043.85C152.614 1051.04 143.681 1058.61 136.215 1083.98C132.26 1097.59 128.965 1113.86 125.379 1132.79C119.594 1163.06 113.811 1194.47 108.247 1226.26C98.3628 1281.89 87.3085 1348.87 80.1323 1421.15C73.4698 1488.12 70.3954 1564.95 72.2263 1616.79C73.3985 1648.96 75.4482 1666.74 77.6428 1686.05C79.4737 1701.94 81.3046 1718.21 82.988 1744.32C78.4489 1822.65 82.5481 1905.91 94.5559 1978.94C105.758 2046.68 123.182 2087.55 141.12 2088.31C141.265 2087.93 141.412 2087.93 141.557 2087.93ZM215.209 2014.52C204.302 2014.52 193.612 2028.14 182.85 2043.66C181.311 2045.93 179.849 2047.82 178.311 2050.08C166.377 2067.5 154.005 2085.28 141.631 2085.28C141.486 2085.28 141.339 2085.28 141.191 2085.28C123.401 2084.53 106.198 2044.04 95.0671 1977.05C83.2068 1904.78 79.1812 1822.27 83.6467 1744.7V1743.94C81.9632 1717.08 80.0586 1700.81 78.2302 1684.53C76.1068 1665.61 74.0572 1647.82 72.8849 1616.42C71.054 1565.32 74.1284 1489.27 80.7197 1422.66C87.8934 1350.76 98.8764 1284.17 108.758 1228.53C114.396 1196.74 120.181 1165.33 125.89 1135.44C129.405 1116.9 132.7 1100.25 136.581 1087C143.902 1062.03 152.833 1054.46 161.471 1047.27C162.862 1046.13 164.253 1045 165.644 1043.85C205.986 1007.91 246.251 1064.29 276.27 1199.02C280.954 1220.2 285.349 1243.67 289.593 1265.99C293.181 1284.91 296.914 1304.59 300.649 1322.38C307.823 1356.06 315.584 1377.63 323.124 1398.44C334.4 1429.85 345.088 1459.37 352.116 1525.97C356.144 1564.19 360.317 1610.74 361.05 1665.23C361.708 1717.83 359 1771.57 352.63 1834.39C347.503 1884.71 341.281 1941.11 331.765 1976.67C312.217 2049.72 289.666 2086.04 269.9 2076.2C261.699 2072.03 253.719 2059.17 245.958 2046.68C237.833 2033.43 229.414 2019.82 220.628 2016.03C218.723 2014.9 216.966 2014.52 215.209 2014.52ZM151.442 2080.74C163.376 2080.74 175.31 2065.22 186.878 2050.08C188.195 2048.19 189.512 2046.68 190.83 2045.17C203.715 2028.52 215.356 2015.27 227.509 2019.82C235.855 2022.84 243.909 2034.58 251.743 2045.93C259.504 2057.29 267.556 2068.63 275.757 2071.66C295.963 2078.47 317.926 2040.25 335.938 1966.46C345.749 1926.35 351.165 1864.66 356.363 1804.87L356.584 1802.6C360.976 1753.4 365.881 1687.18 365.296 1615.28C364.93 1566.08 362.367 1518.02 356.948 1459.75C349.993 1384.82 338.133 1359.09 325.54 1331.85C317.049 1313.3 308.263 1294.38 300.21 1259.18C295.67 1239.51 291.497 1217.18 287.032 1194.1C283.296 1174.41 279.418 1154.36 275.317 1135.44C243.835 990.878 203.57 924.653 164.841 953.04C163.302 954.171 161.692 955.314 160.154 956.444C150.27 962.884 139.948 970.073 131.747 1000.34C127.063 1017.37 123.401 1039.32 120.108 1058.99C114.03 1095.32 107.881 1132.79 101.951 1170.63C91.4815 1236.85 79.6949 1314.81 72.8112 1400.71C66.2224 1482.08 64.9789 1572.89 69.663 1626.63C72.5925 1659.94 76.3993 1675.08 80.4985 1691.35C84.0866 1705.72 87.8934 1720.86 91.189 1749.62C87.8197 1825.31 92.4326 1905.15 104.293 1974.03C115.421 2038.74 132.479 2078.85 149.903 2081.11C150.417 2080.74 150.931 2080.74 151.442 2080.74ZM222.604 2016.03C212.134 2016.03 201.886 2028.14 190.685 2042.15C189.365 2043.66 188.048 2045.55 186.73 2047.44C174.723 2062.95 162.277 2079.23 149.903 2077.71C132.626 2075.45 115.713 2035.71 104.659 1971.37C92.9462 1902.89 88.3333 1824.16 91.7002 1749.24L91.4078 1748.86L91.7002 1748.11C88.3333 1718.59 84.4528 1703.07 80.791 1688.31C76.7654 1672.42 72.9586 1657.28 70.1029 1624.74C65.49 1571.76 66.736 1482.08 73.2511 1401.48C80.1324 1315.94 91.8477 1238 102.317 1172.15C108.247 1134.3 114.396 1096.85 120.474 1060.51C123.696 1041.21 127.355 1019.27 131.968 1002.61C140.095 972.715 150.27 965.907 160.154 959.467C161.764 958.337 163.302 957.206 164.841 956.063C203.349 927.688 243.469 993.913 274.879 1137.71C278.978 1156.63 282.859 1176.69 286.592 1196.36C291.057 1219.83 295.304 1241.78 299.843 1261.84C307.971 1297.4 316.757 1316.33 325.321 1334.87C337.766 1361.73 349.556 1387.47 356.437 1461.26C361.782 1519.17 364.343 1566.47 364.709 1615.28C365.223 1686.8 360.391 1752.27 356.071 1801.47L355.852 1803.74C350.652 1863.14 345.309 1924.45 335.572 1964.18C317.634 2037.22 295.818 2075.45 275.757 2068.63C267.629 2065.99 259.576 2054.25 251.817 2042.89C243.982 2031.55 235.855 2019.82 227.509 2016.79C225.899 2016.03 224.216 2016.03 222.604 2016.03ZM161.911 2073.17C173.113 2073.17 184.022 2060.69 195.516 2047.44L198.664 2043.66C209.645 2031.17 222.019 2016.79 234.612 2020.95C242.518 2023.6 250.279 2033.43 257.674 2042.53C265.506 2052.36 273.633 2062.58 281.76 2064.09C301.748 2067.5 323.417 2026.24 339.89 1953.97C349.482 1911.59 354.24 1848 358.853 1786.71C359.292 1781.03 359.73 1775.35 360.17 1769.68C364.709 1710.64 369.248 1640.26 369.103 1565.7C368.956 1510.83 366.54 1456.73 361.487 1395.42C354.606 1312.92 341.647 1291.35 327.884 1268.26C318.366 1252.37 308.556 1235.72 299.551 1199.02C294.353 1177.45 289.521 1152.46 284.395 1126.35C281.102 1109.33 277.661 1091.54 274.073 1074.9C240.468 917.464 201.446 843.3 164.182 865.617C162.496 866.76 160.813 867.509 159.129 868.271C147.927 874.33 136.286 880.375 127.207 915.952C122.157 935.626 118.203 961.359 114.762 984.07C108.321 1026.45 101.877 1069.97 95.5807 1113.86C84.3053 1191.83 71.7863 1283.02 65.4163 1379.53C59.0486 1474.89 59.7073 1580.08 67.0285 1635.33C71.6414 1670.53 77.3503 1683.78 83.3542 1697.77C88.7732 1710.26 94.3372 1723.51 99.3875 1753.79C97.1905 1826.44 102.317 1902.13 113.956 1967.59C125.158 2030.41 141.412 2068.63 158.615 2072.79C159.714 2073.17 160.813 2073.17 161.911 2073.17ZM230.146 2017.54C219.089 2017.54 208.254 2030.03 198.591 2041L195.442 2044.79C182.85 2059.17 170.989 2073.17 158.689 2070.14C141.631 2065.99 125.524 2028.14 114.396 1966.08C102.828 1901.36 97.7041 1826.06 99.9724 1754.17V1753.4L99.9012 1753.02C94.7747 1721.61 89.1369 1708.38 83.5729 1695.51C77.6428 1681.5 72.0075 1668.64 67.4684 1633.82C60.2922 1579.33 59.6336 1474.89 65.9299 1380.66C72.3 1284.53 84.819 1193.72 96.0207 1115.76C102.317 1072.24 108.758 1028.35 115.202 986.343C118.643 963.633 122.523 937.9 127.574 918.607C136.581 883.792 148.075 877.734 159.203 871.675C160.886 870.926 162.57 869.783 164.253 869.033C201.373 846.704 240.249 920.867 273.707 1077.54C277.221 1094.19 280.662 1111.97 283.958 1129.01C289.082 1155.5 293.913 1180.47 299.185 1202.04C308.263 1239.13 318.147 1255.78 327.663 1271.67C341.281 1294.38 354.166 1315.94 360.902 1397.31C365.955 1458.24 368.371 1511.96 368.516 1566.47C368.663 1640.26 364.124 1710.64 359.659 1769.68C359.219 1775.35 358.779 1781.03 358.339 1786.71C353.728 1847.64 349.042 1910.83 339.524 1952.83C323.198 2024.73 301.601 2065.99 281.834 2062.2C273.707 2060.69 265.653 2050.46 257.819 2040.63C250.352 2031.17 242.591 2021.33 234.612 2018.69C233.147 2017.54 231.608 2017.54 230.146 2017.54ZM172.454 2066.37C182.997 2066.37 193.393 2055.76 204.302 2045.17L207.084 2042.53C218.357 2031.17 229.999 2019.82 241.785 2022.84C249.254 2024.73 256.575 2032.68 263.604 2040.25C271.51 2048.95 279.711 2057.65 287.983 2057.65C307.897 2057.65 328.836 2014.52 343.992 1942.24C353.581 1896.45 357.901 1829.84 362.074 1765.51C362.659 1756.06 363.244 1746.97 363.905 1737.52C368.223 1672.42 372.91 1596.37 372.984 1516.51C373.055 1455.96 370.787 1395.42 366.026 1331.47C359.219 1241.78 345.161 1223.62 330.227 1204.69C319.683 1191.45 308.774 1177.45 298.892 1138.85C292.962 1115.76 287.469 1087.75 281.687 1057.86C278.831 1043.49 275.904 1028.35 272.901 1013.97C227.583 797.512 188.487 766.101 163.595 777.825C161.911 778.587 160.228 779.336 158.47 780.098C145.878 785.395 132.845 790.691 122.816 831.564C117.326 853.512 113.226 883.411 109.564 909.525C102.828 957.956 96.0207 1007.53 89.3581 1057.48C76.8391 1151.33 64.0253 1251.99 58.1689 1358.71C52.02 1469.21 54.6545 1586.9 64.4652 1644.8C70.909 1682.26 78.3752 1693.62 86.3549 1705.34C93.5311 1715.94 100.926 1726.91 107.589 1759.08C106.49 1828.71 112.273 1900.99 123.696 1962.67C134.824 2022.46 150.783 2059.93 167.475 2065.6C169.087 2065.99 170.771 2066.37 172.454 2066.37ZM237.612 2019.05C227.217 2019.05 216.895 2029.28 206.937 2039.11L204.155 2041.76C191.562 2054.25 179.702 2066.37 167.401 2062.2C150.857 2056.52 135.042 2019.44 124.059 1960.02C112.639 1898.72 107.001 1827.2 108.1 1758.32H107.807L108.026 1757.19C101.292 1724.27 93.7498 1712.91 86.4287 1702.32C78.5226 1690.58 71.054 1679.61 64.7576 1642.52C55.0207 1585.39 52.4599 1468.83 58.535 1359.47C64.3915 1253.12 77.1316 1152.85 89.6506 1059.38C96.3131 1009.42 103.121 959.848 109.857 911.418C113.519 885.304 117.618 855.786 123.034 833.838C132.919 793.727 145.878 788.43 158.397 783.121C160.154 782.372 161.837 781.61 163.521 780.86C188.269 769.124 227.217 800.535 272.39 1016.23C275.39 1030.62 278.32 1045.75 281.102 1060.14C286.884 1090.02 292.375 1118.03 298.379 1141.11C308.408 1180.09 319.317 1194.1 329.934 1207.33C345.309 1227.02 358.634 1243.67 365.296 1332.21C370.054 1395.8 372.323 1455.96 372.251 1516.13C372.104 1595.22 367.491 1670.91 363.173 1735.99C362.586 1745.09 361.927 1754.54 361.342 1764C357.169 1827.95 352.922 1894.56 343.404 1939.59C328.322 2011.48 307.531 2054.25 287.764 2054.25C279.563 2054.25 271.802 2045.93 263.53 2036.85C256.428 2029.28 249.18 2021.33 241.64 2019.44C240.394 2019.44 239.003 2019.05 237.612 2019.05ZM183.216 2059.55C193.027 2059.55 202.764 2051.23 212.941 2042.53L216.015 2039.87C226.632 2030.79 237.686 2021.33 248.74 2023.6C255.695 2025.11 262.579 2031.17 269.168 2036.85C277.587 2044.42 285.567 2051.23 293.839 2049.72C314.046 2044.79 333.227 2002.03 347.725 1929.37C357.535 1879.8 361.416 1808.66 365.223 1740.16C365.881 1728.43 366.54 1716.32 367.199 1704.59C372.104 1621.72 376.132 1546.41 376.496 1466.94C376.862 1398.44 374.738 1331.47 370.199 1267.13C363.539 1169.88 349.042 1156.25 332.276 1140.74C320.708 1129.77 308.774 1118.79 297.867 1078.67C291.35 1054.46 285.348 1024.18 279.052 991.64C276.563 979.154 273.999 965.907 271.436 953.421C233.073 766.851 196.541 678.309 162.717 690.414C161.105 691.176 159.422 691.544 157.738 691.925C143.609 696.472 129.038 701.007 118.058 747.176C112.128 772.147 107.807 805.45 103.927 834.968C96.8243 889.47 89.6506 945.47 82.6956 1001.1C68.8594 1110.84 56.0455 1219.45 50.4078 1337.52C44.4776 1462.77 49.0168 1592.95 61.4645 1653.88C69.663 1693.99 79.0338 1703.07 88.9919 1712.91C97.9229 1721.61 107.149 1730.69 115.495 1764.38C115.568 1830.6 121.791 1899.1 133.138 1957C144.194 2013.76 159.788 2050.46 175.969 2057.65C178.458 2058.8 180.874 2059.55 183.216 2059.55ZM245.155 2020.57C235.27 2020.57 225.459 2028.9 215.941 2037.22L212.867 2039.87C200.274 2050.46 188.34 2060.69 176.187 2055.01C160.154 2047.82 144.706 2011.12 133.725 1955.1C122.45 1897.58 116.301 1829.47 116.301 1763.62H116.008L116.153 1762.49C107.734 1728.05 98.3627 1718.97 89.3581 1710.26C79.4737 1700.81 70.1766 1691.35 62.1231 1651.98C49.8229 1591.82 45.3574 1463.15 51.2139 1338.65C56.7779 1220.96 69.5893 1112.73 83.4279 1003.36C90.3829 947.744 97.5566 892.112 104.659 837.242C108.466 808.105 112.786 774.802 118.643 750.199C129.552 704.411 143.973 699.876 158.031 695.329C159.714 694.948 161.326 694.199 163.01 693.818C196.615 681.713 233.073 769.886 271.291 956.063C273.926 968.93 276.415 981.796 278.905 994.281C285.275 1026.84 291.279 1057.48 297.794 1081.71C308.774 1122.2 320.782 1133.55 332.424 1144.15C348.968 1159.65 363.318 1172.9 369.907 1268.64C374.446 1332.6 376.496 1399.58 376.203 1467.32C375.837 1546.41 371.738 1621.34 366.906 1703.83C366.247 1715.57 365.515 1727.67 364.93 1739.41C361.195 1807.53 357.314 1878.28 347.577 1927.48C333.156 1999.76 314.12 2042.53 294.061 2047.06C285.786 2048.57 277.88 2041.38 269.46 2034.19C262.871 2028.14 255.99 2022.09 248.961 2020.57C247.57 2020.57 246.398 2020.57 245.155 2020.57ZM194.491 2053.12C203.57 2053.12 212.722 2046.68 222.164 2040.25C223.41 2039.49 224.582 2038.36 225.826 2037.6C235.563 2030.79 245.666 2023.6 255.769 2025.11C262.213 2026.24 268.583 2030.41 274.658 2034.58C283.296 2040.63 291.424 2046.3 299.843 2042.89C319.172 2035.71 338.573 1988.41 351.679 1917.27C361.561 1863.53 365.149 1788.22 368.59 1715.94C369.322 1701.56 369.981 1686.42 370.787 1671.66L371.298 1662.21C375.4 1583.12 379.644 1501.75 380.376 1417.36C381.035 1344.33 379.133 1272.05 374.738 1202.8C368.15 1097.98 352.63 1088.13 334.692 1076.41C322.099 1068.08 309.14 1059.76 297.28 1018.12C289.888 992.389 283.225 957.956 276.123 921.63C274.218 912.167 272.316 901.955 270.34 892.493C251.156 797.512 234.83 731.287 218.944 683.974C198.957 624.57 180.434 598.075 162.204 602.99C160.668 603.371 159.055 603.752 157.446 604.133C141.852 607.537 125.745 611.322 113.737 663.169C107.441 690.414 102.828 727.87 98.8026 760.805C91.4077 821.352 83.8679 883.411 76.5467 945.089C61.3907 1072.62 48.4319 1188.42 43.2341 1317.09C37.5963 1457.09 44.0402 1599.39 58.9749 1663.34C68.9306 1705.72 80.7197 1713.29 92.1401 1720.48C102.828 1727.29 113.885 1734.1 123.841 1769.29C125.087 1832.88 131.894 1897.58 142.948 1951.7C154.079 2006.19 168.94 2041.38 184.826 2050.46C188.121 2052.36 191.343 2053.12 194.491 2053.12ZM252.913 2022.09C243.764 2022.09 234.612 2028.52 225.826 2034.58C224.582 2035.32 223.41 2036.47 222.164 2037.22C209.352 2045.93 197.273 2054.25 184.973 2047.44C169.232 2038.36 154.516 2003.55 143.462 1949.43C132.408 1895.32 125.671 1830.98 124.499 1768.16H124.207L124.354 1767.03C114.251 1731.08 103.121 1724.27 92.2851 1717.46C80.4248 1709.89 69.2256 1702.7 59.4149 1661.07C44.6251 1597.88 38.255 1456.73 43.819 1317.84C49.0168 1189.55 61.9044 1074.14 77.0579 946.982C84.379 885.304 91.8477 823.245 99.3138 762.697C103.342 729.763 107.881 692.687 114.104 665.811C125.964 614.345 141.997 610.941 157.519 607.156C159.129 606.775 160.668 606.407 162.277 606.026C180.36 601.479 198.809 627.593 218.652 686.629C234.538 733.929 250.792 799.773 269.974 894.766C271.95 904.597 273.852 914.441 275.757 923.903C282.859 960.61 289.593 995.044 297.061 1020.78C308.995 1062.78 322.687 1071.48 334.766 1079.43C352.482 1090.79 367.857 1101 374.375 1203.93C378.766 1273.19 380.671 1345.08 380.01 1417.75C379.351 1501.37 375.105 1583.12 371.005 1661.83L370.494 1671.29C369.762 1686.05 369.029 1700.81 368.297 1715.57C364.856 1787.84 361.268 1862.4 351.531 1915.75C338.499 1986.51 319.317 2033.06 300.062 2040.63C291.716 2043.66 283.591 2037.98 275.024 2032.3C268.875 2028.14 262.579 2023.6 256.061 2022.84C254.892 2022.09 253.867 2022.09 252.913 2022.09ZM206.425 2047.06C213.818 2047.06 221.505 2043.66 230.072 2039.11C232.048 2037.98 234.027 2036.85 236.003 2035.71C244.788 2030.79 253.867 2025.88 262.945 2026.62C268.654 2027.01 274.366 2030.03 279.782 2032.68C288.789 2037.22 297.28 2041.38 305.992 2036.09C324.955 2024.73 343.552 1975.92 355.704 1905.15C365.734 1846.87 369.029 1767.03 372.251 1689.83C372.91 1673.18 373.642 1655.77 374.446 1639.12C374.886 1628.91 375.4 1618.68 375.911 1608.09C379.573 1530.51 383.306 1449.91 384.257 1368.17C385.281 1290.59 383.598 1213.01 379.278 1138.47C372.763 1026.07 356.218 1019.65 337.108 1011.7C324.149 1006.4 309.435 1000.34 296.621 957.575C288.349 930.33 280.809 891.349 272.827 850.489C271.584 844.049 270.34 837.623 269.094 831.183C238.126 674.524 201.739 508.009 161.545 514.449C160.154 514.83 158.763 514.83 157.298 515.198C140.095 517.472 122.305 520.126 109.198 578.019C102.462 607.918 97.7041 649.16 93.4574 685.498C85.6963 752.473 77.864 820.59 70.1766 887.946C54.2883 1027.97 40.7445 1155.5 35.8392 1295.14C30.4227 1449.91 38.9136 1604.68 56.338 1671.29C68.0533 1716.32 81.8158 1721.61 95.1408 1726.54C107.589 1731.46 120.474 1736.37 132.042 1773.08C134.457 1833.63 141.779 1894.56 152.685 1945.26C164.253 1997.87 178.384 2031.17 193.612 2041.76C197.932 2045.93 202.179 2047.06 206.425 2047.06ZM260.822 2023.6C252.402 2023.6 244.056 2028.14 236.003 2032.68C234.027 2033.81 232.048 2034.96 230.072 2036.09C216.6 2043.28 205.327 2047.82 193.759 2039.87C178.677 2029.28 164.619 1996.36 153.199 1944.13C142.363 1893.81 135.116 1833.26 132.7 1773.08L132.408 1773.46L132.553 1771.95C120.84 1734.86 107.881 1729.56 95.362 1725.02C81.5233 1719.72 68.4195 1714.42 56.8516 1670.15C39.5723 1603.92 31.2263 1450.67 36.5715 1296.65C41.4032 1157.39 54.947 1030.24 70.8353 890.219C78.5226 822.483 86.3549 754.365 94.116 687.759C98.289 651.814 103.049 610.941 109.712 581.042C122.668 523.53 140.314 521.257 157.446 518.602C158.837 518.234 160.301 518.234 161.692 517.853C201.591 511.413 237.905 677.547 268.802 833.457C270.045 839.896 271.291 846.323 272.535 852.382C280.514 893.623 288.057 932.604 296.403 959.848C309.362 1002.99 324.149 1009.04 337.108 1014.35C355.997 1021.91 372.396 1028.73 378.766 1138.85C383.013 1213.01 384.697 1290.21 383.746 1367.41C382.866 1449.16 379.059 1529.38 375.471 1606.96C374.96 1617.17 374.52 1627.39 374.009 1637.99C373.202 1654.64 372.544 1672.04 371.811 1688.69C368.59 1765.51 365.296 1844.98 355.412 1902.51C343.33 1972.52 324.881 2021.33 306.066 2032.3C297.428 2037.22 288.934 2033.06 280.003 2028.9C274.513 2026.24 268.875 2023.22 263.09 2022.84C262.213 2023.6 261.554 2023.6 260.822 2023.6ZM219.677 2041.76C225.752 2041.76 231.83 2039.87 237.978 2037.6C240.908 2036.47 243.909 2035.32 246.764 2034.19C254.378 2031.17 262.213 2027.77 270.045 2027.77C274.95 2027.77 279.782 2029.28 284.469 2030.79C293.987 2033.43 302.918 2036.47 312.07 2028.9C330.811 2013.76 348.236 1964.18 359.73 1893.04C369.907 1829.84 372.984 1745.09 375.911 1663.34C376.569 1644.8 377.302 1625.5 378.034 1606.58C378.766 1589.16 379.499 1571.38 380.305 1553.6C383.598 1477.53 386.965 1398.44 388.063 1318.98C389.309 1231.17 387.845 1151.33 383.746 1074.52C377.302 954.552 359.73 951.529 339.452 947.363C325.54 944.708 309.728 941.685 295.889 897.789C286.666 869.033 278.391 825.506 269.534 779.717L267.85 771.017C236.587 609.811 201.154 427.787 161.764 427.787C161.471 427.787 161.179 427.787 160.886 427.787C159.714 427.787 158.615 427.787 157.446 428.168C138.483 429.299 118.935 430.429 104.733 494.761C97.5567 527.315 92.58 571.961 88.1859 611.703C80.1323 684.355 71.9338 758.912 63.8803 832.695C47.2596 985.2 33.1309 1123.71 28.518 1275.45C26.1022 1354.54 27.127 1437.42 31.3 1509.32C35.7654 1586.52 43.5265 1645.93 53.7771 1681.88C67.2472 1729.18 83.0618 1732.59 98.2153 1735.62C112.42 1738.65 127.062 1741.67 140.314 1779.52C143.973 1837.03 151.882 1894.17 162.425 1941.11C173.845 1990.68 187.681 2023.22 202.397 2035.71C208.109 2039.87 213.892 2041.76 219.677 2041.76ZM269.168 2024.73C261.625 2024.73 254.012 2027.77 246.691 2031.17C243.835 2032.3 240.834 2033.81 237.905 2034.58C225.899 2038.74 214.184 2041.76 202.471 2032.3C187.829 2020.2 174.138 1987.64 162.791 1938.45C152.248 1891.91 144.413 1834.77 140.754 1777.63L140.459 1778.01L140.606 1776.48C127.281 1737.88 112.494 1734.86 98.2153 1731.84C82.4031 1728.43 67.3947 1725.4 54.0696 1678.86C43.9664 1643.28 36.2791 1584.25 31.8137 1507.81C27.7119 1436.67 26.6871 1354.16 29.1029 1275.45C33.6421 1124.47 47.7733 985.962 64.3915 833.838C72.445 760.043 80.5722 685.867 88.6995 613.215C93.0912 573.853 97.9966 529.208 105.099 497.035C119.156 433.084 138.63 431.953 157.446 431.191C158.618 431.191 159.714 431.191 160.886 430.81C200.348 428.168 236.003 611.322 267.411 773.29L269.094 781.991C277.954 828.16 286.3 871.294 295.523 900.444C309.507 944.708 325.321 947.744 339.379 950.385C359.437 954.171 376.791 957.575 383.158 1075.27C387.26 1151.72 388.651 1231.56 387.479 1318.6C386.38 1398.07 383.013 1476.78 379.791 1552.84C379.059 1570.63 378.253 1588.03 377.523 1605.81C376.717 1624.36 376.058 1643.66 375.4 1662.58C372.47 1743.94 369.396 1828.33 359.292 1891.15C347.87 1961.91 330.666 2011.12 311.996 2026.24C302.918 2033.44 293.987 2030.79 284.542 2028.14C279.856 2026.62 274.95 2025.11 270.045 2025.11C269.753 2024.73 269.46 2024.73 269.168 2024.73ZM234.83 2037.22C238.271 2037.22 241.933 2036.85 245.74 2036.09C249.912 2035.32 254.159 2034.19 258.332 2032.68C264.481 2030.79 270.777 2028.9 277.074 2028.9C280.954 2028.9 284.761 2029.28 288.423 2029.66C298.671 2030.79 308.337 2031.92 318 2021.71C336.23 2002.4 352.849 1951.32 363.539 1880.56C373.935 1812.06 376.717 1722.38 379.499 1635.33C380.157 1615.28 380.816 1594.09 381.548 1573.65C382.5 1547.92 383.524 1521.81 384.549 1496.46C387.479 1422.66 390.553 1345.84 391.725 1269.77C393.261 1174.79 392.018 1090.02 388.063 1010.56C381.696 883.411 363.173 883.411 341.721 883.03C326.86 883.03 309.947 882.649 295.085 837.623C284.835 806.593 275.172 755.495 266.604 710.469C263.97 696.841 261.407 682.844 258.772 669.215C228.241 508.009 196.686 341.126 160.301 340.376H157.886C138.117 339.995 115.713 339.233 100.267 410.755C92.6513 445.95 87.4535 494.762 82.9143 537.527C74.4946 616.238 66.0037 696.841 57.584 776.694C43.3815 911.786 25.7361 1079.81 21.1969 1254.65C18.9285 1340.17 20.4645 1429.85 25.3698 1506.67C30.7151 1589.54 39.5723 1653.5 51.1401 1690.96C66.4436 1740.54 84.1603 1741.67 101.292 1742.81C117.178 1743.94 133.651 1744.7 148.441 1784.05C153.418 1839.3 161.619 1891.53 172.088 1935.43C183.363 1981.98 196.907 2013.76 211.036 2027.77C218.723 2034.96 226.411 2037.22 234.83 2037.22ZM278.686 2025.88C278.172 2025.88 277.587 2025.88 277.074 2025.88C270.777 2026.24 264.407 2028.14 258.258 2029.66C254.159 2030.79 249.839 2032.3 245.74 2033.06C232.781 2035.32 221.945 2034.58 211.257 2024.35C197.126 2010.73 183.73 1978.94 172.528 1932.77C162.059 1889.26 153.931 1837.03 148.952 1782.16L148.807 1782.54L148.879 1781.41C133.944 1741.67 117.326 1740.54 101.292 1739.41C84.2341 1738.26 66.5885 1737.13 51.4326 1687.94C40.0121 1650.85 31.155 1587.27 25.8835 1505.16C20.9781 1428.72 19.5134 1339.78 21.7105 1254.65C26.2497 1080.19 43.8927 912.548 58.0239 777.456C66.4411 697.603 74.9345 617 83.3542 538.289C88.1121 493.25 93.0912 447.081 100.634 412.266C115.861 341.888 138.19 342.269 157.886 342.637H160.301C196.467 343.399 227.949 509.521 258.406 670.358C261.04 684.355 263.677 697.984 266.238 711.599C274.805 757.02 284.542 808.105 294.864 839.515C309.799 884.923 326.786 884.923 341.721 885.304C362.952 885.304 381.256 885.685 387.552 1010.56C391.504 1089.64 392.676 1174.41 391.212 1269.03C390.042 1345.08 386.965 1421.53 384.038 1495.69C383.013 1521.06 381.988 1547.54 381.035 1572.89C380.305 1593.33 379.644 1614.53 378.985 1634.58C376.277 1720.86 373.421 1810.55 363.173 1878.28C352.556 1948.3 336.083 1999.38 318 2018.31C308.337 2028.14 298.745 2027.39 288.494 2026.24C285.275 2026.24 281.979 2025.88 278.686 2025.88ZM255.55 2034.96C260.967 2034.96 266.604 2033.81 272.023 2032.68C275.975 2031.92 280.077 2030.79 284.176 2030.41C286.518 2030.03 288.789 2030.03 291.131 2030.03C302.625 2029.28 313.461 2028.9 324.149 2014.9C341.794 1992.19 357.609 1938.83 367.565 1868.82C378.108 1795.03 380.671 1700.05 383.232 1608.09C383.817 1586.14 384.478 1563.43 385.21 1541.48C386.306 1507.81 387.626 1473.38 388.87 1439.69C391.578 1368.17 394.289 1294 395.606 1220.58C397.434 1118.79 396.483 1029.1 392.603 946.232C386.306 811.509 366.759 814.532 344.063 817.936C328.251 820.59 310.239 823.245 294.427 777.456C283.958 747.176 274.366 697.603 265.435 649.541C260.822 624.951 256.061 598.837 251.522 573.853C223.117 417.575 193.759 255.988 159.643 252.572H158.544C136.947 250.311 112.494 247.656 95.7995 326.367C87.7459 363.836 82.4031 416.432 77.5715 462.983C68.7856 548.501 59.926 635.163 51.2876 720.313C35.7654 873.187 18.1224 1046.51 13.8757 1233.83C11.7523 1325.79 13.802 1421.91 19.4397 1504.03C25.591 1592.95 35.6205 1660.7 48.5056 1700.05C65.5637 1751.89 85.2589 1751.13 104.293 1750C121.938 1749.24 140.24 1748.11 156.713 1788.98C163.376 1843.85 171.796 1891.15 181.825 1930.13C193.174 1974.41 205.986 2004.68 219.895 2020.2C230.217 2031.55 240.468 2034.58 253.646 2035.32C254.233 2034.96 254.892 2034.96 255.55 2034.96ZM354.313 819.828C372.178 819.828 386.746 835.349 391.944 946.982C395.751 1029.1 396.776 1118.79 394.947 1220.2C393.627 1293.61 390.919 1367.41 388.211 1438.93C386.965 1472.23 385.648 1507.05 384.549 1540.73C383.817 1562.68 383.232 1585.38 382.573 1607.34C380.084 1698.92 377.449 1793.52 366.98 1866.55C357.095 1936.18 341.355 1988.79 323.856 2011.48C313.242 2025.11 302.407 2025.88 290.984 2026.62C288.715 2026.62 286.373 2027.01 284.029 2027.01C280.003 2027.39 275.904 2028.52 271.876 2029.28C265.801 2030.79 259.504 2031.92 253.501 2031.54C240.321 2030.79 230.146 2028.14 219.895 2016.78C206.059 2001.27 193.393 1970.99 182.044 1927.1C172.088 1888.5 163.668 1841.2 157.006 1786.71L156.932 1786.33H156.861C140.24 1745.07 121.865 1745.83 104.148 1746.97C85.1851 1748.11 65.5638 1748.86 48.6506 1697.39C35.9129 1658.42 25.9547 1591.06 19.8058 1502.88C14.1682 1421.15 12.1923 1325.79 14.2419 1234.21C18.4886 1047.64 36.0604 874.33 51.58 721.824C60.2185 636.674 69.0781 550.394 77.864 464.494C82.6219 418.325 87.9671 366.096 95.9469 328.64C112.494 251.06 136.799 253.334 158.323 255.607H159.422C193.319 259.011 222.53 420.217 250.864 575.746C255.403 600.729 260.163 626.831 264.774 651.433C273.781 699.495 283.37 749.069 293.913 779.717C309.873 825.887 327.956 823.245 343.844 820.59C347.577 820.59 351.018 819.828 354.313 819.828ZM269.608 2034.96C276.196 2034.96 282.93 2033.81 289.448 2032.3L291.35 2031.92C304.967 2029.28 317.781 2027.01 330.153 2007.7C347.432 1980.84 362.074 1927.1 371.519 1856.34C382.207 1776.11 384.623 1675.44 386.965 1577.82C387.552 1555.11 388.063 1531.27 388.722 1508.56C389.968 1466.94 391.433 1424.55 392.895 1383.68C395.385 1314.05 397.948 1242.15 399.265 1171.01C401.462 1060.51 400.804 968.93 396.997 881.9C390.774 739.606 370.202 745.665 346.334 752.854C329.494 757.769 310.46 763.828 293.621 716.896C282.93 687.391 273.122 637.817 264.115 588.612C257.966 555.309 251.743 519.364 245.74 484.55C219.018 330.152 191.417 170.838 158.982 164.78C135.701 160.614 109.346 155.698 91.2603 241.598C82.7693 282.09 77.2054 338.484 72.2263 387.676C63.0742 479.253 53.9221 571.961 44.9175 663.169C28.7392 827.03 10.3614 1012.83 6.48083 1212.26C4.50491 1311.03 6.99445 1413.58 13.5095 1500.62C20.5382 1595.6 31.7399 1667.51 45.8686 1708.38C64.7577 1762.87 86.4287 1759.83 107.367 1756.81C126.77 1754.17 146.829 1751.13 164.841 1793.13C172.528 1843.09 181.459 1887.37 191.488 1924.07C202.764 1965.33 215.209 1994.83 228.534 2012.25C237.905 2023.98 248.008 2030.79 261.333 2033.43C264.115 2034.58 266.826 2034.96 269.608 2034.96ZM361.05 753.235C378.108 753.235 391.652 772.909 396.483 882.649C400.29 968.93 401.022 1060.51 398.754 1170.63C397.363 1241.78 394.8 1313.67 392.384 1383.31C390.919 1424.55 389.454 1466.94 388.211 1508.19C387.552 1530.89 386.965 1554.73 386.454 1577.44C384.112 1674.69 381.696 1775.35 371.079 1854.83C361.708 1924.84 347.14 1978.19 330.008 2005.06C317.708 2024.35 304.896 2026.62 291.35 2028.9L289.448 2029.28C280.148 2031.17 270.559 2032.68 261.407 2031.17C248.082 2028.14 237.978 2021.71 228.681 2009.97C215.43 1992.95 202.982 1963.43 191.783 1922.56C181.751 1885.85 172.82 1841.96 165.207 1792L164.986 1793.13L165.133 1791.62C146.903 1748.86 126.77 1751.89 107.296 1754.92C86.4287 1757.95 64.7576 1760.97 46.0898 1706.85C32.0324 1665.99 20.9044 1594.84 13.9494 1500.62C7.50562 1413.58 5.01608 1311.78 6.99445 1213.39C10.875 1014.72 29.2504 829.291 45.3574 665.43C54.362 574.234 63.5879 481.527 72.6662 389.95C77.5715 340.745 83.1355 284.744 91.5552 244.633C109.417 159.483 135.701 164.399 158.837 168.565C191.051 174.623 218.578 333.556 245.155 487.204C251.156 522.019 257.452 557.964 263.604 591.267C272.682 640.459 282.564 690.414 293.255 719.932C310.239 767.232 329.347 761.173 346.26 756.258C351.458 754.746 356.363 753.235 361.05 753.235ZM284.616 2035.32C289.155 2035.32 293.766 2034.58 298.305 2033.06C309.947 2030.03 323.638 2023.6 336.157 2000.51C352.704 1969.86 366.687 1914.23 375.4 1843.85C386.161 1757.57 388.43 1651.24 390.627 1547.92C391.14 1524.08 391.652 1499.48 392.31 1475.64C393.627 1424.93 395.458 1372.71 397.142 1322.38C399.413 1256.54 401.681 1188.42 403.146 1121.44C405.709 1003.36 405.122 906.871 401.462 817.567C395.313 667.704 373.714 677.166 348.676 687.759C330.885 695.329 310.753 704.029 292.888 656.73C281.394 626.081 270.777 571.961 262.871 528.065C255.55 487.573 248.155 442.546 240.982 399.031C215.649 245.002 189.439 85.6881 158.323 77.3687C136.36 71.6912 106.269 63.7401 86.7949 157.591C77.9377 200.356 72.3737 257.868 66.9547 313.5C57.6577 410.005 48.0657 508.771 38.6212 607.156C21.7817 781.991 2.74774 980.285 -0.840363 1191.45C-2.59753 1296.65 0.331909 1405.63 7.57935 1498.35C15.4141 1599.39 27.7856 1675.08 43.2341 1717.83C63.8803 1774.59 87.5272 1769.29 110.442 1764.38C131.602 1759.83 153.418 1754.92 173.113 1798.06C181.678 1843.09 191.122 1883.58 201.299 1918.4C212.501 1956.61 224.653 1985.38 237.539 2004.3C247.937 2018.69 258.698 2028.14 269.46 2031.92C274.366 2034.58 279.49 2035.32 284.616 2035.32ZM366.687 685.867C383.306 685.867 396.409 708.577 400.877 818.698C404.537 907.633 405.05 1003.74 402.561 1121.82C401.096 1188.79 398.828 1256.91 396.557 1322.76C394.873 1373.09 393.043 1425.32 391.725 1476.02C391.067 1499.86 390.553 1524.46 390.042 1548.3C387.845 1650.85 385.574 1757.19 374.886 1842.71C366.174 1912.34 352.337 1967.59 335.938 1997.87C323.49 2020.95 309.873 2027.01 298.234 2030.41C288.642 2033.43 278.905 2033.43 269.313 2030.03C258.625 2026.24 247.863 2016.79 237.539 2002.4C224.727 1983.86 212.574 1955.1 201.446 1916.88C191.343 1882.07 181.899 1841.58 173.332 1796.55L173.187 1797.3L173.26 1796.17C153.418 1752.27 131.528 1757.19 110.297 1761.72C87.4535 1767.03 63.8803 1771.95 43.3815 1715.57C28.0069 1673.18 15.7803 1597.5 7.94553 1497.59C0.77182 1405.63 -2.23135 1297.03 -0.400421 1192.21C3.18765 981.415 22.2217 783.502 39.0611 609.049C48.5056 510.664 58.0951 411.898 67.3947 315.393C72.7375 260.142 78.3039 202.63 87.0873 160.245C106.343 67.1441 136.286 75.0951 158.178 80.7727C189.072 88.7237 215.209 247.656 240.468 401.292C247.644 444.82 255.037 489.846 262.358 530.338C270.34 574.234 280.954 628.736 292.596 659.765C310.605 707.446 330.811 698.733 348.676 691.176C354.972 688.521 361.05 685.867 366.687 685.867ZM294.498 2036.47C298.16 2036.47 301.748 2035.71 305.334 2034.58C319.61 2029.66 331.691 2016.03 342.161 1993.7C358.194 1958.89 371.079 1902.89 379.278 1832.12C390.042 1739.78 392.165 1627.39 394.215 1518.4C394.652 1493.8 395.166 1468.07 395.751 1443.48C397.142 1383.31 399.191 1321.62 401.17 1262.2C403.219 1200.15 405.343 1135.81 406.808 1072.62C409.661 946.982 409.368 845.942 405.854 753.984C399.779 596.563 377.157 609.049 350.946 623.426C332.202 633.651 310.971 645.374 292.156 597.325C282.712 573.104 272.975 532.231 261.625 467.898C253.279 421.348 245.007 367.989 236.954 316.536C212.722 161.376 187.755 0.919067 157.591 -9.29285C129.989 -18.7554 101.511 -19.8858 82.2557 73.9647C72.9586 119.372 66.9547 183.324 61.6095 239.705C51.7988 343.78 41.9168 448.605 32.1798 551.537C14.7555 736.964 -5.08707 947.363 -8.38025 1171.39C-9.99243 1283.4 -6.54932 1398.82 1.43045 1496.46C10.1426 1603.17 23.6127 1683.39 40.3783 1728.05C62.7817 1787.46 88.4783 1779.9 113.298 1772.7C136.215 1765.89 159.861 1759.08 181.166 1804.11C190.537 1843.85 200.495 1880.94 210.743 1913.86C221.8 1949.04 233.587 1977.05 245.958 1997.49C256.061 2013.38 266.459 2025.11 277 2031.17C282.859 2034.58 288.642 2036.47 294.498 2036.47ZM372.03 618.13C377.009 618.13 381.696 620.404 385.869 626.843C396.409 642.733 402.561 683.225 405.343 754.365C408.857 845.942 409.223 946.982 406.294 1072.24C404.829 1135.44 402.706 1199.4 400.656 1261.46C398.68 1320.87 396.631 1382.55 395.24 1443.1C394.652 1468.07 394.141 1493.43 393.701 1518.02C391.652 1626.25 389.528 1738.26 378.84 1830.22C370.639 1900.61 357.901 1956.25 341.939 1990.68C331.544 2013.01 319.538 2026.62 305.26 2031.55C295.889 2034.96 286.445 2033.81 277.148 2028.52C266.678 2022.09 256.283 2010.73 246.253 1994.83C233.953 1974.41 222.164 1946.4 211.183 1911.59C200.933 1878.28 190.903 1841.58 181.606 1801.47L181.385 1802.6L181.459 1801.47C160.009 1756.06 136.286 1763.25 113.298 1769.68C88.552 1776.86 63.0005 1784.43 40.6708 1725.4C23.9789 1681.12 10.6538 1601.66 1.94165 1495.33C-5.96442 1398.06 -9.47879 1283.02 -7.86905 1171.77C-4.57343 948.493 15.193 738.476 32.6173 553.048C42.283 450.116 52.165 345.292 62.0494 241.229C67.3209 185.216 73.3248 121.646 82.5482 76.2256C101.658 -16.8629 130.063 -15.7324 157.446 -6.26991C187.315 3.9547 212.282 164.03 236.369 318.415C244.422 369.882 252.695 423.24 261.04 469.791C272.535 534.123 282.272 575.377 291.79 599.586C310.753 648.029 332.057 636.293 350.873 626.081C358.339 621.915 365.515 618.13 372.03 618.13ZM303.065 2037.98C316.095 2037.98 328.983 2026.24 340.77 2003.16C359.585 1966.08 374.301 1902.51 383.306 1819.63C394.067 1720.48 396.043 1601.66 398.022 1487.37C398.462 1462.02 398.899 1436.29 399.413 1410.92C400.877 1340.55 403.219 1269.03 405.417 1200.15C410.833 1032.13 416.471 858.427 410.322 690.033C404.244 525.042 380.597 540.563 353.215 558.345C333.522 571.211 311.264 585.589 291.424 537.146C270.485 485.68 251.67 358.539 233.513 235.552C210.232 77.7497 186.217 -84.9804 156.932 -97.0848C129.405 -108.44 98.3627 -112.225 77.7165 -10.4233C67.9058 38.0071 61.6832 105.375 56.2667 165.161L25.8835 495.143C7.7981 691.925 -12.7007 914.822 -15.7014 1150.19C-17.1661 1268.64 -13.2119 1390.5 -4.49969 1493.43C5.08981 1606.2 19.6584 1690.2 37.7438 1736.75C61.9756 1798.81 89.6506 1788.98 116.372 1779.9C140.972 1771.19 166.45 1762.49 189.365 1808.66C219.163 1910.44 246.912 1997.11 284.909 2030.03C290.912 2035.32 296.988 2037.98 303.065 2037.98ZM376.936 550.013C381.548 550.013 385.869 552.286 389.749 557.583C400.73 573.485 407.1 615.488 409.808 689.652C415.957 857.678 410.322 1030.99 404.903 1199.02C402.635 1268.26 400.364 1339.78 398.899 1410.18C398.388 1435.53 397.948 1461.64 397.508 1486.61C395.606 1600.9 393.556 1718.97 382.866 1817.74C373.935 1900.23 359.292 1963.05 340.622 1999.76C323.49 2033.43 303.798 2042.89 285.127 2026.62C247.204 1993.7 219.529 1907.04 189.805 1805.63C166.743 1759.08 141.191 1767.78 116.519 1776.48C89.8693 1785.95 62.2681 1795.41 38.1813 1733.73C20.2458 1687.56 5.67719 1604.3 -3.84106 1491.91C-12.5532 1389.36 -16.5075 1267.88 -15.0428 1149.82C-12.1158 915.19 8.38544 692.306 26.4684 495.905L56.8516 165.923C62.2681 106.506 68.4932 39.5186 78.2302 -8.53075C98.5815 -109.202 129.478 -105.417 156.861 -94.0619C185.924 -81.9447 209.866 80.0106 232.999 237.063C251.23 360.432 270.045 487.954 291.131 539.801C311.119 588.612 333.522 574.234 353.289 561.368C361.635 555.309 369.688 550.013 376.936 550.013Z" fill="#DDCAB1" fill-opacity="0.22"/>
</svg>