<svg width="549" height="895" viewBox="0 0 549 895" fill="none" xmlns="http://www.w3.org/2000/svg">
<path opacity="0.3" d="M268.586 519.726L271.822 519.555L271.568 516.324C267.756 467.82 252.85 433.106 224.106 384.125C276.231 412 309.002 455.457 328.464 497.02C349.149 541.194 354.627 582.846 352.539 600.843L352.522 600.993L352.519 601.145C351.619 647.141 312.277 678.037 272.795 678.037C229.36 678.037 194.113 642.592 194.113 598.826C194.113 556.483 227.107 521.926 268.586 519.726ZM308.846 24.1647C307.343 26.6976 305.754 29.3856 304.091 32.2125C292.183 52.442 276.436 79.7938 261.089 108.264C245.75 136.719 230.773 166.359 220.431 191.148C215.264 203.534 211.216 214.798 208.868 224.145C207.694 228.818 206.927 233.086 206.674 236.82C206.424 240.518 206.661 243.912 207.681 246.714C211.163 256.285 218.343 264.979 227.206 272.785C236.095 280.614 246.884 287.731 257.887 294.097C268.899 300.468 280.218 306.139 290.187 311.047C291.546 311.717 292.879 312.371 294.18 313.01C302.486 317.088 309.531 320.548 314.444 323.428C325.999 330.201 378.339 360.983 430.319 411.461C482.339 461.978 533.67 531.904 543.792 616.93C553.895 701.789 514.505 784.714 451.961 836.831C389.461 888.91 304.189 909.964 222.501 871.728C140.458 833.326 102.86 769.826 101.5 705.768C100.221 645.533 130.972 584.308 187.952 542.399C164.823 586.308 167.724 627.488 186.404 657.823C206.758 690.877 245.572 710.568 288.349 706.789C331.545 702.973 362.571 672.242 375.989 630.44C389.4 588.662 385.374 535.588 358.584 486.038C331.793 436.486 280.431 394.993 234.253 360.868C226.468 355.115 218.84 349.578 211.493 344.246C196.932 333.678 183.474 323.91 172.086 314.845C163.538 308.041 156.261 301.713 150.646 295.833C144.999 289.92 141.217 284.648 139.422 279.98C123.881 239.568 132.848 179.668 199.744 125.524C233.736 98.0122 266.076 67.286 289.903 43.4573C297.039 36.321 303.415 29.7999 308.846 24.1647ZM15.9562 526.648C15.1623 525.487 14.3448 523.95 13.5275 522.029C11.7705 517.897 10.1455 512.298 8.73407 505.561C5.91565 492.107 4.03368 474.529 3.50891 456.024C2.98429 437.523 3.81946 418.212 6.38732 401.29C8.97199 384.258 13.2529 370.071 19.339 361.475C32.4546 342.95 54.8661 307.579 74.0286 277.16C76.226 273.672 78.3811 270.248 80.4752 266.921C87.5263 255.719 93.8867 245.614 98.849 237.837C101.542 233.616 103.812 230.098 105.552 227.47C118.048 276.019 117.992 331.773 75.9545 373.808C52.7684 396.993 39.4366 434.414 30.8022 466.611C27.4206 479.221 24.7285 491.161 22.4575 501.233C21.8185 504.067 21.2129 506.753 20.6347 509.264C19.3105 515.015 18.1404 519.806 17.0413 523.421C16.662 524.668 16.3007 525.743 15.9562 526.648ZM142.598 65.3232C153.562 84.9508 157.6 105.864 155.403 123.735C153.205 141.609 144.83 156.203 131.175 163.831C117.52 171.459 100.701 170.938 84.3288 163.438C67.9593 155.939 52.269 141.534 41.3047 121.907C30.3405 102.279 26.3023 81.3659 28.4996 63.4949C30.6973 45.6212 39.073 31.027 52.7281 23.3991C66.3832 15.7712 83.202 16.2915 99.5739 23.792C115.943 31.2914 131.634 45.6955 142.598 65.3232Z" stroke="url(#paint0_linear_587_40)" stroke-width="6.318"/>
<defs>
<linearGradient id="paint0_linear_587_40" x1="274.364" y1="0.502472" x2="274.364" y2="894.461" gradientUnits="userSpaceOnUse">
<stop stop-color="#1E1E1E"/>
<stop offset="1" stop-color="#1E1E1E" stop-opacity="0"/>
</linearGradient>
</defs>
</svg>
