<svg width="395" height="85" viewBox="0 0 395 85" fill="none" xmlns="http://www.w3.org/2000/svg">
<mask id="mask0_901_265" style="mask-type:alpha" maskUnits="userSpaceOnUse" x="64" y="7" width="212" height="73">
<path d="M274.341 26.2586C275.174 20.0919 274.341 7.95857 264.341 8.75857C261.253 9.0056 258.721 10.1489 256.672 11.7586H82.8409C78.041 6.9586 73.5076 7.75858 71.8409 8.75857C55.4409 21.5585 72.3409 58.7586 82.8409 75.7586C136.841 78.4253 246.841 82.1586 254.841 75.7586C262.841 69.3586 271.174 40.0919 274.341 26.2586Z" fill="#D9D9D9" stroke="black"/>
</mask>
<g mask="url(#mask0_901_265)">
<path d="M10.6376 45.2257L11.2188 46.0394L11.2264 46.034L11.2339 46.0284L10.6376 45.2257ZM27.8563 50.6971L27.8763 49.6973L27.8663 49.6971H27.8563V50.6971ZM39.1208 50.9224L39.1008 51.9222L39.1108 51.9224H39.1208V50.9224ZM37.8656 42.8119L37.6327 43.7844L37.6391 43.7859L37.8656 42.8119ZM31.0425 41.3636L30.848 42.3445L30.8562 42.346L31.0425 41.3636ZM23.6079 39.529L23.3221 40.4873L23.3244 40.488L23.6079 39.529ZM11.8284 32.899L11.02 33.4879L11.0284 33.499L11.8284 32.899ZM14.5319 16.839L15.1346 17.637L15.1381 17.6343L14.5319 16.839ZM30.3667 13.3309L30.3903 12.3311L30.3785 12.3309H30.3667V13.3309ZM38.5415 13.524L38.5179 14.5237L38.5297 14.524H38.5415V13.524ZM50.4176 16.9355L49.8748 17.7754L49.8807 17.7792L50.4176 16.9355ZM44.206 25.8184L43.3026 26.2473L43.3043 26.2509L44.206 25.8184ZM37.4151 22.6322L37.3951 23.632L37.4051 23.6322H37.4151V22.6322ZM27.7275 22.4391L27.7475 21.4393L27.7375 21.4391H27.7275V22.4391ZM25.6355 29.4553L25.2965 30.3961L25.2992 30.397L25.6355 29.4553ZM34.3254 31.7404L34.1328 32.7217L34.1399 32.7231L34.3254 31.7404ZM53.3142 38.6601L52.6486 39.4064L52.6557 39.4126L53.3142 38.6601ZM52.2843 56.5225L52.887 57.3204L52.8878 57.3198L52.2843 56.5225ZM36.4817 59.9984L36.4619 60.9982L36.4718 60.9984H36.4817V59.9984ZM26.7298 59.8053L26.7496 58.8055L26.7397 58.8053H26.7298V59.8053ZM14.8215 56.4259L14.281 57.2673L14.2847 57.2696L14.8215 56.4259ZM10.5111 47.9292C10.5111 46.8562 10.8211 46.3235 11.2188 46.0394L10.0563 44.412C8.95213 45.2007 8.51111 46.4703 8.51111 47.9292H10.5111ZM11.2339 46.0284C11.8675 45.5577 12.3926 45.3889 12.8261 45.3889V43.3889C11.8435 43.3889 10.9095 43.7779 10.0412 44.423L11.2339 46.0284ZM12.8261 45.3889H16.6561V43.3889H12.8261V45.3889ZM16.6561 45.3889C17.4281 45.3889 18.0716 45.595 18.6249 45.9908C19.1886 46.394 19.7117 47.033 20.1637 47.9754L21.967 47.1105C21.4105 45.9503 20.6945 45.0122 19.7885 44.3641C18.872 43.7085 17.8151 43.3889 16.6561 43.3889V45.3889ZM20.1637 47.9754C21.4161 50.5868 24.1724 51.6971 27.8563 51.6971V49.6971C24.5024 49.6971 22.7315 48.7046 21.967 47.1105L20.1637 47.9754ZM27.8363 51.6969L39.1008 51.9222L39.1408 49.9226L27.8763 49.6973L27.8363 51.6969ZM39.1208 51.9224C41.086 51.9224 42.7333 51.6071 43.9162 50.8342C45.173 50.013 45.7853 48.7549 45.7853 47.2211H43.7853C43.7853 48.1549 43.4535 48.7474 42.8222 49.1599C42.117 49.6207 40.932 49.9224 39.1208 49.9224V51.9224ZM45.7853 47.2211C45.7853 45.8043 44.8897 44.7019 43.5928 43.8755C42.2988 43.0509 40.4406 42.384 38.0922 41.8379L37.6391 43.7859C39.9038 44.3125 41.5054 44.9169 42.518 45.5621C43.5276 46.2055 43.7853 46.7713 43.7853 47.2211H45.7853ZM38.0986 41.8394C36.0207 41.3415 33.7305 40.8555 31.2289 40.3811L30.8562 42.346C33.3324 42.8157 35.591 43.2952 37.6327 43.7843L38.0986 41.8394ZM31.237 40.3827C28.7785 39.8952 26.33 39.291 23.8914 38.5701L23.3244 40.488C25.8208 41.2261 28.3287 41.8449 30.848 42.3445L31.237 40.3827ZM23.8937 38.5708C21.4921 37.8545 19.2888 37.0144 17.2813 36.0525L16.4171 37.8561C18.5292 38.8682 20.8317 39.7446 23.3221 40.4873L23.8937 38.5708ZM17.2813 36.0525C15.357 35.1304 13.813 33.8785 12.6284 32.299L11.0284 33.499C12.4185 35.3526 14.2217 36.8042 16.4171 37.8561L17.2813 36.0525ZM12.6367 32.3103C11.5064 30.7585 10.9295 28.9307 10.9295 26.784H8.9295C8.9295 29.3147 9.61853 31.5636 11.0201 33.4878L12.6367 32.3103ZM10.9295 26.784C10.9295 22.7411 12.3495 19.7404 15.1346 17.637L13.9292 16.041C10.5778 18.5721 8.9295 22.2014 8.9295 26.784H10.9295ZM15.1381 17.6343C17.9311 15.5053 22.9222 14.3309 30.3667 14.3309V12.3309C22.8346 12.3309 17.2692 13.4951 13.9257 16.0437L15.1381 17.6343ZM30.343 14.3306L38.5179 14.5237L38.5651 12.5242L30.3903 12.3311L30.343 14.3306ZM38.5415 14.524C42.7576 14.524 46.5259 15.6109 49.8748 17.7754L50.9604 16.0957C47.2716 13.7114 43.1226 12.524 38.5415 12.524V14.524ZM49.8807 17.7792C53.2113 19.8986 54.728 22.4357 54.728 25.4H56.728C56.728 21.5842 54.7045 18.4783 50.9545 16.0919L49.8807 17.7792ZM54.728 25.4C54.728 26.4703 54.4189 27.0257 54.0053 27.333L55.1979 28.9385C56.2863 28.13 56.728 26.8616 56.728 25.4H54.728ZM54.0053 27.333C53.3652 27.8085 52.8513 27.9725 52.4452 27.9725V29.9725C53.4124 29.9725 54.336 29.5787 55.1979 28.9385L54.0053 27.333ZM52.4452 27.9725H48.6153V29.9725H52.4452V27.9725ZM48.6153 27.9725C47.8432 27.9725 47.1997 27.7664 46.6464 27.3707C46.0827 26.9674 45.5596 26.3285 45.1077 25.386L43.3043 26.2509C43.8608 27.4112 44.5768 28.3492 45.4828 28.9973C46.3994 29.6529 47.4562 29.9725 48.6153 29.9725V27.9725ZM45.1094 25.3896C43.8593 22.7564 41.1038 21.6322 37.4151 21.6322V23.6322C40.764 23.6322 42.5358 24.6321 43.3026 26.2473L45.1094 25.3896ZM37.435 21.6324L27.7475 21.4393L27.7076 23.4389L37.3951 23.632L37.435 21.6324ZM27.7275 21.4391C25.7623 21.4391 24.1151 21.7543 22.9322 22.5272C21.6753 23.3485 21.0631 24.6066 21.0631 26.1403H23.0631C23.0631 25.2065 23.3949 24.614 24.0262 24.2015C24.7314 23.7407 25.9164 23.4391 27.7275 23.4391V21.4391ZM21.0631 26.1403C21.0631 27.1498 21.5212 28.0155 22.276 28.7159C23.0095 29.3965 24.0422 29.9441 25.2965 30.3961L25.9746 28.5145C24.8472 28.1082 24.0937 27.6742 23.6364 27.2498C23.2003 26.8452 23.0631 26.4825 23.0631 26.1403H21.0631ZM25.2992 30.397C27.7623 31.2767 30.7097 32.0501 34.1328 32.7217L34.5179 30.7591C31.1608 30.1004 28.315 29.3504 25.9719 28.5136L25.2992 30.397ZM34.1399 32.7231C37.526 33.3619 40.9236 34.1394 44.3327 35.0556L44.8517 33.1241C41.3948 32.1951 37.9478 31.4062 34.5108 30.7577L34.1399 32.7231ZM44.3327 35.0556C47.6324 35.9424 50.396 37.3973 52.6486 39.4064L53.9798 37.9138C51.4691 35.6744 48.418 34.0826 44.8517 33.1241L44.3327 35.0556ZM52.6557 39.4126C54.8449 41.3282 55.9189 43.6836 55.9189 46.5453H57.9189C57.9189 43.0987 56.5897 40.1974 53.9727 37.9075L52.6557 39.4126ZM55.9189 46.5453C55.9189 50.5854 54.49 53.5986 51.6808 55.7251L52.8878 57.3198C56.258 54.7688 57.9189 51.1306 57.9189 46.5453H55.9189ZM51.6816 55.7245C48.8876 57.8347 43.905 58.9984 36.4817 58.9984V60.9984C43.992 60.9984 49.5445 59.8448 52.887 57.3204L51.6816 55.7245ZM36.5015 58.9986L26.7496 58.8055L26.71 60.8051L36.4619 60.9982L36.5015 58.9986ZM26.7298 58.8053C22.5118 58.8053 18.7303 57.728 15.3584 55.5822L14.2847 57.2696C17.9934 59.6296 22.1507 60.8053 26.7298 60.8053V58.8053ZM15.362 55.5846C12.0291 53.4434 10.5111 50.8946 10.5111 47.9292H8.51111C8.51111 51.744 10.5334 54.8597 14.281 57.2672L15.362 55.5846ZM59.7189 56.7799L58.752 56.525L58.748 56.54L58.7445 56.5551L59.7189 56.7799ZM67.7972 26.1403L68.7642 26.3952L68.7645 26.3939L67.7972 26.1403ZM89.1677 13.5883V12.5883L89.166 12.5883L89.1677 13.5883ZM108.478 14.4895L107.719 15.1403L107.726 15.148L107.732 15.1555L108.478 14.4895ZM108.382 58.9041L109.062 59.6369L109.069 59.6305L109.076 59.624L108.382 58.9041ZM97.9863 58.9041L97.266 59.5977L97.2791 59.6113L97.2926 59.6244L97.9863 58.9041ZM97.1495 48.6051H98.1495V47.6051H97.1495V48.6051ZM74.2663 48.6051V47.6051H73.4974L73.2999 48.3481L74.2663 48.6051ZM72.1099 56.7156L71.1435 56.4586L71.1409 56.4686L71.1384 56.4786L72.1099 56.7156ZM70.6616 58.9041L71.258 59.7069L71.2653 59.7014L71.2724 59.6959L70.6616 58.9041ZM60.1373 59.0328L59.3331 59.6272L59.3395 59.6358L59.346 59.6443L60.1373 59.0328ZM59.5902 57.7455L58.5919 57.6867L58.5902 57.7161V57.7455H59.5902ZM76.648 39.4969L75.6835 39.2325L75.3369 40.4969H76.648V39.4969ZM97.1495 39.4969V40.4969H98.1495V39.4969H97.1495ZM97.1495 22.6966H98.1495V21.6966H97.1495V22.6966ZM82.5699 24.4667L83.1753 25.2626L83.1769 25.2614L82.5699 24.4667ZM79.4802 29.1656L80.4446 29.43L80.4452 29.4279L79.4802 29.1656ZM60.6859 57.0349L68.7642 26.3952L66.8303 25.8853L58.752 56.525L60.6859 57.0349ZM68.7645 26.3939C69.795 22.4638 71.9651 19.5562 75.2877 17.6047C78.6418 15.6347 83.2414 14.5989 89.1695 14.5883L89.166 12.5883C83.0357 12.5992 78.0442 13.6662 74.2748 15.8801C70.474 18.1126 67.988 21.4702 66.8299 25.8867L68.7645 26.3939ZM89.1677 14.5883H106.515V12.5883H89.1677V14.5883ZM106.515 14.5883C107.018 14.5883 107.395 14.762 107.719 15.1403L109.238 13.8387C108.532 13.0154 107.6 12.5883 106.515 12.5883V14.5883ZM107.732 15.1555C108.108 15.576 108.283 16.0372 108.283 16.5815H110.283C110.283 15.538 109.922 14.6046 109.224 13.8235L107.732 15.1555ZM108.283 16.5815V56.7799H110.283V16.5815H108.283ZM108.283 56.7799C108.283 57.346 108.092 57.794 107.688 58.1843L109.076 59.624C109.873 58.8556 110.283 57.8874 110.283 56.7799H108.283ZM107.701 58.1713C107.29 58.5535 106.816 58.7409 106.226 58.7409V60.7409C107.309 60.7409 108.272 60.3704 109.062 59.6369L107.701 58.1713ZM106.226 58.7409H100.175V60.7409H106.226V58.7409ZM100.175 58.7409C99.5273 58.7409 99.0546 58.5446 98.6799 58.1838L97.2926 59.6244C98.0766 60.3793 99.063 60.7409 100.175 60.7409V58.7409ZM98.7066 58.2105C98.3458 57.8358 98.1495 57.3631 98.1495 56.7156H96.1495C96.1495 57.8274 96.5111 58.8138 97.266 59.5977L98.7066 58.2105ZM98.1495 56.7156V48.6051H96.1495V56.7156H98.1495ZM97.1495 47.6051H74.2663V49.6051H97.1495V47.6051ZM73.2999 48.3481L71.1435 56.4586L73.0764 56.9725L75.2327 48.862L73.2999 48.3481ZM71.1384 56.4786C70.9803 57.1268 70.6313 57.6646 70.0508 58.1123L71.2724 59.6959C72.194 58.985 72.8104 58.0638 73.0815 56.9525L71.1384 56.4786ZM70.0653 58.1014C69.4654 58.547 68.8768 58.7409 68.28 58.7409V60.7409C69.3567 60.7409 70.3559 60.377 71.258 59.7069L70.0653 58.1014ZM68.28 58.7409H61.9396V60.7409H68.28V58.7409ZM61.9396 58.7409C61.2805 58.7409 61.0357 58.56 60.9286 58.4214L59.346 59.6443C59.9684 60.4497 60.9252 60.7409 61.9396 60.7409V58.7409ZM60.9415 58.4385C60.6254 58.0108 60.5902 57.7939 60.5902 57.7455H58.5902C58.5902 58.4266 58.9197 59.0679 59.3331 59.6272L60.9415 58.4385ZM60.5885 57.8042C60.6075 57.4809 60.6444 57.2166 60.6933 57.0048L58.7445 56.5551C58.6647 56.9011 58.6158 57.2805 58.5919 57.6867L60.5885 57.8042ZM76.648 40.4969H97.1495V38.4969H76.648V40.4969ZM98.1495 39.4969V22.6966H96.1495V39.4969H98.1495ZM97.1495 21.6966H87.9769V23.6966H97.1495V21.6966ZM87.9769 21.6966C85.7117 21.6966 83.6929 22.3505 81.9629 23.672L83.1769 25.2614C84.5367 24.2227 86.1225 23.6966 87.9769 23.6966V21.6966ZM81.9645 23.6708C80.2533 24.9723 79.1052 26.7324 78.5152 28.9034L80.4452 29.4279C80.9281 27.6509 81.8397 26.2784 83.1753 25.2626L81.9645 23.6708ZM78.5158 28.9012L75.6835 39.2325L77.6124 39.7612L80.4446 29.43L78.5158 28.9012ZM130.621 49.4741V48.4741H129.621V49.4741H130.621ZM119.389 58.8719L118.682 59.579L118.688 59.5855L118.695 59.5918L119.389 58.8719ZM130.621 40.3658H129.621V41.3658H130.621V40.3658ZM150.576 38.5635L151.117 39.4044L151.124 39.4L150.576 38.5635ZM150.576 24.5311L150.028 25.3676L150.035 25.3719L150.576 24.5311ZM130.621 22.6966V21.6966H129.621V22.6966H130.621ZM119.488 56.7156V16.6459H117.488V56.7156H119.488ZM119.488 16.6459C119.488 16.0672 119.678 15.5975 120.077 15.1836L118.637 13.7954C117.877 14.5831 117.488 15.5509 117.488 16.6459H119.488ZM120.077 15.1836C120.467 14.7789 120.915 14.5883 121.481 14.5883V12.5883C120.373 12.5883 119.405 12.9986 118.637 13.7954L120.077 15.1836ZM121.481 14.5883H146.038V12.5883H121.481V14.5883ZM146.038 14.5883C152.393 14.5883 156.974 16.0555 159.963 18.8132C162.938 21.5567 164.509 25.7368 164.509 31.5473H166.509C166.509 25.3851 164.835 20.5857 161.319 17.343C157.819 14.1144 152.663 12.5883 146.038 12.5883V14.5883ZM164.509 31.5473C164.509 37.3465 162.938 41.5183 159.964 44.2567C156.974 47.0094 152.394 48.4741 146.038 48.4741V50.4741C152.663 50.4741 157.818 48.9509 161.319 45.7281C164.835 42.4908 166.509 37.6992 166.509 31.5473H164.509ZM146.038 48.4741H130.621V50.4741H146.038V48.4741ZM129.621 49.4741V56.7156H131.621V49.4741H129.621ZM129.621 56.7156C129.621 57.2826 129.43 57.7484 129.013 58.1648L130.427 59.579C131.212 58.7939 131.621 57.8221 131.621 56.7156H129.621ZM129.013 58.1648C128.626 58.5522 128.174 58.7409 127.596 58.7409V60.7409C128.692 60.7409 129.656 60.3503 130.427 59.579L129.013 58.1648ZM127.596 58.7409H121.545V60.7409H127.596V58.7409ZM121.545 58.7409C120.967 58.7409 120.497 58.5511 120.083 58.1521L118.695 59.5918C119.483 60.3513 120.45 60.7409 121.545 60.7409V58.7409ZM120.096 58.1648C119.68 57.7484 119.488 57.2826 119.488 56.7156H117.488C117.488 57.8221 117.897 58.7939 118.682 59.579L120.096 58.1648ZM130.621 41.3658H142.369V39.3658H130.621V41.3658ZM142.369 41.3658C146.057 41.3658 149.017 40.756 151.117 39.4044L150.035 37.7226C148.401 38.7741 145.89 39.3658 142.369 39.3658V41.3658ZM151.124 39.4C153.403 37.9066 154.376 35.1453 154.376 31.5473H152.376C152.376 34.8582 151.482 36.7744 150.028 37.727L151.124 39.4ZM154.376 31.5473C154.376 27.9326 153.405 25.1632 151.117 23.6902L150.035 25.3719C151.479 26.302 152.376 28.2101 152.376 31.5473H154.376ZM151.124 23.6946C149.022 22.3178 146.059 21.6966 142.369 21.6966V23.6966C145.888 23.6966 148.396 24.2983 150.028 25.3675L151.124 23.6946ZM142.369 21.6966H130.621V23.6966H142.369V21.6966ZM129.621 22.6966V40.3658H131.621V22.6966H129.621ZM213.593 21.8598L214.287 22.5801L214.293 22.5735L214.3 22.5669L213.593 21.8598ZM197.05 22.6966V21.6966H196.05V22.6966H197.05ZM196.149 58.9041L196.843 59.6244L196.843 59.624L196.149 58.9041ZM185.786 58.9041L185.078 59.6112L185.092 59.6243L185.105 59.6369L185.786 58.9041ZM184.917 22.6966H185.917V21.6966H184.917V22.6966ZM168.374 21.8598L167.667 22.5669L167.673 22.5735L167.68 22.5801L168.374 21.8598ZM168.505 19.6712V16.6459H166.505V19.6712H168.505ZM168.505 16.6459C168.505 16.0097 168.704 15.5414 169.081 15.1644L167.667 13.7502C166.885 14.5318 166.505 15.5226 166.505 16.6459H168.505ZM169.081 15.1644C169.458 14.7874 169.926 14.5883 170.562 14.5883V12.5883C169.439 12.5883 168.448 12.9686 167.667 13.7502L169.081 15.1644ZM170.562 14.5883H211.404V12.5883H170.562V14.5883ZM211.404 14.5883C212.041 14.5883 212.509 14.7874 212.886 15.1644L214.3 13.7502C213.518 12.9686 212.528 12.5883 211.404 12.5883V14.5883ZM212.886 15.1644C213.263 15.5414 213.462 16.0097 213.462 16.6459H215.462C215.462 15.5226 215.082 14.5318 214.3 13.7502L212.886 15.1644ZM213.462 16.6459V19.6712H215.462V16.6459H213.462ZM213.462 19.6712C213.462 20.3073 213.263 20.7756 212.886 21.1526L214.3 22.5669C215.082 21.7852 215.462 20.7945 215.462 19.6712H213.462ZM212.899 21.1394C212.525 21.5003 212.052 21.6966 211.404 21.6966V23.6966C212.516 23.6966 213.503 23.335 214.287 22.5801L212.899 21.1394ZM211.404 21.6966H197.05V23.6966H211.404V21.6966ZM196.05 22.6966V56.7799H198.05V22.6966H196.05ZM196.05 56.7799C196.05 57.346 195.86 57.794 195.455 58.1843L196.843 59.624C197.64 58.8556 198.05 57.8874 198.05 56.7799H196.05ZM195.455 58.1838C195.071 58.5543 194.615 58.7409 194.025 58.7409V60.7409C195.109 60.7409 196.069 60.3696 196.843 59.6244L195.455 58.1838ZM194.025 58.7409H187.942V60.7409H194.025V58.7409ZM187.942 58.7409C187.352 58.7409 186.878 58.5535 186.466 58.1713L185.105 59.6369C185.895 60.3704 186.859 60.7409 187.942 60.7409V58.7409ZM186.493 58.197C186.105 57.8097 185.917 57.3579 185.917 56.7799H183.917C183.917 57.8756 184.307 58.8399 185.078 59.6112L186.493 58.197ZM185.917 56.7799V22.6966H183.917V56.7799H185.917ZM184.917 21.6966H170.562V23.6966H184.917V21.6966ZM170.562 21.6966C169.915 21.6966 169.442 21.5003 169.067 21.1394L167.68 22.5801C168.464 23.335 169.45 23.6966 170.562 23.6966V21.6966ZM169.081 21.1526C168.704 20.7756 168.505 20.3073 168.505 19.6712H166.505C166.505 20.7945 166.885 21.7852 167.667 22.5669L169.081 21.1526ZM230.973 14.4895L230.253 15.1836L230.259 15.1902L230.266 15.1966L230.973 14.4895ZM231.874 31.1289H230.874V32.1289H231.874V31.1289ZM254.017 31.1289V32.1289H255.017V31.1289H254.017ZM265.249 14.4895L264.529 15.1836L264.536 15.1902L264.542 15.1966L265.249 14.4895ZM265.217 58.8719L265.911 59.5918L265.912 59.5913L265.217 58.8719ZM254.918 58.9041L254.224 59.624L254.231 59.6305L254.237 59.6369L254.918 58.9041ZM254.017 40.2371H255.017V39.2371H254.017V40.2371ZM231.874 40.2371V39.2371H230.874V40.2371H231.874ZM230.973 58.9041L231.666 59.6244L231.667 59.624L230.973 58.9041ZM220.674 58.8719L219.979 59.5913L219.986 59.5976L219.992 59.6038L220.674 58.8719ZM220.74 56.7156V16.6459H218.74V56.7156H220.74ZM220.74 16.6459C220.74 16.0788 220.932 15.6131 221.349 15.1966L219.934 13.7824C219.149 14.5675 218.74 15.5393 218.74 16.6459H220.74ZM221.349 15.1966C221.754 14.7907 222.237 14.5883 222.862 14.5883V12.5883C221.728 12.5883 220.73 12.9868 219.934 13.7824L221.349 15.1966ZM222.862 14.5883H228.848V12.5883H222.862V14.5883ZM228.848 14.5883C229.415 14.5883 229.862 14.7789 230.253 15.1836L231.692 13.7954C230.924 12.9986 229.956 12.5883 228.848 12.5883V14.5883ZM230.266 15.1966C230.682 15.6131 230.874 16.0788 230.874 16.6459H232.874C232.874 15.5393 232.465 14.5675 231.68 13.7824L230.266 15.1966ZM230.874 16.6459V31.1289H232.874V16.6459H230.874ZM231.874 32.1289H254.017V30.1289H231.874V32.1289ZM255.017 31.1289V16.6459H253.017V31.1289H255.017ZM255.017 16.6459C255.017 16.0788 255.209 15.6131 255.625 15.1966L254.211 13.7824C253.426 14.5675 253.017 15.5393 253.017 16.6459H255.017ZM255.625 15.1966C256.041 14.7801 256.507 14.5883 257.074 14.5883V12.5883C255.968 12.5883 254.996 12.9973 254.211 13.7824L255.625 15.1966ZM257.074 14.5883H263.061V12.5883H257.074V14.5883ZM263.061 14.5883C263.685 14.5883 264.15 14.7898 264.529 15.1836L265.969 13.7954C265.19 12.9876 264.195 12.5883 263.061 12.5883V14.5883ZM264.542 15.1966C264.958 15.6131 265.15 16.0788 265.15 16.6459H267.15C267.15 15.5393 266.741 14.5675 265.956 13.7824L264.542 15.1966ZM265.15 16.6459V56.7156H267.15V16.6459H265.15ZM265.15 56.7156C265.15 57.271 264.957 57.7331 264.522 58.1525L265.912 59.5913C266.722 58.8092 267.15 57.8337 267.15 56.7156H265.15ZM264.523 58.1521C264.109 58.5511 263.639 58.7409 263.061 58.7409V60.7409C264.156 60.7409 265.123 60.3513 265.911 59.5918L264.523 58.1521ZM263.061 58.7409H257.074V60.7409H263.061V58.7409ZM257.074 58.7409C256.484 58.7409 256.01 58.5535 255.598 58.1713L254.237 59.6369C255.027 60.3704 255.991 60.7409 257.074 60.7409V58.7409ZM255.612 58.1843C255.207 57.794 255.017 57.346 255.017 56.7799H253.017C253.017 57.8874 253.427 58.8556 254.224 59.624L255.612 58.1843ZM255.017 56.7799V40.2371H253.017V56.7799H255.017ZM254.017 39.2371H231.874V41.2371H254.017V39.2371ZM230.874 40.2371V56.7799H232.874V40.2371H230.874ZM230.874 56.7799C230.874 57.346 230.683 57.794 230.278 58.1843L231.667 59.624C232.464 58.8556 232.874 57.8874 232.874 56.7799H230.874ZM230.279 58.1838C229.894 58.5543 229.438 58.7409 228.848 58.7409V60.7409C229.932 60.7409 230.892 60.3696 231.666 59.6244L230.279 58.1838ZM228.848 58.7409H222.862V60.7409H228.848V58.7409ZM222.862 58.7409C222.283 58.7409 221.795 58.5501 221.355 58.14L219.992 59.6038C220.796 60.3524 221.768 60.7409 222.862 60.7409V58.7409ZM221.368 58.1525C220.934 57.7331 220.74 57.271 220.74 56.7156H218.74C218.74 57.8337 219.169 58.8092 219.979 59.5913L221.368 58.1525ZM271.622 56.7799L270.655 56.525L270.651 56.54L270.647 56.5551L271.622 56.7799ZM279.7 26.1403L280.667 26.3952L280.667 26.3939L279.7 26.1403ZM301.07 13.5883V12.5883L301.069 12.5883L301.07 13.5883ZM320.381 14.4895L319.622 15.1403L319.628 15.148L319.635 15.1555L320.381 14.4895ZM320.285 58.9041L320.965 59.6369L320.972 59.6305L320.979 59.624L320.285 58.9041ZM309.889 58.9041L309.169 59.5977L309.182 59.6113L309.195 59.6244L309.889 58.9041ZM309.052 48.6051H310.052V47.6051H309.052V48.6051ZM286.169 48.6051V47.6051H285.4L285.203 48.3481L286.169 48.6051ZM284.013 56.7156L283.046 56.4586L283.044 56.4686L283.041 56.4786L284.013 56.7156ZM282.564 58.9041L283.161 59.7069L283.168 59.7014L283.175 59.6959L282.564 58.9041ZM272.04 59.0328L271.236 59.6272L271.242 59.6358L271.249 59.6443L272.04 59.0328ZM271.493 57.7455L270.495 57.6867L270.493 57.7161V57.7455H271.493ZM288.551 39.4969L287.586 39.2325L287.24 40.4969H288.551V39.4969ZM309.052 39.4969V40.4969H310.052V39.4969H309.052ZM309.052 22.6966H310.052V21.6966H309.052V22.6966ZM294.473 24.4667L295.078 25.2626L295.08 25.2614L294.473 24.4667ZM291.383 29.1656L292.347 29.43L292.348 29.4279L291.383 29.1656ZM272.589 57.0349L280.667 26.3952L278.733 25.8853L270.655 56.525L272.589 57.0349ZM280.667 26.3939C281.698 22.4638 283.868 19.5562 287.19 17.6047C290.545 15.6347 295.144 14.5989 301.072 14.5883L301.069 12.5883C294.938 12.5992 289.947 13.6662 286.178 15.8801C282.377 18.1126 279.891 21.4702 278.733 25.8867L280.667 26.3939ZM301.07 14.5883H318.418V12.5883H301.07V14.5883ZM318.418 14.5883C318.921 14.5883 319.298 14.762 319.622 15.1403L321.14 13.8387C320.435 13.0154 319.503 12.5883 318.418 12.5883V14.5883ZM319.635 15.1555C320.011 15.576 320.186 16.0372 320.186 16.5815H322.186C322.186 15.538 321.824 14.6046 321.127 13.8235L319.635 15.1555ZM320.186 16.5815V56.7799H322.186V16.5815H320.186ZM320.186 56.7799C320.186 57.346 319.995 57.794 319.59 58.1843L320.979 59.624C321.776 58.8556 322.186 57.8874 322.186 56.7799H320.186ZM319.604 58.1713C319.193 58.5535 318.718 58.7409 318.128 58.7409V60.7409C319.212 60.7409 320.175 60.3704 320.965 59.6369L319.604 58.1713ZM318.128 58.7409H312.078V60.7409H318.128V58.7409ZM312.078 58.7409C311.43 58.7409 310.957 58.5446 310.583 58.1838L309.195 59.6244C309.979 60.3793 310.966 60.7409 312.078 60.7409V58.7409ZM310.609 58.2105C310.249 57.8358 310.052 57.3631 310.052 56.7156H308.052C308.052 57.8274 308.414 58.8138 309.169 59.5977L310.609 58.2105ZM310.052 56.7156V48.6051H308.052V56.7156H310.052ZM309.052 47.6051H286.169V49.6051H309.052V47.6051ZM285.203 48.3481L283.046 56.4586L284.979 56.9725L287.135 48.862L285.203 48.3481ZM283.041 56.4786C282.883 57.1268 282.534 57.6646 281.954 58.1123L283.175 59.6959C284.097 58.985 284.713 58.0638 284.984 56.9525L283.041 56.4786ZM281.968 58.1014C281.368 58.547 280.78 58.7409 280.183 58.7409V60.7409C281.259 60.7409 282.259 60.377 283.161 59.7069L281.968 58.1014ZM280.183 58.7409H273.842V60.7409H280.183V58.7409ZM273.842 58.7409C273.183 58.7409 272.938 58.56 272.831 58.4214L271.249 59.6443C271.871 60.4497 272.828 60.7409 273.842 60.7409V58.7409ZM272.844 58.4385C272.528 58.0108 272.493 57.7939 272.493 57.7455H270.493C270.493 58.4266 270.822 59.0679 271.236 59.6272L272.844 58.4385ZM272.491 57.8042C272.51 57.4809 272.547 57.2166 272.596 57.0048L270.647 56.5551C270.567 56.9011 270.519 57.2805 270.495 57.6867L272.491 57.8042ZM288.551 40.4969H309.052V38.4969H288.551V40.4969ZM310.052 39.4969V22.6966H308.052V39.4969H310.052ZM309.052 21.6966H299.88V23.6966H309.052V21.6966ZM299.88 21.6966C297.614 21.6966 295.596 22.3505 293.866 23.672L295.08 25.2614C296.439 24.2227 298.025 23.6966 299.88 23.6966V21.6966ZM293.867 23.6708C292.156 24.9723 291.008 26.7324 290.418 28.9034L292.348 29.4279C292.831 27.6509 293.742 26.2784 295.078 25.2626L293.867 23.6708ZM290.418 28.9012L287.586 39.2325L289.515 39.7612L292.347 29.43L290.418 28.9012Z" fill="white"/>
</g>
<mask id="mask1_901_265" style="mask-type:alpha" maskUnits="userSpaceOnUse" x="0" y="0" width="395" height="85">
<path fill-rule="evenodd" clip-rule="evenodd" d="M395 0H0V85H395V0ZM265 8.00003C275 7.20001 275.833 19.3334 275 25.5C271.833 39.3334 263.5 68.6 255.5 75.0001C247.5 81.4001 137.5 77.6667 83.5001 75.0001C73.0001 58 56.1001 20.8 72.5001 8.00003C74.1668 7.00003 78.7001 6.20004 83.5001 11.0001H257.332C259.381 9.39035 261.912 8.24704 265 8.00003Z" fill="white"/>
</mask>
<g mask="url(#mask1_901_265)">
<path d="M10.057 47.1707C10.057 45.9047 10.4325 45.0036 11.1835 44.4672C11.9344 43.9093 12.6639 43.6304 13.372 43.6304H17.202C19.133 43.6304 20.6028 44.6817 21.6112 46.7844C22.6197 48.8872 24.8833 49.9385 28.4022 49.9385L39.6667 50.1638C43.4431 50.1638 45.3312 48.9301 45.3312 46.4626C45.3312 44.5959 43.0247 43.1261 38.4115 42.0533C36.3517 41.5598 34.0774 41.0771 31.5884 40.605C29.0995 40.1115 26.6213 39.5 24.1538 38.7705C21.7078 38.041 19.4549 37.1827 17.3951 36.1957C15.3353 35.2087 13.6617 33.857 12.3743 32.1405C11.1084 30.4025 10.4754 28.3642 10.4754 26.0254C10.4754 21.7127 12.0095 18.3977 15.0778 16.0804C18.146 13.7417 23.4243 12.5723 30.9126 12.5723L39.0874 12.7654C43.486 12.7654 47.4447 13.9026 50.9635 16.177C54.5038 18.4299 56.2739 21.2514 56.2739 24.6415C56.2739 25.9074 55.8985 26.8193 55.1475 27.3772C54.3965 27.935 53.6777 28.214 52.9911 28.214H49.1612C47.2301 28.214 45.7603 27.1626 44.7519 25.0599C43.7434 22.9357 41.4798 21.8736 37.961 21.8736L28.2734 21.6805C24.4971 21.6805 22.609 22.9143 22.609 25.3817C22.609 26.7335 23.7998 27.8385 26.1814 28.6967C28.5845 29.555 31.4812 30.3167 34.8713 30.9818C38.2828 31.6255 41.7051 32.4087 45.1381 33.3313C48.5711 34.2539 51.4785 35.7773 53.8601 37.9015C56.2632 40.0042 57.4648 42.6326 57.4648 45.7867C57.4648 50.0994 55.9199 53.4252 52.8302 55.7639C49.7619 58.0812 44.4944 59.2398 37.0276 59.2398L27.2757 59.0467C22.8772 59.0467 18.9077 57.9203 15.3674 55.6674C11.8272 53.393 10.057 50.5608 10.057 47.1707ZM60.2648 56.0214L68.3431 25.3817C70.5317 17.0352 77.6552 12.8512 89.7136 12.8298H107.061C107.855 12.8298 108.509 13.1302 109.024 13.731C109.561 14.3317 109.829 15.0291 109.829 15.823V56.0214C109.829 56.8582 109.529 57.5662 108.928 58.1456C108.327 58.7034 107.608 58.9824 106.771 58.9824H100.721C99.841 58.9824 99.1115 58.7034 98.5322 58.1456C97.9743 57.5662 97.6954 56.8367 97.6954 55.957V47.8465H74.8122L72.6558 55.957C72.4413 56.8367 71.9585 57.5662 71.2075 58.1456C70.4566 58.7034 69.6627 58.9824 68.8259 58.9824H62.4855C61.6488 58.9824 61.048 58.7463 60.6832 58.2743C60.3185 57.7808 60.1361 57.3517 60.1361 56.9869C60.1575 56.6222 60.2004 56.3003 60.2648 56.0214ZM77.1939 38.7383H97.6954V21.938H88.5228C86.463 21.938 84.6607 22.5281 83.1158 23.7082C81.5924 24.8668 80.5625 26.4331 80.0261 28.4071L77.1939 38.7383ZM119.034 55.957V15.8873C119.034 15.0505 119.323 14.3317 119.903 13.731C120.482 13.1302 121.19 12.8298 122.027 12.8298H146.584C159.565 12.8298 166.055 18.8161 166.055 30.7887C166.055 42.7399 159.565 48.7155 146.584 48.7155H131.167V55.957C131.167 56.7938 130.867 57.5126 130.266 58.1134C129.687 58.6927 128.979 58.9824 128.142 58.9824H122.091C121.254 58.9824 120.536 58.6927 119.935 58.1134C119.334 57.5126 119.034 56.7938 119.034 55.957ZM131.167 39.6073H142.915C146.519 39.6073 149.255 39.0065 151.122 37.805C152.988 36.582 153.922 34.2432 153.922 30.7887C153.922 27.3128 152.988 24.9741 151.122 23.7725C149.255 22.5495 146.519 21.938 142.915 21.938H131.167V39.6073ZM168.051 18.9127V15.8873C168.051 15.0076 168.34 14.2781 168.92 13.6988C169.499 13.1195 170.229 12.8298 171.108 12.8298H211.95C212.83 12.8298 213.56 13.1195 214.139 13.6988C214.718 14.2781 215.008 15.0076 215.008 15.8873V18.9127C215.008 19.7924 214.718 20.5219 214.139 21.1012C213.56 21.6591 212.83 21.938 211.95 21.938H197.596V56.0214C197.596 56.8582 197.296 57.5662 196.695 58.1456C196.116 58.7034 195.408 58.9824 194.571 58.9824H188.488C187.651 58.9824 186.932 58.7034 186.331 58.1456C185.752 57.5662 185.463 56.8582 185.463 56.0214V21.938H171.108C170.229 21.938 169.499 21.6591 168.92 21.1012C168.34 20.5219 168.051 19.7924 168.051 18.9127ZM220.286 55.957V15.8873C220.286 15.0505 220.587 14.3317 221.187 13.731C221.788 13.1302 222.528 12.8298 223.408 12.8298H229.394C230.231 12.8298 230.939 13.1302 231.519 13.731C232.119 14.3317 232.42 15.0505 232.42 15.8873V30.3703H254.563V15.8873C254.563 15.0505 254.863 14.3317 255.464 13.731C256.065 13.1302 256.783 12.8298 257.62 12.8298H263.606C264.486 12.8298 265.216 13.1302 265.795 13.731C266.396 14.3317 266.696 15.0505 266.696 15.8873V55.957C266.696 56.7938 266.385 57.5126 265.763 58.1134C265.162 58.6927 264.443 58.9824 263.606 58.9824H257.62C256.783 58.9824 256.065 58.7034 255.464 58.1456C254.863 57.5662 254.563 56.8582 254.563 56.0214V39.4786H232.42V56.0214C232.42 56.8582 232.119 57.5662 231.519 58.1456C230.939 58.7034 230.231 58.9824 229.394 58.9824H223.408C222.571 58.9824 221.842 58.6927 221.219 58.1134C220.597 57.5126 220.286 56.7938 220.286 55.957ZM272.168 56.0214L280.246 25.3817C282.434 17.0352 289.558 12.8512 301.616 12.8298H318.964C319.758 12.8298 320.412 13.1302 320.927 13.731C321.463 14.3317 321.732 15.0291 321.732 15.823V56.0214C321.732 56.8582 321.431 57.5662 320.83 58.1456C320.23 58.7034 319.511 58.9824 318.674 58.9824H312.623C311.744 58.9824 311.014 58.7034 310.435 58.1456C309.877 57.5662 309.598 56.8367 309.598 55.957V47.8465H286.715L284.559 55.957C284.344 56.8367 283.861 57.5662 283.11 58.1456C282.359 58.7034 281.565 58.9824 280.729 58.9824H274.388C273.551 58.9824 272.951 58.7463 272.586 58.2743C272.221 57.7808 272.039 57.3517 272.039 56.9869C272.06 56.6222 272.103 56.3003 272.168 56.0214ZM289.097 38.7383H309.598V21.938H300.426C298.366 21.938 296.563 22.5281 295.019 23.7082C293.495 24.8668 292.465 26.4331 291.929 28.4071L289.097 38.7383Z" fill="white"/>
<path d="M11.1835 44.4672L11.7647 45.2809L11.7723 45.2755L11.7798 45.2699L11.1835 44.4672ZM28.4022 49.9385L28.4222 48.9387L28.4122 48.9385H28.4022V49.9385ZM39.6667 50.1638L39.6467 51.1636L39.6567 51.1638H39.6667V50.1638ZM38.4115 42.0533L38.1786 43.0258L38.185 43.0273L38.4115 42.0533ZM31.5884 40.605L31.3939 41.586L31.4021 41.5875L31.5884 40.605ZM24.1538 38.7705L23.868 39.7288L23.8703 39.7295L24.1538 38.7705ZM12.3743 32.1405L11.5659 32.7293L11.5743 32.7405L12.3743 32.1405ZM15.0778 16.0804L15.6805 16.8784L15.684 16.8757L15.0778 16.0804ZM30.9126 12.5723L30.9362 11.5726L30.9244 11.5723H30.9126V12.5723ZM39.0874 12.7654L39.0638 13.7651L39.0756 13.7654H39.0874V12.7654ZM50.9635 16.177L50.4207 17.0168L50.4266 17.0206L50.9635 16.177ZM44.7519 25.0599L43.8485 25.4888L43.8502 25.4923L44.7519 25.0599ZM37.961 21.8736L37.941 22.8734L37.951 22.8736H37.961V21.8736ZM28.2734 21.6805L28.2934 20.6807L28.2834 20.6805H28.2734V21.6805ZM26.1814 28.6968L25.8424 29.6375L25.8451 29.6385L26.1814 28.6968ZM34.8713 30.9818L34.6787 31.9632L34.6858 31.9645L34.8713 30.9818ZM53.8601 37.9015L53.1945 38.6478L53.2016 38.6541L53.8601 37.9015ZM52.8302 55.7639L53.4329 56.5619L53.4337 56.5612L52.8302 55.7639ZM37.0276 59.2398L37.0078 60.2396L37.0177 60.2398H37.0276V59.2398ZM27.2757 59.0467L27.2955 58.0469L27.2856 58.0467H27.2757V59.0467ZM15.3674 55.6674L14.8269 56.5087L14.8306 56.511L15.3674 55.6674ZM11.057 47.1707C11.057 46.0977 11.3669 45.565 11.7647 45.2809L10.6022 43.6534C9.49803 44.4421 9.057 45.7118 9.057 47.1707H11.057ZM11.7798 45.2699C12.4134 44.7992 12.9385 44.6304 13.372 44.6304V42.6304C12.3894 42.6304 11.4554 43.0194 10.5871 43.6644L11.7798 45.2699ZM13.372 44.6304H17.202V42.6304H13.372V44.6304ZM17.202 44.6304C17.974 44.6304 18.6175 44.8365 19.1708 45.2322C19.7345 45.6355 20.2576 46.2744 20.7096 47.2169L22.5129 46.352C21.9564 45.1917 21.2404 44.2536 20.3344 43.6055C19.4179 42.9499 18.361 42.6304 17.202 42.6304V44.6304ZM20.7096 47.2169C21.962 49.8282 24.7183 50.9385 28.4022 50.9385V48.9385C25.0483 48.9385 23.2774 47.9461 22.5129 46.352L20.7096 47.2169ZM28.3822 50.9383L39.6467 51.1636L39.6867 49.164L28.4222 48.9387L28.3822 50.9383ZM39.6667 51.1638C41.6319 51.1638 43.2792 50.8486 44.4621 50.0756C45.7189 49.2544 46.3312 47.9963 46.3312 46.4626H44.3312C44.3312 47.3963 43.9994 47.9889 43.3681 48.4014C42.6629 48.8622 41.4779 49.1638 39.6667 49.1638V51.1638ZM46.3312 46.4626C46.3312 45.0457 45.4356 43.9433 44.1387 43.1169C42.8447 42.2924 40.9865 41.6255 38.6381 41.0793L38.185 43.0273C40.4497 43.554 42.0513 44.1584 43.0639 44.8036C44.0735 45.4469 44.3312 46.0128 44.3312 46.4626H46.3312ZM38.6445 41.0808C36.5666 40.583 34.2764 40.097 31.7748 39.6225L31.4021 41.5875C33.8783 42.0571 36.1369 42.5366 38.1786 43.0258L38.6445 41.0808ZM31.7829 39.6241C29.3244 39.1366 26.8759 38.5325 24.4373 37.8115L23.8703 39.7295C26.3667 40.4675 28.8746 41.0864 31.3939 41.5859L31.7829 39.6241ZM24.4396 37.8122C22.038 37.0959 19.8347 36.2558 17.8272 35.2939L16.9629 37.0976C19.0751 38.1096 21.3776 38.986 23.868 39.7288L24.4396 37.8122ZM17.8272 35.2939C15.9029 34.3719 14.3589 33.12 13.1743 31.5405L11.5743 32.7405C12.9644 34.594 14.7676 36.0456 16.9629 37.0976L17.8272 35.2939ZM13.1826 31.5517C12.0523 30 11.4754 28.1722 11.4754 26.0254H9.4754C9.4754 28.5562 10.1644 30.8051 11.566 32.7293L13.1826 31.5517ZM11.4754 26.0254C11.4754 21.9826 12.8954 18.9818 15.6805 16.8784L14.4751 15.2824C11.1237 17.8136 9.4754 21.4429 9.4754 26.0254H11.4754ZM15.684 16.8757C18.477 14.7468 23.4681 13.5723 30.9126 13.5723V11.5723C23.3805 11.5723 17.8151 12.7366 14.4716 15.2851L15.684 16.8757ZM30.8889 13.572L39.0638 13.7651L39.111 11.7657L30.9362 11.5726L30.8889 13.572ZM39.0874 13.7654C43.3035 13.7654 47.0718 14.8523 50.4207 17.0168L51.5063 15.3371C47.8175 12.9529 43.6685 11.7654 39.0874 11.7654V13.7654ZM50.4266 17.0206C53.7572 19.1401 55.2739 21.6772 55.2739 24.6415H57.2739C57.2739 20.8256 55.2504 17.7197 51.5004 15.3333L50.4266 17.0206ZM55.2739 24.6415C55.2739 25.7118 54.9648 26.2672 54.5512 26.5744L55.7438 28.1799C56.8322 27.3714 57.2739 26.1031 57.2739 24.6415H55.2739ZM54.5512 26.5744C53.9111 27.0499 53.3972 27.214 52.9911 27.214V29.214C53.9583 29.214 54.8819 28.8202 55.7438 28.1799L54.5512 26.5744ZM52.9911 27.214H49.1612V29.214H52.9911V27.214ZM49.1612 27.214C48.3891 27.214 47.7456 27.0079 47.1923 26.6121C46.6286 26.2089 46.1055 25.5699 45.6536 24.6275L43.8502 25.4923C44.4067 26.6526 45.1227 27.5907 46.0287 28.2388C46.9453 28.8944 48.0021 29.214 49.1612 29.214V27.214ZM45.6553 24.631C44.4052 21.9979 41.6497 20.8736 37.961 20.8736V22.8736C41.3099 22.8736 43.0817 23.8736 43.8485 25.4888L45.6553 24.631ZM37.9809 20.8738L28.2934 20.6807L28.2535 22.6803L37.941 22.8734L37.9809 20.8738ZM28.2734 20.6805C26.3082 20.6805 24.661 20.9958 23.4781 21.7687C22.2212 22.5899 21.609 23.848 21.609 25.3817H23.609C23.609 24.448 23.9408 23.8555 24.5721 23.443C25.2773 22.9822 26.4623 22.6805 28.2734 22.6805V20.6805ZM21.609 25.3817C21.609 26.3913 22.0671 27.257 22.8219 27.9573C23.5554 28.638 24.5881 29.1855 25.8424 29.6375L26.5205 27.756C25.3931 27.3497 24.6396 26.9156 24.1823 26.4913C23.7462 26.0867 23.609 25.724 23.609 25.3817H21.609ZM25.8451 29.6385C28.3082 30.5182 31.2556 31.2915 34.6787 31.9631L35.0638 30.0006C31.7067 29.3419 28.8609 28.5918 26.5178 27.755L25.8451 29.6385ZM34.6858 31.9645C38.0719 32.6034 41.4695 33.3809 44.8786 34.2971L45.3976 32.3656C41.9407 31.4365 38.4937 30.6477 35.0567 29.9992L34.6858 31.9645ZM44.8786 34.2971C48.1783 35.1839 50.9419 36.6388 53.1945 38.6478L54.5257 37.1552C52.015 34.9159 48.9639 33.324 45.3976 32.3656L44.8786 34.2971ZM53.2016 38.6541C55.3908 40.5696 56.4648 42.9251 56.4648 45.7867H58.4648C58.4648 42.3402 57.1356 39.4388 54.5186 37.1489L53.2016 38.6541ZM56.4648 45.7867C56.4648 49.8269 55.0359 52.8401 52.2267 54.9666L53.4337 56.5612C56.8039 54.0102 58.4648 50.372 58.4648 45.7867H56.4648ZM52.2275 54.9659C49.4335 57.0761 44.4509 58.2398 37.0276 58.2398V60.2398C44.5379 60.2398 50.0904 59.0863 53.4329 56.5619L52.2275 54.9659ZM37.0474 58.24L27.2955 58.0469L27.2559 60.0465L37.0078 60.2396L37.0474 58.24ZM27.2757 58.0467C23.0577 58.0467 19.2762 56.9695 15.9043 54.8237L14.8306 56.511C18.5392 58.8711 22.6966 60.0467 27.2757 60.0467V58.0467ZM15.9079 54.826C12.575 52.6848 11.057 50.136 11.057 47.1707H9.057C9.057 50.9855 11.0793 54.1011 14.8269 56.5087L15.9079 54.826ZM60.2648 56.0214L59.2979 55.7664L59.2939 55.7814L59.2904 55.7965L60.2648 56.0214ZM68.3431 25.3817L69.3101 25.6367L69.3104 25.6354L68.3431 25.3817ZM89.7136 12.8298V11.8298L89.7119 11.8298L89.7136 12.8298ZM109.024 13.731L108.265 14.3818L108.272 14.3894L108.278 14.397L109.024 13.731ZM108.928 58.1456L109.608 58.8784L109.615 58.8719L109.622 58.8654L108.928 58.1456ZM98.5322 58.1456L97.8119 58.8392L97.825 58.8528L97.8385 58.8659L98.5322 58.1456ZM97.6954 47.8465H98.6954V46.8465H97.6954V47.8465ZM74.8122 47.8465V46.8465H74.0433L73.8458 47.5896L74.8122 47.8465ZM72.6558 55.957L71.6894 55.7001L71.6868 55.71L71.6843 55.7201L72.6558 55.957ZM71.2075 58.1456L71.8039 58.9483L71.8112 58.9429L71.8183 58.9373L71.2075 58.1456ZM60.6832 58.2743L59.879 58.8687L59.8854 58.8773L59.8919 58.8857L60.6832 58.2743ZM60.1361 56.9869L59.1378 56.9282L59.1361 56.9575V56.9869H60.1361ZM77.1939 38.7383L76.2294 38.4739L75.8828 39.7383H77.1939V38.7383ZM97.6954 38.7383V39.7383H98.6954V38.7383H97.6954ZM97.6954 21.938H98.6954V20.938H97.6954V21.938ZM83.1158 23.7082L83.7212 24.5041L83.7228 24.5028L83.1158 23.7082ZM80.0261 28.4071L80.9905 28.6715L80.9911 28.6693L80.0261 28.4071ZM61.2318 56.2763L69.3101 25.6367L67.3762 25.1268L59.2979 55.7664L61.2318 56.2763ZM69.3104 25.6354C70.3409 21.7053 72.511 18.7977 75.8336 16.8461C79.1877 14.8761 83.7873 13.8403 89.7154 13.8298L89.7119 11.8298C83.5816 11.8407 78.5901 12.9077 74.8207 15.1216C71.0199 17.354 68.5339 20.7117 67.3758 25.1281L69.3104 25.6354ZM89.7136 13.8298H107.061V11.8298H89.7136V13.8298ZM107.061 13.8298C107.564 13.8298 107.941 14.0035 108.265 14.3818L109.784 13.0802C109.078 12.2569 108.146 11.8298 107.061 11.8298V13.8298ZM108.278 14.397C108.654 14.8174 108.829 15.2786 108.829 15.823H110.829C110.829 14.7795 110.468 13.846 109.77 13.0649L108.278 14.397ZM108.829 15.823V56.0214H110.829V15.823H108.829ZM108.829 56.0214C108.829 56.5875 108.638 57.0354 108.234 57.4257L109.622 58.8654C110.419 58.0971 110.829 57.1289 110.829 56.0214H108.829ZM108.247 57.4128C107.836 57.795 107.362 57.9824 106.771 57.9824V59.9824C107.855 59.9824 108.818 59.6119 109.608 58.8784L108.247 57.4128ZM106.771 57.9824H100.721V59.9824H106.771V57.9824ZM100.721 57.9824C100.073 57.9824 99.6005 57.7861 99.2258 57.4252L97.8385 58.8659C98.6225 59.6208 99.6089 59.9824 100.721 59.9824V57.9824ZM99.2525 57.4519C98.8917 57.0772 98.6954 56.6046 98.6954 55.957H96.6954C96.6954 57.0689 97.057 58.0553 97.8119 58.8392L99.2525 57.4519ZM98.6954 55.957V47.8465H96.6954V55.957H98.6954ZM97.6954 46.8465H74.8122V48.8465H97.6954V46.8465ZM73.8458 47.5896L71.6894 55.7001L73.6223 56.214L75.7786 48.1035L73.8458 47.5896ZM71.6843 55.7201C71.5262 56.3682 71.1772 56.906 70.5967 57.3538L71.8183 58.9373C72.7399 58.2265 73.3563 57.3052 73.6274 56.194L71.6843 55.7201ZM70.6112 57.3428C70.0113 57.7885 69.4227 57.9824 68.8259 57.9824V59.9824C69.9026 59.9824 70.9018 59.6184 71.8039 58.9483L70.6112 57.3428ZM68.8259 57.9824H62.4855V59.9824H68.8259V57.9824ZM62.4855 57.9824C61.8264 57.9824 61.5816 57.8015 61.4745 57.6629L59.8919 58.8857C60.5143 59.6912 61.4711 59.9824 62.4855 59.9824V57.9824ZM61.4874 57.6799C61.1713 57.2522 61.1361 57.0353 61.1361 56.9869H59.1361C59.1361 57.668 59.4656 58.3094 59.879 58.8687L61.4874 57.6799ZM61.1344 57.0456C61.1534 56.7223 61.1903 56.458 61.2392 56.2462L59.2904 55.7965C59.2106 56.1426 59.1617 56.522 59.1378 56.9282L61.1344 57.0456ZM77.1939 39.7383H97.6954V37.7383H77.1939V39.7383ZM98.6954 38.7383V21.938H96.6954V38.7383H98.6954ZM97.6954 20.938H88.5228V22.938H97.6954V20.938ZM88.5228 20.938C86.2576 20.938 84.2388 21.592 82.5088 22.9135L83.7228 24.5028C85.0826 23.4641 86.6684 22.938 88.5228 22.938V20.938ZM82.5104 22.9122C80.7992 24.2137 79.6511 25.9738 79.0611 28.1449L80.9911 28.6693C81.474 26.8924 82.3856 25.5199 83.7212 24.5041L82.5104 22.9122ZM79.0617 28.1427L76.2294 38.4739L78.1583 39.0027L80.9905 28.6715L79.0617 28.1427ZM131.167 48.7155V47.7155H130.167V48.7155H131.167ZM119.935 58.1134L119.228 58.8205L119.234 58.8269L119.241 58.8332L119.935 58.1134ZM131.167 39.6073H130.167V40.6073H131.167V39.6073ZM151.122 37.805L151.663 38.6459L151.67 38.6414L151.122 37.805ZM151.122 23.7725L150.574 24.609L150.58 24.6134L151.122 23.7725ZM131.167 21.938V20.938H130.167V21.938H131.167ZM120.034 55.957V15.8873H118.034V55.957H120.034ZM120.034 15.8873C120.034 15.3087 120.223 14.8389 120.623 14.4251L119.183 13.0368C118.423 13.8245 118.034 14.7924 118.034 15.8873H120.034ZM120.623 14.4251C121.013 14.0204 121.461 13.8298 122.027 13.8298V11.8298C120.919 11.8298 119.951 12.24 119.183 13.0368L120.623 14.4251ZM122.027 13.8298H146.584V11.8298H122.027V13.8298ZM146.584 13.8298C152.939 13.8298 157.519 15.2969 160.509 18.0546C163.484 20.7982 165.055 24.9783 165.055 30.7887H167.055C167.055 24.6266 165.381 19.8272 161.865 16.5844C158.365 13.3558 153.209 11.8298 146.584 11.8298V13.8298ZM165.055 30.7887C165.055 36.588 163.484 40.7598 160.51 43.4981C157.52 46.2509 152.94 47.7155 146.584 47.7155V49.7155C153.209 49.7155 158.364 48.1924 161.865 44.9695C165.381 41.7323 167.055 36.9407 167.055 30.7887H165.055ZM146.584 47.7155H131.167V49.7155H146.584V47.7155ZM130.167 48.7155V55.957H132.167V48.7155H130.167ZM130.167 55.957C130.167 56.5241 129.975 56.9898 129.559 57.4063L130.973 58.8205C131.758 58.0354 132.167 57.0636 132.167 55.957H130.167ZM129.559 57.4063C129.172 57.7936 128.72 57.9824 128.142 57.9824V59.9824C129.238 59.9824 130.202 59.5918 130.973 58.8205L129.559 57.4063ZM128.142 57.9824H122.091V59.9824H128.142V57.9824ZM122.091 57.9824C121.513 57.9824 121.043 57.7926 120.629 57.3935L119.241 58.8332C120.028 59.5928 120.996 59.9824 122.091 59.9824V57.9824ZM120.642 57.4063C120.226 56.9898 120.034 56.5241 120.034 55.957H118.034C118.034 57.0636 118.443 58.0354 119.228 58.8205L120.642 57.4063ZM131.167 40.6073H142.915V38.6073H131.167V40.6073ZM142.915 40.6073C146.603 40.6073 149.563 39.9975 151.663 38.6458L150.58 36.9641C148.947 38.0155 146.436 38.6073 142.915 38.6073V40.6073ZM151.67 38.6414C153.949 37.148 154.922 34.3867 154.922 30.7887H152.922C152.922 34.0997 152.028 36.0159 150.574 36.9685L151.67 38.6414ZM154.922 30.7887C154.922 27.1741 153.951 24.4047 151.663 22.9317L150.58 24.6134C152.025 25.5435 152.922 27.4515 152.922 30.7887H154.922ZM151.67 22.9361C149.568 21.5592 146.605 20.938 142.915 20.938V22.938C146.433 22.938 148.942 23.5398 150.574 24.609L151.67 22.9361ZM142.915 20.938H131.167V22.938H142.915V20.938ZM130.167 21.938V39.6073H132.167V21.938H130.167ZM214.139 21.1012L214.833 21.8215L214.839 21.815L214.846 21.8083L214.139 21.1012ZM197.596 21.938V20.938H196.596V21.938H197.596ZM196.695 58.1456L197.389 58.8659L197.389 58.8654L196.695 58.1456ZM186.331 58.1456L185.624 58.8527L185.637 58.8658L185.651 58.8784L186.331 58.1456ZM185.463 21.938H186.463V20.938H185.463V21.938ZM168.92 21.1012L168.213 21.8083L168.219 21.815L168.226 21.8215L168.92 21.1012ZM169.051 18.9127V15.8873H167.051V18.9127H169.051ZM169.051 15.8873C169.051 15.2512 169.25 14.7829 169.627 14.4059L168.213 12.9917C167.431 13.7733 167.051 14.764 167.051 15.8873H169.051ZM169.627 14.4059C170.004 14.0289 170.472 13.8298 171.108 13.8298V11.8298C169.985 11.8298 168.994 12.21 168.213 12.9917L169.627 14.4059ZM171.108 13.8298H211.95V11.8298H171.108V13.8298ZM211.95 13.8298C212.586 13.8298 213.055 14.0289 213.432 14.4059L214.846 12.9917C214.064 12.21 213.074 11.8298 211.95 11.8298V13.8298ZM213.432 14.4059C213.809 14.7829 214.008 15.2512 214.008 15.8873H216.008C216.008 14.764 215.628 13.7733 214.846 12.9917L213.432 14.4059ZM214.008 15.8873V18.9127H216.008V15.8873H214.008ZM214.008 18.9127C214.008 19.5488 213.809 20.0171 213.432 20.3941L214.846 21.8083C215.628 21.0267 216.008 20.036 216.008 18.9127H214.008ZM213.445 20.3809C213.071 20.7417 212.598 20.938 211.95 20.938V22.938C213.062 22.938 214.049 22.5764 214.833 21.8215L213.445 20.3809ZM211.95 20.938H197.596V22.938H211.95V20.938ZM196.596 21.938V56.0214H198.596V21.938H196.596ZM196.596 56.0214C196.596 56.5875 196.406 57.0354 196.001 57.4257L197.389 58.8654C198.186 58.0971 198.596 57.1289 198.596 56.0214H196.596ZM196.001 57.4252C195.616 57.7958 195.16 57.9824 194.571 57.9824V59.9824C195.655 59.9824 196.615 59.6111 197.389 58.8659L196.001 57.4252ZM194.571 57.9824H188.488V59.9824H194.571V57.9824ZM188.488 57.9824C187.898 57.9824 187.424 57.795 187.012 57.4128L185.651 58.8784C186.441 59.6119 187.404 59.9824 188.488 59.9824V57.9824ZM187.039 57.4385C186.651 57.0511 186.463 56.5993 186.463 56.0214H184.463C184.463 57.117 184.853 58.0814 185.624 58.8527L187.039 57.4385ZM186.463 56.0214V21.938H184.463V56.0214H186.463ZM185.463 20.938H171.108V22.938H185.463V20.938ZM171.108 20.938C170.461 20.938 169.988 20.7417 169.613 20.3809L168.226 21.8215C169.01 22.5764 169.996 22.938 171.108 22.938V20.938ZM169.627 20.3941C169.25 20.0171 169.051 19.5488 169.051 18.9127H167.051C167.051 20.036 167.431 21.0267 168.213 21.8083L169.627 20.3941ZM231.519 13.731L230.799 14.4251L230.805 14.4316L230.811 14.4381L231.519 13.731ZM232.42 30.3703H231.42V31.3703H232.42V30.3703ZM254.563 30.3703V31.3703H255.563V30.3703H254.563ZM265.795 13.731L265.075 14.4251L265.081 14.4316L265.088 14.4381L265.795 13.731ZM265.763 58.1134L266.457 58.8332L266.457 58.8328L265.763 58.1134ZM255.464 58.1456L254.77 58.8654L254.776 58.8719L254.783 58.8784L255.464 58.1456ZM254.563 39.4786H255.563V38.4786H254.563V39.4786ZM232.42 39.4786V38.4786H231.42V39.4786H232.42ZM231.519 58.1456L232.212 58.8659L232.213 58.8654L231.519 58.1456ZM221.219 58.1134L220.525 58.8328L220.531 58.8391L220.538 58.8453L221.219 58.1134ZM221.286 55.957V15.8873H219.286V55.957H221.286ZM221.286 15.8873C221.286 15.3203 221.478 14.8545 221.894 14.4381L220.48 13.0239C219.695 13.8089 219.286 14.7808 219.286 15.8873H221.286ZM221.894 14.4381C222.3 14.0321 222.783 13.8298 223.408 13.8298V11.8298C222.274 11.8298 221.276 12.2282 220.48 13.0239L221.894 14.4381ZM223.408 13.8298H229.394V11.8298H223.408V13.8298ZM229.394 13.8298C229.96 13.8298 230.408 14.0204 230.799 14.4251L232.238 13.0368C231.47 12.24 230.502 11.8298 229.394 11.8298V13.8298ZM230.811 14.4381C231.228 14.8545 231.42 15.3203 231.42 15.8873H233.42C233.42 14.7808 233.011 13.8089 232.226 13.0239L230.811 14.4381ZM231.42 15.8873V30.3703H233.42V15.8873H231.42ZM232.42 31.3703H254.563V29.3703H232.42V31.3703ZM255.563 30.3703V15.8873H253.563V30.3703H255.563ZM255.563 15.8873C255.563 15.3203 255.754 14.8545 256.171 14.4381L254.757 13.0239C253.972 13.8089 253.563 14.7808 253.563 15.8873H255.563ZM256.171 14.4381C256.587 14.0216 257.053 13.8298 257.62 13.8298V11.8298C256.514 11.8298 255.542 12.2388 254.757 13.0239L256.171 14.4381ZM257.62 13.8298H263.606V11.8298H257.62V13.8298ZM263.606 13.8298C264.231 13.8298 264.695 14.0313 265.075 14.4251L266.515 13.0368C265.736 12.2291 264.741 11.8298 263.606 11.8298V13.8298ZM265.088 14.4381C265.504 14.8545 265.696 15.3203 265.696 15.8873H267.696C267.696 14.7808 267.287 13.8089 266.502 13.0239L265.088 14.4381ZM265.696 15.8873V55.957H267.696V15.8873H265.696ZM265.696 55.957C265.696 56.5124 265.503 56.9745 265.068 57.394L266.457 58.8328C267.267 58.0507 267.696 57.0752 267.696 55.957H265.696ZM265.069 57.3935C264.655 57.7926 264.185 57.9824 263.606 57.9824V59.9824C264.701 59.9824 265.669 59.5928 266.457 58.8332L265.069 57.3935ZM263.606 57.9824H257.62V59.9824H263.606V57.9824ZM257.62 57.9824C257.03 57.9824 256.556 57.795 256.144 57.4128L254.783 58.8784C255.573 59.6119 256.537 59.9824 257.62 59.9824V57.9824ZM256.158 57.4257C255.753 57.0354 255.563 56.5875 255.563 56.0214H253.563C253.563 57.1289 253.973 58.0971 254.77 58.8654L256.158 57.4257ZM255.563 56.0214V39.4786H253.563V56.0214H255.563ZM254.563 38.4786H232.42V40.4786H254.563V38.4786ZM231.42 39.4786V56.0214H233.42V39.4786H231.42ZM231.42 56.0214C231.42 56.5875 231.229 57.0354 230.824 57.4257L232.213 58.8654C233.009 58.0971 233.42 57.1289 233.42 56.0214H231.42ZM230.825 57.4252C230.44 57.7958 229.984 57.9824 229.394 57.9824V59.9824C230.478 59.9824 231.438 59.6111 232.212 58.8659L230.825 57.4252ZM229.394 57.9824H223.408V59.9824H229.394V57.9824ZM223.408 57.9824C222.829 57.9824 222.341 57.7916 221.901 57.3815L220.538 58.8453C221.342 59.5938 222.314 59.9824 223.408 59.9824V57.9824ZM221.914 57.394C221.48 56.9745 221.286 56.5124 221.286 55.957H219.286C219.286 57.0752 219.715 58.0507 220.525 58.8328L221.914 57.394ZM272.168 56.0214L271.201 55.7664L271.197 55.7814L271.193 55.7965L272.168 56.0214ZM280.246 25.3817L281.213 25.6367L281.213 25.6354L280.246 25.3817ZM301.616 12.8298V11.8298L301.615 11.8298L301.616 12.8298ZM320.927 13.731L320.168 14.3818L320.174 14.3894L320.181 14.397L320.927 13.731ZM320.83 58.1456L321.511 58.8784L321.518 58.8719L321.525 58.8654L320.83 58.1456ZM310.435 58.1456L309.715 58.8392L309.728 58.8528L309.741 58.8659L310.435 58.1456ZM309.598 47.8465H310.598V46.8465H309.598V47.8465ZM286.715 47.8465V46.8465H285.946L285.749 47.5896L286.715 47.8465ZM284.559 55.957L283.592 55.7001L283.589 55.71L283.587 55.7201L284.559 55.957ZM283.11 58.1456L283.707 58.9483L283.714 58.9429L283.721 58.9373L283.11 58.1456ZM272.586 58.2743L271.782 58.8687L271.788 58.8773L271.795 58.8857L272.586 58.2743ZM272.039 56.9869L271.041 56.9282L271.039 56.9575V56.9869H272.039ZM289.097 38.7383L288.132 38.4739L287.786 39.7383H289.097V38.7383ZM309.598 38.7383V39.7383H310.598V38.7383H309.598ZM309.598 21.938H310.598V20.938H309.598V21.938ZM295.019 23.7082L295.624 24.5041L295.626 24.5028L295.019 23.7082ZM291.929 28.4071L292.893 28.6715L292.894 28.6693L291.929 28.4071ZM273.134 56.2763L281.213 25.6367L279.279 25.1268L271.201 55.7664L273.134 56.2763ZM281.213 25.6354C282.244 21.7053 284.414 18.7977 287.736 16.8461C291.09 14.8761 295.69 13.8403 301.618 13.8298L301.615 11.8298C295.484 11.8407 290.493 12.9077 286.723 15.1216C282.923 17.354 280.437 20.7117 279.279 25.1281L281.213 25.6354ZM301.616 13.8298H318.964V11.8298H301.616V13.8298ZM318.964 13.8298C319.467 13.8298 319.844 14.0035 320.168 14.3818L321.686 13.0802C320.981 12.2569 320.048 11.8298 318.964 11.8298V13.8298ZM320.181 14.397C320.557 14.8174 320.732 15.2786 320.732 15.823H322.732C322.732 14.7795 322.37 13.846 321.673 13.0649L320.181 14.397ZM320.732 15.823V56.0214H322.732V15.823H320.732ZM320.732 56.0214C320.732 56.5875 320.541 57.0354 320.136 57.4257L321.525 58.8654C322.321 58.0971 322.732 57.1289 322.732 56.0214H320.732ZM320.15 57.4128C319.738 57.795 319.264 57.9824 318.674 57.9824V59.9824C319.758 59.9824 320.721 59.6119 321.511 58.8784L320.15 57.4128ZM318.674 57.9824H312.623V59.9824H318.674V57.9824ZM312.623 57.9824C311.976 57.9824 311.503 57.7861 311.129 57.4252L309.741 58.8659C310.525 59.6208 311.512 59.9824 312.623 59.9824V57.9824ZM311.155 57.4519C310.794 57.0772 310.598 56.6046 310.598 55.957H308.598C308.598 57.0689 308.96 58.0553 309.715 58.8392L311.155 57.4519ZM310.598 55.957V47.8465H308.598V55.957H310.598ZM309.598 46.8465H286.715V48.8465H309.598V46.8465ZM285.749 47.5896L283.592 55.7001L285.525 56.214L287.681 48.1035L285.749 47.5896ZM283.587 55.7201C283.429 56.3682 283.08 56.906 282.499 57.3538L283.721 58.9373C284.643 58.2265 285.259 57.3052 285.53 56.194L283.587 55.7201ZM282.514 57.3428C281.914 57.7885 281.325 57.9824 280.729 57.9824V59.9824C281.805 59.9824 282.805 59.6184 283.707 58.9483L282.514 57.3428ZM280.729 57.9824H274.388V59.9824H280.729V57.9824ZM274.388 57.9824C273.729 57.9824 273.484 57.8015 273.377 57.6629L271.795 58.8857C272.417 59.6912 273.374 59.9824 274.388 59.9824V57.9824ZM273.39 57.6799C273.074 57.2522 273.039 57.0353 273.039 56.9869H271.039C271.039 57.668 271.368 58.3094 271.782 58.8687L273.39 57.6799ZM273.037 57.0456C273.056 56.7223 273.093 56.458 273.142 56.2462L271.193 55.7965C271.113 56.1426 271.064 56.522 271.041 56.9282L273.037 57.0456ZM289.097 39.7383H309.598V37.7383H289.097V39.7383ZM310.598 38.7383V21.938H308.598V38.7383H310.598ZM309.598 20.938H300.426V22.938H309.598V20.938ZM300.426 20.938C298.16 20.938 296.141 21.592 294.411 22.9135L295.626 24.5028C296.985 23.4641 298.571 22.938 300.426 22.938V20.938ZM294.413 22.9122C292.702 24.2137 291.554 25.9738 290.964 28.1449L292.894 28.6693C293.377 26.8924 294.288 25.5199 295.624 24.5041L294.413 22.9122ZM290.964 28.1427L288.132 38.4739L290.061 39.0027L292.893 28.6715L290.964 28.1427Z" fill="white"/>
</g>
</svg>
