<svg width="150" height="150" viewBox="0 0 150 150" fill="none" xmlns="http://www.w3.org/2000/svg">
<path d="M75 0L75.0145 74.9262L103.701 5.70901L75.0417 74.9377L128.033 21.967L75.0623 74.9583L144.291 46.2986L75.0738 74.9855L150 75L75.0738 75.0145L144.291 103.701L75.0623 75.0417L128.033 128.033L75.0417 75.0623L103.701 144.291L75.0145 75.0738L75 150L74.9855 75.0738L46.2986 144.291L74.9583 75.0623L21.967 128.033L74.9377 75.0417L5.70901 103.701L74.9262 75.0145L0 75L74.9262 74.9855L5.70901 46.2986L74.9377 74.9583L21.967 21.967L74.9583 74.9377L46.2986 5.70901L74.9855 74.9262L75 0Z" stroke="white"/>
</svg>
