<svg width="39" height="38" viewBox="0 0 39 38" fill="none" xmlns="http://www.w3.org/2000/svg">
<path fill-rule="evenodd" clip-rule="evenodd" d="M1.37143 10.5051H9.02399L19.6114 0L21.9428 0.959999V36.6171L19.6114 37.5223L9.02399 26.9623H1.37143L0 25.5908V11.8766L1.37143 10.5051ZM10.56 24.6857L19.2 33.2983V4.27885L10.56 12.8366L9.59999 13.248H2.74286V24.2194H9.59999L10.56 24.6857ZM38.4 18.7337C38.4071 23.1612 36.8773 27.4539 34.0717 30.8791L32.1188 28.9316C34.416 26.0294 35.6631 22.435 35.6571 18.7337C35.6571 14.8937 34.3405 11.3582 32.1353 8.55771L34.0882 6.61028C36.8829 10.0319 38.4065 14.3158 38.4 18.7337ZM32.9143 18.7337C32.9194 21.7062 31.9545 24.5991 30.1659 26.9732L28.202 25.0094C29.4877 23.1695 30.1754 20.9783 30.1714 18.7337C30.1753 16.4981 29.4926 14.3151 28.2158 12.48L30.1796 10.5161C31.8967 12.8064 32.9143 15.6507 32.9143 18.7337ZM27.4286 18.7337C27.4286 20.3081 26.9897 21.7783 26.2217 23.029L24.1947 21.0048C24.5188 20.2963 24.6877 19.5266 24.6901 18.7475C24.6924 17.9684 24.5282 17.1978 24.2084 16.4873L26.2354 14.4603C26.9924 15.7056 27.4286 17.1703 27.4286 18.7337Z" fill="white"/>
</svg>
