<svg width="1512" height="84" viewBox="0 0 1512 84" fill="none" xmlns="http://www.w3.org/2000/svg">
<path opacity="0.2" d="M21 -1H0V20M21 -1V20M21 -1H42M21 20H0M21 20V41M21 20H42M0 20V41M546 -1H567M546 -1V20M546 -1H525M567 -1V20M567 -1H588M567 20H546M567 20V41M567 20H588M546 20V41M546 20H525M1092 -1H1113M1092 -1V20M1092 -1H1071M1113 -1V20M1113 -1H1134M1113 20H1092M1113 20V41M1113 20H1134M1092 20V41M1092 20H1071M21 41H0M21 41V62M21 41H42M0 41V62M567 41H546M567 41V62M567 41H588M546 41V62M546 41H525M1113 41H1092M1113 41V62M1113 41H1134M1092 41V62M1092 41H1071M21 62H0M21 62V83M21 62H42M0 62V83H21M567 62H546M567 62V83M567 62H588M546 62V83M546 62H525M1113 62H1092M1113 62V83M1113 62H1134M1092 62V83M1092 62H1071M21 83H42M567 83H546M567 83H588M546 83H525M1113 83H1092M1113 83H1134M1092 83H1071M42 -1V20M42 -1H63M42 20V41M42 20H63M588 -1V20M588 -1H609M588 20V41M588 20H609M1134 -1V20M1134 -1H1155M1134 20V41M1134 20H1155M42 41V62M42 41H63M588 41V62M588 41H609M1134 41V62M1134 41H1155M42 62V83M42 62H63M588 62V83M588 62H609M1134 62V83M1134 62H1155M42 83H63M588 83H609M1134 83H1155M63 -1V20M63 -1H84M63 20V41M63 20H84M609 -1V20M609 -1H630M609 20V41M609 20H630M1155 -1V20M1155 -1H1176M1155 20V41M1155 20H1176M63 41V62M63 41H84M609 41V62M609 41H630M1155 41V62M1155 41H1176M63 62V83M63 62H84M609 62V83M609 62H630M1155 62V83M1155 62H1176M63 83H84M609 83H630M1155 83H1176M84 -1V20M84 -1H105M84 20V41M84 20H105M630 -1V20M630 -1H651M630 20V41M630 20H651M1176 -1V20M1176 -1H1197M1176 20V41M1176 20H1197M84 41V62M84 41H105M630 41V62M630 41H651M1176 41V62M1176 41H1197M84 62V83M84 62H105M630 62V83M630 62H651M1176 62V83M1176 62H1197M84 83H105M630 83H651M1176 83H1197M105 -1V20M105 -1H126M105 20V41M105 20H126M651 -1V20M651 -1H672M651 20V41M651 20H672M1197 -1V20M1197 -1H1218M1197 20V41M1197 20H1218M105 41V62M105 41H126M651 41V62M651 41H672M1197 41V62M1197 41H1218M105 62V83M105 62H126M651 62V83M651 62H672M1197 62V83M1197 62H1218M105 83H126M651 83H672M1197 83H1218M126 -1V20M126 -1H147M126 20V41M126 20H147M672 -1V20M672 -1H693M672 20V41M672 20H693M1218 -1V20M1218 -1H1239M1218 20V41M1218 20H1239M126 41V62M126 41H147M672 41V62M672 41H693M1218 41V62M1218 41H1239M126 62V83M126 62H147M672 62V83M672 62H693M1218 62V83M1218 62H1239M126 83H147M672 83H693M1218 83H1239M147 -1V20M147 -1H168M147 20V41M147 20H168M693 -1V20M693 -1H714M693 20V41M693 20H714M1239 -1V20M1239 -1H1260M1239 20V41M1239 20H1260M147 41V62M147 41H168M693 41V62M693 41H714M1239 41V62M1239 41H1260M147 62V83M147 62H168M693 62V83M693 62H714M1239 62V83M1239 62H1260M147 83H168M693 83H714M1239 83H1260M168 -1V20M168 -1H189M168 20V41M168 20H189M714 -1V20M714 -1H735M714 20V41M714 20H735M1260 -1V20M1260 -1H1281M1260 20V41M1260 20H1281M168 41V62M168 41H189M714 41V62M714 41H735M1260 41V62M1260 41H1281M168 62V83M168 62H189M714 62V83M714 62H735M1260 62V83M1260 62H1281M168 83H189M714 83H735M1260 83H1281M189 -1V20M189 -1H210M189 20V41M189 20H210M735 -1V20M735 -1H756M735 20V41M735 20H756M1281 -1V20M1281 -1H1302M1281 20V41M1281 20H1302M189 41V62M189 41H210M735 41V62M735 41H756M1281 41V62M1281 41H1302M189 62V83M189 62H210M735 62V83M735 62H756M1281 62V83M1281 62H1302M189 83H210M735 83H756M1281 83H1302M210 -1V20M210 -1H231M210 20V41M210 20H231M756 -1V20M756 -1H777M756 20V41M756 20H777M1302 -1V20M1302 -1H1323M1302 20V41M1302 20H1323M210 41V62M210 41H231M756 41V62M756 41H777M1302 41V62M1302 41H1323M210 62V83M210 62H231M756 62V83M756 62H777M1302 62V83M1302 62H1323M210 83H231M756 83H777M1302 83H1323M231 -1V20M231 -1H252M231 20V41M231 20H252M777 -1V20M777 -1H798M777 20V41M777 20H798M1323 -1V20M1323 -1H1344M1323 20V41M1323 20H1344M231 41V62M231 41H252M777 41V62M777 41H798M1323 41V62M1323 41H1344M231 62V83M231 62H252M777 62V83M777 62H798M1323 62V83M1323 62H1344M231 83H252M777 83H798M1323 83H1344M252 -1V20M252 -1H273M252 20V41M252 20H273M798 -1V20M798 -1H819M798 20V41M798 20H819M1344 -1V20M1344 -1H1365M1344 20V41M1344 20H1365M252 41V62M252 41H273M798 41V62M798 41H819M1344 41V62M1344 41H1365M252 62V83M252 62H273M798 62V83M798 62H819M1344 62V83M1344 62H1365M252 83H273M798 83H819M1344 83H1365M273 -1V20M273 -1H294M273 20V41M273 20H294M819 -1V20M819 -1H840M819 20V41M819 20H840M1365 -1V20M1365 -1H1386M1365 20V41M1365 20H1386M273 41V62M273 41H294M819 41V62M819 41H840M1365 41V62M1365 41H1386M273 62V83M273 62H294M819 62V83M819 62H840M1365 62V83M1365 62H1386M273 83H294M819 83H840M1365 83H1386M294 -1V20M294 -1H315M294 20V41M294 20H315M840 -1V20M840 -1H861M840 20V41M840 20H861M1386 -1V20M1386 -1H1407M1386 20V41M1386 20H1407M294 41V62M294 41H315M840 41V62M840 41H861M1386 41V62M1386 41H1407M294 62V83M294 62H315M840 62V83M840 62H861M1386 62V83M1386 62H1407M294 83H315M840 83H861M1386 83H1407M315 -1V20M315 -1H336M315 20V41M315 20H336M861 -1V20M861 -1H882M861 20V41M861 20H882M1407 -1V20M1407 -1H1428M1407 20V41M1407 20H1428M315 41V62M315 41H336M861 41V62M861 41H882M1407 41V62M1407 41H1428M315 62V83M315 62H336M861 62V83M861 62H882M1407 62V83M1407 62H1428M315 83H336M861 83H882M1407 83H1428M336 -1V20M336 -1H357M336 20V41M336 20H357M882 -1V20M882 -1H903M882 20V41M882 20H903M1428 -1V20M1428 -1H1449M1428 20V41M1428 20H1449M336 41V62M336 41H357M882 41V62M882 41H903M1428 41V62M1428 41H1449M336 62V83M336 62H357M882 62V83M882 62H903M1428 62V83M1428 62H1449M336 83H357M882 83H903M1428 83H1449M357 -1V20M357 -1H378M357 20V41M357 20H378M903 -1V20M903 -1H924M903 20V41M903 20H924M1449 -1V20M1449 -1H1470M1449 20V41M1449 20H1470M357 41V62M357 41H378M903 41V62M903 41H924M1449 41V62M1449 41H1470M357 62V83M357 62H378M903 62V83M903 62H924M1449 62V83M1449 62H1470M357 83H378M903 83H924M1449 83H1470M378 -1V20M378 -1H399M378 20V41M378 20H399M924 -1V20M924 -1H945M924 20V41M924 20H945M1470 -1V20M1470 -1H1491M1470 20V41M1470 20H1491M378 41V62M378 41H399M924 41V62M924 41H945M1470 41V62M1470 41H1491M378 62V83M378 62H399M924 62V83M924 62H945M1470 62V83M1470 62H1491M378 83H399M924 83H945M1470 83H1491M399 -1V20M399 -1H420M399 20V41M399 20H420M945 -1V20M945 -1H966M945 20V41M945 20H966M1491 -1V20M1491 -1H1512M1491 20V41M1491 20H1512M399 41V62M399 41H420M945 41V62M945 41H966M1491 41V62M1491 41H1512M399 62V83M399 62H420M945 62V83M945 62H966M1491 62V83M1491 62H1512M399 83H420M945 83H966M1491 83H1512M420 -1V20M420 -1H441M420 20V41M420 20H441M966 -1V20M966 -1H987M966 20V41M966 20H987M1512 -1V20M1512 -1H1533M1512 20V41M1512 20H1533M420 41V62M420 41H441M966 41V62M966 41H987M1512 41V62M1512 41H1533M420 62V83M420 62H441M966 62V83M966 62H987M1512 62V83M1512 62H1533M420 83H441M966 83H987M1512 83H1533M441 -1V20M441 -1H462M441 20V41M441 20H462M987 -1V20M987 -1H1008M987 20V41M987 20H1008M1533 -1V20M1533 -1H1554M1533 20V41M1533 20H1554M441 41V62M441 41H462M987 41V62M987 41H1008M1533 41V62M1533 41H1554M441 62V83M441 62H462M987 62V83M987 62H1008M1533 62V83M1533 62H1554M441 83H462M987 83H1008M1533 83H1554M462 -1V20M462 -1H483M462 20V41M462 20H483M1008 -1V20M1008 -1H1029M1008 20V41M1008 20H1029M1554 -1V20M1554 -1H1575M1554 20V41M1554 20H1575M462 41V62M462 41H483M1008 41V62M1008 41H1029M1554 41V62M1554 41H1575M462 62V83M462 62H483M1008 62V83M1008 62H1029M1554 62V83M1554 62H1575M462 83H483M1008 83H1029M1554 83H1575M483 -1V20M483 -1H504M483 20V41M483 20H504M1029 -1V20M1029 -1H1050M1029 20V41M1029 20H1050M1575 -1V20M1575 -1H1596M1575 20V41M1575 20H1596M483 41V62M483 41H504M1029 41V62M1029 41H1050M1575 41V62M1575 41H1596M483 62V83M483 62H504M1029 62V83M1029 62H1050M1575 62V83M1575 62H1596M483 83H504M1029 83H1050M1575 83H1596M504 -1V20M504 -1H525M504 20V41M504 20H525M1050 -1V20M1050 -1H1071M1050 20V41M1050 20H1071M1596 -1V20M1596 -1H1617M1596 20V41M1596 20H1617M504 41V62M504 41H525M1050 41V62M1050 41H1071M1596 41V62M1596 41H1617M504 62V83M504 62H525M1050 62V83M1050 62H1071M1596 62V83M1596 62H1617M504 83H525M1050 83H1071M1596 83H1617M525 -1V20M525 20V41M1071 -1V20M1071 20V41M1617 -1V20M1617 -1H1638V20M1617 20V41M1617 20H1638M525 41V62M1071 41V62M1617 41V62M1617 41H1638M525 62V83M1071 62V83M1617 62V83M1617 62H1638M1617 83H1638V62M1638 20V41M1638 41V62" stroke="white" stroke-width="0.5"/>
</svg>
